<svg xmlns="http://www.w3.org/2000/svg" width="122px" height="31.485px" viewBox=" 0 0 122 31.485"><defs><clipPath id="A"><path fill="#ff7875" d="M0-21.225h122V-52.7H0z" transform="translate(0 52.71)"/></clipPath></defs><g fill="#ff7875" clip-path="url(#A)"><path d="M4.95 1.595a2.8 2.8 0 0 0-3.134.45c-.247.25-.465.527-.65.826A8.655 8.655 0 0 0 .095 8.545a4.66 4.66 0 0 0 1.467 2.871 15.5 15.5 0 0 0 1.477 1.14c.742.52 1.253 1 1.327 1.7l1.4 15.593a1.76 1.76 0 0 0 .731 1.179c.42.322.945.482 1.474.45.04 0 .082-.008.123-.015a2.17 2.17 0 0 0 1.362-.883 1.77 1.77 0 0 0 .358-1.337l-1.04-4.6-2.46-10.8c-.042-.644.186-1.277.63-1.745l.176-.24.768-1.075a4.38 4.38 0 0 0 .792-2.727A8.93 8.93 0 0 0 6.552 2.91 6.23 6.23 0 0 0 4.95 1.595m19.554 18.57a24.74 24.74 0 0 0-3.389-.573l-4.473-.6c-.112-.02-.285.04-.316-.14-.022-.124.085-.195.168-.272 3.65-2.192 7.566-5.72 7.464-10.376C22.846.274 8.746-1.74 8.106 1.428 7.916 2.644 10.42 2.48 11.33 2.5a10.24 10.24 0 0 1 7.44 2.91c3.835 4.173-1 10.077-4.763 11.762-1.1.494-2.36.772-3.5 1.2a.76.76 0 0 0-.575.773 1.87 1.87 0 0 0 1.358 1.839 19.99 19.99 0 0 0 5.332.843 34.64 34.64 0 0 0 6.626-.343 5.5 5.5 0 0 0 1.306-.349c.245-.1.5-.238.5-.52 0-.3-.3-.377-.554-.446m67.588-6.612l-1.5 1.837-2.417 2.55a3.77 3.77 0 0 1-2.1 1.025 2.16 2.16 0 0 1-2.37-1.225c-.208-.42-.363-.866-.548-1.3l-1.327 1.014a10.1 10.1 0 0 1-2.735 1.468c-2.324.724-4.814-.46-5.718-2.72-1.194-3.4 0-7.7 3.3-9.47a4.73 4.73 0 0 1 3.46-.474 1.76 1.76 0 0 1 1.4 2.223 6.66 6.66 0 0 1-1.866 3.421 22.19 22.19 0 0 1-3.412 2.622c-.4.237-.467.452-.152.818.372.456.956.684 1.538.6a6.7 6.7 0 0 0 2.568-1.021 46.31 46.31 0 0 0 4.713-3.423 13.69 13.69 0 0 0 1.046-1.214 12.59 12.59 0 0 1 3.282-2.5c.652-.33 1.383-.47 2.1-.4a4.98 4.98 0 0 1 1.28.527c.12-.352.276-.762.395-1.182L94.365 2c.113-.328.27-.64.467-.926a.78.78 0 0 1 .98-.377c.5.087.95.403 1.198.858a1.2 1.2 0 0 1 .12.726l-1.156 5.756a52.53 52.53 0 0 0-.7 5.826 11.43 11.43 0 0 0 .09 1.823c.076.665.362.787.953.448a7.445 7.445 0 0 0 2.042-2.034c.257-.328.47-.7.73-1.016a4.43 4.43 0 0 1 .438-.36.6.6 0 0 0 .154-.27l.725-2.63a2.34 2.34 0 0 1 .3-.587.86.86 0 0 1 .524-.458c.23-.072.482-.044.692.078a2.68 2.68 0 0 1 1.269.978c.232.325.292.742.162 1.12a29.62 29.62 0 0 0-.954 4.278 6.06 6.06 0 0 0 .083 1.4c.072.43.275.5.683.323a5.64 5.64 0 0 0 2.1-1.853c.67-.84 1.224-1.768 1.863-2.635a13.16 13.16 0 0 1 4.8-4.1c.678-.386 1.457-.557 2.234-.5.805.073 1.54.487 2.02 1.138a1.89 1.89 0 0 1-.969 2.709 2.19 2.19 0 0 1-1.39.16c-.385-.1-.5-.262-.4-.63.13-.5-.032-.66-.6-.534a3.72 3.72 0 0 0-1.762 1.124 13.68 13.68 0 0 0-2.938 4.108 4.38 4.38 0 0 0-.272.89c-.1.5.158.72.64.516a3.18 3.18 0 0 0 .917-.566l3.18-3c.383-.357.8-.682 1.18-1.042a1.52 1.52 0 0 1 2.35.514c.275.575.4 1.214.332 1.85v1.8c.004.092.017.183.04.272.114.527.34.677.812.407a5.94 5.94 0 0 0 1.358-1.021c.606-.638 1.137-1.346 1.683-2.037.42-.532.554-.618.925-.478.473.182.77.653.73 1.158a10.04 10.04 0 0 1-1.048 3.347 4.92 4.92 0 0 1-2 2.295 3.247 3.247 0 0 1-3.685-.5 7.76 7.76 0 0 1-1.971-2.382 2.33 2.33 0 0 0-.179-.23c-.43.4-.82.82-1.263 1.174-.637.518-1.378.893-2.172 1.1a3.57 3.57 0 0 1-3.59-1.285l-.146-.2-.34.4a2.95 2.95 0 0 1-3.964.695A4.17 4.17 0 0 1 99.71 17c-.3.45-.564.907-.9 1.312a3.06 3.06 0 0 1-2.236 1.285 4.03 4.03 0 0 1-2.367-.755 4.57 4.57 0 0 1-1.964-3.328 15.45 15.45 0 0 1-.095-1.546c-.007-.1-.036-.22-.075-.435m-.262-4.3a2.51 2.51 0 0 0-1.578.438 11.58 11.58 0 0 0-3.8 4.025 4.34 4.34 0 0 0-.46 1.289c-.094.452.038.527.47.33.757-.372 1.44-.88 2.012-1.5a18.523 18.523 0 0 0 2.94-3.7c.152-.265.267-.55.425-.88m-15.744 2.6a2.12 2.12 0 0 0 .205-.08 2.79 2.79 0 0 0 .24-.146 21.18 21.18 0 0 0 3.1-2.773 4.27 4.27 0 0 0 .672-1.047 1.75 1.75 0 0 0 .009-.692c-.227.027-.456.045-.68.085a.705.705 0 0 0-.253.125 8 8 0 0 0-3.14 3.86 5.78 5.78 0 0 0-.157.668m-16 2.9l-1.558 1.7a12.83 12.83 0 0 1-3.639 2.51 4.81 4.81 0 0 1-5.244-1.1 7.794 7.794 0 0 1-.85-1.42 3.14 3.14 0 0 1-.147-.334l-1.554 1.257a15.01 15.01 0 0 1-3.638 1.913 5.943 5.943 0 0 1-5.906-1.268c-.557-.53-.968-1.194-1.2-1.93l-.072-.195-2.313 2.212a8.08 8.08 0 0 1-3.026 1.785c-2.193.642-4.523-.432-5.46-2.516a8.45 8.45 0 0 1 .536-7.447 6.32 6.32 0 0 1 2.53-2.437 4.71 4.71 0 0 1 3.1-.437 1.62 1.62 0 0 1 1.392 1.537 5.18 5.18 0 0 1-1.124 3.487 14.36 14.36 0 0 1-3.615 3.442c-.46.32-.48.624-.026.983a1.98 1.98 0 0 0 2.1.186 9.73 9.73 0 0 0 2.655-1.634l3.554-3.082a1.62 1.62 0 0 0 .323-.5 10.91 10.91 0 0 1 4.915-4.581 4.98 4.98 0 0 1 2.549-.435 1.66 1.66 0 0 1 1.519 1.88c-.115 1.396-1.253 2.488-2.653 2.544a.53.53 0 0 1-.536-.656 6.18 6.18 0 0 1 .216-.834c.08-.23.146-.463.2-.7.047-.292-.07-.37-.37-.3a4.275 4.275 0 0 0-2.66 2.112 6.156 6.156 0 0 0-.66 4.25c.175 1.02 1.092 1.746 2.126 1.68a8.31 8.31 0 0 0 4.15-1.307c.8-.513 1.555-1.122 2.317-1.7a.62.62 0 0 0 .189-.408 7.926 7.926 0 0 1 3.525-6.048 4.587 4.587 0 0 1 3.467-.622 1.74 1.74 0 0 1 1.474 2.106 7.777 7.777 0 0 1-1.72 3.53 15.575 15.575 0 0 1-3.363 2.8c-.355.224-.4.388-.14.72.38.5 1 .738 1.624.615a6.71 6.71 0 0 0 2.552-1.136 52.62 52.62 0 0 0 4.531-3.547c.07-.073.12-.164.14-.263a2.04 2.04 0 0 1 1.232-1.54 3.1 3.1 0 0 0 1.244-1.205 11.54 11.54 0 0 1 1-1.3 3.29 3.29 0 0 1 2.057-.673 5.615 5.615 0 0 1 4.643 1.935 6.23 6.23 0 0 1 1.575 2.438 4.14 4.14 0 0 1-.278 3.122 7 7 0 0 1-2.689 3.12c-1.692.683-3.23.782-4.538-.744-.063-.07-.118-.144-.164-.224-.37-.694-.418-1.253.725-1.3a4.484 4.484 0 0 0 3.537-1.868c.714-1.046.54-2.46-.4-3.3a5.19 5.19 0 0 0-3-1.312 3.49 3.49 0 0 0-.884.05 1.19 1.19 0 0 0-.837 1.2l-.147 2.447a2.28 2.28 0 0 1-.1.542 5.45 5.45 0 0 0-.2 2.184l.365 4.473.136 4.347a4.84 4.84 0 0 1-.252 1.348.82.82 0 0 1-.42.572c-.22.118-.48.132-.708.037-1.003-.26-1.743-1.1-1.865-2.138L60.182 21l-.054-5.08c0-.4-.04-.793-.06-1.186m-32.2-1.827a2.08 2.08 0 0 0 .238-.125 15.11 15.11 0 0 0 3.41-3.64 2.83 2.83 0 0 0 .3-1.043c.04-.228-.123-.344-.365-.254a2.23 2.23 0 0 0-.578.263 7.93 7.93 0 0 0-2.9 4.122 5.92 5.92 0 0 0-.106.679M51.76 11.89a23.43 23.43 0 0 0 3-2.908 5.08 5.08 0 0 0 .655-1.137c.076-.174-.016-.416-.03-.628l-.643.087a.85.85 0 0 0-.28.15 8.58 8.58 0 0 0-2.741 3.26c-.194.38-.348.768.03 1.175m50.67-7.113a4.75 4.75 0 0 1 .415-.683 5.35 5.35 0 0 1 1.866-1.37 1.34 1.34 0 0 1 1.678.459.6.6 0 0 1 .062.478 7.57 7.57 0 0 1-1.467 2.385.8.8 0 0 1-.9.256 2.73 2.73 0 0 1-1.335-.842 3.32 3.32 0 0 1-.32-.683"/></g></svg>
