<svg xmlns="http://www.w3.org/2000/svg" width="83" height="80" viewBox="0 0 83 80">
  <g data-name="Group 1965">
    <g data-name="Group 1239" fill="#587c94">
      <path data-name="Path 1411" d="M51 2A40 40 0 0 0 7 16c-6 9-8 19-6 29 3 17 18 29 37 29a34 34 0 0 0 6-1c12-2 21-8 27-18A36 36 0 0 0 51 2zM37 72C20 72 6 61 2 45c-2-12 1-22 9-31A38 38 0 0 1 53 4a34 34 0 0 1 22 32c0 19-17 36-38 36z"/>
      <path data-name="Path 1429" d="M55 50c-2-1-2-2-1-3 3-4 2-9 0-13l-1-1a7 7 0 0 0-3 4 17 17 0 0 0-2 4l1 5a19 19 0 0 1-4-4c4-5 4-11 1-16-4 3-5 7-4 12a15 15 0 0 1-2-2v-2c3-4 2-9 0-13-3 2-5 6-5 10l-2-1v-2c4-4 3-10-1-14l-4 8c-2-4-5-7-10-7a6 6 0 0 1-1-1l-1 2c1 5 4 8 9 9 1 0 2 0 3 2a26 26 0 0 0-12 1 6 6 0 0 0 5 4 10 10 0 0 0 8-1c2-1 2-1 5 1a2 2 0 0 1 1 2c-5-2-9 0-13 1 3 3 6 4 10 4l-4 2 5 3c3 1 6 1 9-1 1-1 2-1 3 1l1 1c-7 1-9 1-11 4a16 16 0 0 1 2 0c4 3 8 3 13 1a1 1 0 0 1 2 0 8 8 0 0 1 2 3 11 11 0 0 0 2 2 1 1 0 0 0 2 0v-1a12 12 0 0 0-3-4zM21 21l1-1a5 5 0 0 1-2 0v-2l-2-1h1c3 1 6 2 7 6l-5-2zm6 9h-1a8 8 0 0 0-5 0 1 1 0 0 1-2-1l1-1a11 11 0 0 1 8 1l-1 1zm5-2c-2-3-2-8 0-10h1v1a3 3 0 0 0 1 3v1c0 1-3 0-1 2 1 1-1 1-1 3zm7-3a1 1 0 0 1 1-1v1h-1l1 2c0 1-2 0-1 1a13 13 0 0 1 1 2c0 1-3-2-1 1l-1 2c-2-3-2-6 1-8zm-3 13c2-1 2-1 4 1h-6l2-1zm-5-1l-5-1c2-1 6-2 9 0-2 0-3 2-4 1zm2 5a8 8 0 0 1 8 0h-8zm12-3h-1a8 8 0 0 1 0-8l1-1 1 1v1 6l-1 1zm0 9h-6 6zm7-7v2c1 1 2 2 0 3l-2-3c-1-2 0-4 2-6a22 22 0 0 1 1 2c0 1 1 1-1 2z"/>
      <path data-name="Path 1494" d="M45 48z"/>
      <path data-name="Path 1495" d="M45 48z"/>
      <path data-name="Path 1496" d="M45 48z"/>
    </g>
    <g data-name="Group 1378" transform="translate(50 48)">
      <ellipse data-name="Ellipse 23" cx="16" cy="16" rx="16" ry="16" fill="#fc5959"/>
      <g data-name="Group 1159" fill="none" stroke="#363840" stroke-linecap="round" stroke-width="2">
        <path data-name="Line 18" d="M22 11L11 22"/>
        <path data-name="Line 19" d="M22 22L11 11"/>
      </g>
    </g>
  </g>
</svg>
