<svg xmlns="http://www.w3.org/2000/svg" width="18.5" height="20.5" viewBox=" 0 0 18.5 20.5" fill="#363840"><path d="M15.17 20.54H3.308c-.287 0-.53-.2-.57-.495L.366 3.44a.58.58 0 0 1 .135-.458c.11-.126.268-.198.435-.2h16.606a.57.57 0 0 1 .434.2c.11.127.16.293.136.458L15.74 20.046c-.04.284-.283.495-.57.495zM3.808 19.4H14.67l2.208-15.454H1.6zm5.43-2.862c-.153 0-.3-.06-.407-.17s-.17-.255-.17-.407V8.33c0-.318.258-.576.576-.576s.576.258.576.576v7.624c-.002.317-.26.573-.576.573zm-3.263.174c-.286 0-.528-.2-.57-.493l-1.15-7.967c-.04-.312.177-.6.5-.644s.602.168.65.48l1.152 7.967c.045.315-.173.607-.488.652a.57.57 0 0 1-.083.006zm6.528-.002a.57.57 0 0 1-.083-.006c-.315-.045-.533-.337-.488-.652l1.152-7.967a.58.58 0 0 1 .65-.48.58.58 0 0 1 .49.644l-1.152 7.967c-.04.283-.283.493-.57.493zM10.75 1.152H7.486a.56.56 0 0 1-.5-.288c-.104-.188-.103-.398 0-.576a.58.58 0 0 1 .5-.288h3.264a.56.56 0 0 1 .5.288c.104.188.103.398 0 .576s-.293.288-.5.288z"/><path d="M17.853 1.92H.576c-.206 0-.396-.1-.5-.288s-.103-.398 0-.576.293-.288.5-.288h17.277c.206 0 .396.1.5.288s.103.398 0 .576-.293.288-.5.288z"/></svg>
