<svg xmlns="http://www.w3.org/2000/svg" width="18.93" height="21.041" viewBox="0 0 18.93 21.041"><g transform="translate(-876.75 -142.75)"><g transform="translate(877.36 145.784)"><path d="M892.747,168.007H880.885a.576.576,0,0,1-.57-.495l-2.372-16.606a.576.576,0,0,1,.57-.657h16.606a.577.577,0,0,1,.57.657l-2.372,16.606A.576.576,0,0,1,892.747,168.007Zm-11.362-1.152h10.862l2.208-15.454H879.177Z" transform="translate(-877.937 -150.25)" fill="#363840" stroke="#363840" stroke-width="0.5"/></g><g transform="translate(881.247 150.583)"><g transform="translate(4.415 0.173)"><path d="M900.138,171.973a.576.576,0,0,1-.576-.576v-7.621a.576.576,0,1,1,1.152,0V171.4A.576.576,0,0,1,900.138,171.973Z" transform="translate(-899.562 -163.201)" fill="#363840" stroke="#363840" stroke-width="0.5"/></g><g transform="translate(0 0)"><path d="M889.79,171.869a.576.576,0,0,1-.569-.493l-1.152-7.967a.576.576,0,0,1,1.14-.165l1.152,7.967a.576.576,0,0,1-.488.652A.555.555,0,0,1,889.79,171.869Z" transform="translate(-888.062 -162.75)" fill="#363840" stroke="#363840" stroke-width="0.5"/></g><g transform="translate(7.679 0)"><path d="M908.639,171.868a.557.557,0,0,1-.083-.006.576.576,0,0,1-.488-.652l1.152-7.967a.576.576,0,0,1,1.14.165l-1.152,7.967A.576.576,0,0,1,908.639,171.868Z" transform="translate(-908.062 -162.75)" fill="#363840" stroke="#363840" stroke-width="0.5"/></g></g><g transform="translate(883.911 143)"><path d="M898.839,144.152h-3.264a.576.576,0,1,1,0-1.152h3.264a.576.576,0,1,1,0,1.152Z" transform="translate(-895 -143)" fill="#363840" stroke="#363840" stroke-width="0.5"/></g><g transform="translate(877 143.768)"><path d="M894.853,146.152H877.576a.576.576,0,1,1,0-1.152h17.277a.576.576,0,1,1,0,1.152Z" transform="translate(-877 -145)" fill="#363840" stroke="#363840" stroke-width="0.5"/></g></g></svg>