<svg xmlns="http://www.w3.org/2000/svg" width="19" height="21" viewBox="0 0 19 21">
  <path d="M15 21H4a1 1 0 0 1-1-1L1 4a1 1 0 0 1 0-1h17a1 1 0 0 1 0 1l-2 16a1 1 0 0 1-1 1zM4 20h11l2-16H2z" fill="#363840" stroke="#363840"/>
  <path d="M9 17a1 1 0 0 1 0-1V9a1 1 0 1 1 1 0v7a1 1 0 0 1-1 1zM6 17a1 1 0 0 1 0-1L5 8a1 1 0 0 1 1 0l1 8a1 1 0 0 1-1 1zM13 17a1 1 0 0 1-1-1l1-8a1 1 0 0 1 1 0l-1 8a1 1 0 0 1 0 1z" fill="#363840" stroke="#363840"/>
  <g>
    <path d="M11 1H8a1 1 0 1 1 0-1h3a1 1 0 1 1 0 1z" fill="#363840" stroke="#363840"/>
  </g>
  <g>
    <path d="M18 2H1a1 1 0 1 1 0-1h17a1 1 0 1 1 0 1z" fill="#363840" stroke="#363840"/>
  </g>
</svg>
