<svg xmlns="http://www.w3.org/2000/svg" width="22.619" height="22.913" viewBox="0 0 22.619 22.913"><g transform="translate(-803.465 -143.03)"><g transform="translate(805.963 143.28)"><path d="M814.893,163.152h-5.255a.638.638,0,0,1-.638-.638v-5.255a.638.638,0,0,1,.187-.451l13.341-13.341a.638.638,0,0,1,.451-.187h0a.638.638,0,0,1,.451.187l5.255,5.256a.638.638,0,0,1,0,.9l-13.34,13.341A.639.639,0,0,1,814.893,163.152Zm-4.617-1.276h4.353l12.7-12.7-4.353-4.353-12.7,12.7Z" transform="translate(-809 -143.28)" fill="#363840" stroke="#363840" stroke-width="0.5"/></g><g transform="translate(803.715 164.417)"><path d="M813.5,194.249h-9.147a.638.638,0,0,1,0-1.276H813.5a.638.638,0,1,1,0,1.276Z" transform="translate(-803.715 -192.973)" fill="#363840" stroke="#363840" stroke-width="0.5"/></g></g></svg>