<svg xmlns="http://www.w3.org/2000/svg" width="24.017" height="21.156" viewBox="0 0 24.017 21.156">
    <path
          d="M-198.56,179.344c.184-.375.3-.652.45-.91a5.383,5.383,0,0,1,5.511-2.972,5.315,5.315,0,0,1,4.667,3.68,5,5,0,0,1-.672,5.056,42.078,42.078,0,0,1-2.85,3.162c-2.223,2.32-4.472,4.615-6.71,6.92-.389.4-.388.4-.788-.012-2.893-2.978-5.8-5.946-8.674-8.94a5.931,5.931,0,0,1-1.9-4.641,5.685,5.685,0,0,1,4.683-5.138,5.678,5.678,0,0,1,6.115,3.435C-198.7,179.071-198.65,179.155-198.56,179.344Z"
          transform="translate(210.542 -174.422)" stroke-linejoin="round" stroke-width="2"/>
</svg>
