<svg xmlns="http://www.w3.org/2000/svg" width="20" height="15.018" viewBox="0 0 20 15.018">
  <path d="M5.582,15.018a2.231,2.231,0,0,1-2.2-1.863l-.019,0a.089.089,0,0,1-.026,0H.476a.475.475,0,1,1,0-.949H3.333a.187.187,0,0,1,.052.009.25.25,0,0,0,.033.008,2.238,2.238,0,0,1,4.361.108.477.477,0,0,1,.316-.125H19.523a.475.475,0,1,1,0,.949H8.1a.47.47,0,0,1-.3-.113A2.236,2.236,0,0,1,5.582,15.018Zm0-3.517a1.284,1.284,0,1,0,1.29,1.284A1.288,1.288,0,0,0,5.582,11.5Zm9.024-1.564a2.236,2.236,0,0,1-2.112-1.516H.477a.474.474,0,1,1,0-.949H12.388a2.23,2.23,0,0,1,4.437,0h2.7a.474.474,0,1,1,0,.949h-2.8A2.239,2.239,0,0,1,14.606,9.937Zm0-3.517A1.284,1.284,0,1,0,15.9,7.7,1.288,1.288,0,0,0,14.606,6.42ZM5.582,4.466A2.253,2.253,0,0,1,3.4,2.717l-.013,0-.013,0a.121.121,0,0,1-.038.007H.476a.474.474,0,1,1,0-.949H3.333a.1.1,0,0,1,.027,0l.006,0,.02,0a2.237,2.237,0,0,1,4.4.107A.466.466,0,0,1,8.1,1.781H19.523a.474.474,0,1,1,0,.949H8.1a.471.471,0,0,1-.31-.121A2.23,2.23,0,0,1,5.582,4.466Zm0-3.518a1.285,1.285,0,1,0,1.29,1.284A1.288,1.288,0,0,0,5.582.949Z" transform="translate(0 0)" fill="#fff"/>
</svg>
