<svg xmlns="http://www.w3.org/2000/svg" width="22.779" height="22.779" viewBox="0 0 22.779 22.779">
  <g data-name="Group 2180" transform="translate(-278 184)">
    <path data-name="Path 1723" d="M303.248-168.876A10.124,10.124,0,0,0,293.124-179,10.124,10.124,0,0,0,283-168.876a10.124,10.124,0,0,0,10.124,10.124A10.135,10.135,0,0,0,303.248-168.876Z" transform="translate(-3.734 -3.735)" fill="#fff"/>
    <path data-name="Path 1724" d="M292.385-178.985a1.219,1.219,0,0,1-1.493.862,1.219,1.219,0,0,1-.862-1.493,1.219,1.219,0,0,1,1.493-.862,1.219,1.219,0,0,1,.862,1.493Zm-2.929,10.929,1.919-7.161c.355-1.325-1.679-1.872-2.995-1.236a5.113,5.113,0,0,0-2.027,1.769c.827-.363,2.673-1.184,2,1.321l-1.919,7.161c-.355,1.325,1.679,1.872,2.995,1.236a5.113,5.113,0,0,0,2.027-1.769C290.63-166.372,288.785-165.551,289.456-168.056Zm11.323-4.555a11.389,11.389,0,0,1-11.389,11.389A11.389,11.389,0,0,1,278-172.611,11.389,11.389,0,0,1,289.389-184,11.389,11.389,0,0,1,300.779-172.611Zm-1.266,0a10.124,10.124,0,0,0-10.124-10.124,10.124,10.124,0,0,0-10.124,10.124,10.124,10.124,0,0,0,10.124,10.124A10.135,10.135,0,0,0,299.513-172.611Z" fill="#587c94"/>
  </g>
</svg>
