<svg xmlns="http://www.w3.org/2000/svg" xmlns:xlink="http://www.w3.org/1999/xlink" viewBox="0 0 1543.61 415.1"><use xlink:href="#B"/><use xlink:href="#C"/><use xlink:href="#D"/><use xlink:href="#E"/><use xlink:href="#F"/><g fill="#ee7776"><use xlink:href="#B"/><use xlink:href="#C"/><use xlink:href="#D"/><use xlink:href="#E"/><use xlink:href="#F"/></g><defs ><path id="B" d="M81.08 198.47c-1.8-7.86-3-14.52-3-20 0-12.7 12.1-23.6 17.55-31.46 10.9-15.73 13.9-29 13.9-44.78 0-36.3-32.07-88.34-61.72-88.34C16.34 13.92 0 55.67 0 92.58c0 22.42 2.42 42.36 23.6 59.9 14.52 12.1 27.83 19.36 29.65 31.46.6 3.63 1.2 10.3 1.8 15.13l12.7 187C69 404.2 78.06 415.1 95.6 415.1c18.75 0 27.83-17.55 24.2-33.28z"/><path id="C" d="M313.44 269.27c-12.7-2.42-24.2-3.63-34.5-5.45-24.2-3-52.64-7.86-69.58-12.7-6.66-1.82-1.22-4.84.6-6.05 26-14.53 49-33.9 62.93-53.25 20.57-24.8 32.68-49.62 32.68-78.06 0-41.15-25.42-77.45-74.43-96.82A203.44 203.44 0 0 0 148.25 0c-21.18 0-44.78.6-44.78 13.92 0 5.44 10.3 3 32.68 6 63.53 8.52 119.85 43 119.85 96.26s-41.75 96.2-79.88 111.94c-12.7 5.45-38.72 11.5-47.8 16.95-7.26 4.23-7.26 19.36 4.24 26 24.8 14.52 69 20 105.28 20 33.3 0 53.86-2.42 77.46-12.1 4.8-1.83 4.2-8.5-1.86-9.7z"/><path id="D" d="M1320.94 99.24c12.1 0 24.8-31.47 24.8-41.76 0-4.84-6.06-10.28-13.92-10.28-13.92 0-36.9 22.4-36.9 33.28 0 10.3 15.73 18.76 26.02 18.76z"/><path id="E" d="M1532.72 202.1c-6 0-18.76 21.8-26.62 31.47-10.3 12.1-18.16 24.2-24.2 24.2-4.84 0-6.65-5.44-7.26-10.28l-3.63-30.26c-.6-15.13-3-32.07-20.57-32.07-12.1 0-23 15.73-37.52 29.05-15.73 16.33-38.12 36.3-44.78 36.3a4.45 4.45 0 0 1-4.84-4.84c0-11.5 6.66-23.6 13.32-35.1 10.9-20 30.86-53.86 47.8-53.86 2.42 0 3.63 1.2 3.63 4.84 0 6.66 0 8.47 2.42 10.3s4.84 1.8 9.08 1.8c10.9 0 33.28-10.9 33.28-24.2 0-10.3-10.9-26.62-29.65-26.62-24.2 0-45.4 15.12-66 35.1a256.81 256.81 0 0 0-22.46 26.61l.07-1.8c-16.94 23-42.36 51.43-51.43 51.43-5.45 0-8.47-7.86-8.47-23.6 0-17 8.47-34.5 10.9-49 1.2-6.05 2.42-10.28 2.42-15.13 0-7.26-15.13-21.17-26.63-21.17-6.87 0-14.23 19.06-18.87 39.5-6 12.15-13 26.25-18.64 35.53-7.87 11.5-24.2 30.25-34.5 30.25-6 0-6.66-11.5-6.66-19.36 0-28.44 5.45-62.93 8.47-91.37C1215 93.2 1225.3 46 1225.3 37.54c0-9.7-9.68-19.37-20-19.37-7.86 0-14.52 12.1-16.34 21.18L1173.3 115h-.6c-3.63-3.63-10.9-8.47-20-8.47-30.5 0-75.15 41.8-93.7 77.52-26 20.76-56.9 37.45-74.52 37.45-13.36 0-21.48-15.74-24.83-33.7 42.46-11.3 77.47-37 77.47-70.37 0-15.73-9.68-23.6-26.62-23.6-43 0-91.37 49.62-91.37 98 0 41.75 25.4 68.37 64.14 68.37 21.05 0 46.5-15.35 67.83-36.63 2.86 23 14.85 36.63 33.22 36.63 23.6 0 56.28-35.1 79.27-69h3c-.6 19.37-1.2 39.33 12.1 55.07 11.5 15.12 26 21.18 41.75 21.18 15.36 0 30-14.7 40.63-35.24 6 23.72 20.64 38.26 45.9 38.26 10.9 0 20.53-6.5 28.7-15.64 6.56 21.2 27.32 29.56 43.9 29.56 18.76 0 39.33-27.84 53.86-41.15h.6c3.63 42.36 24.2 54.46 46 54.46 24.2 0 40.54-22.4 49.62-41.15 9.07-18.15 13.9-29.65 13.9-39.93.05-8.45-7.2-14.5-10.84-14.5zm-524.62-88.34c2.42 0 3.63 1.2 3.63 5.45 0 13.78-25.6 34.08-51.22 36.22 8.12-20.9 33.05-41.67 47.6-41.67zM1140.62 170c-18.76 24.8-43.57 43-51.44 43-2.42 0-4.84-3-4.84-5.45-1.2-6.66 6.05-23 10.3-30.26 13.92-23 47.8-52 63.53-52 4.24 0 7.27 7.86 7.27 9.68 0 5.4-13.32 20.54-24.8 35.03z"/><path id="F" d="M833.22 90.16c-41.64 0-68.9 39.8-71.23 86.1-27.57 25.2-65.07 47.62-85.5 47.62-12.45 0-20.92-11.12-25-25.9 51.87-20.4 72.82-42.86 72.82-76.36 0-15.73-9.7-23.6-26.63-23.6-41.26 0-84.18 49.1-87.52 95.88-23.2 21.22-48.7 37.52-77.07 38.45-22.38.6-39.93-6.66-39.33-44.17 0-20.58 7.26-33.28 19.37-46.6 12.7-13.9 26-19.36 32.67-18.75 1.82 0 3.63 1.8 3.63 5.44 0 7.26-6 13.3-6 20 0 4.84 3.63 7.26 9.08 7.26 9.68 0 31.46-9.68 31.46-34.5 0-13.3-10.9-23.6-25.4-23.6-41.4 0-94.33 43.78-103.34 92.8-26.44 27.37-61.64 54.25-83 54.25-8.9 0-16.06-4.66-18.6-15.1 13.15-8.62 26.08-18.22 40.4-35.72 19.36-21.78 26-38.12 26-56.27 0-16.34-9.68-23.6-26.62-23.6-43 0-76.85 47.2-76.85 95.6 0 41.75 21.18 76.24 59.9 76.24 26.15 0 59.12-23.38 82.26-52.54 10.78 28 38.32 38.62 68.4 38.62 31.15 0 61.52-17.62 88.27-43.1 9.64 22.6 31.55 34 60 34 28.17 0 63.5-27.5 86.66-59.9l2.3 105.3c.6 23 16.34 35.1 27.23 35.1 7.87 0 11.5-15.73 11.5-23 0-31.47-1.82-61.72-4.84-93.2-1.2-18.75-1.2-27.23-1.2-38.12 0-19.36-1.82-51.43 5.44-67.77 4.85-9.08 10.3-11.5 16.95-11.5 21.78 0 46.6 18.76 46.6 46.6 0 23.6-20.57 41.14-33.9 43.56-7.26 1.2-11.5 1.2-18.15 2.42-4.84 1.2-4.84 7.27-4.23 10.9 6 15.73 19.36 24.2 35.7 24.2 23 0 55.67-32.07 56.27-71.4.52-35.7-30.34-75.65-68.47-75.65zM392.1 131.9c2.42 0 3.63 1.2 3.63 6.05 0 20.75-21.2 43.47-41.33 58.38l.18-5.73c.6-23.6 20.57-58.7 37.52-58.7zM695.26 118c2.42 0 3.63 1.2 3.63 5.44 0 14.46-13.8 36.1-49.9 48 3.24-23.65 29.8-53.44 46.26-53.44z"/></defs></svg>