<svg xmlns="http://www.w3.org/2000/svg" width="168" height="43"><path d="M7 2a4 4 0 0 0-4 1 7 7 0 0 0-1 1 12 12 0 0 0-2 8 6 6 0 0 0 2 4 21 21 0 0 0 2 1l2 3 1 11 1 10a2 2 0 0 0 1 2 3 3 0 0 0 2 0 3 3 0 0 0 2-1 2 2 0 0 0 1-2l-2-6-3-15a3 3 0 0 1 1-2v-1l1-1a6 6 0 0 0 1-4 12 12 0 0 0-3-7 9 9 0 0 0-2-2m27 26a34 34 0 0 0-5-1l-6-1h-1 1c5-3 10-8 10-15C31 0 12-2 11 2c0 2 3 1 5 1a14 14 0 0 1 10 4c5 6-2 14-7 17l-5 1a1 1 0 0 0 0 1 3 3 0 0 0 2 3 27 27 0 0 0 7 1 48 48 0 0 0 9 0 8 8 0 0 0 2-1l1-1h-1m93-9l-6 6a5 5 0 0 1-2 1 3 3 0 0 1-4-2v-1l-2 1a14 14 0 0 1-4 2 6 6 0 0 1-8-4c-2-4 0-10 5-13a7 7 0 0 1 4 0 2 2 0 0 1 2 3l-2 4a30 30 0 0 1-5 4v1a2 2 0 0 0 2 1 9 9 0 0 0 3-1 64 64 0 0 0 7-5 19 19 0 0 0 1-2 17 17 0 0 1 5-3 5 5 0 0 1 3-1 7 7 0 0 1 2 1V9l2-6a5 5 0 0 1 1-2 1 1 0 0 1 1 0 2 2 0 0 1 2 1 2 2 0 0 1 0 1l-2 8a72 72 0 0 0-1 8 16 16 0 0 0 0 3h2a10 10 0 0 0 2-3l1-1a6 6 0 0 1 1-1l1-3a3 3 0 0 1 1-1 1 1 0 0 1 1-1 4 4 0 0 1 2 2 2 2 0 0 1 0 1 41 41 0 0 0-1 6 8 8 0 0 0 0 2h1a8 8 0 0 0 3-2l3-4a18 18 0 0 1 6-5 5 5 0 0 1 3-1 4 4 0 0 1 3 1 3 3 0 0 1-1 4 3 3 0 0 1-2 0l-1-1h-1a5 5 0 0 0-2 1 19 19 0 0 0-4 6 6 6 0 0 0 0 1v1a4 4 0 0 0 2-1l4-4 2-1a2 2 0 0 1 3 0 5 5 0 0 1 0 3v2a2 2 0 0 0 0 1h2a8 8 0 0 0 1-1l4-4a2 2 0 0 1 1 2 14 14 0 0 1-1 5 7 7 0 0 1-3 3 4 4 0 0 1-5-1 11 11 0 0 1-3-3 3 3 0 0 0 0-1l-2 2a8 8 0 0 1-3 2 5 5 0 0 1-5-2h-1a4 4 0 0 1-5 1 6 6 0 0 1-3-4l-1 2a4 4 0 0 1-3 2 6 6 0 0 1-3-1 6 6 0 0 1-3-5 21 21 0 0 1 0-2m-1-6a3 3 0 0 0-2 0 16 16 0 0 0-5 6 6 6 0 0 0-1 2h1a9 9 0 0 0 3-2 26 26 0 0 0 4-5v-1m-21 3a29 29 0 0 0 5-4 6 6 0 0 0 1-1 2 2 0 0 0 0-1h-1a1 1 0 0 0-1 0 11 11 0 0 0-4 5 8 8 0 0 0 0 1m-22 4l-2 3a18 18 0 0 1-5 3 7 7 0 0 1-8-1 11 11 0 0 1-1-2 4 4 0 0 1 0-1l-2 2a21 21 0 0 1-5 3 8 8 0 0 1-8-2 6 6 0 0 1-2-3l-3 3a11 11 0 0 1-4 2 6 6 0 0 1-8-3 12 12 0 0 1 1-10 9 9 0 0 1 3-4 6 6 0 0 1 5 0 2 2 0 0 1 2 2 7 7 0 0 1-2 5 20 20 0 0 1-5 4v2a3 3 0 0 0 3 0 13 13 0 0 0 3-2l5-5a3 3 0 0 0 1 0 15 15 0 0 1 7-7 7 7 0 0 1 3 0 2 2 0 0 1 2 2 4 4 0 0 1-3 4 1 1 0 0 1-1-1 9 9 0 0 1 0-1 9 9 0 0 0 0-1s0-1 0 0a6 6 0 0 0-4 2 8 8 0 0 0-1 6 3 3 0 0 0 3 3 11 11 0 0 0 6-2l3-2a1 1 0 0 0 0-1 11 11 0 0 1 5-8 6 6 0 0 1 5-1 2 2 0 0 1 2 3 11 11 0 0 1-2 5 22 22 0 0 1-5 3v1a2 2 0 0 0 2 1 9 9 0 0 0 4-1 72 72 0 0 0 6-5 1 1 0 0 0 0-1 3 3 0 0 1 2-2 4 4 0 0 0 1-1 16 16 0 0 1 2-2 5 5 0 0 1 3-1 8 8 0 0 1 6 3 9 9 0 0 1 2 3 6 6 0 0 1 0 4 10 10 0 0 1-4 5c-2 0-4 1-6-1a2 2 0 0 1 0-1c-1-1-1-2 1-2a6 6 0 0 0 5-2 3 3 0 0 0-1-5 7 7 0 0 0-4-2 5 5 0 0 0-1 1 2 2 0 0 0-2 1v4a8 8 0 0 0 0 3 294 294 0 0 1 1 12 7 7 0 0 1-1 2 1 1 0 0 1-1 1 3 3 0 0 1-3-3 38 38 0 0 1 0-3v-9m-45-2a3 3 0 0 0 1 0 21 21 0 0 0 4-5 4 4 0 0 0 1-2h-1a11 11 0 0 0-4 6 8 8 0 0 0-1 1m33-2a34 34 0 0 0 4-4 7 7 0 0 0 1-1v-1h-1a12 12 0 0 0-4 5v1m70-9a7 7 0 0 1 1-1 7 7 0 0 1 2-2 2 2 0 0 1 3 0 1 1 0 0 1 0 1 10 10 0 0 1-2 3 1.118 1.118 0 0 1-2 1 4 4 0 0 1-2-1 5 5 0 0 1 0-1"/></svg>
