<svg xmlns="http://www.w3.org/2000/svg" width="168" height="43.356" viewBox="0 0 168 43.356">
    <defs>
        <clipPath >
            <path  d="M0-9.354h168V-52.71H0z" class="cls-1" data-name="Path 1316" transform="translate(0 52.71)"/>
        </clipPath>
    </defs>
    <g data-name="Group 1343" transform="translate(-16 48.581)">
        <g class="cls-2" data-name="Group 1172" transform="translate(16 -48.581)">
            <g data-name="Group 1167" transform="translate(0 1.787)">
                <path  d="M-1.471-.088a3.849 3.849 0 0 0-4.317.62 6.547 6.547 0 0 0-.9 1.138 11.929 11.929 0 0 0-1.468 7.813 6.415 6.415 0 0 0 2.02 3.953A21.349 21.349 0 0 0-4.1 15.005c1.022.716 1.725 1.392 1.827 2.338.412 3.81.7 7.649 1.022 11.474.282 3.333.5 6.694.893 10a2.425 2.425 0 0 0 1.009 1.626 3.037 3.037 0 0 0 2.029.62c.057 0 .114-.012.169-.021a2.989 2.989 0 0 0 1.876-1.216 2.438 2.438 0 0 0 .494-1.841c-.392-2.083-.948-4.226-1.431-6.336C2.653 26.7 1.443 21.748.4 16.783a3.185 3.185 0 0 1 .869-2.4l.242-.329c.354-.479.72-.973 1.058-1.48A6.034 6.034 0 0 0 3.655 8.81 12.3 12.3 0 0 0 .739 1.724a8.58 8.58 0 0 0-2.21-1.812" class="cls-1" data-name="Path 1311" transform="translate(8.288 .497)"/>
            </g>
            <g  data-name="Group 1168" transform="translate(11.149)">
                <path  d="M-4.875-5.992a34.068 34.068 0 0 0-4.667-.79c-2.058-.255-4.15-.472-6.16-.823-.155-.027-.392.056-.435-.192-.03-.171.117-.268.232-.375 5.025-3.018 10.419-7.877 10.279-14.289-1.531-10.922-20.948-13.7-21.829-9.332-.262 1.674 3.187 1.448 4.441 1.476a14.1 14.1 0 0 1 10.245 4.007c5.282 5.746-1.389 13.876-6.559 16.2-1.514.68-3.248 1.063-4.823 1.648a1.046 1.046 0 0 0-.791 1.062 2.574 2.574 0 0 0 1.87 2.532 27.479 27.479 0 0 0 7.342 1.16 47.7 47.7 0 0 0 9.124-.473 7.576 7.576 0 0 0 1.8-.481c.337-.139.7-.328.7-.716-.007-.415-.412-.519-.762-.614" class="cls-1" data-name="Path 1312" transform="translate(27.469 33.766)"/>
            </g>
            <g  data-name="Group 1169" transform="translate(100.417 .883)">
                <path  d="M-5.694-3.836c-.744.921-1.357 1.76-2.05 2.529-1.067 1.2-2.167 2.4-3.328 3.513a5.186 5.186 0 0 1-2.907 1.411 2.978 2.978 0 0 1-3.265-1.687c-.287-.578-.5-1.192-.754-1.8-.585.447-1.2.935-1.828 1.4a13.91 13.91 0 0 1-3.766 2.022A6.422 6.422 0 0 1-31.464-.2c-1.644-4.666 0-10.6 4.543-13.041a6.505 6.505 0 0 1 4.767-.653 2.425 2.425 0 0 1 1.924 3.061c-.23 1.9-1.393 3.314-2.57 4.711a30.4 30.4 0 0 1-4.7 3.61c-.564.327-.642.622-.209 1.126a2.308 2.308 0 0 0 2.118.827 9.229 9.229 0 0 0 3.531-1.4 63.836 63.836 0 0 0 6.49-4.714 18.852 18.852 0 0 0 1.44-1.671 17.336 17.336 0 0 1 4.52-3.45 5.457 5.457 0 0 1 2.91-.566 6.855 6.855 0 0 1 1.763.726c.164-.485.38-1.05.544-1.628.605-2.17 1.209-4.34 1.83-6.5a5.278 5.278 0 0 1 .642-1.276 1.069 1.069 0 0 1 1.348-.519 2.321 2.321 0 0 1 1.661 1.188 1.659 1.659 0 0 1 .165 1C.727-16.729.184-14.09-.342-11.446A72.4 72.4 0 0 0-1.3-3.424a15.736 15.736 0 0 0 .124 2.51C-1.072 0-.679.17.134-.3a10.251 10.251 0 0 0 2.8-2.8c.355-.452.649-.949 1.007-1.4a6.1 6.1 0 0 1 .6-.5.833.833 0 0 0 .211-.372c.336-1.206.65-2.417 1-3.62a3.229 3.229 0 0 1 .406-.809 1.188 1.188 0 0 1 1.675-.523 3.688 3.688 0 0 1 1.754 1.355 1.7 1.7 0 0 1 .224 1.542A40.788 40.788 0 0 0 8.5-1.537 8.344 8.344 0 0 0 8.619.4c.1.592.379.688.94.444a7.774 7.774 0 0 0 2.9-2.552c.917-1.163 1.681-2.44 2.561-3.635a18.008 18.008 0 0 1 6.594-5.63 5.3 5.3 0 0 1 3.076-.675 3.887 3.887 0 0 1 2.78 1.568 2.6 2.6 0 0 1-1.334 3.73 3.012 3.012 0 0 1-1.913.22c-.53-.123-.675-.36-.546-.869.178-.7-.044-.91-.811-.735a5.121 5.121 0 0 0-2.43 1.544 18.837 18.837 0 0 0-4.05 5.657 6.04 6.04 0 0 0-.374 1.224c-.141.688.218.991.883.711a4.385 4.385 0 0 0 1.261-.78c1.464-1.358 2.92-2.746 4.38-4.118.528-.492 1.1-.939 1.625-1.435a2.091 2.091 0 0 1 3.236.707 4.884 4.884 0 0 1 .457 2.546c0 .824-.008 1.649-.007 2.473a1.828 1.828 0 0 0 .055.375c.157.726.469.933 1.118.561A8.18 8.18 0 0 0 30.89.326c.834-.878 1.566-1.853 2.318-2.806.578-.732.762-.851 1.273-.659a1.579 1.579 0 0 1 1.007 1.594 13.824 13.824 0 0 1-1.444 4.61 6.775 6.775 0 0 1-2.757 3.16 4.472 4.472 0 0 1-5.074-.686 10.683 10.683 0 0 1-2.7-3.275 3.209 3.209 0 0 0-.246-.317c-.591.554-1.128 1.131-1.739 1.617a7.91 7.91 0 0 1-2.992 1.513 4.907 4.907 0 0 1-4.943-1.768c-.056-.076-.109-.152-.2-.281-.17.2-.322.378-.467.558a4.058 4.058 0 0 1-5.458.957A5.733 5.733 0 0 1 4.81.931c-.418.62-.776 1.249-1.226 1.806A4.215 4.215 0 0 1 .5 4.509a5.573 5.573 0 0 1-3.256-1.035 6.3 6.3 0 0 1-2.7-4.582 21.275 21.275 0 0 1-.131-2.129c-.009-.152-.05-.3-.1-.6m-.361-5.912a3.454 3.454 0 0 0-2.172.6A16.089 16.089 0 0 0-13.474-3.6a5.975 5.975 0 0 0-.633 1.775c-.129.623.052.725.647.453a9.478 9.478 0 0 0 2.771-2.064 25.552 25.552 0 0 0 4.049-5.1c.21-.364.368-.758.585-1.211m-21.681 3.585a2.942 2.942 0 0 0 .283-.112 3.844 3.844 0 0 0 .331-.2 29.166 29.166 0 0 0 4.275-3.819 5.843 5.843 0 0 0 .925-1.441 2.41 2.41 0 0 0 .012-.953c-.313.037-.628.062-.936.118a.986.986 0 0 0-.348.173 11.049 11.049 0 0 0-4.326 5.314 7.957 7.957 0 0 0-.216.92" class="cls-1" data-name="Path 1313" transform="translate(32.087 21.616)"/>
            </g>
            <g  data-name="Group 1170" transform="translate(34.248 8.617)">
                <path d="M-10.461-2.525c-.725.793-1.386 1.615-2.146 2.335a17.667 17.667 0 0 1-5.012 3.456 6.625 6.625 0 0 1-7.222-1.511A10.557 10.557 0 0 1-26.011-.2a4.325 4.325 0 0 1-.2-.46c-.73.591-1.42 1.181-2.14 1.731A20.669 20.669 0 0 1-33.363 3.7 8.185 8.185 0 0 1-41.5 1.959 6.1 6.1 0 0 1-43.135-.7c-.037-.116-.085-.229-.1-.268C-44.3.05-45.319 1.108-46.419 2.079a11.127 11.127 0 0 1-4.165 2.462A6.3 6.3 0 0 1-58.1 1.076a11.638 11.638 0 0 1 .739-10.255 8.694 8.694 0 0 1 3.483-3.363 6.486 6.486 0 0 1 4.266-.6 2.231 2.231 0 0 1 1.92 2.114 7.127 7.127 0 0 1-1.541 4.808 19.8 19.8 0 0 1-4.978 4.739c-.634.443-.662.859-.035 1.353a2.73 2.73 0 0 0 2.886.257 13.4 13.4 0 0 0 3.656-2.25c1.648-1.4 3.273-2.82 4.894-4.244a2.539 2.539 0 0 0 .445-.675 15.025 15.025 0 0 1 6.765-6.309 6.857 6.857 0 0 1 3.511-.6A2.283 2.283 0 0 1-30-11.36a3.819 3.819 0 0 1-3.655 3.506.729.729 0 0 1-.738-.9 8.508 8.508 0 0 1 .3-1.148 8.987 8.987 0 0 0 .27-.961c.064-.4-.1-.51-.508-.4a5.9 5.9 0 0 0-3.664 2.909A8.478 8.478 0 0 0-38.9-2.5a2.79 2.79 0 0 0 2.926 2.31 11.441 11.441 0 0 0 5.714-1.8c1.114-.706 2.141-1.545 3.191-2.346a.856.856 0 0 0 .26-.562 10.914 10.914 0 0 1 4.86-8.324 6.314 6.314 0 0 1 4.775-.856 2.4 2.4 0 0 1 2.029 2.9 10.732 10.732 0 0 1-2.367 4.86 21.5 21.5 0 0 1-4.631 3.849c-.489.308-.556.534-.194.992a2.252 2.252 0 0 0 2.237.848 9.243 9.243 0 0 0 3.515-1.564 72.457 72.457 0 0 0 6.239-4.885.751.751 0 0 0 .192-.362 2.808 2.808 0 0 1 1.7-2.121 4.265 4.265 0 0 0 1.713-1.66A15.679 15.679 0 0 1-5.366-13a4.527 4.527 0 0 1 2.832-.927 7.731 7.731 0 0 1 6.392 2.657 8.582 8.582 0 0 1 2.168 3.358 5.705 5.705 0 0 1-.383 4.3 9.643 9.643 0 0 1-3.7 4.3c-2.33.941-4.447 1.077-6.249-1.025a1.77 1.77 0 0 1-.226-.308c-.508-.956-.575-1.725 1-1.8a6.176 6.176 0 0 0 4.87-2.572 3.464 3.464 0 0 0-.567-4.54 7.145 7.145 0 0 0-4.135-1.807 4.758 4.758 0 0 0-1.217.068 1.636 1.636 0 0 0-1.153 1.653c-.082 1.122-.128 2.246-.2 3.369a3.141 3.141 0 0 1-.132.746 7.529 7.529 0 0 0-.274 3.007c.184 2.054.359 4.1.5 6.16.1 2 .158 3.986.187 5.986A6.662 6.662 0 0 1-6 11.483a1.137 1.137 0 0 1-1.552.839 3.462 3.462 0 0 1-2.569-2.944A37.587 37.587 0 0 1-10.3 6.1c-.04-2.332-.048-4.664-.074-7-.007-.546-.055-1.092-.084-1.634M-54.8-5.041a2.841 2.841 0 0 0 .327-.173 20.839 20.839 0 0 0 4.7-5.013 3.9 3.9 0 0 0 .413-1.436c.054-.314-.169-.474-.5-.35a3.07 3.07 0 0 0-.8.362 10.93 10.93 0 0 0-3.993 5.676 8.153 8.153 0 0 0-.146.934m32.9-1.4a33.577 33.577 0 0 0 4.146-4 7 7 0 0 0 .9-1.565c.1-.24-.022-.573-.043-.864-.3.037-.6.058-.886.119a1.163 1.163 0 0 0-.385.207 11.812 11.812 0 0 0-3.768 4.484c-.267.522-.48 1.057.039 1.618" class="cls-1" data-name="Path 1314" transform="translate(58.951 14.227)"/>
            </g>
            <g data-name="Group 1171" transform="translate(141.052 3.579)">
                <path d="M0-.647a6.538 6.538 0 0 1 .572-.94A7.366 7.366 0 0 1 3.14-3.475a1.844 1.844 0 0 1 2.311.632.822.822 0 0 1 .086.658A10.426 10.426 0 0 1 3.516 1.1a1.1 1.1 0 0 1-1.242.353A3.759 3.759 0 0 1 .439.293 4.565 4.565 0 0 1 0-.647" class="cls-1" data-name="Path 1315" transform="translate(0 3.648)"/>
            </g>
        </g>
    </g>
</svg>
