<svg xmlns="http://www.w3.org/2000/svg" width="33.024" height="33.024" viewBox="0 0 33.024 33.024">
  <g data-name="Group 6" transform="translate(0.75 0.75)">
    <path data-name="Stroke 1569" d="M9.595,4.8A4.8,4.8,0,1,1,4.8,0a4.8,4.8,0,0,1,4.8,4.8Z" transform="translate(10.965 4.112)" fill="none" stroke="#363840" stroke-linecap="round" stroke-linejoin="round" stroke-miterlimit="10" stroke-width="1.5"/>
    <path data-name="Stroke 1570" d="M18.793,9.4c0,5.191-9.4,19.419-9.4,19.419S0,14.588,0,9.4a9.4,9.4,0,1,1,18.793,0Z" transform="translate(6.366 0)" fill="none" stroke="#363840" stroke-linecap="round" stroke-linejoin="round" stroke-miterlimit="10" stroke-width="1.5"/>
    <path data-name="Stroke 1571" d="M22.616,0c5.274.444,8.909,1.383,8.909,2.469,0,1.515-7.056,2.741-15.762,2.741S0,3.983,0,2.469C0,1.386,3.612.451,8.852,0" transform="translate(0 26.315)" fill="none" stroke="#363840" stroke-linecap="round" stroke-linejoin="round" stroke-miterlimit="10" stroke-width="1.5"/>
  </g>
</svg>
