<svg id="Layer_1" data-name="Layer 1" xmlns="http://www.w3.org/2000/svg" viewBox="0 0 56.69 56.69"><defs><style>.cls-1{fill:#4d6b7f;}.cls-2{fill:#b5d384;}.cls-3{fill:#363840;stroke:#363840;stroke-miterlimit:10;stroke-width:0.1px;}</style></defs><title>Recepidia_Icons</title><g id="Group_1238" data-name="Group 1238"><path id="Path_1413" data-name="Path 1413" class="cls-1" d="M39.17,12.12A19,19,0,0,0,12.5,15.93c-.34.45-.66.92-1,1.4A20.61,20.61,0,0,0,13,41.3a19,19,0,0,0,15.1,7.25,18.43,18.43,0,0,0,8.56-2C49.8,39.82,51.15,21,39.17,12.12Zm7.55,16.5A19,19,0,0,1,40,43.5a18.27,18.27,0,0,1-23.12.58,19.89,19.89,0,0,1-4-27.45C17.14,10.87,23,8.21,30.13,9.15s12,5,15,11.54a17.76,17.76,0,0,1,1.61,7.93Z"/><path id="Path_1467" data-name="Path 1467" class="cls-1" d="M25.12,15.94h0Z"/><path id="Path_1468" data-name="Path 1468" class="cls-1" d="M36,20.1a2,2,0,0,1-.39-1.86c0-.54,0-1-.09-1.51a1.26,1.26,0,0,0-1.24-1.29h0c-1.44-.17-2.85-.57-4.28-.84-1.9-.36-3.81-.71-5.73-1-.79-.13-1.08.22-.91,1,0,.18.16.36.19.54.23,1.45.41,2.85-.74,4.09a28.78,28.78,0,0,0-2,2.71,1.91,1.91,0,0,0-.36,1.2c0,4.85-.05,9.71-.09,14.57,0,.82,0,1.65,0,2.47a.65.65,0,0,0,.49.74c1.37.51,2.71,1.06,4,1.67a4.69,4.69,0,0,0,3.11.25c2.14-.46,4.28-.87,6.42-1.33.93-.2,2.19,0,2.71-.77s.35-2,.4-3c.16-3.74.31-7.47.55-11.2a6.49,6.49,0,0,0-1-4.56C36.63,21.42,36.36,20.72,36,20.1Zm0,1.67a5.87,5.87,0,0,1,.8,1.65c-.23.35-.54.23-.81.21-2.55-.17-5.1-.41-7.66-.53-1.15-.06-1.88-.37-2.21-1.59a34,34,0,0,0-1.45-3.66,27.69,27.69,0,0,1,4.27.34c.72,0,.52.51.42.94-.29,1.36-.09,1.82,1,2.37,1.66.86,3,0,3-1.88,0-.3-.38-.7.14-.85a.88.88,0,0,1,1.09.48c.47.85,1,1.66,1.45,2.52Zm-6.2-1.65a11.43,11.43,0,0,0,2.22.77c-.93.45-1.18.36-2.22-.77Zm-.2-4.48a34.24,34.24,0,0,1,5.23,1c-.84.67-1.55.23-2.2.44.51.33,1.09,0,1.58.26.23.12.4.27.35.56s-.25.26-.44.28a1,1,0,0,1-.29,0c-1.95-.33-3.91-.56-5.89-.71a.67.67,0,0,1-.41-.11,3.67,3.67,0,0,0-2.58-1,.26.26,0,0,1-.2-.42.2.2,0,0,1,.35,0h0c-.12-.32-.52-.44-.54-1a23.66,23.66,0,0,1,5,.72Zm-5.41,3.22c.39,1.06,1.25,1.81.4,2.85.34,1.29-.81,1-1.34,1.12a6.89,6.89,0,0,1-1.95-.11,27.93,27.93,0,0,1,2.89-3.86Zm1.95,12.26c-.12,2.71-.36,5.41-.56,8.29-.46-.49-.13-1-.47-1.38A16.6,16.6,0,0,1,25,40.77c-.25.84-.34,1-1.17.67-.64-.22-1.23-.57-1.86-.83-.44-.19-.45-.57-.51-1A22.48,22.48,0,0,1,21.33,35a35.22,35.22,0,0,0,0-5.81,37.82,37.82,0,0,1,0-5.83,33.22,33.22,0,0,1,3.93.33c.67,0,.93.36.92,1,0,2.12.05,4.26,0,6.39Zm10.82-6c0,1.84-.06,3.69-.25,5.52-.29,2.9-.28,5.82-.5,8.72-.07,1,0,1.16-1.21,1.38-2.53.46-5,1-7.56,1.53-.84.17-1,.09-.9-.78.17-2.81.17-5.63.23-8.45V25c0-.25,0-.49,0-.73,0-.63.27-1,1-.89s1.74.16,2.61.23l5.52.38c1,.08,1.06.09,1,1.1Z"/><path id="Path_1469" data-name="Path 1469" class="cls-1" d="M25.94,16l-.14,0A.34.34,0,0,0,25.94,16Z"/><path id="Path_1545" data-name="Path 1545" class="cls-1" d="M31.2,26.53c-.59.85-.52,1.76-1.06,2.39a7.78,7.78,0,0,0-1.4,2.84,5.16,5.16,0,0,0,.57,4.58,2.71,2.71,0,0,0,2.75,1.25,2.13,2.13,0,0,0,1.73-1.92,8,8,0,0,0-.61-6A28,28,0,0,1,31.2,26.53Zm2,8.32c-.28,1.28-1,2.15-1.82,2.21s-2-.94-2.25-2.17A5.61,5.61,0,0,1,31.05,29v0a.62.62,0,0,1,.29-.83h0c.36-.18.48.23.61.45A8.4,8.4,0,0,1,33.22,34.85Z"/><path id="Path_1546" data-name="Path 1546" class="cls-1" d="M25.1,16Z"/><path id="Path_1547" data-name="Path 1547" class="cls-1" d="M25.6,15.94l.2.08.14,0A.2.2,0,0,0,26,16,.86.86,0,0,1,25.6,15.94Z"/><path id="Path_1548" data-name="Path 1548" class="cls-1" d="M25.6,15.94l-.07,0h0Z"/><path id="Path_1549" data-name="Path 1549" class="cls-1" d="M26,16a.2.2,0,0,1-.08,0,1,1,0,0,0,.53-.09,1.51,1.51,0,0,0-.94,0l.07,0A.88.88,0,0,0,26,16Z"/><path id="Path_1550" data-name="Path 1550" class="cls-1" d="M25.5,15.91l-.2,0a2.74,2.74,0,0,1,.5.08l-.2-.08Z"/><path id="Path_1551" data-name="Path 1551" class="cls-1" d="M25.17,15.94h0Z"/><path id="Path_1587" data-name="Path 1587" class="cls-1" d="M31.05,29v0h0Z"/><path id="Path_1588" data-name="Path 1588" class="cls-1" d="M31,29.24a.65.65,0,0,1,0-.2h0a.85.85,0,0,0-.05.24S31,29.25,31,29.24Z"/><path id="Path_1589" data-name="Path 1589" class="cls-1" d="M31,29.24c0-.07,0-.13,0-.2h0A.73.73,0,0,0,31,29.24Z"/><path id="Path_1602" data-name="Path 1602" class="cls-1" d="M31,29.68a2.12,2.12,0,0,1-.05.44A1.61,1.61,0,0,0,31,29.68Z"/><path id="Path_1603" data-name="Path 1603" class="cls-1" d="M31,29.24l0,0a2.64,2.64,0,0,0,0,.4A3.15,3.15,0,0,1,31,29.24Z"/><path id="Path_1605" data-name="Path 1605" class="cls-1" d="M31,29.68a2.12,2.12,0,0,1-.05.44.24.24,0,0,1,0,.08h0a.78.78,0,0,1-.23.38h0a.94.94,0,0,0,.22-.37h0a.19.19,0,0,0,0-.07,2.3,2.3,0,0,0,.05-.45,2.61,2.61,0,0,1,0-.4c-.26.83-1,1.47-1.09,2.36l.05-.05h0l0,0c.39,0,.38.05.12.69-.26-.17-.11-.42-.13-.64l-.06-.05a.64.64,0,0,0-.19.27c-.05.32-.2.76.2.89s.66-.33.72-.68A8.49,8.49,0,0,0,31.06,29c0,.07,0,.13,0,.2A3.15,3.15,0,0,0,31,29.68Z"/><path id="Path_1606" data-name="Path 1606" class="cls-1" d="M30.93,30.12a.24.24,0,0,1,0,.08A.24.24,0,0,0,30.93,30.12Z"/><path id="Path_1607" data-name="Path 1607" class="cls-1" d="M30.69,30.57h0a.83.83,0,0,0,.23-.38.84.84,0,0,1-.22.36S30.69,30.57,30.69,30.57Z"/><path id="Path_1608" data-name="Path 1608" class="cls-1" d="M31.06,29h0Z"/><path id="Path_1609" data-name="Path 1609" class="cls-1" d="M31.06,29Z"/></g><circle class="cls-2" cx="42.39" cy="40.89" r="8.73"/><path id="Path_1310" data-name="Path 1310" class="cls-3" d="M41,44.64a.4.4,0,0,1-.29-.12l-3.21-3.21a.42.42,0,0,1,0-.57.4.4,0,0,1,.57,0h0L41,43.67l6.41-6.41a.39.39,0,0,1,.56,0,.4.4,0,0,1,0,.57L41.3,44.52A.36.36,0,0,1,41,44.64Z"/></svg>