<svg id="Layer_1" data-name="Layer 1" xmlns="http://www.w3.org/2000/svg" viewBox="0 0 56.69 56.69"><defs><style>.cls-1{fill:#4d6b7f;}.cls-2{fill:#ea5a5c;}.cls-3{fill:none;stroke:#363840;stroke-linecap:round;stroke-width:0.96px;}</style></defs><title>Recepidia_Icons</title><path id="Path_1423" data-name="Path 1423" class="cls-1" d="M47.46,18.6C43.62,10.87,34.85,6.93,26.12,8.44a22.31,22.31,0,0,0-11.41,5.44c-5.14,4.67-7.92,10.4-7.27,17.45A17.5,17.5,0,0,0,19,46.82c7.81,3.17,15.2,1.79,21.84-3.2,5.52-4.15,8.39-9.79,8.59-15.36A20.32,20.32,0,0,0,47.46,18.6ZM21.14,46.94A18,18,0,0,1,9.34,22.58a21.3,21.3,0,0,1,6.06-8.43c.86-.73,1.24-.63,1.71.4a3.85,3.85,0,0,1,.25,1.71,7.72,7.72,0,0,0,2.23,5.39,3.88,3.88,0,0,0,2.21,1.29c1.64.33,1.89.84,1.39,2.74-2.07-1.17-3.32-1.07-5.13.36-.59.47-1,1-2,.43s-1.89,0-2.38,1a4.93,4.93,0,0,0,2,6.23,1.64,1.64,0,0,1,1,1.75c-.05,2.41.29,4.79,2.07,6.64a10.3,10.3,0,0,0,9.36,3.34c5.16-.84,8.9-3.64,10.64-8.75a29.17,29.17,0,0,0,1-4.11,4,4,0,0,0-.26-2.14A2.08,2.08,0,0,1,40,28a9,9,0,0,0,2.79-6.37c.06-4-4.54-9.35-10.16-6.38a8.08,8.08,0,0,0-4.6,5.51,8.79,8.79,0,0,0,.06,3.61c.13.67.05,1.05-.73,1.26a9.63,9.63,0,0,0-3,1.47c-.06-1.28-.13-2.32-.17-3.37a2.23,2.23,0,0,0-1.87-2.4c-.23-.07-.47-.1-.71-.15a3.31,3.31,0,0,1-3.08-3.31,14.27,14.27,0,0,0-.92-4.83c-.26-.52.18-.69.49-.88a22.11,22.11,0,0,1,5.7-2.55,20.8,20.8,0,0,1,12.61.26A17.93,17.93,0,0,1,48.24,31.34c-2.78,11.6-15.65,19-27.1,15.6Zm8.94-20.49A6.77,6.77,0,0,1,31.75,17l.12-.08a10.87,10.87,0,0,1,2.53-1.42,4.89,4.89,0,0,1,6.39,3.21c1.24,3.42.26,6.4-2.06,9A2.4,2.4,0,0,0,38,30c.4,2.47.72,5-.63,7.38a10.57,10.57,0,0,1-4.31,4.4,13.72,13.72,0,0,1-11.08,1,5.67,5.67,0,0,1-4.09-5.13,10.38,10.38,0,0,1,.72-5.42,10.61,10.61,0,0,0,.49-1.37c.19-.72-.78-1.59-1.51-1.41-.54.14-.45.55-.5.92l-.08.1c-.27.29-.29.57,0,.82v0c-.11.15.18.5-.24.49-.59,0-.43.61-.81.94A5.07,5.07,0,0,1,14.1,29.1a2,2,0,0,1,.5-1.48.87.87,0,0,1,1.17-.22.67.67,0,0,1,.41.86l0,.1a1,1,0,0,0-.09,1c.57-.09.69-.64,1-1a5.85,5.85,0,0,1,3.07-2.09,3.45,3.45,0,0,1,1-.12c2,.14,2.66,1.28,1.66,3.05A7,7,0,0,0,22,33.79,3.77,3.77,0,0,0,24.75,37a4.81,4.81,0,0,0,5.15-1.77c.1-.15.25-.32.06-.55a1.94,1.94,0,0,0-1.3.73c-1.4,1.35-2.88,1.35-4.18-.07a4.45,4.45,0,0,1-1-4.73,8.38,8.38,0,0,1,3-3.82,1.14,1.14,0,0,1,1.56,0c.94.68,1.56,1.72,2.64,2.24a1.72,1.72,0,0,0,1.75.15,7.07,7.07,0,0,1-2.4-2.76Z"/><circle class="cls-2" cx="43.6" cy="40.6" r="8.73"/><g id="Close"><g id="Group_1159" data-name="Group 1159"><line id="Line_18" data-name="Line 18" class="cls-3" x1="46.58" y1="37.62" x2="40.63" y2="43.57"/><line id="Line_19" data-name="Line 19" class="cls-3" x1="46.58" y1="43.57" x2="40.63" y2="37.62"/></g></g></svg>