<svg id="Layer_1" data-name="Layer 1" xmlns="http://www.w3.org/2000/svg" viewBox="0 0 56.69 56.69"><defs><style>.cls-1{fill:#4d6b7f;}.cls-2{fill:#b5d384;}.cls-3{fill:#363840;stroke:#363840;stroke-miterlimit:10;stroke-width:0.1px;}</style></defs><title>Recepidia_Icons</title><g id="Group_1241" data-name="Group 1241"><g id="Group_1236" data-name="Group 1236"><path id="Path_1408" data-name="Path 1408" class="cls-1" d="M41.44,23.39c-1-.93-2.07-1.76-3-2.71a36.7,36.7,0,0,0-4.73-4,1,1,0,0,0-1.29,0,3.05,3.05,0,0,0-.72.67c-.68.74-1.37,1.45-2,2.2a.69.69,0,0,1-.95.22l-.1-.08A11.85,11.85,0,0,0,24,18.3c-.23,0-.54-.14-.71.12s0,.54.15.8a18.47,18.47,0,0,0,2.09,2.57c1,1,.9.78,0,1.76-1.78,1.87-3.6,3.7-5.38,5.57-.74.77-.72.92,0,1.76.18.23.38.45.58.66,2.72,2.86,5.45,5.7,8.26,8.46.31.31.48.37.87,0,2-2,4.06-4,6.09-5.94.74-.71.59-.81,1.44,0a25.86,25.86,0,0,1,2.28,2.4c.38.47.59.46.91-.06a10.88,10.88,0,0,1,1.41-1.83c.45-.47.5-.89.07-1.24C41.26,32.76,40.76,32,40,31.5a2,2,0,0,1-.91-.88c0-.21.18-.25.29-.34A42.05,42.05,0,0,0,43,26.7c.61-.65.6-.9,0-1.61A21.06,21.06,0,0,0,41.44,23.39Zm-.56,10.84c0-.1.08-.21.21-.16s.07.11.1.17-.08.21-.19.21-.14-.12-.12-.22ZM24.4,19.53a3.79,3.79,0,0,1-.3-.4,4.86,4.86,0,0,1,2.34.55,23.19,23.19,0,0,1,6.64,4.48c.31.3.57.67.86,1a.85.85,0,0,1,.13,1.21.34.34,0,0,1-.12.12c-.57.65-.52.7.1,1.36l.31.31c.15.18.07.33-.07.48a.31.31,0,0,1-.44.06l0,0c-.11-.09-.21-.2-.32-.3l-9.1-8.84Zm10.89,13.6c-1.84,1.8-3.72,3.55-5.51,5.42-.58.6-.61.58-1.21,0L21,30.76c-.74-.76-.72-.75,0-1.53,1.61-1.66,3-3.5,4.72-5.1a5.6,5.6,0,0,0,.54-.55c.32-.4.61-.44,1,0,.57.58,1.19,1.1,1.78,1.66,1.33,1.27,2.64,2.55,4,3.83.27.26.55.51.42.77-.3.59.09.79.28,1,.45.48,1,.87,1.48,1.32s.55.54,0,1Zm4.13.11a1.86,1.86,0,0,1,.52,1.1c.22-.28,0-.65.22-.92.65.4.62,1.19-.11,2.25-.07,0-.17,0-.2,0-1.43-1.89-3.34-3.32-4.91-5.06-.78-.86-.81-.84.13-1.71.17.42.57.7.47,1.26.38-.16.17-.55.37-.75a.07.07,0,0,1,.11.09c-.21.66.7.88.47,1.55.31-.17.18-.41.35-.62.27.41.06.87.24,1.31.46-.14.06-.7.44-.86.56.3.09.86.25,1.26.38-.07.09-.49.4-.62.36.33-.05.82.18,1.17.22,0,.12-.23.25-.39a5.71,5.71,0,0,1,.19.71c.06.44.44,0,.63.25Zm2.42-6.57c-1.15,1.08-2.27,2.19-3.42,3.3a8.7,8.7,0,0,1-2.12-2.16c-.21-.36-.47-.6-.88-.32s-.6,0-.83-.26-.05-.52.12-.75c.55-.76.57-.78,0-1.46-1.4-1.56-2.61-3.29-4.61-4.48L33,17.48c.41-.44.63-.05.89.19,1.92,1.8,3.7,3.75,5.55,5.63.8.82,1.58,1.65,2.38,2.46.3.3.43.55.05.91Z"/><path id="Path_1414" data-name="Path 1414" class="cls-1" d="M16.53,34.66a1.83,1.83,0,0,0,.32-2.51,2.39,2.39,0,0,1,.24-2.6,7.5,7.5,0,0,1,3-2.81,4.54,4.54,0,0,0,2.74-4.45,4.94,4.94,0,0,0-5.44-4.94A6.08,6.08,0,0,0,14,19.29a3.68,3.68,0,0,0-1,2.72A7.15,7.15,0,0,0,14,25,2.57,2.57,0,0,1,14.38,27c-.15.57-.41,1.11.09,1.65.15.15,0,.34-.09.5-.33.75-.67,1.36-1.7,1.44a1.62,1.62,0,0,0-1.63,1.61,1.34,1.34,0,0,0,0,.35,2,2,0,0,0,2.06,1.89,1.69,1.69,0,0,1,1.27.42A1.58,1.58,0,0,0,16.53,34.66ZM14.47,20.93a4.2,4.2,0,0,1,3.72-2.54c1.87-.09,2.34.57,2.86,1.71.16.35,0,.81.27,1.14s-.11.67-.16,1a5.16,5.16,0,0,0,.12,1.47h0l0,0a.35.35,0,0,1,.1.36c0,.08-.1.07-.13,0a.37.37,0,0,1,0-.35h0v0c-.38.05-.31-.44-.63-.52,0,.61.53,1.12.33,1.77-.55-.05-.38-.68-.76-.84-.15.11-.07.26,0,.4.08.31.09.31-.32.5l-.27.14c-.33.16.17.77-.11.62-.48-.25-.53.12-.62.28s-.44.37-.62.6-.35.44-.54.66a6.05,6.05,0,0,0-.55.68c-.25.46-.56.43-1,.32-1.3-.33-1.34-.31-1-1.58a1.7,1.7,0,0,0-.31-1.65,3.54,3.54,0,0,1-.36-4.13ZM13.59,33.6C12.74,34,12,33.44,12,32.46a.85.85,0,0,1,.81-.89h0a1.63,1.63,0,0,0,1.61-1.38,4.88,4.88,0,0,1,.36-.81c.29-.59.52-.68,1.12-.49.39.13.53.34.38.75-.21.58-.38,1.18-.58,1.78-.15.43-.24.76.26,1.12a.93.93,0,0,1,.22,1.3l-.06.08c-.42.59-1,.64-1.42.06-.33-.43-.54-.69-1.15-.38Z"/><path id="Path_1415" data-name="Path 1415" class="cls-1" d="M21.28,23.7h0Z"/><path id="Path_1419" data-name="Path 1419" class="cls-1" d="M22.45,35.82a1.68,1.68,0,0,0-2.28-.65,1.37,1.37,0,0,0-.2.13,3.24,3.24,0,0,0-1,1.14,3.9,3.9,0,0,1-.71,1.17,6.7,6.7,0,0,0-2.48-1.33A1.33,1.33,0,0,0,14,37a1.89,1.89,0,0,0-.09.34,5,5,0,0,0,.19,3A3,3,0,0,0,18,42.05l.13-.06a.79.79,0,0,1,1,.13,2.64,2.64,0,0,0,3.08.35,2.73,2.73,0,0,0,1.51-2.83A10.87,10.87,0,0,0,22.45,35.82Zm-4.79,3.43c-.18.1-.42.31-.42.46,0,.56-.68.66-.66,1.18-.9.08,0,.36,0,.65a2.24,2.24,0,0,1-1.95-1.67,4.17,4.17,0,0,1-.08-2.4c.18-.64.38-.81,1-.72A4.3,4.3,0,0,1,17.94,38c.45.44.3.91-.28,1.25Zm3.69,2.89a2.25,2.25,0,0,1-2.58-1.85,6.4,6.4,0,0,1-.06-.88,5.45,5.45,0,0,1,1-3,1.88,1.88,0,0,1,1.21-.9,1.08,1.08,0,0,1,1.23.71,9.32,9.32,0,0,1,1.07,3.45,2.2,2.2,0,0,1-1.83,2.47Z"/><path id="Path_1421" data-name="Path 1421" class="cls-1" d="M21.29,23.69l0,0h0s0,0,0,0Z"/><path id="Path_1422" data-name="Path 1422" class="cls-1" d="M21.28,23.7h0l0,0h0Z"/><path id="Path_1424" data-name="Path 1424" class="cls-1" d="M30.45,31.08A8.12,8.12,0,0,0,30.53,29a1.75,1.75,0,0,0-2-1.73c-.23,0-.5.17-.73-.11a2.52,2.52,0,0,1,.12-.29c.13-.27.72-.37.45-.73s-.57.09-.85.22a.79.79,0,0,1-.22,0c-.28-.34,0-1-.57-1.17-.25.26-.07.51-.05.75.07.85.08.85-.78.74a1,1,0,0,0-.75.06c.22.47.8.33,1.14.72-1.64,1.39-1.75,2.14-.66,4,.38.67.72,1.36,1.08,2.05a16.32,16.32,0,0,0,1.55,2.53,2.6,2.6,0,0,0,.79.76c.89.48,1.56.15,1.64-.84a7.24,7.24,0,0,0-.09-1.54A13.35,13.35,0,0,1,30.45,31.08Zm-.89,4.36c0,.19,0,.36-.2.45s-.29,0-.39-.13a4,4,0,0,1-.54-.55c-.46-.61-.46-.62.1-1.25a.37.37,0,0,0,.14-.39c-.31-.2-.53.11-.81.16a.34.34,0,0,1-.37-.16.28.28,0,0,1,.07-.39c.26-.24.65-.37.67-.82-.34-.27-.52.08-.76.18s-.35.16-.49,0,0-.34.1-.49c.28-.3.72-.5.73-1.05-.56,0-.75.49-1.22.62a4.9,4.9,0,0,1-.87-2.17c-.11-.51.23-.81.66-1a11.13,11.13,0,0,1,2.13-.48c.3-.08.5.12.43.45a7.66,7.66,0,0,0,.21,2.86,18.33,18.33,0,0,1,.17,2.67c0,.54.33,1,.24,1.54Z"/><path id="Path_1425" data-name="Path 1425" class="cls-1" d="M38.89,24.49a8.1,8.1,0,0,1-2.33-2.61,2.85,2.85,0,0,0-2.27-1.39c-.39,0-.84.42-.73,1.17A2.14,2.14,0,0,0,34.33,23c1,.89,2.08,1.76,3.12,2.63a1.39,1.39,0,0,0,.68.35.85.85,0,0,0,1-.58A.63.63,0,0,0,38.89,24.49Zm-.36.52a.31.31,0,0,1-.32.3.78.78,0,0,1-.48-.25L34.79,22.6a1.94,1.94,0,0,1-.63-.89c-.14-.4.05-.65.48-.6a1.93,1.93,0,0,1,1.42.95,10.13,10.13,0,0,0,2.3,2.63.33.33,0,0,1,.17.32Z"/><path id="Path_1470" data-name="Path 1470" class="cls-1" d="M16,21.25c.28.05.36-.12.4-.3s.06-.46-.25-.49a.36.36,0,0,0-.39.3C15.68,21,15.75,21.19,16,21.25Z"/><path id="Path_1471" data-name="Path 1471" class="cls-1" d="M16.22,22.09a.29.29,0,0,0-.26.3c0,.22.17.28.37.28s.23-.13.25-.28S16.45,22.05,16.22,22.09Z"/><path id="Path_1472" data-name="Path 1472" class="cls-1" d="M17.29,20.42c.14,0,.28,0,.3-.18a.28.28,0,0,0-.25-.3h0a.24.24,0,0,0-.26.21v.06A.22.22,0,0,0,17.29,20.42Z"/><path id="Path_1483" data-name="Path 1483" class="cls-1" d="M21.92,38.43a7.43,7.43,0,0,1-.11,2.7.18.18,0,0,0,.11.23.2.2,0,0,0,.15,0,.83.83,0,0,0,.51-.54,3.92,3.92,0,0,0-.22-3.08C22.07,38,21.87,38.16,21.92,38.43Z"/><path id="Path_1612" data-name="Path 1612" class="cls-1" d="M48.17,30.06c.9-8.83-3.92-17.2-13.83-20.69a20.43,20.43,0,0,0-12.47-.24c-9.2,2.54-15.62,10.74-15.66,21.3A18.54,18.54,0,0,0,11.94,43a21.24,21.24,0,0,0,24.92,3.51C43.44,43,47.41,37.53,48.17,30.06Zm-31,16C5.2,39.77,3.28,23.8,13.42,14.55c4-3.6,9-5.54,15.64-5.55a19.23,19.23,0,0,1,16.7,27.53A21.13,21.13,0,0,1,17.21,46Z"/><path id="Path_1617" data-name="Path 1617" class="cls-1" d="M31.1,38.38l.06-.12,0,.06s0,0,0,.06Z"/><path id="Path_1619" data-name="Path 1619" class="cls-1" d="M31.1,38.38Z"/><path id="Path_1624" data-name="Path 1624" class="cls-1" d="M48.17,30.06c.9-8.83-3.92-17.2-13.83-20.69a20.43,20.43,0,0,0-12.47-.24c-9.2,2.54-15.62,10.74-15.66,21.3A18.54,18.54,0,0,0,11.94,43a21.24,21.24,0,0,0,24.92,3.51C43.44,43,47.41,37.53,48.17,30.06Zm-31,16C5.2,39.77,3.28,23.8,13.42,14.55c4-3.6,9-5.54,15.64-5.55a19.23,19.23,0,0,1,16.7,27.53A21.13,21.13,0,0,1,17.21,46Z"/></g></g><circle class="cls-2" cx="42.42" cy="40.95" r="8.73"/><path id="Path_1310" data-name="Path 1310" class="cls-3" d="M41.05,44.7a.39.39,0,0,1-.28-.12l-3.21-3.21a.4.4,0,0,1,0-.57.42.42,0,0,1,.57,0h0l2.92,2.93,6.41-6.41a.42.42,0,0,1,.57,0,.4.4,0,0,1,0,.57l-6.69,6.69A.4.4,0,0,1,41.05,44.7Z"/></svg>