<svg id="Layer_1" data-name="Layer 1" xmlns="http://www.w3.org/2000/svg" viewBox="0 0 56.69 56.69"><defs><style>.cls-1{fill:#4d6b7f;}.cls-2{fill:#ea5a5c;}.cls-3{fill:none;stroke:#363840;stroke-linecap:round;stroke-width:0.96px;}</style></defs><title>Recepidia_Icons</title><g id="Group_1237" data-name="Group 1237"><path id="Path_1409" data-name="Path 1409" class="cls-1" d="M18,9.6A22.84,22.84,0,0,0,8,35.74c4,12.69,18.29,17.62,29.21,10C43.64,41.24,46.71,34.84,47,27A23.08,23.08,0,0,0,46.61,23C43.94,8.89,29.53,2.84,18,9.6ZM31.12,47.71c-9.18,2.74-18.43-2-21.93-11.05C4.83,25.31,11.22,12,22.71,8.45a17.61,17.61,0,0,1,19.56,6.46c.26.35.51.71.74,1.08.35.55.22,1-.48,1.41.24-1.7-1.38-2-2.11-3.3,0,1,.69,1.39.6,2.19l-2.23-1.84-.22.21c.64.8,1.55,1.43,1.86,2.6a5.6,5.6,0,0,0-3.52,1.94A19.85,19.85,0,0,0,30.7,30a7.26,7.26,0,0,0-.14,2c.07.72.41.89,1.1.6a1.28,1.28,0,0,0,.25-.15c2.72-1.86,5.52-3.63,7.37-6.5a20.85,20.85,0,0,1,2-2.34,13.9,13.9,0,0,0,1.58-2.08c.26-.44.5-1,.18-1.37-1.18-1.29.16-2.05.46-3.05a1.41,1.41,0,0,1,.65.84c5.47,11.41-.64,26.05-13,29.73Zm9.31-25.33c.37.35.37.65,0,1a.52.52,0,0,0-.1.11,2,2,0,0,1-2.61.92c-.12-.05-.27-.13-.38.05,1.22,1.46,1.22,1.47-.18,3-.27.28-.54.56-.83.82-.46.42-.94.83-1.42,1.24s-1-.71-1.61-.08c.49.59.34,1.08-.44,1.44a10.86,10.86,0,0,0-1.48,1c-.12-2.27,1.11-3.72,2-5.4.75.25.94,1,1.66,1a1.73,1.73,0,0,0-.7-1.23.74.74,0,0,1-.13-1h0a21,21,0,0,1,2.26-3.39c.67.09.94,1,1.76.91,0-.66-.52-.89-.85-1.25a.57.57,0,0,1-.1-.8l.07-.07a10.7,10.7,0,0,1,2.24-2.06c.14-.1.42-.21.52-.14.74.52,1.68.85,2.09,1.72s-.13,1.28-.63,1.82c-.67-.09-1-1.21-1.95-.58,0,.49.48.72.8,1Z"/><path id="Path_1426" data-name="Path 1426" class="cls-1" d="M17.07,31.1c.31-.25.49-.06.72.17,1.11,1.11,1.4,1.19,2.55.3.65-.49,1.13-.66,1.74-.05a.77.77,0,0,0,1.08.09l.09-.08c.58-.54,1.12-1.13,1.74-1.76-1.16-.62-1.5-1.42-.81-2.51a1.22,1.22,0,0,0,.09-.27c.29-1.18.06-1.65-1.11-2-.33-.11-.49-.24-.52-.57-.06-.56-.12-1.12-.19-1.88a4.71,4.71,0,0,0,4.9-.44A3,3,0,0,1,29,21.48a3.63,3.63,0,0,0,2.11-.86c1.62-1.11,2.15-2.86,2.56-4.59A5.23,5.23,0,0,0,31,10.38a4.59,4.59,0,0,0-5.66,1.11c-.34.35-.62.28-1,.26C22,11.61,19.84,13,19.46,15c-.45,2.42-.2,4.62,1.57,6.5-1.36.41-1.36.41-1.88-.57-.81-1.53-1.49-1.74-3-.8-.45.27-.61.16-1-.1a2.27,2.27,0,0,0-3.25.34,3.16,3.16,0,0,0-.34,4.13,2.7,2.7,0,0,1,.6,2c-.1,1.15.19,1.52,1.33,1.92.4.14.57.28.61.66a5.22,5.22,0,0,0,.11.57,2.3,2.3,0,0,0,1.24,1.7A1.29,1.29,0,0,0,17.07,31.1Zm3.62-14a4.44,4.44,0,0,1,1.42-3.81A2.76,2.76,0,0,1,24,12.63a8.37,8.37,0,0,1,1,.18.76.76,0,0,0,.9-.25,3.24,3.24,0,0,1,4.25-.65,3.86,3.86,0,0,1,2.2,4c-.18,2.46-.84,3.85-3.6,4.65a14.85,14.85,0,0,0-1.74.73A4.46,4.46,0,0,1,21.09,19a4.34,4.34,0,0,1-.4-1.91ZM15.08,28.38c.15-.68,0-.94-.76-1-1.11-.11-1.4-.56-1.09-1.66a.92.92,0,0,0-.36-1.09c-1.29-1.21-1.22-2.47.13-3.55.65-.52,1-.5,1.64.1.87.86.87.86,1.73.17a1.37,1.37,0,0,1,2.3.63c.15.55.28,1.11.38,1.67.63-.47,1-1.24,1.8-1s.83,1.13.86,1.85.15,1.39,1.16,1.48c.54.05.68.62.58,1.15a2.21,2.21,0,0,1-.52,1.19c-.3.33-.26.6.09.83.56.36.27.69,0,1.08s-.83.58-1.18.15a.77.77,0,0,0-1-.35.75.75,0,0,0-.26.21,2.35,2.35,0,0,1-1.08.42c-.56.13-1.06.06-1.29-.59s-.52-.79-1.08-.35-1,.66-1.59.22a1.46,1.46,0,0,1-.45-1.58Z"/><path id="Path_1427" data-name="Path 1427" class="cls-1" d="M35.72,36.66a5.31,5.31,0,0,0,.79-.85A9.46,9.46,0,0,0,38.59,31a3.25,3.25,0,0,0-2.05,1.65,4.35,4.35,0,0,1-4.07,1.75,14.51,14.51,0,0,1-5.28-1.51,8.11,8.11,0,0,0-6.91,0,18.85,18.85,0,0,0-3.09,1.9c-1.5,1-1.48,1.05-.66,2.56-.23.46-1.08.13-1.09.75s.6,1,1.1,1.26a3.74,3.74,0,0,0,.8.33,2.22,2.22,0,0,1,1.06.71A7.17,7.17,0,0,0,24.88,43c.87-.11,1.75-.17,2.6-.34,1.93-.38,3.81-.87,4.89-2.77.23-.4.53-.39.84-.13a9.86,9.86,0,0,1,1.08,1c.58.65,1.11,1.34,1.68,2,.28.33.59.75,1.09.51s.26-.69.2-1a8.52,8.52,0,0,0-1.62-4.45C35.25,37.29,35.33,37,35.72,36.66Zm-1.48,1.23a7.1,7.1,0,0,1,1.42,3c-.75-1.22-2.34-1.56-2.92-3-.11-.27-.43-.2-.61,0-1.18,1.26-2.86,1.71-4.23,2.65a.26.26,0,0,0-.34.09.29.29,0,0,0,0,.09,4.14,4.14,0,0,0-2.45.56,5.34,5.34,0,0,1-5.34-.79c-.95-.72-1.66-1.75-3.22-1.78,1.55-1.13,1.55-1.13.39-2.6a15.31,15.31,0,0,1,4.54-2.76,7.75,7.75,0,0,1,5,.29c1.24.4,2.48.83,3.7,1.3a6.8,6.8,0,0,0,4.56.06l1-.3a3.56,3.56,0,0,1-1.32,1.6c-.69.5-.64.95-.2,1.58Z"/><path id="Path_1510" data-name="Path 1510" class="cls-1" d="M17.06,26.61a1.34,1.34,0,0,1,1.44.83c-.48.44-1.2-.08-1.7.63a12.54,12.54,0,0,0,2.6,0c.8,0,1.44.89,2.37.86a.5.5,0,0,0-.33-.52A2.17,2.17,0,0,1,20,26.18a1.52,1.52,0,0,0-.49-1.25c-.43.69.1,1.31-.13,1.92C18.15,26,18.2,26,17.92,24.67c-.12-.56.06-1.25-.52-1.73-.37.56,0,1.15-.35,1.72C16.24,24.14,16,23.07,15,22.4c.27,1.53,1.23,2.41,1.86,3.46-.62.45-1.34-.25-2,.31A4.7,4.7,0,0,0,17.06,26.61Z"/><path id="Path_1511" data-name="Path 1511" class="cls-1" d="M30,19.44a3.13,3.13,0,0,0,1.73-3.32c.05-1.52-1.07-2.83-2.85-3.73-.6-.3-1-.26-1.29.36a7,7,0,0,0-.15,5.89C28.14,20.14,28.58,20.28,30,19.44Zm-2.29-3.28c-.06,0-.09-.11-.13-.17L28,16c.43-.08.64-.27.26-.66-.12-.14-.36-.21-.35-.43,0-.42-.14-.92.24-1.22s.74-.05,1.09.11a2.71,2.71,0,0,1,1.61,2.55,3.11,3.11,0,0,1-1.74,2.81.56.56,0,0,1-.67,0c-.2-.17-.32-.39-.13-.62.75-1-.2-.8-.75-1,.24-.47,1.51-.76.16-1.28Z"/><path id="Path_1512" data-name="Path 1512" class="cls-1" d="M25.34,20.64c1.33,0,1.73-.49,1.37-1.79-.19-.7-.52-1.35-.75-2A11.25,11.25,0,0,0,24.41,14c-.26-.37-.53-.5-1-.21a3.69,3.69,0,0,0-1.74,4A4,4,0,0,0,25.34,20.64Zm-2-5.53c.23-.16.49-.41.77-.18s.64.53.34,1-.08.47.24.73a1.5,1.5,0,0,1,.44,1.24c-.11.52-.06.69.44.8a.69.69,0,0,1,.49.85s0,.05,0,.07c-.09.37-.52.36-.87.38a3.41,3.41,0,0,1-2.95-3.09,2.25,2.25,0,0,1,1.12-1.77Z"/><path id="Path_1513" data-name="Path 1513" class="cls-1" d="M21.21,34.66c-.61,0-1.38,1.06-1.35,1.84s.41,1,1.19,1c1,0,1.66-.5,1.65-1.25A1.85,1.85,0,0,0,21.21,34.66Zm-.29,1.93c-.14,0-.25-.13-.22-.41s.11-.57.51-.63c.24,0,.32.22.31.4,0,.36-.17.65-.6.64Z"/></g><circle class="cls-2" cx="42.13" cy="39.4" r="8.73"/><g id="Close"><g id="Group_1159" data-name="Group 1159"><line id="Line_18" data-name="Line 18" class="cls-3" x1="45.1" y1="36.43" x2="39.15" y2="42.37"/><line id="Line_19" data-name="Line 19" class="cls-3" x1="45.1" y1="42.37" x2="39.15" y2="36.43"/></g></g></svg>