<svg id="Layer_1" data-name="Layer 1" xmlns="http://www.w3.org/2000/svg" viewBox="0 0 56.69 56.69"><defs><style>.cls-1,.cls-2{fill:#4d6b7f;}.cls-2{stroke:#4d6b7f;stroke-width:0.19px;}.cls-2,.cls-4{stroke-miterlimit:10;}.cls-3{fill:#b5d384;}.cls-4{fill:#363840;stroke:#363840;stroke-width:0.1px;}</style></defs><title>Recepidia_Icons</title><path id="Path_1418" data-name="Path 1418" class="cls-1" d="M28,48.14A19.59,19.59,0,0,0,47.74,28.68v-.24a20,20,0,0,0-20.2-20A19.45,19.45,0,0,0,7.85,27.61v.49A20.13,20.13,0,0,0,28,48.14ZM27.63,8.9c8.26-.21,19.47,6.77,19.54,19.64a19,19,0,0,1-19,19.06H28A19.58,19.58,0,0,1,8.42,28.08C8.4,17.45,16.94,9.17,27.63,8.9Z"/><path id="Path_1475" data-name="Path 1475" class="cls-1" d="M26.61,38.84a1,1,0,0,0,.93,1.06h.05c1.3.21,1.83-.24,1.79-1.74-.1-3.67.79-7.22,1.47-10.78.35-1.85.53-1.87,2.4-1.86a6.49,6.49,0,0,0,5.25-2.15,10.79,10.79,0,0,0,2.7-7.16c0-.35.17-.77-.29-1-1.45.35-2.95.63-4.39,1.07a7.9,7.9,0,0,0-5.7,7.48,2.66,2.66,0,0,1-.45,1.52,25.87,25.87,0,0,0-1.93,3.4c-.16.31-.2.75-.72.81A4.11,4.11,0,0,1,27.1,28a27.84,27.84,0,0,0-3.73-7,16.22,16.22,0,0,0-4.22-4,3.08,3.08,0,0,0-2.32-.72,1.72,1.72,0,0,0,.59,1.12C22.47,23.65,26.12,30.57,26.61,38.84Zm8.11-20.35c.37-.3.66-.72,1.18-.8l.13.14-.13-.14a9,9,0,0,1,3.33-1.24c.6-.13,1,.12.86.79-.41,2.8-2.35,6.81-6.86,6.79-.22,0-.43,0-.64-.07.49-1,.49-1,2.68-1.19-.22-.53-.81-.2-1.05-.51.52-.58.52-.58,2.21-.64,0-.4-.37-.22-.56-.29s-.33-.14-.29-.3.19-.32.3-.33c.75-.07,1.49-.1,2.24-.14.05-.59-.47-.36-.73-.65,1.17-.19,1.13-1.35,2-2.14-.79.1-1,.6-1.41.84-.65.38-.75,0-.76-.54-.52.2-.48.73-.69,1.14-.37-.46,0-1-.46-1.38-.2.74-.39,1.49-.59,2.24-.71-.25-.07-.74-.38-1-.24,0-.24,0-.84,1.37-.6-.85-.17-1.43.5-2Zm-1.17,1.39c-.22,1.1.1,2.43-1.54,2.82a3.65,3.65,0,0,1,1.54-2.82ZM28.49,31c-.08,2.25-.41,4.49-.41,6.75A7.53,7.53,0,0,1,28.49,31Zm-5.55-8.52c.86,1.57,1.83,3.08,2.56,4.7,1.64,3.64,1.7,4.08,1.21,5.45a46.17,46.17,0,0,0-7.38-14.12c1.16.46,2.53,2,3.61,4Z"/><path id="Path_1477" data-name="Path 1477" class="cls-1" d="M18.1,26.32Z"/><path id="Path_1482" data-name="Path 1482" class="cls-2" d="M20.57,38.19A7.2,7.2,0,0,0,18,37c-.83-.17-1.14,0-1.45.8a4,4,0,0,0,.46,3.7,2.31,2.31,0,0,0,3.13,1,1.14,1.14,0,0,1,1.36.18,2.39,2.39,0,0,0,4-1.39A5.09,5.09,0,0,0,24,36.17a1.22,1.22,0,0,0-2,0A6.84,6.84,0,0,0,20.57,38.19Zm-.47,3.9a2,2,0,0,1-2.56-.58,3.66,3.66,0,0,1-.74-2.27c0-1.71.47-2.06,2.05-1.47a4.66,4.66,0,0,1,.61.26c1.13.61,1.11.49.9,1.67a3.07,3.07,0,0,0,.12,1.53.58.58,0,0,1-.24.8.35.35,0,0,1-.14.06Zm2.22-5.56c.59-.54.81-.54,1.4,0A4.68,4.68,0,0,1,25,41.3a1.76,1.76,0,0,1-1.46,1.48A2.14,2.14,0,0,1,21.47,42a2.64,2.64,0,0,1-.63-2,4.64,4.64,0,0,1,1.48-3.54Z"/><path id="Path_1506" data-name="Path 1506" class="cls-1" d="M18.14,26.27h-.05s0,0,0,0l0,0,0-.05h0Z"/><path id="Path_1508" data-name="Path 1508" class="cls-1" d="M18.09,26.22l0,0h0Z"/><path id="Path_1578" data-name="Path 1578" class="cls-1" d="M20.25,31.2a.75.75,0,0,0,.94.05.66.66,0,0,0,.2-.9.31.31,0,0,0-.09-.11,3,3,0,0,0-.41-.39l0,0h0l.06.37c0,.18.07.38-.11.49a.26.26,0,0,1-.36-.1h0c-.12-.18,0-.34.12-.48s.19-.18.29-.27v0c-.38-.39-.7-.19-.9.18a.82.82,0,0,0,.24,1.14Z"/><path id="Path_1476" data-name="Path 1476" class="cls-1" d="M16.26,24.7h0l0,0S16.27,24.71,16.26,24.7Z"/><path id="Path_1478" data-name="Path 1478" class="cls-1" d="M20.29,33.66a1.17,1.17,0,0,0,1.25-.53,20.63,20.63,0,0,1,1.79-2.28c.82-1,.76-1.35-.29-2.08-.4-.27-.84-.5-1.23-.78a3.12,3.12,0,0,0-1.87-.61c-.91,0-.55-1.31-1.35-1.52a.42.42,0,0,1-.12-.08,12.91,12.91,0,0,0-2.21-1.08l0,.05h0c.41.72,1.33.82,1.81,1.46a.71.71,0,0,1,.74.55c.18.9.79,1.08,1.58,1.16,1.12.12,1.85,1,2.72,1.58.3.2.23.5,0,.75a16.47,16.47,0,0,0-2,2.45.49.49,0,0,1-.66.22l-.08,0L15,30.09a1,1,0,0,1-.53-.62c-.47-1.23-.49-1.22-1.88-.94-.08,0-.17-.07-.26-.11-.14-.27,0-.45.2-.62.85-.87,1.71-1.71,2.53-2.61a1.37,1.37,0,0,1,1.21-.45v0c-1-.58-1-.57-1.74.14-1.2,1.19-2.33,2.45-3.63,3.55a3.7,3.7,0,0,0-.79,4.4,1.41,1.41,0,0,0,1.49.82A68.42,68.42,0,0,1,20.29,33.66Zm-6.81-4.77a.36.36,0,0,1,.39.29s-.09.16-.13.16a.46.46,0,0,1-.41-.3s.1-.1.15-.15ZM16,33c-1.16,0-2.32,0-3.48,0a1.55,1.55,0,0,1-1.74-1.53,5.1,5.1,0,0,1-.07-.87c0-.47-.15-1.12.33-1.32s.77.36,1,.77a.43.43,0,0,0,.22.18c.49.11.59.77,1.18.83.09-.57-.58-.85-.51-1.38.11,0,.25,0,.27,0a3.92,3.92,0,0,0,2.82,2,3.39,3.39,0,0,1,1.88,1.16A4.68,4.68,0,0,1,16,33Z"/><path id="Path_1479" data-name="Path 1479" class="cls-1" d="M16.29,24.75v0l0,0v0Z"/><path id="Path_1481" data-name="Path 1481" class="cls-1" d="M16.3,24.77v0h0Z"/><path id="Path_1505" data-name="Path 1505" class="cls-1" d="M16.29,24.75h0l0,0S16.29,24.74,16.29,24.75Z"/><path id="Path_1507" data-name="Path 1507" class="cls-1" d="M16.31,24.75l0-.05,0,0Z"/><path id="Path_1577" data-name="Path 1577" class="cls-1" d="M17.15,30.24a.82.82,0,0,0,.93-.72.71.71,0,0,0,0-.14,1.21,1.21,0,0,0-1.28-1.13c-.53,0-.84.18-.83.75a1.2,1.2,0,0,0,1.15,1.24Zm-.34-1.55c.33-.05.4.18.43.44s0,.4-.27.43-.41-.2-.44-.45a.34.34,0,0,1,.25-.41Z"/><path id="Path_1579" data-name="Path 1579" class="cls-1" d="M14.61,26.93a.72.72,0,0,0,.78.66h0c.42-.1.69-.33.64-.79a.72.72,0,0,0-.74-.73h-.14l-.08,0-.44.35A.91.91,0,0,0,14.61,26.93Zm.78-.37a.21.21,0,0,1,.24.18v0a.22.22,0,0,1-.19.26h-.06a.22.22,0,0,1-.2-.13.27.27,0,0,1,.19-.34Z"/><path id="Path_1580" data-name="Path 1580" class="cls-1" d="M14.65,26.44l.44-.35A.63.63,0,0,0,14.65,26.44Z"/><path id="Path_1582" data-name="Path 1582" class="cls-1" d="M16.75,26.85a.81.81,0,0,0,.89.71h0a.57.57,0,0,0,.53-.33c-.11-.14-.21-.29-.31-.44l-.24-.21a.46.46,0,0,1,.09.23.35.35,0,0,1-.08.22c-.13,0-.29,0-.35-.13s0-.25.3-.34h0l-.06-.06-.4-.29a.5.5,0,0,0-.44.53A.36.36,0,0,0,16.75,26.85Z"/><path id="Path_1583" data-name="Path 1583" class="cls-1" d="M18,26.34l.06,0s0,0,0,0v0h0Q18,26.37,18,26.34Z"/><path id="Path_1584" data-name="Path 1584" class="cls-1" d="M17.64,26.56h0l.24.21c.1.15.2.3.31.44a.81.81,0,0,0-.05-.59,1.06,1.06,0,0,1,0-.31h0l-.05,0s0,0,0-.08l-.48-.06a1.88,1.88,0,0,0-.41,0l.4.3Z"/><path id="Path_1585" data-name="Path 1585" class="cls-1" d="M18.09,26.32h0S18.08,26.32,18.09,26.32Z"/><path id="Path_1586" data-name="Path 1586" class="cls-1" d="M18.14,26.27l-.05-.05v0Z"/><path id="Path_1597" data-name="Path 1597" class="cls-1" d="M20.88,29.85v0h0Z"/><path id="Path_1598" data-name="Path 1598" class="cls-1" d="M20.91,29.89l0,0v0h0v0Z"/><path id="Path_1599" data-name="Path 1599" class="cls-1" d="M17.64,26.56h0Z"/><circle class="cls-3" cx="42.28" cy="40.74" r="8.73"/><path id="Path_1310" data-name="Path 1310" class="cls-4" d="M40.91,44.49a.38.38,0,0,1-.28-.12l-3.21-3.21a.4.4,0,0,1,0-.57.4.4,0,0,1,.56,0h0l2.93,2.93,6.41-6.41a.4.4,0,1,1,.57.57L41.2,44.37A.4.4,0,0,1,40.91,44.49Z"/></svg>