<svg xmlns="http://www.w3.org/2000/svg" width="86" height="79" viewBox="0 0 86 79">
  <g data-name="Group 1961">
    <path data-name="Path 1423" d="M75 19C68 5 52-2 35 1a42 42 0 0 0-21 10C4 19-1 30 0 43c1 14 9 23 22 29 15 5 28 3 41-6 10-8 16-18 16-29 0-8-1-13-4-18zM26 72C6 66-4 46 4 27a39 39 0 0 1 11-16c2-1 2-1 3 1a7 7 0 0 1 1 3c0 4 1 7 4 10a7 7 0 0 0 4 2c3 1 4 2 3 5-4-2-6-2-10 1-1 1-2 2-4 1-1-1-3 0-4 2a9 9 0 0 0 4 11 3 3 0 0 1 2 4c-1 4 0 8 3 12 5 5 11 7 18 6 10-2 17-7 20-16a55 55 0 0 0 2-8 8 8 0 0 0-1-4 4 4 0 0 1 1-4 17 17 0 0 0 6-12c0-7-9-17-19-12-5 2-8 5-9 10a16 16 0 0 0 0 7l-1 2a18 18 0 0 0-6 3v-6c0-3-1-4-4-5h-1c-4-1-5-2-6-6 0-3 0-6-2-9l1-2a42 42 0 0 1 11-4 40 40 0 0 1 24 0 33 33 0 0 1 22 40c-5 21-30 35-51 29zm17-38a12 12 0 0 1 3-18 21 21 0 0 1 5-2c5-2 10 1 12 6 2 6 0 11-4 16a4 4 0 0 0-1 4c0 5 1 10-1 14a20 20 0 0 1-9 8 26 26 0 0 1-20 2c-5-1-8-5-8-9a19 19 0 0 1 1-10 19 19 0 0 0 1-3c1-1-1-3-3-3l-1 2v3l-2 2a9 9 0 0 1-3-7 4 4 0 0 1 1-3 2 2 0 0 1 2 0 1 1 0 0 1 1 1 2 2 0 0 0-1 2l2-2a11 11 0 0 1 6-3 7 7 0 0 1 2-1c4 1 5 3 3 6a13 13 0 0 0-2 8 7 7 0 0 0 6 6 9 9 0 0 0 9-3l1-1a4 4 0 0 0-3 1c-3 3-5 3-8 0a8 8 0 0 1-2-8 16 16 0 0 1 6-7 2 2 0 0 1 3 0l5 4a3 3 0 0 0 3 0l-4-5z" fill="#587c94"/>
    <g data-name="Group 1382" transform="translate(53 46)">
      <ellipse data-name="Ellipse 23" cx="16" cy="16" rx="16" ry="16" fill="#fc5959"/>
      <g data-name="Group 1159" fill="none" stroke="#363840" stroke-linecap="round" stroke-width="2">
        <path data-name="Line 18" d="M22 11L11 22"/>
        <path data-name="Line 19" d="M22 22L11 11"/>
      </g>
    </g>
  </g>
</svg>
