<svg id="Layer_1" data-name="Layer 1" xmlns="http://www.w3.org/2000/svg" viewBox="0 0 56.69 56.69"><defs><style>.cls-1{fill:#4d6b7f;}.cls-2{fill:#b5d384;}.cls-3{fill:#363840;stroke:#363840;stroke-miterlimit:10;stroke-width:0.1px;}</style></defs><title>Recepidia_Icons</title><g id="Group_1239" data-name="Group 1239"><path id="Path_1411" data-name="Path 1411" class="cls-1" d="M33.81,9.15a21.15,21.15,0,0,0-23.48,8,19.32,19.32,0,0,0-3.4,15.48C8.78,41.72,16.57,48,26.7,48.12a17.62,17.62,0,0,0,3.39-.39,20.9,20.9,0,0,0,14.06-9.52A19.35,19.35,0,0,0,33.81,9.15ZM26.43,47.26A18.51,18.51,0,0,1,7.79,32.53c-1.3-6.28.44-11.85,4.61-16.63a20.22,20.22,0,0,1,22.31-5.58A18.24,18.24,0,0,1,46.53,27.44C46.56,38.22,37.47,47.19,26.43,47.26Z"/><path id="Path_1429" data-name="Path 1429" class="cls-1" d="M35.51,35.09c-.61-.46-.6-.82-.26-1.43,1.3-2.3,1-4.67.19-7-.15-.46-.4-.6-.87-.32a3.93,3.93,0,0,0-1.71,1.91,9.72,9.72,0,0,0-.64,2.24c-.11.76.37,1.44.44,2.39a10.81,10.81,0,0,1-2-2.08,6.6,6.6,0,0,0,.16-8.27c-1.72,1.67-2.69,3.61-2.09,6.15a7.91,7.91,0,0,1-1.08-.85c-.48-.41-.53-.68-.07-1.27,1.74-2.23,1.24-4.66.48-7.16a6.32,6.32,0,0,0-2.87,5.82l-1-.91c-.31-.3-.22-.51,0-.84a5.41,5.41,0,0,0-1-7.6c-.25,1.56-1.21,2.79-1.65,4.55-1.23-2.55-2.78-4.17-5.44-4.26a3,3,0,0,1-.57-.14c-.77-.16-.86-.08-.7.67C15.49,19.48,17.4,21,20,21.85c.46.14,1,.07,1.17.91a13.65,13.65,0,0,0-6,.37,3.47,3.47,0,0,0,2.58,2.49,5.28,5.28,0,0,0,4-.48c1.45-.76,1.46-.74,2.6.47a1.22,1.22,0,0,1,.51.87c-2.38-.7-4.5,0-6.81.65a7.87,7.87,0,0,0,5.23,2.32c-.49.63-1.39.35-1.83,1.11l2.42,1.3a4.39,4.39,0,0,0,4.94-.21c.69-.49,1.21-.49,1.7.22.22.3.64.47.62.93-4.14.06-4.9.27-5.91,1.67.26.12.51.25.76.39a6.74,6.74,0,0,0,7.16.45.76.76,0,0,1,.93.15A4.45,4.45,0,0,1,35,36.6a5.84,5.84,0,0,0,1.17,1.49.73.73,0,0,0,1,.07l0,0c.33-.28.23-.62.07-.93A6.37,6.37,0,0,0,35.51,35.09ZM17.88,19.66c-.7-.16.09-.39.19-.64a2.48,2.48,0,0,1-.66-.18c-.24-.13-.88-.15-.3-.67-.22-.23-.64-.21-.76-.57,0-.08,0-.23,0-.27a.53.53,0,0,1,.38-.12c1.63.56,3.17,1.22,3.8,3.3-1.07-.23-1.82-.67-2.67-.85Zm2.79,4.71c0,.29-.17.33-.37.26a4.31,4.31,0,0,0-2.81-.26.49.49,0,0,1-.63-.28.38.38,0,0,1,0-.1c-.09-.44.31-.38.57-.45a5.66,5.66,0,0,1,3.92.4c-.32.08-.61.18-.65.43Zm3-1.19c-1.16-1.44-1.13-4-.17-5.08.1-.11.24-.22.38-.13s.24.25.21.34a1.7,1.7,0,0,0,.43,1.56c.14.19.05.48.11.69.19.65-1.36.16-.67,1.07.46.61-.57.74-.29,1.55Zm3.47-1.71a.32.32,0,0,1,.41-.19.33.33,0,0,1,.15.11.27.27,0,0,1,0,.26c-.17.21-.32,0-.48,0,.17.4.33.8.52,1.19s-.78.14-.44.7a6.86,6.86,0,0,1,.42.91s0,.09,0,.14c.12.54-1.26-.95-.56.42.21.4,0,.82-.31,1.16a3.43,3.43,0,0,1,.29-4.66ZM25.59,28.7c1.27-.66,1.27-.66,2.44.86-1.27-.22-2.35-.14-3.47-.37.34-.16.69-.31,1-.49Zm-2.78-.58c-.74-.4-1.7.36-2.39-.41a4.52,4.52,0,0,1,4.51-.22c-.75.37-1.27,1.09-2.12.63Zm1.27,2.56a4.16,4.16,0,0,1,4.11.16c-3.14.68-3.14.68-4.11-.16Zm6.36-1.28c-.23.05-.33-.12-.44-.29a4.29,4.29,0,0,1,0-4.26c.15-.23.29-.57.63-.46s.28.44.2.74c0,.12.06.27.1.42-.44,1.1.06,2.27-.2,3.41,0,.19-.07.39-.28.44ZM30.26,34h-.05a1.93,1.93,0,0,1-2.77.18c1-.31,1.84-.72,2.79-.18h0l.34-.08c-.08.16-.22.08-.34.07Zm4.07-3.87c-.32,0-.34.76-.11,1.25s.8,1.19,0,1.47c-.53.2-.69-.68-.91-1.13-.6-1.25,0-2.33.62-3.59a11.46,11.46,0,0,1,.73,1.33c.1.26.32.59-.35.67Z"/><path id="Path_1494" data-name="Path 1494" class="cls-1" d="M30.23,34Z"/><path id="Path_1496" data-name="Path 1496" class="cls-1" d="M30.22,34h0Z"/></g><circle class="cls-2" cx="41.31" cy="40.88" r="8.73"/><path id="Path_1310" data-name="Path 1310" class="cls-3" d="M40,44.62a.44.44,0,0,1-.29-.11l-3.21-3.22a.39.39,0,0,1,0-.56.4.4,0,0,1,.57,0h0L40,43.65l6.4-6.4a.4.4,0,0,1,.57,0,.39.39,0,0,1,0,.56l-6.69,6.7A.41.41,0,0,1,40,44.62Z"/></svg>