<svg id="Layer_1" data-name="Layer 1" xmlns="http://www.w3.org/2000/svg" viewBox="0 0 56.69 56.69"><defs><style>.cls-1{fill:#4d6b7f;}.cls-2{fill:#b5d384;}.cls-3{fill:#363840;stroke:#363840;stroke-miterlimit:10;stroke-width:0.1px;}</style></defs><title>Recepidia_Icons</title><g id="Group_1240" data-name="Group 1240"><path id="Path_1410" data-name="Path 1410" class="cls-1" d="M40.05,12.61A19.35,19.35,0,0,0,14,14.1,19.66,19.66,0,0,0,8.24,27.18c0,6.16,1.61,10.88,4.83,14.74,9.29,11.15,26.21,9.31,32.67-3.62A21.12,21.12,0,0,0,40.05,12.61ZM47,29A19.06,19.06,0,0,1,31.91,48a18,18,0,0,1-15.07-3.65,20.16,20.16,0,0,1-5.5-25.16C14.8,12.7,20.39,9.16,27.68,9.07c7-.09,12.45,3.28,16.25,9.18A19.81,19.81,0,0,1,47,29Z"/><path id="Path_1428" data-name="Path 1428" class="cls-1" d="M38.43,23.08c-.54-.68-1.1-1.35-1.66-2a4.33,4.33,0,0,0-6.22-.83,8.56,8.56,0,0,0-2.63,3.07c-.52,1-1,2-1.55,3.13-.47-.39-.79-.67-1.14-.93A16.06,16.06,0,0,0,17,22.09c-1.85-.16-3,.44-3.6,1.94a7.22,7.22,0,0,0-.53,2.55,18.41,18.41,0,0,0,1.19,5.82,10.61,10.61,0,0,0,3.55,5,7.74,7.74,0,0,0,9.19.34c.56-.44.86-.41,1.29.13a6.79,6.79,0,0,0,6.25,2.44c2.11-.19,4.17-.62,5.39-2.66A10.94,10.94,0,0,0,41.49,32,14.18,14.18,0,0,0,38.43,23.08ZM25.8,36.63a6,6,0,0,1-7.85-.7,10.67,10.67,0,0,1-3-6.65,11.37,11.37,0,0,1,.16-3.77c.37-1.63,1.38-2.46,3-2.16a15.3,15.3,0,0,1,7,2.79,2.73,2.73,0,0,1,.87,1,2.36,2.36,0,0,1,0,1.44A9.56,9.56,0,0,0,25.76,31c0,.85.23,1.7.2,2.56a6.21,6.21,0,0,0,.51,1.58.93.93,0,0,1,.17.67c-.09.35-.57.6-.84.78Zm11.9.53a6.13,6.13,0,0,1-4,1.53c-2.89,0-4.29-.91-5.27-3.26-.34-.81-.65-1.62-.92-2.46a7.62,7.62,0,0,1-.09-4.58c.27-.88.56-1.76.78-2.65a8.71,8.71,0,0,1,3.19-4.57A2.73,2.73,0,0,1,34,20.6a4.64,4.64,0,0,1,2.39,1.31,14,14,0,0,1,3.9,8,8.5,8.5,0,0,1-2.58,7.29Z"/></g><circle class="cls-2" cx="42.73" cy="40.84" r="8.73"/><path id="Path_1310" data-name="Path 1310" class="cls-3" d="M41.36,44.59a.4.4,0,0,1-.29-.12l-3.21-3.21a.42.42,0,0,1,0-.57.4.4,0,0,1,.57,0h0l2.93,2.93,6.41-6.41a.39.39,0,0,1,.56,0,.4.4,0,0,1,0,.57l-6.69,6.69A.36.36,0,0,1,41.36,44.59Z"/></svg>