<svg xmlns="http://www.w3.org/2000/svg" width="85.547" height="75.275" viewBox="0 0 85.547 75.275">
  <g  data-name="Group 1960" transform="translate(-283.979 -454.764)">
    <g  data-name="Group 1242" transform="translate(283.979 454.764)">
      <g  data-name="Group 1235" transform="translate(0 0)">
        <path  data-name="Path 1412" d="M-215.335,146.454c-20.705.129-37.4,16.7-37.343,37.048.2,20.815,17.508,37.541,38.684,37.383,19.015.189,37.762-14.369,37.893-36.767C-175.979,163.127-193.222,146.234-215.335,146.454Zm1.141,73.255c-20.5.059-37.177-16.232-37.238-36.388v-.092c.057-19.194,15.746-36.225,38.1-35.573,20.031.473,36,16.6,35.952,36.3,0,19.752-16.295,35.763-36.389,35.76l-.422,0Z" transform="translate(252.678 -146.452)" fill="#587c94"/>
        <path  data-name="Path 1420" d="M-234.28,192.346l-.033-.035Z" transform="translate(252.97 -146.516)" fill="#587c94"/>
        <path  data-name="Path 1430" d="M-219.928,173.21c.13,1.707.161,3.677,2.463,4.319.271.076.406.575.636.85,3.812,4.521,9.041,6.475,14.629,7.769a2.873,2.873,0,0,0,2.743-.825c5.065-4.787,6.117-13.209,4.26-17.42-.406-.923-.5-1.431.666-1.764,1.271-.364,1.056-1.258.525-2.13a12.3,12.3,0,0,0-2.608-3.1,13.381,13.381,0,0,0-12.558-2.636c-1.941.5-2.113.414-2.743-1.4-.253-.728,0-1.628-1.041-2.472a4.083,4.083,0,0,0-.566,3.729,1.624,1.624,0,0,1-.835,2.162l-.029.012C-219.174,163.354-220.323,168.017-219.928,173.21Zm23.687-9.661c.218.05.4.271.559.39-.034.294-.157.406-.334.324a1.013,1.013,0,0,1-.384-.339c-.128-.186-.031-.418.159-.376Zm-1.9-1.515-4.044-2.3C-199.435,160.294-199.435,160.294-198.14,162.033Zm-.572,1.367c-.2-.161-.373-.349-.559-.525.154-.048.354-.181.455-.129a2.619,2.619,0,0,1,.528.453c-.09.293-.237.351-.425.2Zm.272,1.628c-2.011-.1-3.962-.322-5.608-2.5A18.587,18.587,0,0,1-198.44,165.028Zm-4.187-3.278a3.837,3.837,0,0,1-2.795-1.757C-203.878,159.666-203.019,160.118-202.626,161.75Zm-3.808-1.107c.545,1.129.289,1.966.743,2.6.021,0,.038.012.06.019l-.031.029s.031-.029.02-.016l-.018.044c.031.6.061,1.2.12,2.377a2.387,2.387,0,0,1-.12-2.377v-.027c-.011-.015-.018-.033-.028-.048-1.325-.386-.705-1.331-.746-2.605Zm-2.3-1.149c.672-.051.588.48.64.916.337,2.81.689,5.62,1.036,8.43l-.6.054a32.936,32.936,0,0,1-1.853-8.248c-.052-.608.071-1.1.776-1.152Zm-2.357.536c1.586,1.226,1.084,2.736,1.422,3.963.344,1.267.639,2.546.955,3.821-2-2.072-2.59-4.633-2.377-7.785Zm-1.474.487c1.219,2.152.972,4.094,1.462,5.9a7.4,7.4,0,0,1-1.462-5.9Zm.181,7.8c1.668,1.076,3.132,2.123,4.7,3,1.755.984,2.264.674,2.862-1.243.508-1.615.411-3.37,1.157-5a24.011,24.011,0,0,0,4.493,1.3,1.436,1.436,0,0,1,1.321,1.147c1.674,5.492,1.247,10.6-2.717,15.116a2.926,2.926,0,0,1-3.09,1.124,28.511,28.511,0,0,1-10.454-4.441,7.17,7.17,0,0,1-1.822-1.985,1.229,1.229,0,0,1,.058-1.692,16.907,16.907,0,0,0,3.495-7.33Zm-1.953-4.794c-.494,2.056-1.049,4.094-1.584,6.144.032-.032.058-.066.089-.1v.068c.813-.49.561-1.717,1.612-2.253a11.129,11.129,0,0,1-2.678,6.227,1.733,1.733,0,0,1-1.587,1.374,74.508,74.508,0,0,1,3.623-12.882c.9.4.629.989.524,1.421Z" transform="translate(253.198 -146.463)" fill="#587c94"/>
        <path  data-name="Path 1431" d="M-192.768,201.346c-1.3-.654-1.665-1.826-2.161-2.96-1.247-2.845-2.786-5.444-5.784-6.855a21.417,21.417,0,0,0-10.851-2.228c-4.049.317-7.6,1.839-9.9,5.4-.846,1.31-1.7,2.819-1.021,4.274.921,1.969.3,3.515-.429,5.3-1.667,4.037-.092,7.432,3.979,9.2,2.98,1.293,6.217,1.269,9.063,1.907a8.569,8.569,0,0,0,5.268-1.927,4.174,4.174,0,0,1,3.258-1.056c2.438.273,3.93-1.12,5.008-3.025a9.511,9.511,0,0,0,.936-2.513,8.413,8.413,0,0,1,2.445-4.063C-192.2,202.074-192.016,201.721-192.768,201.346Zm-27.983-3.006c.717-4.276,6.262-8.218,11.3-6.927.508.13.495.281-.133,1.4,1.5.2,3.013-.242,4.49.634-.094-.9-.621-1.034-.852-1.4,2.206-1.068,8.035,4.16,9.806,9.035-2.171,0-4.228.075-6.278-.014a119.694,119.694,0,0,0-15.6.118c-2.217.191-3.083-.78-2.737-2.846Zm23.433,7.277a1.486,1.486,0,0,0-.671,1.82,2.059,2.059,0,0,1-.933,2.756,3.075,3.075,0,0,1-3.589-.088c-.3-.206-.576-.437-.869-.65s-.638-.386-.974-.092-.2.655.029.947c.7.9.123,1.264-.659,1.532a14.7,14.7,0,0,1-1.814.563,18.364,18.364,0,0,1-9.9-.938,7.388,7.388,0,0,1-4.754-4.857c-.84-2.6.13-3.955,2.859-4a20.287,20.287,0,0,1,5.892,1.012,10.719,10.719,0,0,0,6.931-.191c3.266-1.2,6.721-1.258,10.862-1.188-1.087,1.43-.979,2.793-2.408,3.372Z" transform="translate(253.141 -146.512)" fill="#587c94"/>
        <path  data-name="Path 1432" d="M-229.267,165.9c-3.944-.624-9.176,1.745-9.9,6.8-.3,2.115-.144,4.214-.319,6.491a1.8,1.8,0,0,0,1.406-1.926c.049-.9.016-1.8.034-2.69.075-3.951,1.738-6.372,5.58-7.281,3.972-.941,4.763-.671,6.11,3.133a11.007,11.007,0,0,1,.515,2.628c.289,2.919-1,5.214-2.855,7.307a7.038,7.038,0,0,0-1.8,6.191c.78,4.855-4.31,9.631-9.209,8.847a3.808,3.808,0,0,1-2.174-1.046,8.79,8.79,0,0,1-2.762-4.84c-.1-.67.113-1.47-.741-1.929-.935.775-.738,1.756-.426,2.689a23.558,23.558,0,0,0,1.294,3.25c1.612,3.182,5.418,5.162,8.56,4.533a8.9,8.9,0,0,0,6.806-7.823,38.991,38.991,0,0,0-.052-4.3,4.875,4.875,0,0,1,1.512-4.133,21.44,21.44,0,0,0,3.635-5.025C-221.167,171.721-223.527,166.806-229.267,165.9Z" transform="translate(252.783 -146.479)" fill="#587c94"/>
        <path  data-name="Path 1433" d="M-216.908,157.718c.786.114,1.747.314,2.118-.68A1.7,1.7,0,0,0-215.7,155c-2.074-1.438-4.273-2.376-7.076-1.747A7.476,7.476,0,0,0-216.908,157.718Zm1.088-.935c-2.743-.193-2.743-.193-4.507-1.808,2.066-.278,2.574-.091,4.506,1.808Z" transform="translate(253.154 -146.461)" fill="#587c94"/>
        <path  data-name="Path 1434" d="M-238.843,190.242a15.093,15.093,0,0,1-2.452.774c1.06.812.738,2.488,2.292,2.88l.783-.4h0c.813-1.389-.89-.831-1.179-1.5a5.736,5.736,0,0,0,3.116-5.452c-.636-.157-.958.03-.8.769C-236.764,188.814-237.78,189.529-238.843,190.242Z" transform="translate(252.859 -146.508)" fill="#587c94"/>
        <path  data-name="Path 1435" d="M-236.362,186.492v.048c.024.006.046.009.07.016Z" transform="translate(252.938 -146.508)" fill="#587c94"/>
        <path  data-name="Path 1436" d="M-234.293,192.3l.031.035.071.077.007.008a2.789,2.789,0,0,0,1.842-1.774,2.882,2.882,0,0,0-1.381-3.877c-.061-.029-.123-.056-.186-.08.484,1.186.129,3.161-.681,3.78-1.269.968-1.269.968.222,1.753h0Z" transform="translate(252.951 -146.508)" fill="#587c94"/>
        <path  data-name="Path 1437" d="M-233.933,186.691" transform="translate(252.976 -146.508)" fill="#587c94"/>
        <path  data-name="Path 1438" d="M-233.932,186.678v.011l.219-.1Z" transform="translate(252.976 -146.508)" fill="#587c94"/>
        <path  data-name="Path 1439" d="M-233.933,186.691h0v0Z" transform="translate(252.976 -146.508)" fill="#587c94"/>
        <path  data-name="Path 1440" d="M-232.873,183.242c.744.43-.073,1.415.755,1.786,1.439-1.938.127-3.37-.775-4.868-1.047.928-.315,2.36-1,3.427a3.431,3.431,0,0,0-.039,3.083h0A6.426,6.426,0,0,1-232.873,183.242Z" transform="translate(252.971 -146.499)" fill="#587c94"/>
        <path  data-name="Path 1441" d="M-233.936,186.681v0Z" transform="translate(252.976 -146.508)" fill="#587c94"/>
        <path  data-name="Path 1442" d="M-227.8,177.246c0-1.238.018-2.13-.009-3.02-.01-.344-.031-.749-.488-.853a.8.8,0,0,0-.914.383c-.406.674-.813,1.352-1.224,2.028C-228.967,174.943-228.945,176.627-227.8,177.246Z" transform="translate(253.032 -146.49)" fill="#587c94"/>
        <path  data-name="Path 1443" d="M-240.3,180.143a10.82,10.82,0,0,0-3.288,4.234C-240.982,183.019-240.38,182.22-240.3,180.143Z" transform="translate(252.823 -146.499)" fill="#587c94"/>
        <path  data-name="Path 1444" d="M-230.058,169.54l.422,2.677C-228.4,171.059-229.147,170.256-230.058,169.54Z" transform="translate(253.038 -146.484)" fill="#587c94"/>
        <path  data-name="Path 1445" d="M-240.531,184.6c.387.964.013,2.131,1.454,3.21l-.731-3.333Z" transform="translate(252.871 -146.505)" fill="#587c94"/>
        <path  data-name="Path 1446" d="M-234.586,172.989c.4-.707,1.282-1.144,1.381-2.347C-234.493,171.683-234.493,171.683-234.586,172.989Z" transform="translate(252.966 -146.486)" fill="#587c94"/>
        <path  data-name="Path 1447" d="M-231.8,172.227a6.129,6.129,0,0,0-.822,2.914C-232.048,174.038-231.373,173.464-231.8,172.227Z" transform="translate(252.997 -146.488)" fill="#587c94"/>
        <path  data-name="Path 1448" d="M-239.038,193.906c1.2.872,2.159.314,3.077-.461l-2.295.06h0C-238.364,193.927-238.6,194.111-239.038,193.906Z" transform="translate(252.895 -146.518)" fill="#587c94"/>
        <path  data-name="Path 1449" d="M-235.94,193.387l-.069.058h.118Z" transform="translate(252.943 -146.518)" fill="#587c94"/>
        <path  data-name="Path 1450" d="M-239.038,193.905c.441.2.675.021.783-.4h0Z" transform="translate(252.895 -146.518)" fill="#587c94"/>
        <path  data-name="Path 1451" d="M-241.759,187.737c-.175,1.192.115,1.844,1.654,2.306A5.779,5.779,0,0,0-241.759,187.737Z" transform="translate(252.851 -146.51)" fill="#587c94"/>
        <path  data-name="Path 1452" d="M-237.144,173.686c-.5.646-.021,1.157.255,1.668.146.27.434.233.813-.036C-236.516,174.842-236.274,173.988-237.144,173.686Z" transform="translate(252.922 -146.49)" fill="#587c94"/>
        <path  data-name="Path 1453" d="M-243.12,187.978c-.5.96-.914,1.663.045,2.583C-242.956,189.611-242.575,188.881-243.12,187.978Z" transform="translate(252.822 -146.51)" fill="#587c94"/>
        <path  data-name="Path 1454" d="M-236.768,181.251c.541-.349,1.454-.343,1.3-1.368C-236.78,179.408-236.695,180.413-236.768,181.251Z" transform="translate(252.931 -146.499)" fill="#587c94"/>
        <path  data-name="Path 1455" d="M-235.492,179.844v.037c.023.009.044.015.068.023Z" transform="translate(252.951 -146.499)" fill="#587c94"/>
        <path  data-name="Path 1456" d="M-232.957,176.81a.457.457,0,0,0,.259.592c.382.035.418-.233.421-.477,0-.156-.052-.411-.149-.448C-232.7,176.373-232.888,176.562-232.957,176.81Z" transform="translate(252.991 -146.494)" fill="#587c94"/>
        <path  data-name="Path 1457" d="M-236.292,186.557c-.013-.035-.02-.068-.032-.1l-.044.034h0Z" transform="translate(252.937 -146.508)" fill="#587c94"/>
        <path  data-name="Path 1458" d="M-235.785,184.6a1.7,1.7,0,0,0-.535,1.857C-235.72,186.005-235.267,185.516-235.785,184.6Z" transform="translate(252.937 -146.505)" fill="#587c94"/>
        <path  data-name="Path 1459" d="M-236.362,186.492h0l.07.064Z" transform="translate(252.938 -146.508)" fill="#587c94"/>
        <path  data-name="Path 1460" d="M-234.638,178.319a3.192,3.192,0,0,0-.762,1.5C-234.684,179.57-234.289,179.154-234.638,178.319Z" transform="translate(252.953 -146.497)" fill="#587c94"/>
        <path  data-name="Path 1461" d="M-235.489,179.847l.067.058c.005-.031.016-.061.022-.09C-235.43,179.824-235.46,179.837-235.489,179.847Z" transform="translate(252.951 -146.499)" fill="#587c94"/>
        <path  data-name="Path 1462" d="M-234.777,169.815c-.056-.149-.1-.422-.17-.427a.842.842,0,0,0-.826.524c-.046.094.1.406.2.419A.688.688,0,0,0-234.777,169.815Z" transform="translate(252.947 -146.484)" fill="#587c94"/>
        <path  data-name="Path 1463" d="M-235.941,193.387l.049.055c.006-.018.015-.032.021-.049Z" transform="translate(252.944 -146.518)" fill="#587c94"/>
        <path  data-name="Path 1464" d="M-234.176,192.429l-.007-.008-.071-.077-.031-.035-.072-.079c-.617.249-1.253.474-1.514,1.159A1.692,1.692,0,0,0-234.176,192.429Z" transform="translate(252.945 -146.516)" fill="#587c94"/>
        <path  data-name="Path 1465" d="M-234.209,192.422l-.07-.078Z" transform="translate(252.971 -146.516)" fill="#587c94"/>
        <path  data-name="Path 1466" d="M-234.383,192.231h0l.072.079Z" transform="translate(252.969 -146.516)" fill="#587c94"/>
        <path  data-name="Path 1497" d="M-205.855,163.274l-.06-.019c.011.015.018.033.029.048Z" transform="translate(253.422 -146.475)" fill="#587c94"/>
        <path  data-name="Path 1498" d="M-205.87,163.288c.011-.012-.02.016-.02.016v.027Z" transform="translate(253.422 -146.475)" fill="#587c94"/>
        <path  data-name="Path 1514" d="M-201.743,180.626c.728.215,1.132-.358,1.5-.874a5.705,5.705,0,0,0,1.13-3.267c-.055-.452.182-1.089-.421-1.367a1.491,1.491,0,0,0-1.539.237,4.307,4.307,0,0,0-1.868,3.656A1.667,1.667,0,0,0-201.743,180.626Zm1.92-4.727c-.155,1.52-.316,2.808-1.75,3.663-.441-2.259-.4-2.343,1.753-3.663Z" transform="translate(253.469 -146.492)" fill="#587c94"/>
        <path  data-name="Path 1515" d="M-215.987,169.72l.1-.124c-.032.031-.059.065-.09.1l-.006.026Z" transform="translate(253.261 -146.484)" fill="#587c94"/>
        <path  data-name="Path 1516" d="M-215.987,169.72l.011.042.037-.072C-215.956,169.7-215.97,169.711-215.987,169.72Z" transform="translate(253.261 -146.484)" fill="#587c94"/>
        <path  data-name="Path 1517" d="M-215.893,169.665V169.6c-.017.031-.031.064-.049.1Z" transform="translate(253.262 -146.484)" fill="#587c94"/>
        <path  data-name="Path 1518" d="M-215.959,169.762l-.011-.042h0l.006-.026a3.989,3.989,0,0,0-1.077,2.862C-216.61,171.65-216.417,170.657-215.959,169.762Z" transform="translate(253.245 -146.484)" fill="#587c94"/>
        <path  data-name="Path 1519" d="M-215.987,169.72c.017-.009.031-.02.048-.027.017-.032.031-.064.049-.1l-.1.123Z" transform="translate(253.261 -146.484)" fill="#587c94"/>
        <path  data-name="Path 1520" d="M-215.973,169.763l.071.26c.01-.117.012-.238.012-.357l-.047.026A.4.4,0,0,0-215.973,169.763Z" transform="translate(253.262 -146.484)" fill="#587c94"/>
        <path  data-name="Path 1521" d="M-215.959,169.763c-.458.894-.652,1.888-1.081,2.8a4.872,4.872,0,0,0,1.153-2.532C-215.911,169.936-215.935,169.85-215.959,169.763Z" transform="translate(253.245 -146.485)" fill="#587c94"/>
        <path  data-name="Path 1522" d="M-215.987,169.719" transform="translate(253.261 -146.484)" fill="#587c94"/>
        <path  data-name="Path 1523" d="M-215.8,206.251c-.389-1.42-1.864-1.186-2.681-1.936a.574.574,0,0,0-.8.095.553.553,0,0,0-.114.43c.119.542-.233,1-.048,1.5,1.771-.706,1.774-.708,3.038.662.79.859,1.585,1.692,3.055,1.312C-213.968,207.271-215.5,207.334-215.8,206.251Z" transform="translate(253.206 -146.533)" fill="#587c94"/>
        <path  data-name="Path 1524" d="M-209.8,208.92c2.826.8,3.921-.125,3.719-3.3C-206.955,207.338-208.659,207.57-209.8,208.92Z" transform="translate(253.36 -146.535)" fill="#587c94"/>
        <path  data-name="Path 1525" d="M-203,208.281c2.823.043,3.644-.769,3.058-3.589C-200.744,206.939-200.744,206.939-203,208.281Z" transform="translate(253.468 -146.534)" fill="#587c94"/>
        <path  data-name="Path 1526" d="M-212.019,211.445c1.907.312,1.907.312,3.143-.516C-210.016,210.65-210.945,211.337-212.019,211.445Z" transform="translate(253.325 -146.542)" fill="#587c94"/>
        <path  data-name="Path 1527" d="M-214.119,205.126a2.474,2.474,0,0,0,3.3.931C-211.906,206.095-212.832,205.489-214.119,205.126Z" transform="translate(253.291 -146.534)" fill="#587c94"/>
        <path  data-name="Path 1528" d="M-202.423,204.938a.412.412,0,0,0-.484.321l0,.015a1.9,1.9,0,0,0,.622-.078C-202.131,205.124-202.207,204.955-202.423,204.938Z" transform="translate(253.469 -146.534)" fill="#587c94"/>
        <path  data-name="Path 1529" d="M-202.924,205.333c.005-.02.01-.041.017-.061h-.067l.021.024Z" transform="translate(253.468 -146.534)" fill="#587c94"/>
        <path  data-name="Path 1530" d="M-203.911,205.46c.071.1.139.285.214.289.33.014.695.026.731-.426A1.145,1.145,0,0,0-203.911,205.46Z" transform="translate(253.453 -146.534)" fill="#587c94"/>
        <path  data-name="Path 1531" d="M-202.954,205.3l-.021-.024h0a.136.136,0,0,1-.005.045c.018.006.037.006.055.012Z" transform="translate(253.468 -146.534)" fill="#587c94"/>
        <path  data-name="Path 1532" d="M-202.953,205.3l-.021-.024h0Z" transform="translate(253.468 -146.534)" fill="#587c94"/>
        <path  data-name="Path 1533" d="M-216.34,209.8v.145c.146.011.294.014.441.017a1.11,1.11,0,0,0-.005-.156C-216.049,209.794-216.2,209.8-216.34,209.8Z" transform="translate(253.256 -146.541)" fill="#587c94"/>
        <path  data-name="Path 1534" d="M-212.7,196.751c1.967.379,3.564,2.108,6.371,1.756C-208.808,197.773-210.458,196.387-212.7,196.751Z" transform="translate(253.314 -146.522)" fill="#587c94"/>
        <path  data-name="Path 1535" d="M-203.943,195.946a14.736,14.736,0,0,1,4.509,1.532C-201.135,195.9-201.48,195.787-203.943,195.946Z" transform="translate(253.453 -146.521)" fill="#587c94"/>
        <path  data-name="Path 1536" d="M-218.23,196.439l3.288-2.613A3.669,3.669,0,0,0-218.23,196.439Z" transform="translate(253.226 -146.518)" fill="#587c94"/>
        <path  data-name="Path 1537" d="M-218.461,198.755a5.278,5.278,0,0,0,3.412.874C-216.99,198.691-216.99,198.691-218.461,198.755Z" transform="translate(253.222 -146.525)" fill="#587c94"/>
        <path  data-name="Path 1538" d="M-213.032,194.263l3.5.778A3.586,3.586,0,0,0-213.032,194.263Z" transform="translate(253.308 -146.519)" fill="#587c94"/>
        <path  data-name="Path 1539" d="M-211.87,199.619a1.526,1.526,0,0,0,.455.157,1.08,1.08,0,0,0,.4-.17,1.533,1.533,0,0,0-.469-.165C-211.615,199.441-211.743,199.555-211.87,199.619Z" transform="translate(253.327 -146.526)" fill="#587c94"/>
        <path  data-name="Path 1540" d="M-201.551,198.557c-.142.293-.353.6.137.806.079.035.244.062.254.038C-200.957,198.98-201.518,198.889-201.551,198.557Z" transform="translate(253.488 -146.525)" fill="#587c94"/>
        <path  data-name="Path 1541" d="M-201.558,198.532v.026l.028-.059Z" transform="translate(253.491 -146.525)" fill="#587c94"/>
        <path  data-name="Path 1542" d="M-202.426,198.7c.241-.047.479-.1.719-.16-.269,0-.533-.009-.794-.019A.891.891,0,0,0-202.426,198.7Z" transform="translate(253.476 -146.525)" fill="#587c94"/>
        <path  data-name="Path 1543" d="M-201.572,198.545l.049-.046-.193.042C-201.667,198.542-201.625,198.545-201.572,198.545Z" transform="translate(253.488 -146.525)" fill="#587c94"/>
        <path  data-name="Path 1544" d="M-213.315,192.7c0-.058-.01-.119-.014-.168h-.266a.761.761,0,0,0,.017.173A1.365,1.365,0,0,0-213.315,192.7Z" transform="translate(253.299 -146.516)" fill="#587c94"/>
      </g>
    </g>
    <g  data-name="Group 1358" transform="translate(336.594 497.669)">
      <ellipse  data-name="Ellipse 21" cx="16.466" cy="16.185" rx="16.466" ry="16.185" transform="translate(0 0)" fill="#fc5959"/>
      <g  transform="translate(10.854 10.669)">
        <g  data-name="Group 1159">
          <line  data-name="Line 18" x1="11.224" y2="11.033" fill="none" stroke="#363840" stroke-linecap="round" stroke-width="1.776"/>
          <line  data-name="Line 19" x1="11.224" y1="11.033" fill="none" stroke="#363840" stroke-linecap="round" stroke-width="1.776"/>
        </g>
      </g>
    </g>
  </g>
</svg>
