<svg xmlns="http://www.w3.org/2000/svg" width="81" height="76" viewBox="0 0 81 76">
  <g data-name="Group 1957">
    <g data-name="Group 1233" fill="#587c94">
      <path data-name="Path 1418" d="M38 73c20 1 37-16 37-36C75 18 60 0 37 0 17 0 0 16 0 35v1c0 21 17 38 38 37zM37 1c16 0 37 12 37 36 0 20-16 35-36 35C18 73 1 56 1 36 1 17 17 1 37 1z"/>
      <path data-name="Path 1475" d="M35 51a2 2 0 0 0 2 2c2 0 3-1 3-3l2-18c1-3 1-3 4-3 4 0 7-1 9-4a18 18 0 0 0 5-11l-1-2-7 2a13 13 0 0 0-10 12 4 4 0 0 1 0 3 43 43 0 0 0-4 5l-1 2a7 7 0 0 1-1-3 45 45 0 0 0-6-12 27 27 0 0 0-7-6c-1-1-3-2-4-1a3 3 0 0 0 1 1c8 11 14 22 15 36zm14-34l2-1a15 15 0 0 1 6-2l1 1c-1 5-4 12-12 12a9 9 0 0 1-1-1l5-2h-2l4-1-1-1h-1l1-1h4l-2-1 4-4c-2 0-2 1-3 2l-1-1-1 2-1-3-1 4v-2l-2 3c-1-2 0-3 1-4zm-2 3c0 2 0 4-3 4a6 6 0 0 1 3-4zm-9 18v11c-2-4-2-7 0-11zm-9-14l4 8c3 6 3 7 2 9-3-9-6-17-12-24l6 7z"/>
      <path data-name="Path 1476" d="M16 30z"/>
      <path data-name="Path 1477" d="M19 33z"/>
      <path data-name="Path 1478" d="M23 47a2 2 0 0 0 3-1 41 41 0 0 1 3-5c2-1 2-2 0-3l-3-2a6 6 0 0 0-3-1c-2 0-1-2-3-3a25 25 0 0 0-4-2l3 3a1 1 0 0 1 2 1c0 2 1 2 3 2s3 2 5 3v1a30 30 0 0 0-4 5 1 1 0 0 1-1 0l-11-5a2 2 0 0 1-1-1c0-2-1-2-3-2H8l1-1 5-5a3 3 0 0 1 2-1h-3l-7 7a7 7 0 0 0-2 8 3 3 0 0 0 3 2 131 131 0 0 1 16 0zm-12-9v1a1 1 0 0 1-1-1h1zm4 7H9c-2 0-3 0-3-2a10 10 0 0 1-1-2l1-2c1-1 2 0 2 1 1 1 1 2 3 2 0-1-2-2-1-3a7 7 0 0 0 5 4 6 6 0 0 1 4 2 9 9 0 0 1-4 0z"/>
      <path data-name="Path 1479" d="M16 30z"/>
      <path data-name="Path 1481" d="M16 30z"/>
      <path data-name="Path 1482" d="M57 42a18 18 0 0 0-7-3c-2-1-2 0-3 2a10 10 0 0 0 1 9c2 3 5 4 8 2a3 3 0 0 1 3 1c4 3 9 1 10-4 1-4 0-9-4-12-1-2-3-2-5 0a17 17 0 0 0-3 5zm-1 9a5 5 0 0 1-7-1 9 9 0 0 1-2-6c0-4 2-5 6-3a12 12 0 0 1 1 0c3 2 3 2 2 4a8 8 0 0 0 1 4 1 1 0 0 1-1 2zm5-13c2-2 2-2 4 0 3 3 4 7 3 11a4 4 0 0 1-4 4 5 5 0 0 1-5-2 6 6 0 0 1-2-5 11 11 0 0 1 4-8z"/>
      <path data-name="Path 1505" d="M16 30z"/>
      <path data-name="Path 1506" d="M19 33z"/>
      <path data-name="Path 1507" d="M16 30z"/>
      <path data-name="Path 1508" d="M19 33z"/>
      <path data-name="Path 1577" d="M17 40a2 2 0 0 0 2-1 2 2 0 0 0-2-2l-2 1a2 2 0 0 0 2 2zm0-2h1l-1 1-1-1a1 1 0 0 1 1 0v-1z"/>
      <path data-name="Path 1578" d="M23 42a1 1 0 0 0 2 0 1 1 0 0 0 0-1 1 1 0 0 0 0-1l-1 1v-1h1-2a2 2 0 0 0 0 2z"/>
      <path data-name="Path 1579" d="M13 34a1 1 0 0 0 1 1c1 0 2 0 1-1a1 1 0 0 0-1-1h-1a2 2 0 0 0 0 1zm1 0h0z"/>
      <path data-name="Path 1580" d="M13 33h1a1 1 0 0 0-1 0z"/>
      <path data-name="Path 1582" d="M17 34a2 2 0 0 0 1 1 1 1 0 0 0 1 0v-1h-1a1 1 0 0 1 1 0 1 1 0 0 1-1 0v-1a1 1 0 0 0-1 1z"/>
      <path data-name="Path 1583" d="M19 33z"/>
      <path data-name="Path 1584" d="M18 34h1v1a1 1 0 0 0 0-1 2 2 0 0 1 0-1h-1z"/>
      <path data-name="Path 1585" d="M19 33z"/>
      <path data-name="Path 1586" d="M19 33z"/>
      <path data-name="Path 1597" d="M25 40z"/>
      <path data-name="Path 1598" d="M25 40z"/>
      <path data-name="Path 1599" d="M18 34z"/>
    </g>
    <g data-name="Group 1385" transform="translate(49 44)">
      <ellipse data-name="Ellipse 24" cx="16" cy="16" rx="16" ry="16" fill="#b6dc85"/>
      <path data-name="Path 1310" d="M14 23a1 1 0 0 1-1 0l-6-6a1 1 0 0 1 0-1 1 1 0 0 1 1 0l6 5L26 9a1 1 0 0 1 1 0 1 1 0 0 1 0 1L14 23z" fill="#363840"/>
    </g>
  </g>
</svg>
