<svg id="Layer_1" data-name="Layer 1" xmlns="http://www.w3.org/2000/svg" viewBox="0 0 56.69 56.69"><defs><style>.cls-1{fill:#4d6b7f;}.cls-2{fill:#ea5a5c;}.cls-3{fill:none;stroke:#363840;stroke-linecap:round;stroke-width:0.96px;}</style></defs><title>Recepidia_Icons</title><g id="Group_1238" data-name="Group 1238"><path id="Path_1413" data-name="Path 1413" class="cls-1" d="M39.09,12.14A19,19,0,0,0,12.42,16c-.34.45-.66.92-1,1.4a20.6,20.6,0,0,0,1.49,24,19,19,0,0,0,15.1,7.26,18.46,18.46,0,0,0,8.56-2C49.71,39.84,51.07,21,39.09,12.14Zm7.55,16.5a19.05,19.05,0,0,1-6.75,14.88,18.27,18.27,0,0,1-23.12.58,19.9,19.9,0,0,1-4-27.46c4.28-5.75,10.14-8.41,17.27-7.47s12,5.05,15,11.54a18,18,0,0,1,1.61,7.93Z"/><path id="Path_1467" data-name="Path 1467" class="cls-1" d="M25,16h0Z"/><path id="Path_1468" data-name="Path 1468" class="cls-1" d="M35.9,20.11a2,2,0,0,1-.39-1.85c0-.54,0-1-.09-1.51a1.26,1.26,0,0,0-1.24-1.29h0c-1.44-.17-2.85-.57-4.28-.84-1.91-.36-3.81-.71-5.73-1-.79-.13-1.08.22-.91,1,0,.18.16.35.19.54.23,1.45.41,2.85-.74,4.09a28.78,28.78,0,0,0-2,2.71,1.91,1.91,0,0,0-.36,1.2c0,4.85-.05,9.71-.09,14.57,0,.82,0,1.65,0,2.47a.65.65,0,0,0,.49.74c1.37.5,2.71,1.06,4,1.67a4.69,4.69,0,0,0,3.11.25c2.14-.46,4.28-.87,6.42-1.33.93-.2,2.19,0,2.71-.77s.35-2,.4-3c.16-3.74.31-7.47.55-11.2A6.49,6.49,0,0,0,37,22C36.55,21.43,36.28,20.74,35.9,20.11Zm0,1.68a5.87,5.87,0,0,1,.8,1.65c-.23.35-.54.23-.81.21-2.55-.17-5.1-.41-7.66-.53-1.15-.06-1.88-.37-2.21-1.59a34,34,0,0,0-1.45-3.66,27.69,27.69,0,0,1,4.27.34c.72,0,.52.51.42.94-.29,1.36-.09,1.82,1,2.37,1.66.86,3,0,3-1.88,0-.3-.38-.7.13-.85a.89.89,0,0,1,1.1.48c.47.85,1,1.66,1.45,2.52Zm-6.2-1.65a11.43,11.43,0,0,0,2.22.77c-.93.45-1.18.36-2.22-.77Zm-.2-4.48a34.24,34.24,0,0,1,5.23,1c-.84.66-1.55.23-2.2.44.51.33,1.09,0,1.58.26.23.12.4.27.35.56s-.25.26-.44.28a1,1,0,0,1-.29,0c-1.95-.33-3.91-.56-5.89-.71a.67.67,0,0,1-.41-.11,3.67,3.67,0,0,0-2.58-.95.26.26,0,0,1-.2-.42A.2.2,0,0,1,25,16h0c-.12-.32-.52-.44-.54-1a23.66,23.66,0,0,1,5,.72Zm-5.41,3.22c.39,1.06,1.25,1.81.4,2.85.34,1.29-.81,1-1.35,1.12a6.84,6.84,0,0,1-1.94-.11,27.93,27.93,0,0,1,2.89-3.86Zm1.95,12.26c-.12,2.71-.36,5.41-.56,8.29-.46-.49-.13-1-.47-1.38a16.6,16.6,0,0,1-.16,2.74c-.25.84-.34,1-1.17.67-.64-.22-1.23-.57-1.86-.83-.44-.19-.45-.57-.51-1A21.82,21.82,0,0,1,21.25,35a35.22,35.22,0,0,0,0-5.81,36.61,36.61,0,0,1,0-5.83,33.22,33.22,0,0,1,3.93.33c.67,0,.93.36.92,1,0,2.13,0,4.27,0,6.4Zm10.82-6c0,1.84-.06,3.69-.25,5.52-.29,2.9-.28,5.82-.5,8.72-.07,1,0,1.16-1.21,1.38-2.53.46-5,1-7.56,1.53-.84.17-.95.09-.9-.78.17-2.81.17-5.63.23-8.45V25c0-.25,0-.49,0-.73,0-.63.27-1,1-.89s1.74.16,2.61.23l5.52.38c1,.08,1.06.09,1,1.1Z"/><path id="Path_1469" data-name="Path 1469" class="cls-1" d="M25.86,16.06l-.14,0A.34.34,0,0,0,25.86,16.06Z"/><path id="Path_1545" data-name="Path 1545" class="cls-1" d="M31.12,26.55c-.59.85-.52,1.76-1.06,2.39a7.63,7.63,0,0,0-1.4,2.84,5.16,5.16,0,0,0,.57,4.58A2.71,2.71,0,0,0,32,37.61a2.13,2.13,0,0,0,1.73-1.92,8,8,0,0,0-.61-6A28,28,0,0,1,31.12,26.55Zm2,8.32c-.27,1.28-1,2.15-1.81,2.21s-2-.94-2.25-2.17A5.61,5.61,0,0,1,31,29.06v0a.62.62,0,0,1,.29-.83h0c.36-.18.48.23.61.45A8.34,8.34,0,0,1,33.13,34.87Z"/><path id="Path_1546" data-name="Path 1546" class="cls-1" d="M25,16Z"/><path id="Path_1547" data-name="Path 1547" class="cls-1" d="M25.52,16l.2.08.14,0a.2.2,0,0,0,.08,0A.86.86,0,0,1,25.52,16Z"/><path id="Path_1548" data-name="Path 1548" class="cls-1" d="M25.52,16l-.07,0h0Z"/><path id="Path_1549" data-name="Path 1549" class="cls-1" d="M25.94,16a.2.2,0,0,1-.08,0,.93.93,0,0,0,.52-.09,1.48,1.48,0,0,0-.93,0s.05,0,.07,0A.86.86,0,0,0,25.94,16Z"/><path id="Path_1550" data-name="Path 1550" class="cls-1" d="M25.42,15.93l-.2,0a2.74,2.74,0,0,1,.5.08l-.2-.08Z"/><path id="Path_1551" data-name="Path 1551" class="cls-1" d="M25.09,16h0Z"/><path id="Path_1587" data-name="Path 1587" class="cls-1" d="M31,29v0h0Z"/><path id="Path_1588" data-name="Path 1588" class="cls-1" d="M30.93,29.26a.65.65,0,0,1,.05-.2h0a.85.85,0,0,0,0,.24S30.92,29.27,30.93,29.26Z"/><path id="Path_1589" data-name="Path 1589" class="cls-1" d="M30.93,29.26l.05-.2h0A.73.73,0,0,0,30.93,29.26Z"/><path id="Path_1602" data-name="Path 1602" class="cls-1" d="M30.9,29.7a2.12,2.12,0,0,1,0,.44A2.12,2.12,0,0,0,30.9,29.7Z"/><path id="Path_1603" data-name="Path 1603" class="cls-1" d="M30.93,29.26l0,0a2.64,2.64,0,0,0,0,.4A3.15,3.15,0,0,1,30.93,29.26Z"/><path id="Path_1605" data-name="Path 1605" class="cls-1" d="M30.9,29.7a2.12,2.12,0,0,1,0,.44.24.24,0,0,1,0,.08h0a.78.78,0,0,1-.23.38h0a.94.94,0,0,0,.22-.37h0a.19.19,0,0,0,0-.07,2.3,2.3,0,0,0,0-.45,2.61,2.61,0,0,1,0-.4c-.26.83-1,1.47-1.09,2.36l.05-.05h0l0,0c.39,0,.38.06.12.7-.26-.17-.11-.42-.13-.64l-.06,0a.64.64,0,0,0-.19.27c0,.32-.2.76.2.89s.66-.33.72-.68A8.52,8.52,0,0,0,31,29.06l-.05.2A3.15,3.15,0,0,0,30.9,29.7Z"/><path id="Path_1606" data-name="Path 1606" class="cls-1" d="M30.85,30.14a.24.24,0,0,1,0,.08A.24.24,0,0,0,30.85,30.14Z"/><path id="Path_1607" data-name="Path 1607" class="cls-1" d="M30.61,30.59h0a.89.89,0,0,0,.23-.38.84.84,0,0,1-.22.36S30.6,30.59,30.61,30.59Z"/><path id="Path_1608" data-name="Path 1608" class="cls-1" d="M31,29.06h0Z"/><path id="Path_1609" data-name="Path 1609" class="cls-1" d="M31,29.05Z"/></g><circle class="cls-2" cx="42.31" cy="41.32" r="8.73"/><g id="Close"><g id="Group_1159" data-name="Group 1159"><line id="Line_18" data-name="Line 18" class="cls-3" x1="45.28" y1="38.35" x2="39.33" y2="44.3"/><line id="Line_19" data-name="Line 19" class="cls-3" x1="45.28" y1="44.3" x2="39.33" y2="38.35"/></g></g></svg>