<svg xmlns="http://www.w3.org/2000/svg" width="78" height="77" viewBox="0 0 78 77">
  <g data-name="Group 1947">
    <g data-name="Group 1900" transform="translate(-1214 -2186)">
      <g data-name="Group 1892">
        <path data-name="Path 1701" d="M1247 2239a1 1 0 0 0 0-1 1 1 0 0 0 0 1z" fill="#4c6b7f"/>
      </g>
      <g data-name="Group 1240">
        <path data-name="Path 1410" d="M1271 2194a35 35 0 0 0-47 3 35 35 0 0 0-10 23c0 11 3 20 8 27 17 20 47 16 59-7a38 38 0 0 0-10-46zm12 29c1 17-11 31-27 35-10 2-19-1-27-7a36 36 0 0 1-10-45c7-12 17-18 30-18 12-1 22 5 29 16a36 36 0 0 1 5 19z" fill="#4c6b7f"/>
      </g>
      <g data-name="Group 1893">
        <path data-name="Path 1702" d="M1242 2245a54 54 0 0 1-10-1c-2 0-3-1-3-3v-15a2 2 0 0 1 0-1c-3-1-5-3-5-6a14 14 0 0 1 2-8 9 9 0 0 1 6-3l7-2c5-2 12-2 14-2h2c5 0 10 0 14 3v1a9 9 0 0 1 2 7 10 10 0 0 1-5 7l1 10-1 4v1a14 14 0 0 1 0 2l-2 2h-4l-6 3-2 1h-10zm11-39l-13 1-7 2a7 7 0 0 0-5 3 12 12 0 0 0-2 7c0 2 2 4 4 5l1 1v16l2 2a70 70 0 0 0 20 0 58 58 0 0 0 7-3l4-1a6 6 0 0 0 0-1 12 12 0 0 0 1-1v-1-4-11h1a9 9 0 0 0 4-6 7 7 0 0 0-2-6v-1c-4-3-9-3-13-2h-2z" fill="#4c6b7f"/>
      </g>
      <g data-name="Group 1894">
        <path data-name="Path 1703" d="M1258 2213c-4-5-11-4-16-4s-13-2-16 3a13 13 0 0 0-2 7c0 3 2 5 4 6a1 1 0 0 0 1 1v15c0 2 1 3 3 3h20l2-1a13 13 0 0 0 0-2v-5-11a1 1 0 0 0 1 0c4-2 6-8 3-12zm-4 11v-1l-1-1-1 1a10 10 0 0 0 0 1v17a1 1 0 0 1-1 2h-19l-1-1v-18a3 3 0 0 0 0-1l-1-1-1 1a4 4 0 0 1 0 1c-2-2-3-3-3-5a12 12 0 0 1 2-6c2-4 9-2 13-3 4 0 9 0 12 2 6 2 6 8 1 12z" fill="#4c6b7f"/>
      </g>
      <g data-name="Group 1895">
        <circle data-name="Ellipse 373" cx="1" cy="1" r="1" transform="translate(1235 2231)" fill="#4c6b7f"/>
      </g>
      <g data-name="Group 1896">
        <circle data-name="Ellipse 374" cx="1" cy="1" r="1" transform="translate(1239 2235)" fill="#4c6b7f"/>
      </g>
      <circle data-name="Ellipse 375" cx="1" cy="1" r="1" transform="translate(1237 2222)" fill="#4c6b7f"/>
      <g data-name="Group 1897">
        <path data-name="Path 1704" d="M1248 2217a1 1 0 0 0 0-1 1 1 0 0 0 0 1z" fill="#4c6b7f"/>
      </g>
      <g data-name="Group 1898">
        <path data-name="Path 1705" d="M1233 2217a1 1 0 0 0 0-1 1 1 0 0 0 0 1z" fill="#4c6b7f"/>
      </g>
      <g data-name="Group 1899">
        <path data-name="Path 1706" d="M1244 2229a1 1 0 0 0 0-1 1 1 0 0 0 0 1z" fill="#4c6b7f"/>
      </g>
    </g>
    <g data-name="Group 1901" transform="translate(-1214 -2186)">
      <circle data-name="Ellipse 376" cx="16" cy="16" r="16" transform="translate(1260 2231)" fill="#b6dc85"/>
      <path data-name="Path 1310" d="M1273 2254l-6-6a1 1 0 1 1 1-1l5 5 12-11a1 1 0 0 1 1 1l-12 12a1 1 0 0 1-1 0z" fill="#363840"/>
    </g>
  </g>
</svg>
