<svg id="Layer_1" data-name="Layer 1" xmlns="http://www.w3.org/2000/svg" viewBox="0 0 56.69 56.69"><defs><style>.cls-1{fill:#4d6b7f;}.cls-2{fill:#ea5a5c;}.cls-3{fill:none;stroke:#363840;stroke-linecap:round;stroke-width:0.96px;}</style></defs><title>Recepidia_Icons</title><g id="Group_1240" data-name="Group 1240"><path id="Path_1410" data-name="Path 1410" class="cls-1" d="M39.9,12.14a19.35,19.35,0,0,0-26.09,1.49A19.66,19.66,0,0,0,8.09,26.71c0,6.16,1.62,10.88,4.83,14.74,9.29,11.15,26.21,9.31,32.67-3.63A21.11,21.11,0,0,0,39.9,12.14Zm7,16.4a19.06,19.06,0,0,1-15.13,19,18,18,0,0,1-15.07-3.65,20.16,20.16,0,0,1-5.5-25.16c3.46-6.52,9-10.07,16.35-10.16,7-.08,12.44,3.29,16.25,9.19a19.88,19.88,0,0,1,3.1,10.76Z"/><path id="Path_1428" data-name="Path 1428" class="cls-1" d="M38.28,22.61c-.54-.68-1.1-1.35-1.65-2a4.35,4.35,0,0,0-6.23-.84,8.65,8.65,0,0,0-2.62,3.08c-.53,1-1,2-1.56,3.12-.47-.38-.79-.67-1.14-.92a16,16,0,0,0-8.22-3.41c-1.85-.16-3,.44-3.6,1.94a7,7,0,0,0-.52,2.55,18.12,18.12,0,0,0,1.18,5.82,10.67,10.67,0,0,0,3.55,5,7.75,7.75,0,0,0,9.2.34c.55-.44.85-.41,1.29.13a6.79,6.79,0,0,0,6.24,2.44c2.11-.19,4.17-.62,5.39-2.66a10.94,10.94,0,0,0,1.75-5.63A14.12,14.12,0,0,0,38.28,22.61ZM25.65,36.16a6,6,0,0,1-7.85-.7,10.75,10.75,0,0,1-3-6.65A11.11,11.11,0,0,1,15,25c.36-1.63,1.37-2.46,3-2.16a15.26,15.26,0,0,1,7,2.79,2.73,2.73,0,0,1,.87,1,2.22,2.22,0,0,1,0,1.44,10,10,0,0,0-.22,2.44c.05.86.23,1.71.2,2.57a6.63,6.63,0,0,0,.51,1.58.93.93,0,0,1,.17.67c-.08.35-.57.59-.84.78Zm11.91.53a6.16,6.16,0,0,1-4,1.53c-2.89,0-4.29-.91-5.27-3.26-.34-.81-.65-1.62-.91-2.46a7.62,7.62,0,0,1-.09-4.58c.26-.89.55-1.76.77-2.65a8.71,8.71,0,0,1,3.19-4.57,2.73,2.73,0,0,1,2.57-.57,4.57,4.57,0,0,1,2.39,1.31,14,14,0,0,1,3.91,8,8.53,8.53,0,0,1-2.58,7.28Z"/></g><circle class="cls-2" cx="42.67" cy="41.13" r="8.73"/><g id="Close"><g id="Group_1159" data-name="Group 1159"><line id="Line_18" data-name="Line 18" class="cls-3" x1="45.64" y1="38.15" x2="39.69" y2="44.1"/><line id="Line_19" data-name="Line 19" class="cls-3" x1="45.64" y1="44.1" x2="39.69" y2="38.15"/></g></g></svg>