<svg xmlns="http://www.w3.org/2000/svg" width="86.096" height="78.558" viewBox="0 0 86.096 78.558">
  <g id="Group_1961" data-name="Group 1961" transform="translate(-407.652 -455.039)">
    <path id="Path_1423" data-name="Path 1423" d="M-401.222,291.815c-7.222-14.3-23.708-21.57-40.144-18.774a42.178,42.178,0,0,0-21.453,10.047c-9.674,8.634-14.913,19.233-13.683,32.27,1.3,13.772,8.759,23.509,21.678,28.654,14.686,5.85,28.578,3.3,41.078-5.927,10.386-7.665,15.788-18.109,16.163-28.4C-397.584,301.7-398.808,296.6-401.222,291.815Zm-49.517,52.417c-19.923-5.835-29.867-25.995-22.2-45.052A39.35,39.35,0,0,1-461.523,283.6c1.618-1.362,2.328-1.172,3.21.735a6.9,6.9,0,0,1,.466,3.171c-.108,3.933,1.666,7.1,4.194,9.95a7.285,7.285,0,0,0,4.165,2.386c3.085.615,3.547,1.563,2.619,5.067-3.9-2.153-6.243-1.973-9.665.676-1.107.858-1.893,1.84-3.7.791-1.735-1.007-3.543.049-4.47,1.914a9.03,9.03,0,0,0,3.689,11.518,3.038,3.038,0,0,1,1.906,3.238c-.1,4.445.538,8.844,3.887,12.27,4.81,4.921,10.805,7.25,17.609,6.169,9.7-1.541,16.735-6.72,20.021-16.177a55.372,55.372,0,0,0,1.8-7.589,7.547,7.547,0,0,0-.5-3.971,3.8,3.8,0,0,1,1.107-4.518,16.568,16.568,0,0,0,5.249-11.783c.111-7.445-8.544-17.293-19.1-11.8-4.25,2.21-7.6,5.293-8.657,10.186a16.14,16.14,0,0,0,.116,6.68c.25,1.237.089,1.95-1.382,2.335a17.972,17.972,0,0,0-5.673,2.724c-.125-2.373-.251-4.3-.323-6.233-.1-2.52-1.049-3.765-3.513-4.452-.437-.122-.891-.181-1.337-.269-3.742-.736-5.362-2.426-5.791-6.122-.35-3.023-.355-6.1-1.744-8.929-.474-.965.339-1.279.932-1.636a42.37,42.37,0,0,1,10.713-4.716,39.986,39.986,0,0,1,23.727.48,33.067,33.067,0,0,1,22.214,39.684c-5.219,21.461-29.443,35.17-50.984,28.861Zm16.825-37.9a12.379,12.379,0,0,1,3.136-17.427q.119-.082.241-.162a20.711,20.711,0,0,1,4.76-2.623c5.181-1.892,10.159.94,12.01,5.94,2.337,6.329.49,11.835-3.867,16.657a4.367,4.367,0,0,0-1.3,4.2c.744,4.58,1.344,9.227-1.194,13.646a19.71,19.71,0,0,1-8.1,8.148,26.338,26.338,0,0,1-20.851,1.888c-4.731-1.529-7.111-4.821-7.7-9.487a18.836,18.836,0,0,1,1.354-10.026,19.179,19.179,0,0,0,.914-2.531c.37-1.333-1.46-2.951-2.835-2.611-1,.249-.851,1.012-.938,1.7l-.15.193c-.515.537-.547,1.046.018,1.519v.038c-.2.284.346.935-.453.921-1.117-.02-.8,1.119-1.529,1.731a9.374,9.374,0,0,1-3.594-6.8,3.723,3.723,0,0,1,.941-2.737,1.669,1.669,0,0,1,2.21-.418,1.244,1.244,0,0,1,.778,1.594,1.192,1.192,0,0,1-.081.181,1.934,1.934,0,0,0-.169,1.805c1.071-.172,1.29-1.186,1.866-1.829a11.026,11.026,0,0,1,5.776-3.874,6.549,6.549,0,0,1,1.89-.21c3.8.254,5.009,2.366,3.133,5.626a12.744,12.744,0,0,0-1.564,8.54,7,7,0,0,0,5.255,5.918,9.128,9.128,0,0,0,9.706-3.271c.183-.271.456-.582.11-1.01a3.637,3.637,0,0,0-2.446,1.354c-2.636,2.5-5.426,2.49-7.863-.142a8.107,8.107,0,0,1-1.85-8.738,15.505,15.505,0,0,1,5.707-7.062,2.148,2.148,0,0,1,2.921.061c1.778,1.249,2.946,3.173,4.969,4.125a3.3,3.3,0,0,0,3.3.291c-2.309-1.267-3.31-3.28-4.524-5.11Z" transform="translate(884.332 182.589)" fill="#587c94"/>
    <g id="Group_1382" data-name="Group 1382" transform="translate(460.817 501.226)">
      <ellipse id="Ellipse_23" data-name="Ellipse 23" cx="16.466" cy="16.185" rx="16.466" ry="16.185" transform="translate(0 0)" fill="#fc5959"/>
      <g id="Close" transform="translate(10.854 10.669)">
        <g id="Group_1159" data-name="Group 1159">
          <line id="Line_18" data-name="Line 18" x1="11.224" y2="11.033" fill="none" stroke="#363840" stroke-linecap="round" stroke-width="1.776"/>
          <line id="Line_19" data-name="Line 19" x1="11.224" y1="11.033" fill="none" stroke="#363840" stroke-linecap="round" stroke-width="1.776"/>
        </g>
      </g>
    </g>
  </g>
</svg>
