<svg xmlns="http://www.w3.org/2000/svg" width="80.816" height="78.205" viewBox="0 0 80.816 78.205">
  <g data-name="Group 1952" transform="translate(-635.686 -635.333)">
    <g data-name="Group 1240" transform="translate(635.686 635.333)">
      <path data-name="Path 1410" d="M-191.844,280.5c-14.28-11.249-35.572-11.041-49.081,2.748a36.1,36.1,0,0,0-10.754,24.191c-.036,11.384,3.033,20.116,9.078,27.249,17.473,20.625,49.308,17.227,61.467-6.7A38.613,38.613,0,0,0-191.844,280.5Zm13.146,30.315a35.366,35.366,0,0,1-28.453,35.174c-10.459,2.092-19.95-.407-28.352-6.74a36.875,36.875,0,0,1-10.351-46.535c6.516-12.05,17.029-18.608,30.752-18.775,13.164-.161,23.415,6.08,30.565,16.976a36.154,36.154,0,0,1,5.838,19.9Z" transform="translate(251.679 -272.45)" fill="#587c94"/>
      <path data-name="Path 1428" d="M-195.025,299.891c-1.016-1.27-2.07-2.507-3.118-3.749-3.168-3.758-7.638-4.345-11.708-1.538a16.016,16.016,0,0,0-4.937,5.691c-.982,1.806-1.862,3.667-2.923,5.773-.884-.708-1.494-1.239-2.148-1.715-4.618-3.362-9.628-5.8-15.46-6.3-3.491-.3-5.711.813-6.783,3.585a13.187,13.187,0,0,0-.98,4.72,33.144,33.144,0,0,0,2.235,10.759,19.61,19.61,0,0,0,6.678,9.227c5.174,4.18,13.045,3.941,17.291.624,1.044-.817,1.615-.749,2.428.245,3.024,3.683,7.134,4.91,11.744,4.51,3.97-.344,7.844-1.144,10.149-4.91a20.021,20.021,0,0,0,3.285-10.423A25.806,25.806,0,0,0-195.025,299.891Zm-23.758,25.046a11.4,11.4,0,0,1-14.768-1.3c-3.495-3.367-5.009-7.646-5.568-12.3a20.373,20.373,0,0,1,.3-6.961c.682-3.014,2.588-4.548,5.659-4,4.691.837,9.21,2.177,13.069,5.165a5.046,5.046,0,0,1,1.643,1.868,4.155,4.155,0,0,1,0,2.651,17.863,17.863,0,0,0-.417,4.53c.081,1.585.433,3.154.37,4.745a12.2,12.2,0,0,0,.967,2.921,1.673,1.673,0,0,1,.311,1.229c-.154.649-1.068,1.107-1.57,1.446Zm22.392.992a11.636,11.636,0,0,1-7.482,2.814c-5.43.015-8.068-1.673-9.914-6.028-.63-1.489-1.219-3-1.72-4.535a13.915,13.915,0,0,1-.165-8.479c.493-1.633,1.036-3.252,1.458-4.9.914-3.575,3.2-6.146,5.994-8.448a5.227,5.227,0,0,1,4.836-1.059,8.738,8.738,0,0,1,4.5,2.433,25.639,25.639,0,0,1,7.352,14.737,15.568,15.568,0,0,1-4.854,13.468Z" transform="translate(251.816 -272.479)" fill="#587c94"/>
    </g>
    <g data-name="Group 1374" transform="translate(683.957 681.546)">
      <ellipse data-name="Ellipse 25" cx="16.273" cy="15.996" rx="16.273" ry="15.996" transform="translate(0 0)" fill="#b6dc85"/>
      <path data-name="Path 1310" d="M-190.551,341.607a.754.754,0,0,1-.53-.215l-5.99-5.888a.729.729,0,0,1,0-1.042.76.76,0,0,1,1.06,0h0l5.459,5.368,11.95-11.746a.757.757,0,0,1,1.059,0,.726.726,0,0,1,0,1.041l-12.478,12.267A.756.756,0,0,1-190.551,341.607Z" transform="translate(204.273 -318.742)" fill="#363840" stroke="#363840" stroke-miterlimit="10" stroke-width="0.175"/>
    </g>
  </g>
</svg>
