<svg xmlns="http://www.w3.org/2000/svg" width="81.428" height="76.276" viewBox="0 0 81.428 76.276">
  <g id="Group_1958" data-name="Group 1958" transform="translate(-58.447 -454.766)">
    <g id="Group_1233" data-name="Group 1233" transform="translate(58.447 454.766)">
      <path id="Path_1418" data-name="Path 1418" d="M-436.744,219.912c20.357.136,36.971-15.975,37.11-35.983,0-.146,0-.292,0-.436-.116-19.116-15.035-36.748-38.01-37.036-20.2-.253-36.776,15.637-37.034,35.49q-.006.451,0,.9C-474.6,203.374-457.625,219.959-436.744,219.912Zm-.718-72.56c15.524-.381,36.618,12.517,36.759,36.321.049,19.413-15.923,35.189-35.672,35.235h-.316c-20.328.048-36.853-16.1-36.925-36.08-.029-19.667,16.039-34.982,36.153-35.476Z" transform="translate(474.681 -146.453)" fill="#587c94"/>
      <path id="Path_1475" data-name="Path 1475" d="M-439.675,197.508a1.661,1.661,0,0,0,1.578,1.745l.071,0c2.2.355,3.088-.386,3.017-2.867-.173-6.077,1.331-11.93,2.471-17.821.59-3.052.882-3.1,4.025-3.073,3.454.028,6.584-.96,8.833-3.557a17.654,17.654,0,0,0,4.544-11.829c0-.576.278-1.265-.493-1.71-2.438.573-4.953,1.032-7.378,1.762a13.1,13.1,0,0,0-9.583,12.353,4.358,4.358,0,0,1-.753,2.521,43.037,43.037,0,0,0-3.251,5.611c-.259.51-.329,1.252-1.213,1.34a6.839,6.839,0,0,1-1.035-2.406,45.27,45.27,0,0,0-6.28-11.61,26.91,26.91,0,0,0-7.086-6.674c-1.14-.715-2.29-1.482-3.9-1.18a2.813,2.813,0,0,0,.991,1.852C-446.622,172.411-440.487,183.843-439.675,197.508Zm13.635-33.637c.63-.488,1.118-1.185,1.992-1.313l.22.222-.22-.222a14.851,14.851,0,0,1,5.587-2.043c1.016-.222,1.625.194,1.461,1.3-.7,4.628-3.962,11.252-11.542,11.226a9.347,9.347,0,0,1-1.08-.129c.831-1.66.831-1.66,4.505-1.952-.359-.887-1.353-.343-1.76-.847.87-.959.87-.959,3.721-1.059-.059-.667-.623-.363-.946-.475-.27-.094-.553-.229-.486-.505.052-.215.316-.52.508-.538,1.249-.119,2.5-.169,3.751-.241.087-.969-.79-.581-1.225-1.067,1.969-.32,1.9-2.232,3.294-3.532-1.327.168-1.709.991-2.368,1.378-1.08.635-1.255-.023-1.275-.886-.876.332-.806,1.2-1.151,1.879-.625-.751-.062-1.723-.783-2.282l-.987,3.714c-1.19-.428-.127-1.222-.64-1.65-.4-.052-.4-.052-1.415,2.275-1.006-1.406-.29-2.375.838-3.25Zm-1.968,2.3c-.365,1.817.175,4.02-2.591,4.656a6.042,6.042,0,0,1,2.591-4.66Zm-8.5,18.374c-.136,3.724-.69,7.42-.693,11.153-1.375-3.833-1.515-7.574.694-11.157Zm-9.327-14.072c1.448,2.583,3.069,5.093,4.3,7.77,2.756,6.015,2.856,6.735,2.032,9-3-8.653-6.776-16.355-12.4-23.337,1.942.76,4.26,3.336,6.07,6.567Z" transform="translate(474.976 -146.47)" fill="#587c94"/>
      <path id="Path_1476" data-name="Path 1476" d="M-459.1,176.607l-.017.031.053.03C-459.077,176.646-459.091,176.628-459.1,176.607Z" transform="translate(474.928 -146.495)" fill="#587c94"/>
      <path id="Path_1477" data-name="Path 1477" d="M-455.7,179.609h0C-455.679,179.6-455.669,179.6-455.7,179.609Z" transform="translate(474.983 -146.499)" fill="#587c94"/>
      <path id="Path_1478" data-name="Path 1478" d="M-451.333,193.172a2.193,2.193,0,0,0,2.343-.979,40.867,40.867,0,0,1,3.371-4.218c1.551-1.908,1.439-2.5-.549-3.837-.751-.506-1.568-.919-2.3-1.448a5.862,5.862,0,0,0-3.52-1.116c-1.717-.026-1.037-2.423-2.54-2.816-.083-.021-.15-.1-.231-.141a25.362,25.362,0,0,0-4.153-2.012l.1.094h0l-.019.031c.772,1.32,2.5,1.513,3.393,2.689a1.355,1.355,0,0,1,1.4,1.024c.335,1.665,1.475,1.99,2.978,2.149,2.091.219,3.482,1.815,5.113,2.913.562.377.435.935.011,1.384a30.443,30.443,0,0,0-3.829,4.531.94.94,0,0,1-1.25.419.984.984,0,0,1-.147-.088q-5.088-2.588-10.178-5.17a1.937,1.937,0,0,1-1-1.154c-.869-2.263-.914-2.242-3.538-1.733-.139.027-.317-.129-.475-.2-.264-.508.068-.836.38-1.153,1.584-1.606,3.215-3.168,4.743-4.821a2.6,2.6,0,0,1,2.278-.832c.01-.019.019-.037.031-.056-1.885-1.067-1.93-1.057-3.277.256-2.261,2.2-4.385,4.533-6.827,6.571a6.762,6.762,0,0,0-1.492,8.127,2.673,2.673,0,0,0,2.812,1.524A131.242,131.242,0,0,1-451.333,193.172Zm-12.815-8.807a.671.671,0,0,1,.743.535c.019.074-.166.291-.255.287a.861.861,0,0,1-.771-.556c-.017-.038.184-.174.284-.266Zm4.8,7.605c-2.182.026-4.368.023-6.548-.026-2.022-.046-2.951-.874-3.277-2.835a9.609,9.609,0,0,1-.127-1.6c0-.875-.287-2.07.617-2.441.968-.4,1.455.666,1.9,1.42a.736.736,0,0,0,.406.333c.93.2,1.106,1.419,2.227,1.535.168-1.048-1.1-1.57-.972-2.552.2.015.472-.022.508.047a7.334,7.334,0,0,0,5.314,3.687,6.431,6.431,0,0,1,3.535,2.139,8.777,8.777,0,0,1-3.579.3Z" transform="translate(474.735 -146.494)" fill="#587c94"/>
      <path id="Path_1479" data-name="Path 1479" d="M-459.047,176.7l-.019-.033-.052-.03c-.011.019-.02.037-.03.056Z" transform="translate(474.928 -146.495)" fill="#587c94"/>
      <path id="Path_1480" data-name="Path 1480" d="M-459.009,176.7" transform="translate(474.93 -146.495)" fill="#587c94"/>
      <path id="Path_1481" data-name="Path 1481" d="M-459.028,176.736a.332.332,0,0,1,.019-.032h-.04Z" transform="translate(474.93 -146.495)" fill="#587c94"/>
      <path id="Path_1482" data-name="Path 1482" d="M-418.606,188.237a18.035,18.035,0,0,0-6.306-2.82c-2.053-.422-2.836.012-3.583,1.928a9.613,9.613,0,0,0,1.13,9c1.857,2.952,4.47,3.812,7.733,2.487a2.9,2.9,0,0,1,3.382.43c3.873,2.974,8.683,1.29,9.791-3.375,1.138-4.793.112-9.093-3.609-12.576-1.819-1.7-3.13-1.682-4.985,0A16.8,16.8,0,0,0-418.606,188.237Zm-1.169,9.472a4.93,4.93,0,0,1-6.334-1.41,8.854,8.854,0,0,1-1.84-5.521c-.014-4.158,1.181-5,5.073-3.564a12.409,12.409,0,0,1,1.508.63c2.8,1.475,2.751,1.178,2.225,4.051a7.523,7.523,0,0,0,.315,3.716,1.44,1.44,0,0,1-.6,1.966,1.525,1.525,0,0,1-.348.132Zm5.5-13.506c1.444-1.315,1.985-1.326,3.454.024,3.491,3.2,4.173,7.182,3.188,11.56a4.33,4.33,0,0,1-3.6,3.607,5.3,5.3,0,0,1-5.143-1.81,6.273,6.273,0,0,1-1.56-4.782,11.206,11.206,0,0,1,3.662-8.6Z" transform="translate(475.405 -146.503)" fill="#587c94"/>
      <path id="Path_1505" data-name="Path 1505" d="M-459.044,176.7h.04l-.06-.034A.064.064,0,0,0-459.044,176.7Z" transform="translate(474.929 -146.495)" fill="#587c94"/>
      <path id="Path_1506" data-name="Path 1506" d="M-455.621,179.514l-.09-.011c0,.026.006.052.008.078.026-.023.055-.045.084-.066-.021-.031-.046-.058-.068-.088h-.031Z" transform="translate(474.982 -146.499)" fill="#587c94"/>
      <path id="Path_1507" data-name="Path 1507" d="M-459.006,176.7l-.1-.094c.011.021.024.041.036.062Z" transform="translate(474.929 -146.495)" fill="#587c94"/>
      <path id="Path_1508" data-name="Path 1508" d="M-455.719,179.421c-.02.028-.032.048-.048.072l.056.006A.393.393,0,0,0-455.719,179.421Z" transform="translate(474.982 -146.499)" fill="#587c94"/>
      <path id="Path_1509" data-name="Path 1509" d="M-459,176.7Z" transform="translate(474.93 -146.495)" fill="#587c94"/>
      <path id="Path_1577" data-name="Path 1577" d="M-457.428,186.866a1.566,1.566,0,0,0,1.76-1.333,1.534,1.534,0,0,0,.011-.265,2.277,2.277,0,0,0-2.412-2.082c-.992-.041-1.575.34-1.558,1.389a2.227,2.227,0,0,0,2.166,2.29Zm-.629-2.859c.61-.1.748.329.8.8-.042.35-.055.755-.513.8-.586.064-.765-.37-.835-.83a.635.635,0,0,1,.478-.763c.022,0,.045-.009.067-.012Z" transform="translate(474.92 -146.505)" fill="#587c94"/>
      <path id="Path_1578" data-name="Path 1578" d="M-451.717,188.645a1.449,1.449,0,0,0,1.777.095,1.2,1.2,0,0,0,.378-1.672,1.224,1.224,0,0,0-.165-.2,4.921,4.921,0,0,0-.783-.713l.042.068-.024.023c.043.225.084.45.13.674.069.343.121.7-.22.917a.5.5,0,0,1-.671-.192l0-.007c-.232-.349-.063-.645.227-.894.186-.159.364-.328.538-.5l-.011-.057c-.718-.721-1.321-.344-1.7.328a1.513,1.513,0,0,0,.459,2.114Z" transform="translate(475.034 -146.508)" fill="#587c94"/>
      <path id="Path_1579" data-name="Path 1579" d="M-462.169,180.735a1.356,1.356,0,0,0,1.475,1.218l.037,0c.788-.185,1.3-.612,1.2-1.477a1.37,1.37,0,0,0-1.388-1.35,1.458,1.458,0,0,0-.271.028c-.051.008-.094.023-.142.034-.275.218-.551.433-.822.655A1.537,1.537,0,0,0-462.169,180.735Zm1.465-.685a.406.406,0,0,1,.461.338.418.418,0,0,1,0,.062.422.422,0,0,1-.358.482.43.43,0,0,1-.119,0,.482.482,0,0,1-.383-.246.512.512,0,0,1,.366-.63l.028-.006Z" transform="translate(474.88 -146.499)" fill="#587c94"/>
      <path id="Path_1580" data-name="Path 1580" d="M-462.081,179.839c.27-.221.546-.436.821-.654A1.152,1.152,0,0,0-462.081,179.839Z" transform="translate(474.881 -146.499)" fill="#587c94"/>
      <path id="Path_1581" data-name="Path 1581" d="M-455.7,179.611Z" transform="translate(474.983 -146.5)" fill="#587c94"/>
      <path id="Path_1582" data-name="Path 1582" d="M-458.2,180.592a1.5,1.5,0,0,0,1.667,1.305l.06-.007a1.086,1.086,0,0,0,1-.608q-.3-.4-.577-.823c-.154-.126-.3-.253-.459-.379a.808.808,0,0,1,.176.413.69.69,0,0,1-.16.415c-.229-.044-.541-.084-.642-.24-.139-.215,0-.473.558-.631a.087.087,0,0,1,.046.022l-.129-.108c-.246-.182-.488-.365-.736-.539a.91.91,0,0,0-.838.982A.884.884,0,0,0-458.2,180.592Z" transform="translate(474.942 -146.499)" fill="#587c94"/>
      <path id="Path_1583" data-name="Path 1583" d="M-455.807,179.65l.1-.041c-.016,0-.023,0,.008-.032a.674.674,0,0,0-.008-.078l-.056-.007C-455.855,179.629-455.872,179.682-455.807,179.65Z" transform="translate(474.98 -146.499)" fill="#587c94"/>
      <path id="Path_1584" data-name="Path 1584" d="M-456.546,180.062a.164.164,0,0,1,.024.02c.152.126.3.254.459.379.188.282.379.557.577.823a1.488,1.488,0,0,0-.092-1.1,1.884,1.884,0,0,1-.094-.571h-.012l-.1.041c-.065.027-.047-.026.043-.158-.3-.04-.609-.083-.914-.107a2.948,2.948,0,0,0-.756.026c.247.176.49.357.735.539Z" transform="translate(474.955 -146.499)" fill="#587c94"/>
      <path id="Path_1585" data-name="Path 1585" d="M-455.713,179.614h.011v-.027C-455.735,179.612-455.729,179.617-455.713,179.614Z" transform="translate(474.982 -146.499)" fill="#587c94"/>
      <path id="Path_1586" data-name="Path 1586" d="M-455.621,179.514l-.1-.089a.291.291,0,0,0,.007.078Z" transform="translate(474.982 -146.499)" fill="#587c94"/>
      <path id="Path_1597" data-name="Path 1597" d="M-450.546,186.156l.006.033c.01.01.019.015.03.024Z" transform="translate(475.065 -146.509)" fill="#587c94"/>
      <path id="Path_1598" data-name="Path 1598" d="M-450.5,186.221l-.042-.068.035.057c-.01-.01-.019-.015-.03-.024l.011.057Z" transform="translate(475.065 -146.509)" fill="#587c94"/>
      <path id="Path_1599" data-name="Path 1599" d="M-456.56,180.064l.024.019A.149.149,0,0,0-456.56,180.064Z" transform="translate(474.969 -146.5)" fill="#587c94"/>
    </g>
    <g id="Group_1359" data-name="Group 1359" transform="translate(106.943 498.67)">
      <ellipse id="Ellipse_22" data-name="Ellipse 22" cx="16.466" cy="16.185" rx="16.466" ry="16.185" transform="translate(0 0)" fill="#fc5959"/>
      <g id="Close" transform="translate(10.854 10.669)">
        <g id="Group_1159" data-name="Group 1159">
          <line id="Line_18" data-name="Line 18" x1="11.224" y2="11.033" fill="none" stroke="#363840" stroke-linecap="round" stroke-width="1.776"/>
          <line id="Line_19" data-name="Line 19" x1="11.224" y1="11.033" fill="none" stroke="#363840" stroke-linecap="round" stroke-width="1.776"/>
        </g>
      </g>
    </g>
  </g>
</svg>
