<svg id="Layer_1" data-name="Layer 1" xmlns="http://www.w3.org/2000/svg" viewBox="0 0 56.69 56.69"><defs><style>.cls-1{fill:#4d6b7f;}.cls-2{fill:#ea5a5c;}.cls-3{fill:none;stroke:#363840;stroke-linecap:round;stroke-width:0.96px;}</style></defs><title>Recepidia_Icons</title><path id="Path_1610" data-name="Path 1610" class="cls-1" d="M36.31,17.82C33.24,19,31,21,30.41,24.3a11.4,11.4,0,0,1-1.71,4.23c-.56.84-.95,1.8-1.43,2.7-.17.33-.2.75-.62.95A3.49,3.49,0,0,1,26,30.61a28.09,28.09,0,0,0-5.16-9.07,13.41,13.41,0,0,0-4.17-3.35c-.5-.25-1-.64-1.71-.29a2.7,2.7,0,0,0,.89,1.42,34.67,34.67,0,0,1,3.25,4.47C22.43,29.44,25.17,35.3,25.39,42c0,1,.6,1.08,1.81,1.1.71,0,1.09-.44,1-1.3a65.42,65.42,0,0,1,0-7.41,14.36,14.36,0,0,1,1-4.67,3.09,3.09,0,0,1,3.2-2.34c4.38-.12,6.78-3.19,7.91-6.45a9.5,9.5,0,0,0,.13-4.66A36.55,36.55,0,0,1,36.31,17.82ZM25.64,35.76a50.7,50.7,0,0,0-2.82-7c-1.2-2.13-2.36-4.27-3.59-6.51a1.19,1.19,0,0,1,.9.6A29,29,0,0,1,25.9,33.67a2.32,2.32,0,0,1-.27,2.09Zm1.53,6.08c0,.24,0,.51-.35.5s-.26-.23-.3-.42A13.4,13.4,0,0,1,27,35.36c0-.06.15-.09.37-.2a31.08,31.08,0,0,0-.18,6.68ZM31.69,26c.93-.57,2.13-.38,3.19-1.16-.88,0-1.55.41-2.37.26.22-.77.81-1,1.43-1.2a6.11,6.11,0,0,0,1.7-.68c-.31-.31-.57.05-.94-.1a4.37,4.37,0,0,1,4-1.5c-.43,2.55-3.59,4.95-7,4.38Zm8-6.94a9.26,9.26,0,0,1-.35,1.56c-.17.57-.58.72-1.3.51a6,6,0,0,0,1-2.23c-.74.06-.93.7-1.37,1-.28.2-.51,1-1,.2-.35.27-.92.12-1.13.7s-.27,1.05-1,1.11c-.36-.38.21-.71,0-1.08-.07-.09-.12-.06-.2.06-.46.65-.51,1.54-1.12,2.15-.54-.36.06-.75-.17-1.07-.09-.05-.16,0-.2.11-.15.4-.31.81-.44,1.22-.29.9-.29.91-1.44,1.54a5,5,0,0,1,1.22-2.92,10.33,10.33,0,0,1,6.33-3.81c1-.17,1.19,0,1.07.94Z"/><path id="Path_1418-2" data-name="Path 1418-2" class="cls-1" d="M28.1,48.26A19.59,19.59,0,0,0,47.82,28.8v-.24a20,20,0,0,0-20.2-20A19.45,19.45,0,0,0,7.93,27.73v.49A20.13,20.13,0,0,0,28.1,48.26ZM27.71,9C36,8.81,47.18,15.79,47.25,28.66a19,19,0,0,1-19,19.06h-.17A19.58,19.58,0,0,1,8.5,28.2C8.48,17.57,17,9.29,27.71,9Z"/><circle class="cls-2" cx="42.35" cy="40.95" r="8.73"/><g id="Close"><g id="Group_1159" data-name="Group 1159"><line id="Line_18" data-name="Line 18" class="cls-3" x1="45.33" y1="37.98" x2="39.38" y2="43.93"/><line id="Line_19" data-name="Line 19" class="cls-3" x1="45.33" y1="43.93" x2="39.38" y2="37.98"/></g></g></svg>