<svg xmlns="http://www.w3.org/2000/svg" width="88.902" height="78.802" viewBox="0 0 88.902 78.802">
  <g  data-name="Group 1948" transform="translate(-1094.328 -635)">
    <g data-name="Group 1890" transform="translate(-3.719 -1549.776)">
      <path  data-name="Path 1697" d="M1144.828,2198.672c3.38-1.516,5.377-4.519,7.8-7.074a2.479,2.479,0,0,1,.925-.507.567.567,0,0,1,.767.621,3.137,3.137,0,0,1-.275,1.014,18.3,18.3,0,0,1-7.794,7.365,1.3,1.3,0,0,1-.772.214c-.386-.091-.946-.258-1.044-.532A1.193,1.193,0,0,1,1144.828,2198.672Z" fill="#4c6b7f"/>
      <path  data-name="Path 1698" d="M1174.914,2217.044c-1.883-14.9-13.733-29.848-34.442-32.034a37.444,37.444,0,0,0-30.341,10.223,36.568,36.568,0,0,0-12.082,27.134,35.762,35.762,0,0,0,3.267,15.368c10.1,22.169,38.773,29.44,58.526,14.638C1171.566,2243.586,1176.763,2231.67,1174.914,2217.044Zm-16.655-24.2c-1.194,3.452-3.79,5.481-6.356,7.516a25.412,25.412,0,0,1-3.367,2.322,5.089,5.089,0,0,0-2.768,5.438c.232,2.444.37,4.9.4,7.358a10.6,10.6,0,0,1-.527,3.465c-.258.766-.072,1.786-1.515,2.056-2.56-.775-2.834-2.918-2.975-4.877-.177-2.449-.218-4.908-.3-7.363-.027-.795,0-1.593,0-2.58l-13.793-1.219c-1.415,2.624-2.889,5.422-4.431,8.181a16.348,16.348,0,0,1-2,2.907,1.855,1.855,0,0,1-1.618.548,2.414,2.414,0,0,1-1.2-1.612,5.242,5.242,0,0,1,.5-2.629q2.1-4.434,4.417-8.759c.276-.517.991-.8,1.761-1.386a28,28,0,0,1-8.834-9.173C1124.933,2184.852,1145.462,2182.888,1158.259,2192.848Zm-1.018,23.433c-1.195.861-3.04-.5-3.737-1.025-2.375-1.78-3.323-4.528-4.46-7.065-.514-1.149.18-2.1.99-3.078.412-.5,1.54-1.49,2.082-1.136.637.416.856,1.7,1.553,2.156a2.449,2.449,0,0,0,.184,3.141c.151.186.1.556.1.841,0,1.073-.071,2.095,1.181,2.693C1156.475,2213.45,1156.791,2215.4,1157.241,2216.281Zm-24.283.043c-.071.752.061.681-.632.853-.358.089-.953-.088-1.221.157-.416.379.034,1.13.514,1.423a.722.722,0,0,1,.386,1.076,2.3,2.3,0,0,1-2.521.112c-.718-.9-.825-2.911-.909-3.946-.234-2.856-.076-5.745-.073-8.867l4.483.508v.589l-1.846.129c-.574.9,1.578-.238,1.82,1.429.562,2.029.964-1.385.237,3.667A16.04,16.04,0,0,0,1132.958,2216.324Zm32.365,29.26c-18.207,21.406-53.643,15.672-63.638-10.3-5.522-14.347-.912-31.324,11-40.421l7.65,7.25c-1.149,2.229-2.3,4.492-3.478,6.736a20.087,20.087,0,0,0-2.155,7.614,3.681,3.681,0,0,0,2.121,3.731,4.2,4.2,0,0,0,4.8-.847,20.5,20.5,0,0,0,2.19-3.105c.773-1.223,1.467-2.5,2.205-3.742.027-.046.218-.945.509-.99a45.941,45.941,0,0,0,.2,5.423,13.461,13.461,0,0,0,1.526,4.564c1.292,2.06,3.7,2.059,5.331.236a8.973,8.973,0,0,0,2.208-5.756c.109-2.617.032-5.241.035-8.036l3.3,0c0,1.333-.064,2.668.01,4,.126,2.266.3,4.532.536,6.789a5.918,5.918,0,0,0,.647,2.056c1.019,1.962,2.777,3.129,4.287,2.78a4.666,4.666,0,0,0,3.7-3.948,45.858,45.858,0,0,0,.325-5.423,22.159,22.159,0,0,0,3.26,2.783,12.428,12.428,0,0,0,4.486,1.68c2.372.281,3.769-1.385,3.4-3.764a13.171,13.171,0,0,0-2.858-6.416,11.67,11.67,0,0,1-2.391-6.815,43.9,43.9,0,0,0,3.37-3.22,46.994,46.994,0,0,0,2.767-3.993c.861.744,1.7,1.4,2.46,2.138A35.624,35.624,0,0,1,1165.323,2245.584Z" fill="#4c6b7f"/>
      <path  data-name="Path 1699" d="M1132.63,2241.961c2.166-.98,3.13-2.719,2.8-5.343-.442-3.47-.949-4.3-2.535-7.374a20.114,20.114,0,0,0-1.882-3.243c-1.1,2.686-2.222,4.979-2.95,7.392a16.615,16.615,0,0,0-.743,5.6C1127.48,2241.926,1129.946,2243.176,1132.63,2241.961Zm-2.771-8.117a22.484,22.484,0,0,1,1.5-4.249,21.9,21.9,0,0,1,1.869,8.264,2.781,2.781,0,0,1-.81,1.911,2.831,2.831,0,0,1-2.1.833,2.221,2.221,0,0,1-1.232-1.754A23.1,23.1,0,0,1,1129.859,2233.844Z" fill="#4c6b7f"/>
      <path  data-name="Path 1700" d="M1141.889,2245.537a3.469,3.469,0,0,0,3.09-2.245,15.514,15.514,0,0,0,.472-4.281c-.12-3.952-2.709-7.106-4.47-10.615-.8,2.166-1.526,4.075-2.211,6a12.158,12.158,0,0,0-.851,2.854c-.2,2.239-.645,4.549.781,6.607A3.239,3.239,0,0,0,1141.889,2245.537Zm-2.029-9.275c.4-.807.9-1.568,1.583-2.761,1.186,2.311,2.66,4.156,2.606,6.433a10.619,10.619,0,0,1-.187,1.9,2.218,2.218,0,0,1-2.46,1.956,3.187,3.187,0,0,1-1.949-1.938A7.655,7.655,0,0,1,1139.86,2236.262Z" fill="#4c6b7f"/>
    </g>
    <g  data-name="Group 1891" transform="translate(-3.719 -1549.776)">
      <circle  data-name="Ellipse 372" cx="15.692" cy="15.692" r="15.692" transform="translate(1155.566 2232.195)" fill="#b6dc85"/>
      <path  data-name="Path 1310" d="M1168.791,2254.622a.72.72,0,0,1-.511-.212l-5.769-5.782a.722.722,0,1,1,1.022-1.02h0l5.259,5.271,11.535-11.509a.722.722,0,1,1,1.02,1.022l-12.046,12.019A.717.717,0,0,1,1168.791,2254.622Z" fill="#363840" stroke="#363840" stroke-miterlimit="10" stroke-width="0.172"/>
    </g>
  </g>
</svg>
