<svg id="Layer_1" data-name="Layer 1" xmlns="http://www.w3.org/2000/svg" viewBox="0 0 56.69 56.69"><defs><style>.cls-1{fill:#4d6b7f;}.cls-2{fill:#b5d384;}.cls-3{fill:#363840;stroke:#363840;stroke-miterlimit:10;stroke-width:0.1px;}</style></defs><title>Recepidia_Icons</title><g id="Group_1237" data-name="Group 1237"><path id="Path_1409" data-name="Path 1409" class="cls-1" d="M18.72,9.77a22.87,22.87,0,0,0-10,26.14c4,12.69,18.29,17.62,29.22,10C44.38,41.41,47.44,35,47.73,27.2a24.07,24.07,0,0,0-.38-4.07C44.68,9.06,30.27,3,18.72,9.77ZM31.86,47.88c-9.18,2.74-18.44-2-21.93-11.05C5.56,25.47,12,12.13,23.45,8.62A17.61,17.61,0,0,1,43,15.08c.26.35.51.71.74,1.08.35.55.21,1-.48,1.4.24-1.69-1.39-2-2.12-3.29,0,1,.69,1.39.6,2.19l-2.23-1.84-.22.21c.65.8,1.55,1.42,1.86,2.6a5.58,5.58,0,0,0-3.52,1.94,19.91,19.91,0,0,0-6.21,10.8,7.26,7.26,0,0,0-.13,2c.06.72.41.89,1.1.6a1.65,1.65,0,0,0,.25-.15c2.72-1.86,5.52-3.63,7.37-6.5a20.76,20.76,0,0,1,2-2.34,13.32,13.32,0,0,0,1.59-2.08c.25-.44.5-1,.18-1.37-1.18-1.29.15-2.05.45-3.05a1.38,1.38,0,0,1,.65.84c5.48,11.41-.64,26.05-13,29.73Zm9.3-25.33c.37.35.38.64,0,1a.52.52,0,0,0-.1.11,2,2,0,0,1-2.61.92c-.13-.05-.28-.13-.38.05,1.21,1.46,1.21,1.47-.18,3-.27.28-.54.56-.83.81-.47.43-.95.83-1.42,1.25s-1-.71-1.62-.08c.5.59.35,1.08-.44,1.44a11.52,11.52,0,0,0-1.48,1c-.12-2.27,1.12-3.72,2-5.4.75.25,1,1,1.67,1a1.77,1.77,0,0,0-.7-1.22.72.72,0,0,1-.13-1h0A20.35,20.35,0,0,1,37.21,22c.68.09.94,1,1.77.91,0-.66-.52-.89-.85-1.25a.57.57,0,0,1-.1-.8.23.23,0,0,1,.07-.07,10.65,10.65,0,0,1,2.23-2.06c.14-.1.43-.21.52-.14.75.52,1.68.85,2.1,1.72s-.13,1.28-.63,1.82c-.67-.09-1-1.21-2-.58,0,.48.47.72.79,1Z"/><path id="Path_1426" data-name="Path 1426" class="cls-1" d="M17.8,31.27c.32-.25.5-.06.72.17,1.12,1.11,1.4,1.19,2.56.3.64-.5,1.13-.66,1.74,0a.76.76,0,0,0,1.07.09A.24.24,0,0,0,24,31.7c.58-.54,1.12-1.13,1.75-1.76-1.16-.62-1.51-1.42-.81-2.51a.84.84,0,0,0,.08-.27c.3-1.19.07-1.65-1.1-2-.34-.11-.49-.24-.53-.57-.05-.56-.11-1.13-.19-1.88a4.73,4.73,0,0,0,4.91-.44,3,3,0,0,1,1.63-.58,3.61,3.61,0,0,0,2.11-.87c1.62-1.1,2.15-2.85,2.56-4.58a5.23,5.23,0,0,0-2.69-5.65c-1.89-1-3.92-.62-5.65,1.11-.35.35-.62.28-1,.26-2.26-.14-4.46,1.2-4.83,3.26-.45,2.42-.2,4.62,1.57,6.5-1.37.41-1.37.41-1.89-.57-.81-1.53-1.48-1.74-3-.8-.44.27-.61.16-1-.1a2.27,2.27,0,0,0-3.25.34,3.14,3.14,0,0,0-.34,4.12,2.78,2.78,0,0,1,.6,2c-.11,1.15.18,1.52,1.33,1.92.39.13.56.28.6.66,0,.19.09.38.12.57a2.29,2.29,0,0,0,1.23,1.7A1.3,1.3,0,0,0,17.8,31.27Zm3.62-14a4.42,4.42,0,0,1,1.43-3.81,2.76,2.76,0,0,1,1.88-.68,8.37,8.37,0,0,1,1,.18.78.78,0,0,0,.9-.25,3.24,3.24,0,0,1,4.25-.65,3.88,3.88,0,0,1,2.2,4c-.18,2.46-.84,3.85-3.61,4.65a14.58,14.58,0,0,0-1.74.73,4.47,4.47,0,0,1-6.31-4.13Zm-5.6,11.26c.15-.68,0-.94-.76-1C14,27.41,13.66,27,14,25.87a.89.89,0,0,0-.36-1.09c-1.28-1.21-1.22-2.47.13-3.55a1,1,0,0,1,1.64.09c.88.87.88.87,1.73.18a1.37,1.37,0,0,1,2.3.62,16.34,16.34,0,0,1,.39,1.68c.63-.47,1-1.24,1.79-1s.84,1.13.87,1.85.14,1.39,1.15,1.48c.55,0,.69.62.59,1.15a2.37,2.37,0,0,1-.52,1.19c-.3.33-.27.6.09.83.56.36.27.69,0,1.08s-.84.58-1.18.15a.77.77,0,0,0-1-.35.75.75,0,0,0-.26.21,2.32,2.32,0,0,1-1.07.42c-.57.12-1.06.06-1.3-.59s-.51-.79-1.08-.35-1,.66-1.58.22a1.44,1.44,0,0,1-.45-1.58Z"/><path id="Path_1427" data-name="Path 1427" class="cls-1" d="M36.46,36.83a4.93,4.93,0,0,0,.78-.86,9.32,9.32,0,0,0,2.09-4.8,3.27,3.27,0,0,0-2,1.64,4.34,4.34,0,0,1-4.08,1.76,14.57,14.57,0,0,1-5.28-1.51,8.05,8.05,0,0,0-6.9,0,18.94,18.94,0,0,0-3.1,1.9c-1.5,1-1.48,1.05-.66,2.56-.23.46-1.08.13-1.08.75s.6,1,1.09,1.26a4.05,4.05,0,0,0,.81.33,2.24,2.24,0,0,1,1.06.71,7.13,7.13,0,0,0,6.48,2.56c.87-.1,1.74-.16,2.6-.33,1.92-.38,3.81-.87,4.89-2.77.23-.4.53-.39.84-.13a8.92,8.92,0,0,1,1.07,1c.59.65,1.12,1.34,1.69,2,.28.33.59.75,1.08.51s.27-.69.21-1a8.41,8.41,0,0,0-1.63-4.45C36,37.46,36.06,37.18,36.46,36.83ZM35,38.05a7.32,7.32,0,0,1,1.42,3c-.75-1.22-2.35-1.56-2.92-3-.11-.27-.43-.2-.61,0-1.18,1.26-2.86,1.71-4.24,2.65a.25.25,0,0,0-.33.09l0,.09a4.08,4.08,0,0,0-2.45.56,5.33,5.33,0,0,1-5.34-.8c-.94-.71-1.66-1.74-3.22-1.77,1.56-1.13,1.56-1.13.39-2.6a15.24,15.24,0,0,1,4.55-2.76,7.78,7.78,0,0,1,5,.28c1.25.41,2.49.83,3.71,1.31a6.8,6.8,0,0,0,4.56.06l1-.31a3.41,3.41,0,0,1-1.32,1.61c-.68.5-.63,1-.19,1.58Z"/><path id="Path_1510" data-name="Path 1510" class="cls-1" d="M17.79,26.78a1.35,1.35,0,0,1,1.45.83c-.48.43-1.2-.08-1.71.63a12.63,12.63,0,0,0,2.61,0c.8,0,1.44.89,2.36.86a.49.49,0,0,0-.32-.52,2.18,2.18,0,0,1-1.47-2.23,1.54,1.54,0,0,0-.48-1.25c-.44.69.1,1.31-.13,1.92-1.21-.83-1.16-.84-1.44-2.18-.12-.56.06-1.25-.52-1.73-.37.56,0,1.15-.36,1.72-.81-.52-1-1.59-2.08-2.26C16,24.1,16.94,25,17.57,26c-.62.45-1.34-.25-2,.31A4.68,4.68,0,0,0,17.79,26.78Z"/><path id="Path_1511" data-name="Path 1511" class="cls-1" d="M30.71,19.61a3.12,3.12,0,0,0,1.74-3.33c0-1.51-1.07-2.82-2.86-3.72-.6-.3-1-.26-1.29.36a7,7,0,0,0-.15,5.89C28.88,20.31,29.31,20.45,30.71,19.61Zm-2.28-3.28c-.06,0-.09-.12-.13-.18a2.83,2.83,0,0,0,.41,0c.43-.08.64-.27.26-.66-.13-.14-.36-.21-.35-.43,0-.42-.14-.92.24-1.22s.74-.05,1.09.11a2.71,2.71,0,0,1,1.61,2.55,3.13,3.13,0,0,1-1.74,2.81.56.56,0,0,1-.67,0c-.2-.17-.32-.39-.14-.62.76-1-.19-.8-.74-1,.24-.46,1.51-.75.16-1.27Z"/><path id="Path_1512" data-name="Path 1512" class="cls-1" d="M26.08,20.81c1.33,0,1.73-.49,1.37-1.79-.19-.7-.52-1.35-.76-2a10.93,10.93,0,0,0-1.55-2.77c-.26-.37-.52-.5-1-.21a3.66,3.66,0,0,0-1.74,4A4,4,0,0,0,26.08,20.81Zm-2-5.53c.23-.16.48-.41.77-.18s.64.53.34,1-.09.47.24.73A1.5,1.5,0,0,1,25.86,18c-.11.52-.06.69.44.8a.7.7,0,0,1,.49.85l0,.07c-.09.37-.52.36-.86.38a3.42,3.42,0,0,1-3-3.09,2.24,2.24,0,0,1,1.13-1.77Z"/><path id="Path_1513" data-name="Path 1513" class="cls-1" d="M21.94,34.82c-.6,0-1.38,1.07-1.34,1.85s.41,1,1.19,1c1,0,1.66-.5,1.65-1.25A1.88,1.88,0,0,0,21.94,34.82Zm-.28,1.93c-.14,0-.25-.12-.22-.4a.63.63,0,0,1,.51-.63c.24,0,.31.22.31.39,0,.37-.17.66-.6.64Z"/></g><circle class="cls-2" cx="42.86" cy="39.46" r="8.73"/><path id="Path_1310" data-name="Path 1310" class="cls-3" d="M41.5,43.21a.4.4,0,0,1-.29-.12L38,39.88a.4.4,0,1,1,.57-.57h0l2.93,2.93,6.4-6.41a.4.4,0,1,1,.57.57l-6.69,6.69A.39.39,0,0,1,41.5,43.21Z"/></svg>