<svg id="Layer_1" data-name="Layer 1" xmlns="http://www.w3.org/2000/svg" viewBox="0 0 56.69 56.69"><defs><style>.cls-1{fill:#4d6b7f;}.cls-2{fill:#b5d384;}.cls-3{fill:#363840;stroke:#363840;stroke-miterlimit:10;stroke-width:0.1px;}</style></defs><title>Recepidia_Icons</title><g id="Group_1242" data-name="Group 1242"><g id="Group_1235" data-name="Group 1235"><path id="Path_1412" data-name="Path 1412" class="cls-1" d="M27.68,8.5a20,20,0,0,0-19.85,20A20.41,20.41,0,0,0,28.39,48.75,19.89,19.89,0,0,0,48.53,28.86,20.28,20.28,0,0,0,27.68,8.5Zm.61,39.61A19.74,19.74,0,0,1,8.49,28.43v-.05A19.28,19.28,0,0,1,28.74,9.15,19.57,19.57,0,0,1,47.85,28.78,19.33,19.33,0,0,1,28.51,48.11h-.22Z"/><path id="Path_1420" data-name="Path 1420" class="cls-1" d="M17.76,33.28v0Z"/><path id="Path_1430" data-name="Path 1430" class="cls-1" d="M25.51,23c.07.92.09,2,1.31,2.34.15,0,.22.31.34.46,2,2.44,4.81,3.5,7.78,4.2a1.51,1.51,0,0,0,1.45-.45c2.7-2.59,3.26-7.14,2.27-9.42-.22-.5-.27-.77.35-.95s.56-.68.28-1.16a6.51,6.51,0,0,0-1.38-1.67,7,7,0,0,0-6.68-1.42c-1,.27-1.12.22-1.46-.76-.13-.39,0-.88-.55-1.34a2.24,2.24,0,0,0-.3,2A.89.89,0,0,1,28.48,16h0C25.91,17.63,25.3,20.15,25.51,23ZM38.1,17.74c.12,0,.22.14.3.21s-.08.22-.18.17a.49.49,0,0,1-.2-.18c-.07-.1,0-.23.08-.2Zm-1-.82L35,15.67C36.41,16,36.41,16,37.1,16.92Zm-.31.74a4.11,4.11,0,0,1-.3-.29c.09,0,.19-.1.25-.07a1.62,1.62,0,0,1,.28.25c-.05.16-.13.19-.23.11Zm.15.88a3.46,3.46,0,0,1-3-1.35A9.78,9.78,0,0,1,36.94,18.54Zm-2.23-1.78a2,2,0,0,1-1.49-1A1.08,1.08,0,0,1,34.71,16.76Zm-2-.6c.29.61.15,1.07.39,1.41h0v0s0,0,0,0v0c0,.33,0,.65.06,1.29a1.32,1.32,0,0,1-.06-1.29h0l0,0c-.7-.21-.37-.72-.39-1.41Zm-1.22-.62c.35,0,.31.26.34.5.18,1.52.36,3,.55,4.56l-.32,0a18,18,0,0,1-1-4.46c0-.33,0-.6.42-.63Zm-1.26.29c.85.67.58,1.48.76,2.15s.34,1.37.51,2.06a5.19,5.19,0,0,1-1.27-4.21Zm-.78.27a10.72,10.72,0,0,1,.78,3.19,4.06,4.06,0,0,1-.78-3.19Zm.1,4.22c.88.58,1.66,1.14,2.49,1.62s1.21.36,1.52-.67a20.71,20.71,0,0,1,.62-2.71,12.39,12.39,0,0,0,2.39.71.76.76,0,0,1,.7.62c.89,3,.66,5.73-1.45,8.17a1.52,1.52,0,0,1-1.64.61,15,15,0,0,1-5.55-2.4,3.85,3.85,0,0,1-1-1.08.67.67,0,0,1,0-.91,9.27,9.27,0,0,0,1.86-4Zm-1-2.6c-.27,1.12-.56,2.22-.84,3.33l0-.06v0c.43-.27.3-.93.86-1.22a6.1,6.1,0,0,1-1.42,3.37.94.94,0,0,1-.85.74,41,41,0,0,1,1.93-7c.48.21.33.53.28.76Z"/><path id="Path_1431" data-name="Path 1431" class="cls-1" d="M39.92,38.15a2.72,2.72,0,0,1-1.15-1.6,6.6,6.6,0,0,0-3.07-3.71,11.19,11.19,0,0,0-5.77-1.2,6.44,6.44,0,0,0-5.26,2.92,2.45,2.45,0,0,0-.54,2.31,3.27,3.27,0,0,1-.23,2.86,3.58,3.58,0,0,0,2.11,5c1.59.7,3.31.68,4.82,1a4.54,4.54,0,0,0,2.8-1,2.21,2.21,0,0,1,1.73-.57A2.64,2.64,0,0,0,38,42.49a5.39,5.39,0,0,0,.49-1.36,4.67,4.67,0,0,1,1.3-2.2C40.22,38.54,40.32,38.35,39.92,38.15ZM25.05,36.52a5.12,5.12,0,0,1,6-3.74c.27.07.26.15-.07.75.8.11,1.6-.13,2.39.35,0-.49-.33-.56-.46-.76,1.18-.58,4.28,2.25,5.22,4.89-1.16,0-2.25,0-3.34,0a63.71,63.71,0,0,0-8.29.06c-1.18.11-1.64-.42-1.45-1.54ZM37.5,40.46a.82.82,0,0,0-.36,1,1.12,1.12,0,0,1-.49,1.49,1.61,1.61,0,0,1-1.91,0c-.16-.11-.3-.24-.46-.35s-.34-.21-.52,0-.1.35,0,.51c.37.48.06.68-.35.83a8.35,8.35,0,0,1-1,.3,9.55,9.55,0,0,1-5.26-.51A4,4,0,0,1,24.67,41c-.44-1.41.07-2.14,1.52-2.17a10.72,10.72,0,0,1,3.13.55,5.62,5.62,0,0,0,3.69-.1,15.36,15.36,0,0,1,5.77-.64c-.58.77-.52,1.51-1.28,1.82Z"/><path id="Path_1432" data-name="Path 1432" class="cls-1" d="M20.33,19a4.57,4.57,0,0,0-5.26,3.67C14.9,23.82,15,25,14.9,26.18a1,1,0,0,0,.74-1c0-.48,0-1,0-1.45,0-2.14.93-3.45,3-3.94s2.53-.36,3.25,1.69a6.34,6.34,0,0,1,.27,1.43,5.12,5.12,0,0,1-1.52,3.95,3.87,3.87,0,0,0-1,3.35A4.44,4.44,0,0,1,14.78,35a2.06,2.06,0,0,1-1.16-.57,4.78,4.78,0,0,1-1.46-2.61c-.06-.37.06-.8-.4-1.05-.5.42-.39,1-.22,1.46a12.54,12.54,0,0,0,.68,1.76,4.46,4.46,0,0,0,4.55,2.45,4.8,4.8,0,0,0,3.62-4.23,20.1,20.1,0,0,0,0-2.33,2.68,2.68,0,0,1,.81-2.24,11.52,11.52,0,0,0,1.93-2.71C24.63,22.15,23.38,19.49,20.33,19Z"/><path id="Path_1433" data-name="Path 1433" class="cls-1" d="M27.1,14.58c.41.07.92.17,1.12-.36a.92.92,0,0,0-.48-1.11A4.49,4.49,0,0,0,24,12.17,4,4,0,0,0,27.1,14.58Zm.57-.5c-1.45-.11-1.45-.11-2.39-1,1.1-.15,1.37,0,2.39,1Z"/><path id="Path_1434" data-name="Path 1434" class="cls-1" d="M15.28,32.15c-.37.25-.81.21-1.3.41.56.44.39,1.35,1.21,1.56l.42-.21h0c.43-.75-.47-.45-.63-.81a3.1,3.1,0,0,0,1.66-3c-.34-.09-.51,0-.43.41C16.38,31.37,15.84,31.76,15.28,32.15Z"/><path id="Path_1435" data-name="Path 1435" class="cls-1" d="M16.64,30.12v0h0Z"/><path id="Path_1436" data-name="Path 1436" class="cls-1" d="M17.75,33.26v0l0,0h0a1.49,1.49,0,0,0,1-1,1.57,1.57,0,0,0-.73-2.1l-.1,0a2.08,2.08,0,0,1-.36,2c-.67.52-.67.52.12.95h0Z"/><path id="Path_1438" data-name="Path 1438" class="cls-1" d="M18,30.22h0l.12-.06Z"/><path id="Path_1440" data-name="Path 1440" class="cls-1" d="M18.51,28.37c.4.23,0,.76.4,1,.77-1,.07-1.82-.41-2.63-.56.5-.17,1.28-.53,1.85a1.85,1.85,0,0,0,0,1.67h0A3.46,3.46,0,0,1,18.51,28.37Z"/><path id="Path_1442" data-name="Path 1442" class="cls-1" d="M21.24,25.13c0-.67,0-1.15,0-1.63,0-.19,0-.41-.25-.47a.44.44,0,0,0-.49.21l-.65,1.1C20.62,23.88,20.63,24.79,21.24,25.13Z"/><path id="Path_1443" data-name="Path 1443" class="cls-1" d="M14.48,26.69A5.86,5.86,0,0,0,12.74,29C14.12,28.25,14.44,27.81,14.48,26.69Z"/><path id="Path_1444" data-name="Path 1444" class="cls-1" d="M20,21l.23,1.45C20.92,21.79,20.53,21.35,20,21Z"/><path id="Path_1445" data-name="Path 1445" class="cls-1" d="M14.39,29.1c.2.52,0,1.15.77,1.73-.16-.73-.27-1.26-.39-1.8Z"/><path id="Path_1446" data-name="Path 1446" class="cls-1" d="M17.6,22.83c.21-.38.68-.62.73-1.27C17.65,22.12,17.65,22.12,17.6,22.83Z"/><path id="Path_1447" data-name="Path 1447" class="cls-1" d="M19.09,22.42A3.33,3.33,0,0,0,18.66,24C19,23.4,19.32,23.08,19.09,22.42Z"/><path id="Path_1448" data-name="Path 1448" class="cls-1" d="M15.19,34.12c.64.47,1.15.17,1.64-.25l-1.22,0h0C15.55,34.13,15.43,34.23,15.19,34.12Z"/><path id="Path_1449" data-name="Path 1449" class="cls-1" d="M16.87,33.84l0,0h.06Z"/><path id="Path_1450" data-name="Path 1450" class="cls-1" d="M15.19,34.12c.24.11.36,0,.42-.21h0Z"/><path id="Path_1451" data-name="Path 1451" class="cls-1" d="M13.72,30.79c-.09.65.07,1,.88,1.25A3,3,0,0,0,13.72,30.79Z"/><path id="Path_1452" data-name="Path 1452" class="cls-1" d="M16.22,23.2c-.27.35,0,.63.13.91s.23.12.43,0C16.55,23.83,16.68,23.37,16.22,23.2Z"/><path id="Path_1453" data-name="Path 1453" class="cls-1" d="M13,30.92c-.27.52-.49.9,0,1.4C13.07,31.8,13.28,31.41,13,30.92Z"/><path id="Path_1454" data-name="Path 1454" class="cls-1" d="M16.42,27.29c.29-.19.77-.19.69-.74C16.41,26.29,16.46,26.84,16.42,27.29Z"/><path id="Path_1455" data-name="Path 1455" class="cls-1" d="M17.11,26.53v0h0Z"/><path id="Path_1456" data-name="Path 1456" class="cls-1" d="M18.48,24.89a.24.24,0,0,0,.14.32c.2,0,.22-.12.22-.26s0-.22-.08-.24S18.51,24.76,18.48,24.89Z"/><path id="Path_1457" data-name="Path 1457" class="cls-1" d="M16.68,30.15l0,0,0,0h0Z"/><path id="Path_1458" data-name="Path 1458" class="cls-1" d="M17,29.09a.93.93,0,0,0-.29,1C17,29.86,17.22,29.59,17,29.09Z"/><path id="Path_1459" data-name="Path 1459" class="cls-1" d="M16.64,30.12h0l0,0Z"/><path id="Path_1460" data-name="Path 1460" class="cls-1" d="M17.56,25.71a1.68,1.68,0,0,0-.4.81C17.54,26.38,17.75,26.16,17.56,25.71Z"/><path id="Path_1461" data-name="Path 1461" class="cls-1" d="M17.11,26.53l0,0s0,0,0,0Z"/><path id="Path_1462" data-name="Path 1462" class="cls-1" d="M17.49,21.11c0-.08-.06-.22-.09-.23a.45.45,0,0,0-.44.29s.05.22.1.22A.36.36,0,0,0,17.49,21.11Z"/><path id="Path_1463" data-name="Path 1463" class="cls-1" d="M16.87,33.84l0,0v0Z"/><path id="Path_1464" data-name="Path 1464" class="cls-1" d="M17.81,33.33h0l0,0v0l0,0c-.33.13-.67.25-.81.62A.91.91,0,0,0,17.81,33.33Z"/><path id="Path_1465" data-name="Path 1465" class="cls-1" d="M17.8,33.32l0,0Z"/><path id="Path_1466" data-name="Path 1466" class="cls-1" d="M17.71,33.22h0l0,0Z"/><path id="Path_1497" data-name="Path 1497" class="cls-1" d="M33.11,17.58h0l0,0Z"/><path id="Path_1498" data-name="Path 1498" class="cls-1" d="M33.11,17.59s0,0,0,0h0Z"/><path id="Path_1514" data-name="Path 1514" class="cls-1" d="M35.32,27c.39.11.61-.2.8-.48a3,3,0,0,0,.6-1.76c0-.25.1-.59-.22-.74a.79.79,0,0,0-.82.12,2.36,2.36,0,0,0-1,2A.9.9,0,0,0,35.32,27Zm1-2.56c-.08.82-.16,1.52-.93,2-.23-1.22-.21-1.27.94-2Z"/><path id="Path_1515" data-name="Path 1515" class="cls-1" d="M27.64,21.06l.05-.06,0,.05Z"/><path id="Path_1516" data-name="Path 1516" class="cls-1" d="M27.64,21.06v0l0,0Z"/><path id="Path_1517" data-name="Path 1517" class="cls-1" d="M27.69,21v0s0,0,0,.05Z"/><path id="Path_1518" data-name="Path 1518" class="cls-1" d="M27.65,21.08v0h0a2.16,2.16,0,0,0-.58,1.55C27.3,22.11,27.4,21.57,27.65,21.08Z"/><path id="Path_1519" data-name="Path 1519" class="cls-1" d="M27.64,21.06h0s0,0,0-.06l-.05.07Z"/><path id="Path_1520" data-name="Path 1520" class="cls-1" d="M27.65,21.08l0,.15V21l0,0Z"/><path id="Path_1521" data-name="Path 1521" class="cls-1" d="M27.65,21.08c-.25.49-.35,1-.58,1.52a2.64,2.64,0,0,0,.62-1.37A.83.83,0,0,1,27.65,21.08Z"/><path id="Path_1523" data-name="Path 1523" class="cls-1" d="M27.71,40.79c-.2-.77-1-.64-1.42-1a.31.31,0,0,0-.43.06.3.3,0,0,0-.06.23c.07.29-.12.54,0,.81.94-.38.94-.38,1.61.36.42.46.85.91,1.63.71C28.69,41.34,27.87,41.38,27.71,40.79Z"/><path id="Path_1524" data-name="Path 1524" class="cls-1" d="M31,42.23c1.5.43,2.09-.06,2-1.78C32.5,41.38,31.59,41.5,31,42.23Z"/><path id="Path_1525" data-name="Path 1525" class="cls-1" d="M34.66,41.89c1.5,0,1.93-.42,1.62-1.94C35.85,41.16,35.85,41.16,34.66,41.89Z"/><path id="Path_1526" data-name="Path 1526" class="cls-1" d="M29.78,43.59c1,.17,1,.17,1.68-.28C30.85,43.16,30.36,43.54,29.78,43.59Z"/><path id="Path_1527" data-name="Path 1527" class="cls-1" d="M28.65,40.18a1.29,1.29,0,0,0,1.75.5A5.87,5.87,0,0,1,28.65,40.18Z"/><path id="Path_1528" data-name="Path 1528" class="cls-1" d="M35,40.08a.21.21,0,0,0-.25.17h0a1,1,0,0,0,.34,0C35.12,40.18,35.08,40.09,35,40.08Z"/><path id="Path_1529" data-name="Path 1529" class="cls-1" d="M34.7,40.29a0,0,0,0,1,0,0h0Z"/><path id="Path_1530" data-name="Path 1530" class="cls-1" d="M34.16,40.36c0,.06.08.16.12.16s.37,0,.39-.23A.61.61,0,0,0,34.16,40.36Z"/><path id="Path_1531" data-name="Path 1531" class="cls-1" d="M34.68,40.28v0h0v0h0Z"/><path id="Path_1532" data-name="Path 1532" class="cls-1" d="M34.68,40.28v0h0Z"/><path id="Path_1533" data-name="Path 1533" class="cls-1" d="M27.45,42.7v.08h.24s0-.08,0-.08Z"/><path id="Path_1534" data-name="Path 1534" class="cls-1" d="M29.42,35.66c1,.2,1.89,1.14,3.38,1C31.49,36.21,30.61,35.46,29.42,35.66Z"/><path id="Path_1535" data-name="Path 1535" class="cls-1" d="M34.15,35.22a8.08,8.08,0,0,1,2.39.83A2.3,2.3,0,0,0,34.15,35.22Z"/><path id="Path_1536" data-name="Path 1536" class="cls-1" d="M26.43,35.49l1.75-1.41A2,2,0,0,0,26.43,35.49Z"/><path id="Path_1537" data-name="Path 1537" class="cls-1" d="M26.31,36.74a2.77,2.77,0,0,0,1.81.47C27.09,36.71,27.09,36.71,26.31,36.74Z"/><path id="Path_1538" data-name="Path 1538" class="cls-1" d="M29.24,34.32l1.86.42A1.87,1.87,0,0,0,29.24,34.32Z"/><path id="Path_1539" data-name="Path 1539" class="cls-1" d="M29.87,37.21a.62.62,0,0,0,.24.08.6.6,0,0,0,.21-.09,1.06,1.06,0,0,0-.25-.09A.42.42,0,0,0,29.87,37.21Z"/><path id="Path_1540" data-name="Path 1540" class="cls-1" d="M35.44,36.63c-.08.16-.19.33.07.44a.23.23,0,0,0,.13,0C35.75,36.86,35.45,36.81,35.44,36.63Z"/><path id="Path_1541" data-name="Path 1541" class="cls-1" d="M35.43,36.62h0l0,0Z"/><path id="Path_1542" data-name="Path 1542" class="cls-1" d="M35,36.71l.39-.08h-.43Z"/><path id="Path_1543" data-name="Path 1543" class="cls-1" d="M35.43,36.63l0,0-.1,0Z"/><path id="Path_1544" data-name="Path 1544" class="cls-1" d="M29.08,33.47v-.09h-.15s0,.07,0,.1Z"/></g></g><path id="Path_1418-2" data-name="Path 1418-2" class="cls-1" d="M28.12,48.35A19.59,19.59,0,0,0,47.84,28.89v-.24a20,20,0,0,0-20.2-20A19.44,19.44,0,0,0,8,27.82v.49A20.13,20.13,0,0,0,28.12,48.35ZM27.74,9.11A19.74,19.74,0,0,1,47.28,28.75a19,19,0,0,1-19,19.06h-.16A19.59,19.59,0,0,1,8.52,28.29C8.5,17.66,17,9.38,27.74,9.11Z"/><circle class="cls-2" cx="42.38" cy="41.05" r="8.73"/><path id="Path_1310" data-name="Path 1310" class="cls-3" d="M41,44.79a.36.36,0,0,1-.28-.12l-3.22-3.21a.4.4,0,0,1,0-.56.4.4,0,0,1,.57,0h0L41,43.82l6.41-6.4a.4.4,0,0,1,.57,0A.4.4,0,0,1,48,38l-6.7,6.69A.36.36,0,0,1,41,44.79Z"/></svg>