<svg id="Layer_1" data-name="Layer 1" xmlns="http://www.w3.org/2000/svg" viewBox="0 0 56.69 56.69"><defs><style>.cls-1{fill:#4d6b7f;}.cls-2{fill:#ea5a5c;}.cls-3{fill:none;stroke:#363840;stroke-linecap:round;stroke-width:0.96px;}</style></defs><title>Recepidia_Icons</title><g id="Group_1239" data-name="Group 1239"><path id="Path_1411" data-name="Path 1411" class="cls-1" d="M34.25,9.43a21.15,21.15,0,0,0-23.48,8,19.4,19.4,0,0,0-3.4,15.48C9.22,42,17,48.28,27.14,48.4A17.53,17.53,0,0,0,30.53,48,20.91,20.91,0,0,0,44.6,38.49,19.34,19.34,0,0,0,34.25,9.43ZM26.87,47.54A18.5,18.5,0,0,1,8.24,32.81C6.93,26.53,8.68,21,12.85,16.18a20.21,20.21,0,0,1,22.3-5.58A18.24,18.24,0,0,1,47,27.72C47,38.5,37.92,47.47,26.87,47.54Z"/><path id="Path_1429" data-name="Path 1429" class="cls-1" d="M36,35.37c-.61-.46-.6-.82-.25-1.43,1.3-2.3,1-4.67.19-7-.15-.47-.4-.6-.87-.33a4,4,0,0,0-1.72,1.91,9.7,9.7,0,0,0-.63,2.24c-.12.76.37,1.44.43,2.39a10.21,10.21,0,0,1-2-2.08,6.6,6.6,0,0,0,.16-8.27,6.13,6.13,0,0,0-2.09,6.16,8.26,8.26,0,0,1-1.08-.85c-.49-.42-.53-.69-.07-1.28,1.73-2.23,1.23-4.66.48-7.15a6.26,6.26,0,0,0-2.87,5.81l-1-.91c-.31-.3-.22-.5.05-.83a5.42,5.42,0,0,0-1-7.61c-.25,1.56-1.2,2.79-1.65,4.56-1.23-2.56-2.77-4.18-5.44-4.27a3.5,3.5,0,0,1-.56-.13c-.77-.17-.86-.09-.71.66.58,2.84,2.49,4.39,5.12,5.21.45.14,1,.08,1.16.91a13.75,13.75,0,0,0-5.95.38,3.46,3.46,0,0,0,2.57,2.48,5.28,5.28,0,0,0,3.95-.48c1.46-.75,1.46-.74,2.61.47a1.24,1.24,0,0,1,.5.87c-2.38-.7-4.5,0-6.8.65a7.83,7.83,0,0,0,5.22,2.33c-.49.62-1.38.34-1.82,1.1l2.42,1.3a4.36,4.36,0,0,0,4.93-.21c.69-.49,1.22-.48,1.71.22.21.31.64.47.61.93-4.14.06-4.9.27-5.91,1.67.26.12.52.25.76.39a6.76,6.76,0,0,0,7.17.45.76.76,0,0,1,.93.15,4.78,4.78,0,0,1,.89,1.15,5.71,5.71,0,0,0,1.16,1.48.73.73,0,0,0,1,.07l0,0c.32-.27.22-.62.06-.92A6.19,6.19,0,0,0,36,35.37ZM18.33,19.94c-.7-.16.08-.39.18-.64a3.21,3.21,0,0,1-.66-.17c-.24-.14-.87-.16-.29-.67-.23-.23-.65-.22-.77-.58a.31.31,0,0,1,0-.27.56.56,0,0,1,.38-.12c1.62.56,3.17,1.22,3.79,3.3-1.07-.23-1.82-.66-2.66-.85Zm2.79,4.71c0,.29-.18.34-.37.26a4.31,4.31,0,0,0-2.81-.26.5.5,0,0,1-.64-.28l0-.1c-.09-.44.32-.38.57-.45a5.65,5.65,0,0,1,3.92.4c-.32.08-.61.19-.64.43Zm2.95-1.18c-1.16-1.45-1.12-4-.16-5.09.1-.11.24-.22.37-.13s.24.25.22.34a1.66,1.66,0,0,0,.42,1.56c.14.19,0,.48.12.69.18.65-1.37.16-.68,1.07.46.61-.57.75-.29,1.56Zm3.47-1.72a.33.33,0,0,1,.57-.08.27.27,0,0,1,0,.26c-.16.21-.32,0-.47,0,.17.4.32.8.51,1.19s-.77.14-.43.7a7.5,7.5,0,0,1,.42.91s0,.09,0,.14c.12.54-1.26-.95-.56.42.2.4-.05.82-.31,1.17a3.45,3.45,0,0,1,.28-4.67ZM26,29c1.26-.65,1.26-.66,2.44.86-1.27-.22-2.35-.14-3.48-.37.35-.16.7-.31,1-.49Zm-2.79-.57c-.74-.4-1.69.35-2.39-.42a4.54,4.54,0,0,1,4.52-.22c-.75.37-1.28,1.1-2.13.64ZM24.52,31a4.2,4.2,0,0,1,4.12.16c-3.15.68-3.15.68-4.12-.16Zm6.36-1.28c-.22.06-.33-.12-.44-.28a4.29,4.29,0,0,1,0-4.26c.15-.24.29-.58.63-.46s.28.43.2.73c0,.12.07.27.1.42-.44,1.1.06,2.28-.19,3.41-.05.19-.08.39-.29.44Zm-.17,4.6h-.06a1.93,1.93,0,0,1-2.77.19c1-.31,1.85-.73,2.79-.19h0l.34-.08c-.09.16-.22.08-.34.08Zm4.07-3.87c-.33,0-.34.76-.12,1.25s.8,1.18,0,1.47c-.52.19-.68-.69-.9-1.14-.61-1.25,0-2.33.61-3.59a11.53,11.53,0,0,1,.74,1.33c.1.26.32.59-.35.68Z"/><path id="Path_1494" data-name="Path 1494" class="cls-1" d="M30.67,34.28h0Z"/><path id="Path_1496" data-name="Path 1496" class="cls-1" d="M30.66,34.28h0Z"/></g><circle class="cls-2" cx="41.32" cy="41.05" r="8.73"/><g id="Close"><g id="Group_1159" data-name="Group 1159"><line id="Line_18" data-name="Line 18" class="cls-3" x1="44.3" y1="38.07" x2="38.35" y2="44.02"/><line id="Line_19" data-name="Line 19" class="cls-3" x1="44.3" y1="44.02" x2="38.35" y2="38.07"/></g></g></svg>