<svg id="Layer_1" data-name="Layer 1" xmlns="http://www.w3.org/2000/svg" viewBox="0 0 56.69 56.69"><defs><style>.cls-1{fill:#4d6b7f;}.cls-2{fill:#b5d384;}.cls-3{fill:#363840;stroke:#363840;stroke-miterlimit:10;stroke-width:0.1px;}</style></defs><title>Recepidia_Icons</title><path id="Path_1423" data-name="Path 1423" class="cls-1" d="M46.62,18.37C42.78,10.64,34,6.71,25.28,8.22a22.22,22.22,0,0,0-11.4,5.43C8.73,18.32,6,24.05,6.6,31.1A17.51,17.51,0,0,0,18.13,46.6c7.8,3.16,15.19,1.78,21.83-3.21,5.52-4.14,8.39-9.79,8.59-15.35A20.4,20.4,0,0,0,46.62,18.37ZM20.3,46.72A18,18,0,0,1,8.5,22.36a21.16,21.16,0,0,1,6.07-8.43c.86-.74,1.23-.64,1.7.4A3.7,3.7,0,0,1,16.52,16a7.73,7.73,0,0,0,2.23,5.38A3.83,3.83,0,0,0,21,22.71c1.64.33,1.89.85,1.4,2.74-2.08-1.16-3.32-1.07-5.14.37-.59.46-1,1-2,.42s-1.89,0-2.38,1a4.94,4.94,0,0,0,2,6.23,1.65,1.65,0,0,1,1,1.75c-.06,2.4.28,4.78,2.06,6.63a10.26,10.26,0,0,0,9.36,3.34c5.16-.83,8.9-3.63,10.65-8.75a30.1,30.1,0,0,0,.95-4.1,4,4,0,0,0-.26-2.15,2.08,2.08,0,0,1,.59-2.44A9,9,0,0,0,42,21.42c.06-4-4.54-9.36-10.16-6.39a8.15,8.15,0,0,0-4.6,5.51,9,9,0,0,0,.06,3.61c.14.67.05,1.06-.73,1.27a9.22,9.22,0,0,0-3,1.47c-.06-1.28-.13-2.33-.17-3.37a2.24,2.24,0,0,0-1.87-2.41c-.23-.06-.47-.1-.71-.14a3.3,3.3,0,0,1-3.07-3.31,14.44,14.44,0,0,0-.93-4.83c-.25-.52.18-.7.49-.89A22.45,22.45,0,0,1,23,9.39a21,21,0,0,1,12.61.26A17.94,17.94,0,0,1,47.4,31.11c-2.78,11.61-15.65,19-27.1,15.61Zm8.94-20.5a6.77,6.77,0,0,1,1.67-9.42l.13-.09a10.82,10.82,0,0,1,2.53-1.42A4.9,4.9,0,0,1,40,18.5c1.24,3.43.26,6.4-2.05,9a2.38,2.38,0,0,0-.69,2.27c.39,2.48.71,5-.64,7.38a10.51,10.51,0,0,1-4.3,4.41,13.82,13.82,0,0,1-11.09,1,5.69,5.69,0,0,1-4.09-5.13A10.37,10.37,0,0,1,17.81,32a9.73,9.73,0,0,0,.49-1.37c.19-.72-.78-1.6-1.51-1.41-.53.13-.45.54-.5.91l-.08.11c-.27.29-.29.56,0,.82v0c-.11.15.19.51-.24.5-.59,0-.42.6-.81.93a5.07,5.07,0,0,1-1.91-3.67,2,2,0,0,1,.5-1.48.88.88,0,0,1,1.17-.23.69.69,0,0,1,.42.86.93.93,0,0,1,0,.1,1.09,1.09,0,0,0-.09,1c.57-.1.69-.64,1-1A5.79,5.79,0,0,1,19.28,26a3.7,3.7,0,0,1,1-.11c2,.14,2.66,1.28,1.67,3a7,7,0,0,0-.84,4.62,3.78,3.78,0,0,0,2.8,3.2A4.81,4.81,0,0,0,29.07,35c.09-.14.24-.31.06-.54a1.9,1.9,0,0,0-1.31.73c-1.4,1.35-2.88,1.34-4.17-.08a4.42,4.42,0,0,1-1-4.72,8.34,8.34,0,0,1,3-3.82,1.12,1.12,0,0,1,1.55,0c.94.68,1.56,1.72,2.64,2.23a1.74,1.74,0,0,0,1.76.16,7.24,7.24,0,0,1-2.41-2.76Z"/><circle class="cls-2" cx="42.49" cy="40.26" r="8.73"/><path id="Path_1310" data-name="Path 1310" class="cls-3" d="M41.12,44a.39.39,0,0,1-.28-.12l-3.21-3.21a.4.4,0,0,1,0-.57.42.42,0,0,1,.57,0h0L41.12,43l6.41-6.41a.42.42,0,0,1,.57,0,.4.4,0,0,1,0,.57l-6.69,6.69A.4.4,0,0,1,41.12,44Z"/></svg>