<svg xmlns="http://www.w3.org/2000/svg" width="80.813" height="78.564" viewBox="0 0 80.813 78.564">
  <g data-name="Group 1962" transform="translate(-523.465 -455.033)">
    <g data-name="Group 1238" transform="translate(523.464 455.033)">
      <path data-name="Path 1413" d="M-304.8,279.487a36.247,36.247,0,0,0-50.171,7.056q-.954,1.251-1.792,2.58a37.6,37.6,0,0,0,2.8,44.322,36.042,36.042,0,0,0,28.4,13.42,35.088,35.088,0,0,0,16.115-3.781C-284.8,330.715-282.253,295.876-304.8,279.487Zm14.21,30.519c-.1,11.009-4.2,20.3-12.7,27.523a34.836,34.836,0,0,1-43.495,1.066c-15.989-11.977-19.505-34.923-7.509-50.772,8.053-10.642,19.087-15.561,32.5-13.825,13.369,1.73,22.642,9.346,28.177,21.335a32.688,32.688,0,0,1,3.023,14.675Z" transform="translate(362.68 -272.444)" fill="#587c94"/>
      <path data-name="Path 1467" d="M-331.713,286.581c-.012.006-.025.006-.038.012h.018Z" transform="translate(363.172 -272.464)" fill="#587c94"/>
      <path data-name="Path 1468" d="M-311.135,294.256c-.677-1.1-1.272-2.2-.745-3.431-.056-1-.053-1.905-.168-2.8a2.353,2.353,0,0,0-2.321-2.386h-.042c-2.708-.313-5.365-1.048-8.055-1.546-3.585-.665-7.175-1.305-10.774-1.887-1.5-.241-2.044.4-1.727,1.843.076.347.317.662.372,1.009.43,2.674.762,5.266-1.4,7.565a52.282,52.282,0,0,0-3.7,5.009,3.424,3.424,0,0,0-.679,2.21c0,8.98-.1,17.961-.175,26.941-.011,1.527,0,3.054,0,4.581a1.218,1.218,0,0,0,.936,1.368c2.561.929,5.1,1.947,7.571,3.086a9,9,0,0,0,5.861.455c4.017-.843,8.051-1.6,12.064-2.46,1.758-.374,4.118-.006,5.1-1.417,1-1.435.676-3.62.76-5.5.3-6.9.592-13.811,1.029-20.708.192-3.029.062-5.867-1.877-8.426C-309.92,296.7-310.428,295.408-311.135,294.256Zm.029,3.089a10.543,10.543,0,0,1,1.506,3.066c-.432.646-1.016.421-1.516.386-4.806-.328-9.608-.759-14.42-.99-2.153-.1-3.526-.68-4.155-2.941a62.965,62.965,0,0,0-2.735-6.761c3.028-.236,5.51.506,8.04.628,1.35.065.97.943.793,1.745-.553,2.5-.181,3.364,1.829,4.384,3.117,1.581,5.666,0,5.626-3.486-.006-.545-.716-1.289.246-1.573a1.681,1.681,0,0,1,2.06.891c.883,1.565,1.872,3.077,2.726,4.65Zm-11.665-3.038a21.983,21.983,0,0,0,4.175,1.416c-1.753.829-2.208.672-4.175-1.417Zm-.376-8.288a65.332,65.332,0,0,1,9.844,1.85c-1.587,1.227-2.92.415-4.135.809.952.615,2.052.042,2.964.491.433.214.754.491.654,1.029-.084.455-.468.477-.819.522a1.91,1.91,0,0,1-.544-.024c-3.672-.607-7.368-1.032-11.08-1.317a1.343,1.343,0,0,1-.781-.2c-1.334-1.374-3.062-1.625-4.856-1.761-.435-.033-.588-.4-.366-.779.156-.267.422-.283.659-.045h0l-.007-.006c-.215-.581-.981-.812-1.016-1.9,3.258-.164,6.354.835,9.482,1.322Zm-10.171,5.962c.726,1.946,2.35,3.337.741,5.254.651,2.387-1.512,1.785-2.522,2.07-.968.276-2.121-.084-3.664-.2a53.9,53.9,0,0,1,5.446-7.13Zm3.657,22.667c-.22,5-.677,10-1.055,15.328-.862-.912-.229-1.85-.871-2.554-.23,1.723.2,3.405-.3,5.06-.478,1.555-.65,1.789-2.209,1.247-1.2-.416-2.316-1.05-3.491-1.539-.836-.349-.847-1.05-.962-1.768a40.046,40.046,0,0,1-.146-8.587,66.857,66.857,0,0,0-.054-10.74,67.262,67.262,0,0,1,.042-10.791c2.584-.119,4.978.478,7.4.623,1.256.074,1.74.666,1.727,1.891-.05,3.937.092,7.89-.08,11.824Zm20.366-11.152c-.065,3.4-.119,6.821-.466,10.2-.551,5.365-.54,10.755-.95,16.123-.139,1.82.053,2.143-2.273,2.559-4.758.853-9.481,1.892-14.223,2.823-1.577.31-1.786.168-1.688-1.44.317-5.206.3-10.415.423-15.625V303.32c0-.449.01-.9.038-1.347.071-1.158.508-1.827,1.884-1.641,1.625.22,3.268.3,4.906.42,3.46.246,6.922.463,10.381.714,1.894.132,2,.155,1.968,2.024Z" transform="translate(363.032 -272.457)" fill="#587c94"/>
      <path data-name="Path 1469" d="M-330.187,286.761c-.087-.009-.175-.023-.261-.038A.6.6,0,0,0-330.187,286.761Z" transform="translate(363.193 -272.464)" fill="#587c94"/>
      <path data-name="Path 1545" d="M-320.378,306.183c-1.1,1.576-.975,3.266-2,4.426A14.22,14.22,0,0,0-325,315.867a9.377,9.377,0,0,0,1.072,8.463,5.112,5.112,0,0,0,5.176,2.3c1.99-.264,2.872-1.805,3.251-3.543.838-3.822.995-7.538-1.156-11.151C-317.76,310.083-319.3,308.537-320.378,306.183Zm3.8,15.4c-.515,2.355-1.911,3.973-3.416,4.071-1.634.1-3.7-1.728-4.223-4a10.282,10.282,0,0,1,3.567-10.832.03.03,0,0,1,.006-.021,1.148,1.148,0,0,1,.534-1.551l.037-.018c.68-.327.9.438,1.15.844C-316.762,313.635-315.674,317.422-316.583,321.583Z" transform="translate(363.27 -272.491)" fill="#587c94"/>
      <path data-name="Path 1546" d="M-331.751,286.59l.007.006.011-.006Z" transform="translate(363.172 -272.464)" fill="#587c94"/>
      <path data-name="Path 1547" d="M-330.82,286.569c.133.054.26.114.378.153.086.015.173.029.261.038a.3.3,0,0,0,.153-.065A1.6,1.6,0,0,1-330.82,286.569Z" transform="translate(363.187 -272.464)" fill="#587c94"/>
      <path data-name="Path 1548" d="M-330.816,286.569c-.046-.017-.092-.036-.139-.052l-.048.009C-330.94,286.543-330.878,286.554-330.816,286.569Z" transform="translate(363.184 -272.464)" fill="#587c94"/>
      <path data-name="Path 1549" d="M-330.024,286.694a.3.3,0,0,1-.154.065,1.67,1.67,0,0,0,.984-.165,2.887,2.887,0,0,0-1.762-.077c.048.016.093.033.139.052A1.609,1.609,0,0,0-330.024,286.694Z" transform="translate(363.184 -272.463)" fill="#587c94"/>
      <path  data-name="Path 1550" d="M-331,286.525c-.13.021-.259.038-.388.052a7.308,7.308,0,0,1,.954.146c-.118-.039-.244-.1-.378-.152A1.613,1.613,0,0,0-331,286.525Z" transform="translate(363.178 -272.464)" fill="#587c94"/>
      <path  data-name="Path 1551" d="M-331.624,286.587h-.108l-.012.006h0C-331.7,286.588-331.664,286.591-331.624,286.587Z" transform="translate(363.172 -272.464)" fill="#587c94"/>
      <path data-name="Path 1587" d="M-320.727,310.809a.026.026,0,0,1-.006.02l.008-.007Z" transform="translate(363.347 -272.498)" fill="#587c94"/>
      <path data-name="Path 1588" d="M-320.81,311.2a2.136,2.136,0,0,1,.089-.361v-.017l-.008.007a2.025,2.025,0,0,0-.1.443C-320.826,311.248-320.817,311.224-320.81,311.2Z" transform="translate(363.345 -272.498)" fill="#587c94"/>
      <path data-name="Path 1589" d="M-320.81,311.2c.035-.118.065-.237.089-.36h0A2.271,2.271,0,0,0-320.81,311.2Z" transform="translate(363.346 -272.498)" fill="#587c94"/>
      <path data-name="Path 1590" d="M-320.715,310.813h0v0Z" transform="translate(363.347 -272.498)" fill="#587c94"/>
      <path data-name="Path 1600" d="M-321.4,313.666" transform="translate(363.336 -272.502)" fill="#587c94"/>
      <path data-name="Path 1601" d="M-320.983,312.981" transform="translate(363.343 -272.501)" fill="#587c94"/>
      <path data-name="Path 1602" d="M-320.866,312.014a4.274,4.274,0,0,1-.08.829A3.662,3.662,0,0,0-320.866,312.014Z" transform="translate(363.344 -272.499)" fill="#587c94"/>
      <path data-name="Path 1603" d="M-320.813,311.2l-.022.072a6.676,6.676,0,0,0-.035.741A6.2,6.2,0,0,1-320.813,311.2Z" transform="translate(363.345 -272.498)" fill="#587c94"/>
      <path data-name="Path 1604" d="M-320.723,310.836v0Z" transform="translate(363.347 -272.498)" fill="#587c94"/>
      <path data-name="Path 1605" d="M-320.829,312.013a3.663,3.663,0,0,1-.08.829c-.01.046-.023.091-.038.136v.006a1.5,1.5,0,0,1-.439.7l.013-.018h0c0,.005-.007.011.008-.008a1.616,1.616,0,0,0,.419-.67v-.006c.015-.045.026-.09.038-.136a4.2,4.2,0,0,0,.08-.829,6.945,6.945,0,0,1,.035-.741c-.487,1.542-1.8,2.727-2.044,4.374l.1-.093v.011l.056.086c.735.022.7.1.226,1.287-.489-.322-.216-.787-.243-1.189-.033-.022-.074-.051-.127-.093a1.252,1.252,0,0,0-.349.508c-.1.59-.369,1.4.383,1.638.964.307,1.229-.6,1.347-1.255.339-1.888,1.145-3.725.763-5.706-.024.124-.055.242-.089.36A6.2,6.2,0,0,0-320.829,312.013Z" transform="translate(363.306 -272.498)" fill="#587c94"/>
      <path data-name="Path 1606" d="M-320.945,312.845c-.011.046-.022.091-.038.136C-320.97,312.936-320.957,312.891-320.945,312.845Z" transform="translate(363.343 -272.5)" fill="#587c94"/>
      <path data-name="Path 1607" d="M-321.4,313.664l-.012.018a1.5,1.5,0,0,0,.439-.7,1.64,1.64,0,0,1-.419.67C-321.411,313.675-321.408,313.67-321.4,313.664Z" transform="translate(363.336 -272.501)" fill="#587c94"/>
      <path data-name="Path 1608" d="M-320.723,310.838v-.023l-.009.008Z" transform="translate(363.347 -272.498)" fill="#587c94"/>
      <path data-name="Path 1609" d="M-320.717,310.814h-.011v.013Z" transform="translate(363.347 -272.498)" fill="#587c94"/>
    </g>
    <g data-name="Group 1381" transform="translate(571.345 501.226)">
      <ellipse data-name="Ellipse 23" cx="16.466" cy="16.185" rx="16.466" ry="16.185" transform="translate(0 0)" fill="#fc5959"/>
      <g transform="translate(10.854 10.669)">
        <g data-name="Group 1159">
          <line data-name="Line 18" x1="11.224" y2="11.033" fill="none" stroke="#363840" stroke-linecap="round" stroke-width="1.776"/>
          <line data-name="Line 19" x1="11.224" y1="11.033" fill="none" stroke="#363840" stroke-linecap="round" stroke-width="1.776"/>
        </g>
      </g>
    </g>
  </g>
</svg>
