<svg xmlns="http://www.w3.org/2000/svg" width="82.58" height="79.836" viewBox="0 0 82.58 79.836">
  <g data-name="Group 1950" transform="translate(-867.002 -635.223)">
    <g data-name="Group 1239" transform="translate(867.002 635.223)">
      <path data-name="Path 1411" d="M-312.329,402.22a40.16,40.16,0,0,0-44.179,14.753c-6.154,8.643-8.547,18.217-6.394,28.632,3.481,16.844,18.145,28.451,37.2,28.68a33.751,33.751,0,0,0,6.374-.717c11.312-2.263,20.259-8.014,26.464-17.612A35.558,35.558,0,0,0-312.329,402.22ZM-326.214,472.7c-17.222.109-31.6-10.925-35.056-27.25-2.457-11.611.824-21.9,8.668-30.742a38.452,38.452,0,0,1,41.967-10.318A33.733,33.733,0,0,1-288.4,436.044C-288.334,455.981-305.438,472.562-326.214,472.7Z" transform="translate(363.678 -400.482)" fill="#587c94"/>
      <path data-name="Path 1429" d="M-309.382,450.209c-1.15-.849-1.124-1.519-.475-2.647,2.446-4.256,1.814-8.641.359-13.025-.283-.855-.755-1.109-1.642-.6a7.276,7.276,0,0,0-3.227,3.536,17.455,17.455,0,0,0-1.191,4.132c-.22,1.405.692,2.663.822,4.426a19.4,19.4,0,0,1-3.815-3.857c3.764-4.764,3.86-10.891.3-15.291-3.242,3.089-5.06,6.68-3.932,11.384a15.163,15.163,0,0,1-2.032-1.571c-.914-.759-.99-1.259-.127-2.351,3.265-4.135,2.326-8.629.905-13.236-3.829,2.552-5.5,6.006-5.407,10.749-.914-.847-1.373-1.263-1.829-1.684-.589-.548-.42-.93.081-1.541,3.465-4.232,2.7-10.241-1.811-14.062-.476,2.882-2.273,5.156-3.1,8.421-2.318-4.722-5.222-7.714-10.236-7.889a6.171,6.171,0,0,1-1.065-.245c-1.447-.313-1.613-.157-1.326,1.228,1.089,5.255,4.679,8.118,9.624,9.63.85.261,1.849.143,2.191,1.682a26.246,26.246,0,0,0-11.2.7,6.461,6.461,0,0,0,4.844,4.594,10.038,10.038,0,0,0,7.43-.884c2.733-1.4,2.743-1.378,4.9.861a2.27,2.27,0,0,1,.953,1.608c-4.479-1.29-8.467.091-12.8,1.213,2.844,2.91,6.154,3.926,9.825,4.294-.914,1.152-2.6.645-3.43,2.046,1.545.812,3.048,1.6,4.552,2.4,3.171,1.66,6.308,1.725,9.286-.38,1.293-.915,2.286-.9,3.206.407.4.562,1.2.865,1.155,1.722-7.789.1-9.22.492-11.119,3.086a16,16,0,0,1,1.436.718c4.337,2.736,8.813,3.189,13.474.84a1.449,1.449,0,0,1,1.75.275,8.348,8.348,0,0,1,1.673,2.114,10.848,10.848,0,0,0,2.187,2.744,1.389,1.389,0,0,0,1.935.134l.038-.034c.61-.513.425-1.154.124-1.717A11.671,11.671,0,0,0-309.382,450.209Zm-33.154-28.54c-1.321-.289.163-.716.349-1.173a5.274,5.274,0,0,1-1.24-.33c-.452-.246-1.648-.285-.556-1.237-.43-.425-1.219-.4-1.444-1.065-.051-.15-.042-.431.051-.493a1.006,1.006,0,0,1,.711-.224c3.054,1.031,5.965,2.247,7.144,6.091-2.014-.416-3.426-1.223-5.015-1.571Zm5.25,8.721c-.072.533-.331.613-.7.469a8.327,8.327,0,0,0-5.283-.476.932.932,0,0,1-1.2-.519.863.863,0,0,1-.051-.18c-.176-.811.591-.711,1.071-.831a10.782,10.782,0,0,1,7.375.73c-.606.16-1.153.348-1.216.807Zm5.555-2.2c-2.175-2.674-2.114-7.444-.3-9.411.187-.2.449-.4.7-.24.2.131.453.469.406.636a3.072,3.072,0,0,0,.794,2.882c.272.355.1.887.219,1.272.352,1.214-2.566.307-1.273,1.982.868,1.127-1.066,1.38-.543,2.877Zm6.527-3.171a.614.614,0,0,1,.784-.353.607.607,0,0,1,.278.208.491.491,0,0,1,.029.483c-.3.377-.594.008-.889-.082.32.737.609,1.487.968,2.208.435.885-1.463.258-.823,1.283a13.469,13.469,0,0,1,.794,1.686c.03.067-.053.176-.035.256.222,1-2.37-1.753-1.059.779.384.744-.084,1.515-.586,2.158-2.106-3.143-1.937-5.858.537-8.626Zm-2.832,13.372c2.387-1.215,2.385-1.221,4.591,1.583-2.387-.405-4.419-.253-6.537-.678.649-.3,1.31-.582,1.947-.906Zm-5.232-1.066c-1.395-.741-3.193.659-4.5-.767,1.953-1.555,5.384-1.752,8.494-.406-1.409.688-2.4,2.02-3.991,1.172Zm2.385,4.723a7.961,7.961,0,0,1,7.741.3c-5.92,1.251-5.92,1.251-7.742-.3Zm11.963-2.367c-.42.1-.622-.227-.827-.528a7.827,7.827,0,0,1-.022-7.879c.291-.435.547-1.065,1.19-.849s.527.8.379,1.358c-.059.219.116.5.191.775-.834,2.037.113,4.211-.37,6.3-.083.355-.146.723-.541.82Zm-.327,8.5-.052.011s-.055-.006-.047,0h-.008c-1.648,1.526-3.189,1.707-5.2.342,1.9-.572,3.469-1.342,5.247-.342a.263.263,0,0,1,.063,0l.639-.137c-.159.288-.413.137-.64.131Zm7.66-7.155c-.617.075-.644,1.4-.223,2.31.406.886,1.51,2.19.043,2.718-.991.357-1.292-1.26-1.7-2.1-1.142-2.314-.066-4.3,1.158-6.638a21.534,21.534,0,0,1,1.384,2.452c.189.484.6,1.1-.658,1.256Z" transform="translate(363.924 -400.502)" fill="#587c94"/>
      <path data-name="Path 1494" d="M-319.763,448.235l.011.005.052-.011A.225.225,0,0,0-319.763,448.235Z" transform="translate(364.376 -400.549)" fill="#587c94"/>
      <path data-name="Path 1495" d="M-319.8,448.235h0Z" transform="translate(364.376 -400.549)" fill="#587c94"/>
      <path data-name="Path 1496" d="M-319.783,448.237h.031l-.011,0Z" transform="translate(364.376 -400.549)" fill="#587c94"/>
    </g>
    <g data-name="Group 1376" transform="translate(917.037 683.067)">
      <ellipse data-name="Ellipse 27" cx="16.273" cy="15.996" rx="16.273" ry="15.996" transform="translate(0 0)" fill="#b6dc85"/>
      <path data-name="Path 1310" d="M-300.813,471.271a.753.753,0,0,1-.53-.215l-5.99-5.888a.73.73,0,0,1,0-1.042.761.761,0,0,1,1.06,0h0l5.459,5.368,11.95-11.746a.757.757,0,0,1,1.059,0,.726.726,0,0,1,0,1.041l-12.478,12.267A.756.756,0,0,1-300.813,471.271Z" transform="translate(314.535 -448.406)" fill="#363840" stroke="#363840" stroke-miterlimit="10" stroke-width="0.175"/>
    </g>
  </g>
</svg>
