<svg xmlns="http://www.w3.org/2000/svg" width="85" height="76" viewBox="0 0 85 76">
  <g data-name="Group 1955">
    <g data-name="Group 1242">
      <g data-name="Group 1235" fill="#587c94">
        <path data-name="Path 1412" d="M37 0C17 0 0 17 0 37c0 21 18 38 39 37 19 1 37-14 38-36C77 17 59 0 37 0zm1 73C18 73 1 57 1 37 1 18 17 1 39 1c20 1 36 17 36 37 0 19-16 35-36 35h-1z"/>
        <path data-name="Path 1420" d="M19 46z"/>
        <path data-name="Path 1430" d="M33 27c0 1 0 3 3 4v1c4 4 9 6 15 8a3 3 0 0 0 3-1c5-5 6-13 4-18l1-1v-2a12 12 0 0 0-2-4 13 13 0 0 0-13-2c-2 0-2 0-3-2l-1-2a4 4 0 0 0 0 4 2 2 0 0 1-1 2c-5 3-6 8-6 13zm24-10h1l-1 1a1 1 0 0 1 0-1zm-2-1l-4-3 4 3zm-1 1v-1a3 3 0 0 1 1 1h-1zm1 2l-6-3a19 19 0 0 1 6 3zm-4-4a4 4 0 0 1-3-1c1-1 2 0 3 1zm-4-1l1 3v2a2 2 0 0 1 0-2c-2-1-1-2-1-3zm-3-1l1 1 1 8a33 33 0 0 1-2-8v-1zm-2 1c2 1 1 2 2 4v3c-2-2-2-4-2-7zm-1 0l1 6a7 7 0 0 1-1-6zm0 8l5 3c1 1 2 1 2-1l2-5a24 24 0 0 0 4 1 1 1 0 0 1 1 1c2 6 2 11-2 15a3 3 0 0 1-3 1 29 29 0 0 1-11-4 7 7 0 0 1-2-2 1 1 0 0 1 0-2 17 17 0 0 0 4-7zm-2-5l-2 6 2-2a11 11 0 0 1-3 6 2 2 0 0 1-1 2 75 75 0 0 1 3-13l1 1z"/>
        <path data-name="Path 1431" d="M60 55l-2-3c-1-3-3-6-6-7a21 21 0 0 0-10-2c-4 0-8 2-10 5-1 2-2 3-1 4 1 2 0 4-1 6-1 4 0 7 4 9l9 2a9 9 0 0 0 6-2 4 4 0 0 1 3-1c2 0 4-1 5-3a10 10 0 0 0 1-3 8 8 0 0 1 2-4v-1zm-28-3c1-4 7-8 12-7v1l4 1-1-1c2-2 8 4 10 9h-6a120 120 0 0 0-16 0c-2 0-3-1-3-3zm24 7a1 1 0 0 0-1 2 2 2 0 0 1-1 3 3 3 0 0 1-3 0l-1-1h-1v1c1 1 0 1-1 1a15 15 0 0 1-2 1 18 18 0 0 1-10-1 7 7 0 0 1-4-5c-1-3 0-4 3-4a20 20 0 0 1 5 1 11 11 0 0 0 7 0l11-1-2 3z"/>
        <path data-name="Path 1432" d="M24 19c-4 0-10 2-10 7l-1 7a2 2 0 0 0 2-2v-3c0-4 1-6 5-7s5-1 6 3a11 11 0 0 1 1 3c0 2-1 5-3 7a7 7 0 0 0-2 6c1 5-4 10-9 9a4 4 0 0 1-2-1 9 9 0 0 1-3-5l-1-2v3a24 24 0 0 0 1 3c2 3 6 5 9 5a9 9 0 0 0 7-8 39 39 0 0 0 0-5 5 5 0 0 1 1-4 21 21 0 0 0 4-5c3-5 0-10-5-11z"/>
        <path data-name="Path 1433" d="M36 11h2a2 2 0 0 0-1-2c-2-2-4-3-7-2a7 7 0 0 0 6 4zm1-1l-4-1c2-1 2-1 4 1z"/>
        <path data-name="Path 1434" d="M14 44a15 15 0 0 1-2 1c1 0 0 2 2 2h1l-2-2a6 6 0 0 0 4-5l-1 1-2 3z"/>
        <path data-name="Path 1435" d="M17 40z"/>
        <path data-name="Path 1436" d="M19 46a3 3 0 0 0 2-2 3 3 0 0 0-2-4c1 1 0 3-1 4s-1 1 1 2z"/>
        <path data-name="Path 1438" d="M19 40z"/>
        <path data-name="Path 1439" d="M19 40z"/>
        <path data-name="Path 1440" d="M20 37l1 2c1-2 0-4-1-5l-1 3a3 3 0 0 0 0 3 6 6 0 0 1 1-3z"/>
        <path data-name="Path 1441" d="M19 40z"/>
        <path data-name="Path 1442" d="M25 31v-3-1a1 1 0 0 0-1 0l-1 2c1-1 1 1 2 2z"/>
        <path data-name="Path 1443" d="M13 34a11 11 0 0 0-4 4c3-1 3-2 4-4z"/>
        <path data-name="Path 1444" d="M23 23v3c2-1 1-2 0-3z"/>
        <path data-name="Path 1445" d="M12 38c1 1 0 2 2 3l-1-3z"/>
        <path data-name="Path 1446" d="M18 27l2-3c-2 1-2 1-2 3z"/>
        <path data-name="Path 1447" d="M21 26a6 6 0 0 0-1 3c1-1 2-2 1-3z"/>
        <path data-name="Path 1448" d="M14 47h3-2-1z"/>
        <path data-name="Path 1449" d="M17 47z"/>
        <path data-name="Path 1450" d="M14 47h1z"/>
        <path data-name="Path 1451" d="M11 41c0 1 0 2 2 3a6 6 0 0 0-2-3z"/>
        <path data-name="Path 1452" d="M16 27v2h1l-1-2z"/>
        <path data-name="Path 1453" d="M10 41v0z"/>
        <path data-name="Path 1454" d="M16 35c1-1 2-1 1-2l-1 2z"/>
        <path data-name="Path 1455" d="M17 33h1z"/>
        <path data-name="Path 1456" d="M20 30v1l1-1h-1z"/>
        <path data-name="Path 1457" d="M17 40z"/>
        <path data-name="Path 1458" d="M17 38a2 2 0 0 0 0 2v-2z"/>
        <path data-name="Path 1459" d="M17 40z"/>
        <path data-name="Path 1460" d="M18 32a3 3 0 0 0 0 1v-1z"/>
        <path data-name="Path 1461" d="M17 33h0z"/>
        <path data-name="Path 1462" d="M18 23a1 1 0 0 0-1 0v1a1 1 0 0 0 1-1z"/>
        <path data-name="Path 1463" d="M17 47z"/>
        <path data-name="Path 1464" d="M19 46l-2 1a2 2 0 0 0 2-1z"/>
        <path data-name="Path 1465" d="M19 46z"/>
        <path data-name="Path 1466" d="M19 46z"/>
        <path data-name="Path 1497" d="M48 17z"/>
        <path data-name="Path 1498" d="M48 17z"/>
        <path data-name="Path 1514" d="M52 34l1-1a6 6 0 0 0 1-3v-1a1 1 0 0 0-2 0 4 4 0 0 0-1 4 2 2 0 0 0 1 1zm2-5l-2 4c-1-2-1-2 2-4z"/>
        <path data-name="Path 1515" d="M37 23z"/>
        <path data-name="Path 1516" d="M37 23z"/>
        <path data-name="Path 1517" d="M37 23z"/>
        <path data-name="Path 1518" d="M37 23a4 4 0 0 0-1 3l1-3z"/>
        <path data-name="Path 1519" d="M37 23z"/>
        <path data-name="Path 1520" d="M37 23v0z"/>
        <path data-name="Path 1521" d="M37 23l-1 3a5 5 0 0 0 1-2v-1z"/>
        <path data-name="Path 1523" d="M37 60c0-2-1-1-2-2a1 1 0 0 0-1 0v2h3c1 1 1 2 3 2l-3-2z"/>
        <path data-name="Path 1524" d="M44 62c2 1 3 0 3-3l-3 3z"/>
        <path data-name="Path 1525" d="M50 62c3 0 4-1 4-4l-4 4z"/>
        <path data-name="Path 1526" d="M41 65l3-1-3 1z"/>
        <path data-name="Path 1527" d="M39 59a2 2 0 0 0 3 1l-3-1z"/>
        <path data-name="Path 1528" d="M51 58v0z"/>
        <path data-name="Path 1529" d="M51 59h-1 1z"/>
        <path data-name="Path 1530" d="M50 59z"/>
        <path data-name="Path 1531" d="M51 59h-1 1z"/>
        <path data-name="Path 1532" d="M51 59h-1z"/>
        <path data-name="Path 1533" d="M37 63z"/>
        <path data-name="Path 1534" d="M41 50l6 2-6-2z"/>
        <path data-name="Path 1535" d="M50 49a15 15 0 0 1 4 2l-4-2z"/>
        <path data-name="Path 1536" d="M35 50l3-3a4 4 0 0 0-3 3z"/>
        <path data-name="Path 1537" d="M35 52a5 5 0 0 0 3 1l-3-1z"/>
        <path data-name="Path 1538" d="M40 48l4 1a4 4 0 0 0-4-1z"/>
        <path data-name="Path 1539" d="M41 53a2 2 0 0 0 1 0h-1z"/>
        <path data-name="Path 1540" d="M52 52v0z"/>
        <path data-name="Path 1541" d="M52 52z"/>
        <path data-name="Path 1542" d="M51 52h1-1z"/>
        <path data-name="Path 1543" d="M52 52z"/>
        <path data-name="Path 1544" d="M40 46z"/>
      </g>
    </g>
    <g data-name="Group 1383" transform="translate(53 44)">
      <ellipse data-name="Ellipse 24" cx="16" cy="16" rx="16" ry="16" fill="#b6dc85"/>
      <path data-name="Path 1310" d="M14 23a1 1 0 0 1-1 0l-6-6a1 1 0 0 1 0-1 1 1 0 0 1 1 0l6 5L26 9a1 1 0 0 1 1 0 1 1 0 0 1 0 1L14 23z" fill="#363840"/>
    </g>
  </g>
</svg>
