<svg xmlns="http://www.w3.org/2000/svg" width="82.834" height="78.656" viewBox="0 0 82.834 78.656">
  <g id="Group_1964" data-name="Group 1964" transform="translate(-754.781 -454.9)">
    <g id="Group_1237" data-name="Group 1237" transform="translate(754.782 454.9)">
      <path id="Path_1409" data-name="Path 1409" d="M-453.92,405.577c-16.613,9.563-24.686,30.288-18.887,48.346,7.539,23.454,34.412,32.581,54.96,18.514,12.191-8.347,17.96-20.188,18.489-34.626a42.923,42.923,0,0,0-.711-7.526C-405.091,404.26-432.2,393.074-453.92,405.577Zm24.714,70.479c-17.27,5.061-34.682-3.631-41.257-20.436-8.214-21,3.822-45.679,25.436-52.159a33.474,33.474,0,0,1,36.8,11.934c.489.649.951,1.318,1.39,2,.658,1.022.4,1.818-.9,2.6.443-3.133-2.609-3.656-3.983-6.091.008,1.768,1.294,2.565,1.128,4.046l-4.194-3.407-.417.4c1.211,1.475,2.914,2.631,3.5,4.8-2.819.109-4.775,1.9-6.622,3.585A36.617,36.617,0,0,0-430.008,443.3a12.987,12.987,0,0,0-.249,3.75c.117,1.336.772,1.657,2.059,1.108a2.866,2.866,0,0,0,.475-.266c5.118-3.448,10.382-6.71,13.863-12.016a38.041,38.041,0,0,1,3.7-4.326,25.473,25.473,0,0,0,2.98-3.854c.486-.81.949-1.884.344-2.535-2.219-2.391.292-3.789.851-5.645a2.631,2.631,0,0,1,1.226,1.555c10.3,21.11-1.2,48.172-24.446,54.984Zm17.506-46.834c.694.644.7,1.184.024,1.79a1.031,1.031,0,0,0-.187.2,3.722,3.722,0,0,1-4.908,1.692c-.235-.084-.52-.228-.72.094,2.288,2.7,2.29,2.727-.341,5.492-.5.523-1.016,1.034-1.552,1.514-.877.783-1.781,1.535-2.672,2.3-1.131.975-1.829-1.314-3.041-.155.935,1.1.647,2-.829,2.668a21.445,21.445,0,0,0-2.783,1.9c-.228-4.183,2.1-6.876,3.741-9.975,1.412.459,1.777,1.774,3.139,1.854a3.263,3.263,0,0,0-1.321-2.273,1.322,1.322,0,0,1-.244-1.876l.016-.021c1.365-2.1,2.438-4.4,4.243-6.273,1.274.176,1.767,1.8,3.319,1.689.063-1.217-.977-1.654-1.6-2.312a1.043,1.043,0,0,1-.181-1.482,1.087,1.087,0,0,1,.124-.13,20.167,20.167,0,0,1,4.209-3.807c.263-.191.8-.389.977-.265,1.4.962,3.157,1.571,3.947,3.189.668,1.37-.252,2.372-1.194,3.369-1.256-.175-1.891-2.242-3.67-1.071.021.889.9,1.326,1.5,1.887Z" transform="translate(474.677 -400.452)" fill="#587c94"/>
      <path id="Path_1426" data-name="Path 1426" d="M-455.765,445.346c.589-.455.924-.115,1.354.307,2.1,2.063,2.634,2.212,4.8.571,1.219-.924,2.133-1.233,3.282-.1a1.452,1.452,0,0,0,2.021.171,1.386,1.386,0,0,0,.166-.16c1.093-1,2.111-2.083,3.283-3.253-2.18-1.145-2.83-2.624-1.524-4.628a1.683,1.683,0,0,0,.164-.511c.552-2.187.122-3.057-2.085-3.77-.628-.2-.923-.444-.981-1.051-.1-1.043-.214-2.082-.36-3.472,3.423,1.684,6.372.877,9.233-.827a5.785,5.785,0,0,1,3.058-1.067,6.81,6.81,0,0,0,3.968-1.6c3.048-2.051,4.049-5.273,4.827-8.483a9.614,9.614,0,0,0-5.06-10.439c-3.556-1.848-7.377-1.157-10.635,2.054-.646.638-1.169.514-1.919.468-4.249-.256-8.378,2.227-9.092,6.039-.836,4.468-.371,8.545,2.963,12.014-2.572.757-2.572.757-3.547-1.052-1.524-2.823-2.794-3.214-5.664-1.476-.833.5-1.152.287-1.818-.181a4.31,4.31,0,0,0-6.11.62,5.755,5.755,0,0,0-.645,7.629,5.072,5.072,0,0,1,1.137,3.658c-.2,2.116.344,2.8,2.5,3.542.737.252,1.059.527,1.131,1.228.037.354.169.7.221,1.055a4.249,4.249,0,0,0,2.325,3.136A2.471,2.471,0,0,0-455.765,445.346Zm6.807-25.857c0-2.683.358-5.208,2.681-7.036a5.226,5.226,0,0,1,3.539-1.266,16.853,16.853,0,0,1,1.879.337,1.465,1.465,0,0,0,1.7-.468c2.305-2.63,5.192-2.539,7.99-1.2a7.152,7.152,0,0,1,4.142,7.321c-.343,4.557-1.58,7.13-6.782,8.609a26.017,26.017,0,0,0-3.274,1.344,8.459,8.459,0,0,1-11.121-4.1,8.143,8.143,0,0,1-.752-3.538Zm-10.548,20.825c.294-1.255-.03-1.735-1.422-1.878-2.095-.218-2.641-1.044-2.059-3.072a1.676,1.676,0,0,0-.678-2.026c-2.419-2.222-2.295-4.553.245-6.55,1.23-.967,1.965-.927,3.083.168,1.64,1.606,1.64,1.606,3.251.323a2.606,2.606,0,0,1,3.642-.019,2.52,2.52,0,0,1,.685,1.176,28.817,28.817,0,0,1,.722,3.1c1.2-.862,1.915-2.287,3.385-1.766,1.563.552,1.573,2.079,1.625,3.413.062,1.466.274,2.564,2.17,2.732,1.027.091,1.284,1.156,1.106,2.134a4.21,4.21,0,0,1-.979,2.19c-.57.61-.5,1.112.172,1.54,1.052.67.508,1.282.028,2-.67,1.008-1.57,1.073-2.215.273a1.462,1.462,0,0,0-1.945-.64,1.445,1.445,0,0,0-.493.393,4.558,4.558,0,0,1-2.018.779c-1.066.225-2,.112-2.438-1.1-.382-1.055-.973-1.457-2.032-.641-.889.686-1.909,1.217-2.986.407a2.665,2.665,0,0,1-.849-2.927Z" transform="translate(474.795 -400.46)" fill="#587c94"/>
      <path id="Path_1427" data-name="Path 1427" d="M-420.805,455.69a10.008,10.008,0,0,0,1.476-1.589c1.924-2.6,3.607-5.314,3.922-8.888-2.063.389-2.955,1.837-3.86,3.045a8.243,8.243,0,0,1-7.663,3.25,27.925,27.925,0,0,1-9.934-2.8,15.482,15.482,0,0,0-12.988.01,37.52,37.52,0,0,0-5.821,3.515c-2.821,1.908-2.788,1.955-1.241,4.737-.432.846-2.032.245-2.038,1.4,0,1.2,1.117,1.766,2.055,2.317a6.68,6.68,0,0,0,1.514.618,4.2,4.2,0,0,1,2,1.309,13.576,13.576,0,0,0,12.191,4.744c1.625-.2,3.279-.3,4.885-.617,3.622-.713,7.173-1.618,9.2-5.12.432-.746.991-.719,1.575-.252a17.437,17.437,0,0,1,2.025,1.8c1.1,1.2,2.1,2.483,3.168,3.715.531.616,1.112,1.384,2.043.952.83-.384.5-1.279.393-1.927-.48-2.931-1-5.882-3.06-8.225C-421.7,456.845-421.545,456.336-420.805,455.69Zm-2.784,2.258a13.121,13.121,0,0,1,2.669,5.526c-1.407-2.259-4.412-2.888-5.486-5.479-.209-.5-.813-.363-1.15-.013-2.224,2.321-5.384,3.159-7.97,4.893a.463.463,0,0,0-.625.173.462.462,0,0,0-.055.163c-1.707-.427-3.164.525-4.609,1.037a10.187,10.187,0,0,1-10.042-1.472c-1.778-1.331-3.126-3.222-6.059-3.286,2.927-2.09,2.927-2.09.73-4.8a28.717,28.717,0,0,1,8.557-5.106c3.115-1.081,6.318-.447,9.4.524,2.343.74,4.673,1.535,6.968,2.406a12.96,12.96,0,0,0,8.579.121c.508-.155,1.028-.3,1.947-.566a6.388,6.388,0,0,1-2.484,2.96c-1.294.932-1.193,1.772-.363,2.92Z" transform="translate(474.927 -400.514)" fill="#587c94"/>
      <path id="Path_1510" data-name="Path 1510" d="M-455.9,437.083a2.522,2.522,0,0,1,2.718,1.529c-.907.8-2.262-.148-3.208,1.168,1.785.372,3.352-.047,4.907-.006,1.5.04,2.7,1.653,4.447,1.592a.945.945,0,0,0-.61-.969,4.01,4.01,0,0,1-2.759-4.124,2.777,2.777,0,0,0-.914-2.3c-.82,1.265.185,2.418-.241,3.546-2.284-1.529-2.191-1.548-2.718-4.042-.215-1.023.114-2.31-.969-3.184-.7,1.029.021,2.116-.668,3.176-1.524-.96-1.964-2.949-3.916-4.177.521,2.832,2.322,4.456,3.506,6.391-1.169.829-2.518-.455-3.791.571A9.07,9.07,0,0,0-455.9,437.083Z" transform="translate(474.909 -400.492)" fill="#587c94"/>
      <path id="Path_1511" data-name="Path 1511" d="M-431.948,423.789a5.776,5.776,0,0,0,3.268-6.146c.08-2.8-2.016-5.232-5.376-6.89-1.125-.555-1.957-.484-2.424.674-1.448,3.585-2.1,7.228-.286,10.893C-435.4,425.076-434.583,425.351-431.948,423.789Zm-4.3-6.064c-.107-.041-.163-.213-.243-.324a7.009,7.009,0,0,0,.778-.061c.808-.156,1.2-.5.49-1.232-.243-.25-.679-.389-.658-.786.042-.775-.274-1.7.451-2.258.648-.5,1.389-.1,2.041.211a4.966,4.966,0,0,1,3.027,4.7,5.748,5.748,0,0,1-3.263,5.2,1.044,1.044,0,0,1-1.26-.056c-.377-.306-.61-.71-.26-1.147,1.422-1.77-.369-1.469-1.4-1.889.45-.864,2.838-1.405.294-2.358Z" transform="translate(475.262 -400.466)" fill="#587c94"/>
      <path id="Path_1512" data-name="Path 1512" d="M-440.515,426.015c2.5,0,3.256-.911,2.581-3.316-.361-1.286-.985-2.5-1.422-3.767a20.141,20.141,0,0,0-2.918-5.128,1.147,1.147,0,0,0-1.813-.388c-2.7,1.761-4.051,4.717-3.275,7.352A7.542,7.542,0,0,0-440.515,426.015Zm-3.782-10.229c.442-.3.914-.75,1.454-.332s1.207.985.644,1.786c-.529.754-.169.872.44,1.358a2.756,2.756,0,0,1,.835,2.3c-.208.956-.116,1.277.828,1.483a1.275,1.275,0,0,1,.915,1.564,1.332,1.332,0,0,1-.043.127c-.167.69-.98.669-1.625.7-2.686-.082-5.656-3.111-5.559-5.714a4.127,4.127,0,0,1,2.111-3.266Z" transform="translate(475.108 -400.469)" fill="#587c94"/>
      <path id="Path_1513" data-name="Path 1513" d="M-448.243,451.985c-1.136,0-2.591,1.962-2.529,3.41.052,1.2.778,1.778,2.24,1.77,1.9-.01,3.127-.919,3.1-2.3A3.478,3.478,0,0,0-448.243,451.985Zm-.53,3.568c-.264-.01-.469-.226-.423-.744a1.181,1.181,0,0,1,.96-1.167c.452-.067.6.4.584.728-.031.668-.319,1.214-1.123,1.183Z" transform="translate(475.057 -400.524)" fill="#587c94"/>
    </g>
    <g id="Group_1360" data-name="Group 1360" transform="translate(804.684 500.019)">
      <ellipse id="Ellipse_23" data-name="Ellipse 23" cx="16.466" cy="16.185" rx="16.466" ry="16.185" transform="translate(0 0)" fill="#fc5959"/>
      <g id="Close" transform="translate(10.854 10.669)">
        <g id="Group_1159" data-name="Group 1159">
          <line id="Line_18" data-name="Line 18" x1="11.224" y2="11.033" fill="none" stroke="#363840" stroke-linecap="round" stroke-width="1.776"/>
          <line id="Line_19" data-name="Line 19" x1="11.224" y1="11.033" fill="none" stroke="#363840" stroke-linecap="round" stroke-width="1.776"/>
        </g>
      </g>
    </g>
  </g>
</svg>
