<svg id="Layer_1" data-name="Layer 1" xmlns="http://www.w3.org/2000/svg" viewBox="0 0 56.69 56.69"><defs><style>.cls-1,.cls-2{fill:#4d6b7f;}.cls-2{stroke:#4d6b7f;stroke-miterlimit:10;stroke-width:0.19px;}.cls-3{fill:#ea5a5c;}.cls-4{fill:none;stroke:#363840;stroke-linecap:round;stroke-width:0.96px;}</style></defs><title>Recepidia_Icons</title><path id="Path_1418" data-name="Path 1418" class="cls-1" d="M28.17,47.93A19.6,19.6,0,0,0,47.9,28.47v-.24a20,20,0,0,0-20.2-20A19.45,19.45,0,0,0,8,27.4v.48A20.12,20.12,0,0,0,28.17,47.93ZM27.79,8.69C36,8.48,47.26,15.46,47.33,28.33a19,19,0,0,1-19,19.05H28.2A19.58,19.58,0,0,1,8.57,27.87C8.56,17.24,17.1,9,27.79,8.69Z"/><path id="Path_1475" data-name="Path 1475" class="cls-1" d="M26.76,38.63a1,1,0,0,0,.94,1h0c1.31.21,1.84-.24,1.8-1.74-.1-3.68.79-7.22,1.47-10.78.35-1.85.52-1.88,2.39-1.86a6.51,6.51,0,0,0,5.26-2.16A10.81,10.81,0,0,0,41.36,16c0-.35.17-.77-.29-1-1.45.35-3,.63-4.39,1.07A7.9,7.9,0,0,0,31,23.5,2.66,2.66,0,0,1,30.53,25a26.42,26.42,0,0,0-1.93,3.39c-.16.31-.2.76-.73.82a4.36,4.36,0,0,1-.61-1.46,27.61,27.61,0,0,0-3.74-7,15.83,15.83,0,0,0-4.21-4A3,3,0,0,0,17,16a1.72,1.72,0,0,0,.59,1.12C22.63,23.44,26.28,30.36,26.76,38.63Zm8.11-20.36c.38-.29.67-.71,1.19-.79l.13.13-.13-.13a8.63,8.63,0,0,1,3.32-1.24c.61-.13,1,.12.87.79-.42,2.8-2.36,6.81-6.86,6.79a4.81,4.81,0,0,1-.65-.08c.5-1,.5-1,2.68-1.18-.21-.53-.8-.21-1-.51.51-.58.51-.58,2.21-.64,0-.41-.37-.22-.56-.29s-.33-.14-.29-.3.19-.32.3-.33c.74-.07,1.49-.1,2.23-.15,0-.58-.47-.35-.73-.64,1.17-.2,1.14-1.35,2-2.14-.79.1-1,.6-1.41.83-.64.39-.74,0-.75-.53-.52.2-.48.72-.69,1.14-.37-.46,0-1.05-.46-1.38-.2.74-.39,1.49-.59,2.24-.71-.26-.08-.74-.38-1-.24,0-.24,0-.84,1.38-.6-.85-.18-1.44.49-2Zm-1.17,1.4c-.21,1.1.11,2.43-1.54,2.81a3.71,3.71,0,0,1,1.54-2.82ZM28.65,30.79c-.09,2.25-.41,4.48-.42,6.74a7.54,7.54,0,0,1,.42-6.75ZM23.1,22.27c.86,1.56,1.82,3.08,2.55,4.7,1.64,3.64,1.7,4.08,1.21,5.45a46.1,46.1,0,0,0-7.37-14.13c1.15.46,2.53,2,3.61,4Z"/><path id="Path_1477" data-name="Path 1477" class="cls-1" d="M18.26,26.11Z"/><path id="Path_1482" data-name="Path 1482" class="cls-2" d="M20.73,38a7.28,7.28,0,0,0-2.55-1.16c-.83-.17-1.15,0-1.45.79a4,4,0,0,0,.46,3.7,2.29,2.29,0,0,0,3.12,1,1.16,1.16,0,0,1,1.37.17,2.38,2.38,0,0,0,4-1.38A5.11,5.11,0,0,0,24.18,36a1.23,1.23,0,0,0-2,0A6.89,6.89,0,0,0,20.73,38Zm-.47,3.9a2,2,0,0,1-2.56-.58A3.69,3.69,0,0,1,17,39c0-1.71.48-2.05,2.05-1.46a4.14,4.14,0,0,1,.61.26c1.13.6,1.12.48.9,1.66A3.17,3.17,0,0,0,20.64,41a.6.6,0,0,1-.24.81l-.14.06Zm2.22-5.56c.59-.54.8-.54,1.4,0a4.68,4.68,0,0,1,1.29,4.75,1.78,1.78,0,0,1-1.46,1.49,2.12,2.12,0,0,1-2.08-.75,2.6,2.6,0,0,1-.63-2,4.64,4.64,0,0,1,1.48-3.54Z"/><path id="Path_1506" data-name="Path 1506" class="cls-1" d="M18.3,26.06h-.05a.06.06,0,0,0,0,0l0,0a.1.1,0,0,0,0,0h0Z"/><path id="Path_1508" data-name="Path 1508" class="cls-1" d="M18.25,26l0,0h0Z"/><path id="Path_1578" data-name="Path 1578" class="cls-1" d="M20.4,31a.78.78,0,0,0,1,.05.66.66,0,0,0,.2-.9L21.46,30a2,2,0,0,0-.42-.39l0,0h0c0,.12.05.24.07.36s.07.39-.11.5a.27.27,0,0,1-.36-.1h0c-.13-.19,0-.35.12-.48l.28-.27v0c-.39-.39-.71-.19-.91.18A.82.82,0,0,0,20.39,31Z"/><path id="Path_1476" data-name="Path 1476" class="cls-1" d="M16.42,24.48v0l0,0S16.43,24.5,16.42,24.48Z"/><path id="Path_1478" data-name="Path 1478" class="cls-1" d="M20.45,33.44a1.15,1.15,0,0,0,1.24-.53,24.59,24.59,0,0,1,1.79-2.28c.83-1,.77-1.35-.29-2.07-.4-.28-.83-.5-1.22-.78a3,3,0,0,0-1.87-.61c-.91,0-.55-1.31-1.35-1.52,0,0-.08-.06-.12-.08a13.75,13.75,0,0,0-2.21-1.09l0,.05h0v0c.41.72,1.33.82,1.8,1.46a.73.73,0,0,1,.75.55c.18.9.78,1.08,1.58,1.16,1.11.12,1.85,1,2.72,1.58.3.2.23.5,0,.75a15.52,15.52,0,0,0-2,2.45.5.5,0,0,1-.66.22l-.08,0-5.41-2.79a1.06,1.06,0,0,1-.54-.62c-.46-1.23-.48-1.22-1.88-.94-.07,0-.17-.07-.25-.11-.14-.27,0-.45.2-.62.84-.87,1.71-1.72,2.52-2.61a1.39,1.39,0,0,1,1.21-.45l0,0c-1-.58-1-.57-1.74.14-1.2,1.19-2.33,2.45-3.63,3.55a3.7,3.7,0,0,0-.79,4.4,1.41,1.41,0,0,0,1.49.82A70.31,70.31,0,0,1,20.45,33.44Zm-6.81-4.76A.35.35,0,0,1,14,29s-.09.16-.13.16a.45.45,0,0,1-.41-.31s.09-.09.15-.14Zm2.55,4.11c-1.16,0-2.33,0-3.49,0A1.57,1.57,0,0,1,11,31.25a5.09,5.09,0,0,1-.06-.87c0-.47-.16-1.12.32-1.32s.78.36,1,.77a.43.43,0,0,0,.22.18c.49.11.59.76,1.18.83.09-.57-.59-.85-.52-1.38.11,0,.26,0,.27,0a3.92,3.92,0,0,0,2.83,2,3.37,3.37,0,0,1,1.88,1.15,4.54,4.54,0,0,1-1.9.16Z"/><path id="Path_1479" data-name="Path 1479" class="cls-1" d="M16.45,24.54v0l0,0v0Z"/><path id="Path_1481" data-name="Path 1481" class="cls-1" d="M16.46,24.55h0Z"/><path id="Path_1505" data-name="Path 1505" class="cls-1" d="M16.45,24.54h0l0,0Z"/><path id="Path_1507" data-name="Path 1507" class="cls-1" d="M16.47,24.53l0-.05,0,0Z"/><path id="Path_1577" data-name="Path 1577" class="cls-1" d="M17.31,30a.84.84,0,0,0,.93-.72.76.76,0,0,0,0-.15A1.21,1.21,0,0,0,17,28c-.53,0-.84.18-.83.75A1.2,1.2,0,0,0,17.29,30ZM17,28.48c.33-.05.4.18.43.43s0,.41-.27.44-.41-.2-.45-.45a.34.34,0,0,1,.26-.41Z"/><path id="Path_1579" data-name="Path 1579" class="cls-1" d="M14.76,26.72a.73.73,0,0,0,.79.65h0c.42-.1.69-.33.64-.8a.75.75,0,0,0-.74-.73l-.15,0-.07,0-.44.35A.9.9,0,0,0,14.76,26.72Zm.78-.38a.23.23,0,0,1,.25.19v0a.22.22,0,0,1-.19.26h-.06a.24.24,0,0,1,0-.47h0Z"/><path id="Path_1580" data-name="Path 1580" class="cls-1" d="M14.81,26.23l.44-.35A.61.61,0,0,0,14.81,26.23Z"/><path id="Path_1582" data-name="Path 1582" class="cls-1" d="M16.91,26.64a.79.79,0,0,0,.88.7h0a.6.6,0,0,0,.53-.33c-.11-.14-.21-.29-.31-.44l-.25-.21a.4.4,0,0,1,.1.22.43.43,0,0,1-.09.23.58.58,0,0,1-.34-.13c-.07-.12,0-.26.3-.34h0l-.07-.06L17.33,26a.48.48,0,0,0-.44.53A.43.43,0,0,0,16.91,26.64Z"/><path id="Path_1583" data-name="Path 1583" class="cls-1" d="M18.2,26.13l.05,0s0,0,0,0,0,0,0,0h0C18.17,26.12,18.17,26.15,18.2,26.13Z"/><path id="Path_1584" data-name="Path 1584" class="cls-1" d="M17.79,26.35h0l.24.21c.1.15.2.3.31.44a.8.8,0,0,0-.05-.59,1.12,1.12,0,0,1,0-.31h0l-.05,0s0,0,0-.08a3.86,3.86,0,0,0-.49-.06,1.8,1.8,0,0,0-.4,0l.39.29Z"/><path id="Path_1585" data-name="Path 1585" class="cls-1" d="M18.25,26.11h0v0S18.24,26.11,18.25,26.11Z"/><path id="Path_1586" data-name="Path 1586" class="cls-1" d="M18.3,26.06l-.05,0v0Z"/><path id="Path_1597" data-name="Path 1597" class="cls-1" d="M21,29.64v0h0Z"/><path id="Path_1598" data-name="Path 1598" class="cls-1" d="M21.07,29.68l0,0,0,0h0v0Z"/><path id="Path_1599" data-name="Path 1599" class="cls-1" d="M17.79,26.35h0Z"/><circle class="cls-3" cx="42.39" cy="40.63" r="8.73"/><g id="Close"><g id="Group_1159" data-name="Group 1159"><line id="Line_18" data-name="Line 18" class="cls-4" x1="45.36" y1="37.66" x2="39.41" y2="43.6"/><line id="Line_19" data-name="Line 19" class="cls-4" x1="45.36" y1="43.6" x2="39.41" y2="37.66"/></g></g></svg>