<svg xmlns="http://www.w3.org/2000/svg" width="84.01" height="75.665" viewBox="0 0 84.01 75.665">
  <g id="Group_1956" data-name="Group 1956" transform="translate(-171.684 -635.059)">
    <g id="Group_1234" data-name="Group 1234" transform="translate(171.685 635.059)">
      <path id="Path_1610" data-name="Path 1610" d="M-309.5,163.655c-5.764,2.1-9.912,5.951-11.09,11.972a20.9,20.9,0,0,1-3.224,7.817c-1.043,1.569-1.791,3.328-2.681,5-.322.606-.381,1.382-1.168,1.765-.86-.791-.914-1.934-1.274-2.917a51.329,51.329,0,0,0-9.707-16.756,25.153,25.153,0,0,0-7.847-6.21c-.94-.45-1.9-1.169-3.214-.523a5.083,5.083,0,0,0,1.68,2.614,62.357,62.357,0,0,1,6.111,8.28c6.315,10.434,11.47,21.282,11.872,33.722.061,1.852,1.14,1.99,3.409,2.034,1.334.026,2.049-.812,1.861-2.4-.54-4.584.116-9.143.1-13.712a25.88,25.88,0,0,1,1.791-8.64,5.835,5.835,0,0,1,6.032-4.331c8.229-.207,12.751-5.887,14.882-11.925.971-2.75.7-5.577.238-8.61A72.7,72.7,0,0,1-309.5,163.655Zm-20.079,33.174c-1.744-4.594-3.033-8.961-5.305-12.93-2.253-3.935-4.436-7.91-6.753-12.051a2.228,2.228,0,0,1,1.7,1.126,53.125,53.125,0,0,1,10.86,19.98,4.293,4.293,0,0,1-.5,3.874Zm2.882,11.227c.028.449-.025.958-.646.937-.414-.015-.5-.422-.568-.779a24.37,24.37,0,0,1,.858-12.129c.038-.115.289-.165.7-.38a57.124,57.124,0,0,0-.341,12.35Zm8.508-29.321c1.756-1.055,4.007-.7,6-2.151-1.66.023-2.917.77-4.459.489.406-1.419,1.533-1.843,2.689-2.214a11.486,11.486,0,0,0,3.209-1.269c-.584-.577-1.079.093-1.771-.182,2.019-2.46,4.614-2.927,7.5-2.767-.8,4.707-6.749,9.149-13.168,8.093Zm15.073-12.828a17.185,17.185,0,0,1-.661,2.878c-.321,1.049-1.1,1.336-2.451.949.711-1.424,1.82-2.464,1.949-4.132-1.4.117-1.764,1.3-2.58,1.865-.53.367-.964,1.929-1.92.371-.657.5-1.727.221-2.118,1.3-.3.853-.526,1.947-1.8,2.06-.681-.718.406-1.325.085-2-.143-.171-.233-.111-.383.1-.872,1.213-.969,2.858-2.1,3.985-1.024-.666.1-1.4-.327-1.986-.169-.084-.3-.019-.384.2-.277.752-.576,1.5-.825,2.259-.548,1.675-.537,1.679-2.708,2.85a9.252,9.252,0,0,1,2.3-5.408,19.458,19.458,0,0,1,11.913-7.027c1.81-.318,2.227.014,2.013,1.734Z" transform="translate(362.887 -146.473)" fill="#587c94"/>
      <path id="Path_1418-2" data-name="Path 1418-2" d="M-324.744,219.912c20.357.136,36.971-15.975,37.11-35.983,0-.146,0-.292,0-.436-.116-19.116-15.035-36.748-38.01-37.036-20.2-.253-36.776,15.637-37.034,35.49q-.006.451,0,.9C-362.6,203.374-345.625,219.959-324.744,219.912Zm-.718-72.56c15.524-.381,36.618,12.517,36.759,36.321.049,19.413-15.923,35.189-35.672,35.235h-.316c-20.328.048-36.853-16.1-36.925-36.08-.029-19.667,16.039-34.982,36.153-35.476Z" transform="translate(362.681 -146.453)" fill="#587c94"/>
    </g>
    <path id="Path_1418-2-2" data-name="Path 1418-2" d="M-324.3,220.259c20.418.137,37.081-16.021,37.221-36.091v-.437c-.117-19.174-15.081-36.859-38.125-37.148-20.257-.253-36.887,15.685-37.144,35.6q-.006.452,0,.906C-362.267,203.672-345.24,220.306-324.3,220.259Zm-.72-72.778c15.571-.383,36.728,12.554,36.87,36.43.048,19.472-15.971,35.294-35.78,35.342h-.317c-20.389.049-36.964-16.147-37.035-36.189-.03-19.725,16.087-35.087,36.261-35.582Z" transform="translate(534.371 488.606)" fill="#587c94"/>
    <g id="Group_1384" data-name="Group 1384" transform="translate(223.148 678.732)">
      <ellipse id="Ellipse_24" data-name="Ellipse 24" cx="16.273" cy="15.996" rx="16.273" ry="15.996" transform="translate(0 0)" fill="#b6dc85"/>
      <path id="Path_1310" data-name="Path 1310" d="M-410.835,341.207a.752.752,0,0,1-.529-.216l-5.99-5.888a.726.726,0,0,1,0-1.041.757.757,0,0,1,1.059,0h0l5.46,5.367,11.949-11.746a.757.757,0,0,1,1.059,0,.727.727,0,0,1,0,1.04l-12.478,12.266A.755.755,0,0,1-410.835,341.207Z" transform="translate(424.557 -318.342)" fill="#363840" stroke="#363840" stroke-miterlimit="10" stroke-width="0.175"/>
    </g>
  </g>
</svg>
