<svg xmlns="http://www.w3.org/2000/svg" width="83" height="79" viewBox="0 0 83 79">
  <g data-name="Group 1951">
    <g data-name="Group 1237" fill="#587c94">
      <path data-name="Path 1409" d="M21 5A42 42 0 0 0 2 53c7 24 34 33 55 19 12-8 18-20 18-35a43 43 0 0 0 0-7C70 4 42-7 21 5zm24 71c-17 5-34-4-41-21C-4 34 8 9 30 3a33 33 0 0 1 36 12l2 2-1 3c0-4-3-4-4-7l1 4-4-3h-1l4 5c-3 0-5 2-7 4a37 37 0 0 0-11 20 13 13 0 0 0-1 4l2 1a3 3 0 0 0 1-1c5-3 10-6 14-12a38 38 0 0 1 4-4 25 25 0 0 0 2-4l1-2c-2-3 0-4 1-6a3 3 0 0 1 1 2c10 21-1 48-25 55zm18-47v2a4 4 0 0 1-5 1l-1 1c2 2 2 2 0 5l-2 2-2 2h-3c1 1 0 2-1 2a21 21 0 0 0-3 2c0-4 2-7 4-10 1 1 1 2 3 2a3 3 0 0 0-1-2 1 1 0 0 1-1-2l5-6c1 0 1 2 3 1l-2-2a1 1 0 0 1 0-1 1 1 0 0 1 0-1 20 20 0 0 1 4-3l1-1c2 1 4 2 4 4 1 1 0 2-1 3-1 0-2-2-4-1l2 2z"/>
      <path data-name="Path 1426" d="M19 45h1c2 2 3 2 5 1h3a1 1 0 0 0 2 0 1 1 0 0 0 1 0l3-4c-2-1-3-2-2-4a2 2 0 0 0 1-1c0-2 0-3-3-3v-2l-1-3c4 2 7 1 9-1a6 6 0 0 1 3-1 7 7 0 0 0 4-2c3-2 4-5 5-8a10 10 0 0 0-5-10c-3-2-7-2-10 2h-2c-5 0-9 2-9 6-1 5-1 9 2 12-2 1-2 1-3-1-2-3-3-3-6-1l-2-1a4 4 0 0 0-6 1 6 6 0 0 0 0 8 5 5 0 0 1 1 3c0 2 0 3 2 4l1 1 1 1a4 4 0 0 0 2 3 2 2 0 0 0 3 0zm7-26c0-3 0-5 3-7a5 5 0 0 1 3-1 17 17 0 0 1 2 0 1 1 0 0 0 2 0c2-3 5-3 8-2a7 7 0 0 1 4 8c-1 4-2 7-7 8a26 26 0 0 0-3 2 8 8 0 0 1-11-4 8 8 0 0 1-1-4zM15 40c1-1 0-2-1-2-2 0-3-1-2-3a2 2 0 0 0-1-2c-2-2-2-5 0-7h3c2 2 2 2 4 1a3 3 0 0 1 3 0 3 3 0 0 1 1 1 29 29 0 0 1 1 3l3-2c2 1 2 2 2 4 0 1 0 2 2 2l1 3a4 4 0 0 1-1 2v3l-2 1a1 1 0 0 0-2-1 5 5 0 0 1-2 1l-3-1-2-1c-1 1-2 2-3 1a3 3 0 0 1-1-3z"/>
      <path data-name="Path 1427" d="M54 55a10 10 0 0 0 2-1l4-9c-3 0-3 2-4 3a8 8 0 0 1-8 3 28 28 0 0 1-10-3 15 15 0 0 0-13 0 38 38 0 0 0-6 4c-3 2-3 2-1 4l-2 2 2 2a7 7 0 0 0 2 1 4 4 0 0 1 2 1 14 14 0 0 0 12 5l5-1c3 0 7-1 9-5h1a17 17 0 0 1 2 2l4 3c0 1 1 2 2 1v-2c0-3-1-5-3-8v-2zm-3 2a13 13 0 0 1 3 6c-1-2-4-3-5-6h-2c-2 3-5 4-8 5v1c-2-1-3 0-5 1a10 10 0 0 1-10-2c-2-1-3-3-6-3 3-2 3-2 1-5a29 29 0 0 1 8-5c3-1 7 0 10 1l7 2a13 13 0 0 0 8 0h2a6 6 0 0 1-2 3c-2 0-1 1-1 2z"/>
      <path data-name="Path 1510" d="M19 37a3 3 0 0 1 3 1l-3 1h4l5 2a1 1 0 0 0-1-1 4 4 0 0 1-2-4 3 3 0 0 0-1-3l-1 4-2-4-1-3-1 3-4-4 4 6-4 1a9 9 0 0 0 4 1z"/>
      <path data-name="Path 1511" d="M43 23a6 6 0 0 0 4-6c0-3-2-5-6-7l-2 1c-2 4-2 7-1 11 2 3 3 3 5 1zm-4-6a7 7 0 0 0 1 0v-1l-1-1 1-2h2a5 5 0 0 1 3 5 6 6 0 0 1-3 5 1 1 0 0 1-2 0v-1c2-2 0-2-1-2 0-1 3-2 0-3z"/>
      <path data-name="Path 1512" d="M35 26c2 0 3-1 2-4l-1-4a20 20 0 0 0-3-5 1 1 0 0 0-2 0c-3 2-4 5-3 7a8 8 0 0 0 7 6zm-4-11h1l1 2v1a3 3 0 0 1 1 2l1 2a1 1 0 0 1 1 1 1 1 0 0 1 0 1h-2c-2 0-5-3-5-5a4 4 0 0 1 2-4z"/>
      <path data-name="Path 1513" d="M27 51c-1 0-3 2-3 4 0 1 1 2 3 2 1 0 3-1 3-3a3 3 0 0 0-3-3zm-1 4v-1a1 1 0 0 1 1-1v1l-1 1z"/>
    </g>
    <g data-name="Group 1375">
      <ellipse data-name="Ellipse 23" cx="16" cy="16" rx="16" ry="16" transform="translate(50 45)" fill="#b6dc85"/>
    </g>
    <g data-name="Group 1946" transform="translate(51 46)">
      <ellipse data-name="Ellipse 27" cx="16" cy="16" rx="16" ry="16" fill="#b6dc85"/>
      <path data-name="Path 1310" d="M14 23a1 1 0 0 1-1 0l-6-6a1 1 0 0 1 0-1 1 1 0 0 1 1 0l6 5L26 9a1 1 0 0 1 1 0 1 1 0 0 1 0 1L14 23z" fill="#363840"/>
    </g>
  </g>
</svg>
