<svg id="Layer_1" data-name="Layer 1" xmlns="http://www.w3.org/2000/svg" viewBox="0 0 56.69 56.69"><defs><style>.cls-1{fill:#4d6b7f;}.cls-2{fill:#ea5a5c;}.cls-3{fill:none;stroke:#363840;stroke-linecap:round;stroke-width:0.96px;}</style></defs><title>Recepidia_Icons</title><g id="Group_1242" data-name="Group 1242"><g id="Group_1235" data-name="Group 1235"><path id="Path_1412" data-name="Path 1412" class="cls-1" d="M27.37,8.19a20,20,0,0,0-19.85,20A20.41,20.41,0,0,0,28.08,48.44,19.9,19.9,0,0,0,48.23,28.56,20.3,20.3,0,0,0,27.37,8.19ZM28,47.81A19.75,19.75,0,0,1,8.18,28.13v-.05A19.29,19.29,0,0,1,28.43,8.84,19.58,19.58,0,0,1,47.54,28.47,19.34,19.34,0,0,1,28.2,47.81Z"/><path id="Path_1420" data-name="Path 1420" class="cls-1" d="M17.46,33h0Z"/><path id="Path_1430" data-name="Path 1430" class="cls-1" d="M25.21,22.65c.06.93.08,2,1.3,2.34.15,0,.22.31.34.46,2,2.44,4.81,3.5,7.78,4.2a1.5,1.5,0,0,0,1.46-.44c2.69-2.59,3.25-7.15,2.26-9.42-.21-.5-.26-.78.36-1s.56-.68.27-1.15A6.35,6.35,0,0,0,37.6,16a7,7,0,0,0-6.68-1.43c-1,.27-1.12.22-1.45-.76-.14-.39,0-.88-.56-1.33a2.22,2.22,0,0,0-.3,2,.89.89,0,0,1-.44,1.17h0C25.61,17.32,25,19.85,25.21,22.65ZM37.8,17.43c.11,0,.21.15.29.21s-.08.22-.17.18a.55.55,0,0,1-.21-.19c-.07-.1,0-.22.09-.2Zm-1-.82-2.15-1.24C36.1,15.67,36.1,15.67,36.79,16.61Zm-.31.74-.29-.28c.08,0,.18-.1.24-.07a1.61,1.61,0,0,1,.28.24c-.05.16-.13.19-.23.11Zm.15.88a3.41,3.41,0,0,1-3-1.35A9.91,9.91,0,0,1,36.63,18.23ZM34.4,16.46a2.06,2.06,0,0,1-1.48-1C33.74,15.33,34.19,15.57,34.4,16.46Zm-2-.6c.29.61.15,1.06.39,1.41h0s0,0,0,0v0c0,.32,0,.64.06,1.28a1.3,1.3,0,0,1-.06-1.28v0s0,0,0,0c-.7-.21-.37-.72-.39-1.41Zm-1.22-.62c.35,0,.31.26.34.49.18,1.52.36,3,.55,4.56l-.32,0a17.54,17.54,0,0,1-1-4.46c0-.33,0-.6.41-.62Zm-1.26.29c.85.66.58,1.48.76,2.14s.34,1.38.51,2.07a5.24,5.24,0,0,1-1.27-4.21Zm-.78.26A10.72,10.72,0,0,1,29.9,19a4.06,4.06,0,0,1-.78-3.19Zm.1,4.22c.88.58,1.66,1.15,2.49,1.62s1.21.37,1.53-.67a20.52,20.52,0,0,1,.61-2.7,12.37,12.37,0,0,0,2.39.7.77.77,0,0,1,.7.62c.89,3,.66,5.73-1.44,8.18a1.55,1.55,0,0,1-1.65.6A14.93,14.93,0,0,1,28.3,26a3.81,3.81,0,0,1-1-1.07.68.68,0,0,1,0-.92,9.16,9.16,0,0,0,1.86-4Zm-1-2.59c-.26,1.11-.56,2.21-.84,3.32l0,0v0c.44-.26.3-.92.86-1.21a6.07,6.07,0,0,1-1.42,3.36.94.94,0,0,1-.85.75,40.9,40.9,0,0,1,1.93-7c.48.21.34.53.28.77Z"/><path id="Path_1431" data-name="Path 1431" class="cls-1" d="M39.61,37.84a2.69,2.69,0,0,1-1.15-1.6,6.58,6.58,0,0,0-3.07-3.7,11.2,11.2,0,0,0-5.77-1.21,6.46,6.46,0,0,0-5.26,2.92,2.48,2.48,0,0,0-.54,2.31,3.29,3.29,0,0,1-.23,2.87,3.57,3.57,0,0,0,2.12,5c1.58.7,3.3.69,4.81,1a4.4,4.4,0,0,0,2.8-1,2.22,2.22,0,0,1,1.74-.57,2.63,2.63,0,0,0,2.66-1.63,5.56,5.56,0,0,0,.5-1.36,4.48,4.48,0,0,1,1.29-2.2C39.91,38.24,40,38.05,39.61,37.84ZM24.74,36.22a5.13,5.13,0,0,1,6-3.75c.27.07.27.15-.07.76.8.11,1.61-.13,2.39.34-.05-.49-.33-.56-.45-.76,1.17-.57,4.27,2.25,5.21,4.89-1.15,0-2.25,0-3.34,0a62,62,0,0,0-8.29.07c-1.18.1-1.64-.42-1.45-1.54Zm12.45,3.93a.82.82,0,0,0-.35,1,1.13,1.13,0,0,1-.5,1.49,1.62,1.62,0,0,1-1.91-.05c-.15-.11-.3-.24-.46-.35s-.34-.21-.52,0-.1.35,0,.51c.37.49.06.69-.35.83a8.35,8.35,0,0,1-1,.3,9.55,9.55,0,0,1-5.26-.5,4,4,0,0,1-2.52-2.63c-.45-1.4.06-2.14,1.51-2.16a10.47,10.47,0,0,1,3.14.55A5.6,5.6,0,0,0,32.7,39a15.38,15.38,0,0,1,5.78-.64c-.58.77-.53,1.51-1.29,1.82Z"/><path id="Path_1432" data-name="Path 1432" class="cls-1" d="M20,18.69a4.57,4.57,0,0,0-5.26,3.68c-.16,1.14-.08,2.28-.17,3.51a1,1,0,0,0,.75-1c0-.49,0-1,0-1.46,0-2.13.93-3.44,3-3.94s2.53-.36,3.25,1.7a5.75,5.75,0,0,1,.27,1.42,5.07,5.07,0,0,1-1.52,4,3.84,3.84,0,0,0-.95,3.35,4.44,4.44,0,0,1-4.9,4.78,1.93,1.93,0,0,1-1.15-.56,4.72,4.72,0,0,1-1.47-2.62c-.06-.36.06-.79-.4-1a1.2,1.2,0,0,0-.22,1.45,11.47,11.47,0,0,0,.69,1.76,4.45,4.45,0,0,0,4.55,2.45,4.77,4.77,0,0,0,3.61-4.23,20.13,20.13,0,0,0,0-2.33,2.66,2.66,0,0,1,.8-2.23,11.79,11.79,0,0,0,1.93-2.72C24.33,21.84,23.07,19.18,20,18.69Z"/><path id="Path_1433" data-name="Path 1433" class="cls-1" d="M26.79,14.28c.42.06.93.17,1.12-.37a.91.91,0,0,0-.48-1.1,4.46,4.46,0,0,0-3.76-1A4,4,0,0,0,26.79,14.28Zm.58-.51c-1.46-.1-1.46-.1-2.4-1,1.1-.15,1.37-.05,2.4,1Z"/><path id="Path_1434" data-name="Path 1434" class="cls-1" d="M15,31.84c-.36.25-.81.21-1.3.42.56.44.39,1.34,1.22,1.56l.41-.22h0c.43-.75-.47-.45-.62-.81a3.1,3.1,0,0,0,1.65-2.95c-.34-.08-.51,0-.42.42C16.08,31.07,15.54,31.45,15,31.84Z"/><path id="Path_1435" data-name="Path 1435" class="cls-1" d="M16.33,29.81v0h0Z"/><path id="Path_1436" data-name="Path 1436" class="cls-1" d="M17.44,33h0l0,.05h0a1.51,1.51,0,0,0,1-1,1.59,1.59,0,0,0-.74-2.1l-.1,0a2.1,2.1,0,0,1-.36,2c-.67.52-.67.52.12.94h0Z"/><path id="Path_1438" data-name="Path 1438" class="cls-1" d="M17.64,29.91h0l.12-.05Z"/><path id="Path_1440" data-name="Path 1440" class="cls-1" d="M18.2,28.06c.4.23,0,.77.41,1,.76-1.05.06-1.83-.42-2.64-.55.51-.16,1.28-.53,1.86a1.86,1.86,0,0,0,0,1.66h0A3.58,3.58,0,0,1,18.2,28.06Z"/><path id="Path_1442" data-name="Path 1442" class="cls-1" d="M20.93,24.82c0-.67,0-1.15,0-1.63,0-.19,0-.4-.26-.46a.41.41,0,0,0-.49.21L19.53,24C20.31,23.58,20.32,24.49,20.93,24.82Z"/><path id="Path_1443" data-name="Path 1443" class="cls-1" d="M14.18,26.38a5.86,5.86,0,0,0-1.75,2.29C13.81,27.94,14.13,27.51,14.18,26.38Z"/><path id="Path_1444" data-name="Path 1444" class="cls-1" d="M19.74,20.66,20,22.11C20.62,21.48,20.22,21.05,19.74,20.66Z"/><path id="Path_1445" data-name="Path 1445" class="cls-1" d="M14.08,28.79c.21.52,0,1.15.77,1.74-.15-.74-.27-1.27-.39-1.81Z"/><path id="Path_1446" data-name="Path 1446" class="cls-1" d="M17.29,22.52c.21-.38.68-.62.73-1.27C17.34,21.82,17.34,21.82,17.29,22.52Z"/><path id="Path_1447" data-name="Path 1447" class="cls-1" d="M18.79,22.11a3.24,3.24,0,0,0-.44,1.58C18.66,23.09,19,22.78,18.79,22.11Z"/><path id="Path_1448" data-name="Path 1448" class="cls-1" d="M14.89,33.82c.63.47,1.14.17,1.63-.25l-1.22,0h0C15.24,33.83,15.12,33.93,14.89,33.82Z"/><path id="Path_1449" data-name="Path 1449" class="cls-1" d="M16.56,33.54l0,0h.06Z"/><path id="Path_1450" data-name="Path 1450" class="cls-1" d="M14.89,33.82c.23.11.36,0,.41-.22h0Z"/><path id="Path_1451" data-name="Path 1451" class="cls-1" d="M13.42,30.49c-.1.64.06,1,.88,1.24A3.13,3.13,0,0,0,13.42,30.49Z"/><path id="Path_1452" data-name="Path 1452" class="cls-1" d="M15.91,22.9c-.27.35,0,.62.13.9s.23.13.44,0C16.24,23.52,16.37,23.06,15.91,22.9Z"/><path id="Path_1453" data-name="Path 1453" class="cls-1" d="M12.68,30.62c-.27.51-.49.89,0,1.39C12.76,31.5,13,31.1,12.68,30.62Z"/><path id="Path_1454" data-name="Path 1454" class="cls-1" d="M16.11,27c.29-.18.78-.18.69-.74C16.11,26,16.15,26.53,16.11,27Z"/><path id="Path_1455" data-name="Path 1455" class="cls-1" d="M16.8,26.22v0l0,0Z"/><path id="Path_1456" data-name="Path 1456" class="cls-1" d="M18.17,24.59a.25.25,0,0,0,.14.32c.2,0,.22-.13.22-.26s0-.22-.08-.25S18.21,24.45,18.17,24.59Z"/><path id="Path_1457" data-name="Path 1457" class="cls-1" d="M16.37,29.85s0,0,0-.06l0,0h0Z"/><path id="Path_1458" data-name="Path 1458" class="cls-1" d="M16.64,28.79a.93.93,0,0,0-.29,1C16.67,29.55,16.91,29.29,16.64,28.79Z"/><path id="Path_1459" data-name="Path 1459" class="cls-1" d="M16.33,29.81h0l0,0Z"/><path id="Path_1460" data-name="Path 1460" class="cls-1" d="M17.26,25.4a1.69,1.69,0,0,0-.41.81C17.23,26.08,17.44,25.85,17.26,25.4Z"/><path id="Path_1461" data-name="Path 1461" class="cls-1" d="M16.8,26.22l0,0a.43.43,0,0,1,0-.05Z"/><path id="Path_1462" data-name="Path 1462" class="cls-1" d="M17.18,20.81c0-.08-.06-.23-.09-.23a.45.45,0,0,0-.44.28c0,.05.05.22.1.23A.37.37,0,0,0,17.18,20.81Z"/><path id="Path_1463" data-name="Path 1463" class="cls-1" d="M16.56,33.54l0,0,0,0Z"/><path id="Path_1464" data-name="Path 1464" class="cls-1" d="M17.5,33h0l0,0,0,0,0,0c-.33.14-.67.26-.8.63A.89.89,0,0,0,17.5,33Z"/><path id="Path_1465" data-name="Path 1465" class="cls-1" d="M17.49,33l0-.05Z"/><path id="Path_1466" data-name="Path 1466" class="cls-1" d="M17.4,32.91h0l0,.05Z"/><path id="Path_1497" data-name="Path 1497" class="cls-1" d="M32.81,17.28l0,0,0,0Z"/><path id="Path_1498" data-name="Path 1498" class="cls-1" d="M32.8,17.28h0v0Z"/><path id="Path_1514" data-name="Path 1514" class="cls-1" d="M35,26.65c.38.12.6-.19.79-.47a3.07,3.07,0,0,0,.6-1.77c0-.24.1-.59-.22-.74a.77.77,0,0,0-.82.13,2.34,2.34,0,0,0-1,2A.89.89,0,0,0,35,26.65Zm1-2.56c-.09.83-.17,1.52-.93,2-.24-1.22-.22-1.26.93-2Z"/><path id="Path_1515" data-name="Path 1515" class="cls-1" d="M27.33,20.76l.06-.07-.05,0v0Z"/><path id="Path_1516" data-name="Path 1516" class="cls-1" d="M27.33,20.76v0l0,0Z"/><path id="Path_1517" data-name="Path 1517" class="cls-1" d="M27.38,20.73v0s0,0,0,0Z"/><path id="Path_1518" data-name="Path 1518" class="cls-1" d="M27.34,20.78v0h0v0a2.16,2.16,0,0,0-.57,1.55C27,21.8,27.1,21.26,27.34,20.78Z"/><path id="Path_1519" data-name="Path 1519" class="cls-1" d="M27.33,20.76l0,0,0,0-.06.06Z"/><path id="Path_1520" data-name="Path 1520" class="cls-1" d="M27.34,20.78l0,.14a1.21,1.21,0,0,0,0-.19h0S27.35,20.77,27.34,20.78Z"/><path id="Path_1521" data-name="Path 1521" class="cls-1" d="M27.34,20.78c-.24.48-.35,1-.57,1.51a2.67,2.67,0,0,0,.61-1.37C27.37,20.87,27.35,20.83,27.34,20.78Z"/><path id="Path_1523" data-name="Path 1523" class="cls-1" d="M27.4,40.49c-.2-.77-1-.65-1.42-1.05a.29.29,0,0,0-.42.05.27.27,0,0,0-.06.23c.06.29-.13.54,0,.81.94-.38.94-.38,1.62.36.42.47.84.92,1.62.71C28.38,41,27.56,41.07,27.4,40.49Z"/><path id="Path_1524" data-name="Path 1524" class="cls-1" d="M30.67,41.93c1.51.43,2.09-.07,2-1.79C32.19,41.07,31.28,41.2,30.67,41.93Z"/><path id="Path_1525" data-name="Path 1525" class="cls-1" d="M34.35,41.58c1.5,0,1.94-.41,1.62-1.94C35.55,40.86,35.55,40.86,34.35,41.58Z"/><path id="Path_1526" data-name="Path 1526" class="cls-1" d="M29.48,43.29c1,.17,1,.17,1.67-.28C30.54,42.86,30.05,43.23,29.48,43.29Z"/><path id="Path_1527" data-name="Path 1527" class="cls-1" d="M28.34,39.88a1.31,1.31,0,0,0,1.76.5A6.49,6.49,0,0,1,28.34,39.88Z"/><path id="Path_1528" data-name="Path 1528" class="cls-1" d="M34.65,39.77a.22.22,0,0,0-.25.18h0a1,1,0,0,0,.33-.05C34.81,39.87,34.77,39.78,34.65,39.77Z"/><path id="Path_1529" data-name="Path 1529" class="cls-1" d="M34.39,40a.08.08,0,0,1,0,0h0v0Z"/><path id="Path_1530" data-name="Path 1530" class="cls-1" d="M33.86,40.06s.07.15.11.15.37,0,.39-.23A.59.59,0,0,0,33.86,40.06Z"/><path id="Path_1531" data-name="Path 1531" class="cls-1" d="M34.37,40h0v0h0Z"/><path id="Path_1532" data-name="Path 1532" class="cls-1" d="M34.37,40h0Z"/><path id="Path_1533" data-name="Path 1533" class="cls-1" d="M27.14,42.4v.08h.24V42.4Z"/><path id="Path_1534" data-name="Path 1534" class="cls-1" d="M29.11,35.35c1.05.21,1.89,1.14,3.39.95C31.18,35.91,30.3,35.16,29.11,35.35Z"/><path id="Path_1535" data-name="Path 1535" class="cls-1" d="M33.84,34.92a7.47,7.47,0,0,1,2.39.83A2.26,2.26,0,0,0,33.84,34.92Z"/><path id="Path_1536" data-name="Path 1536" class="cls-1" d="M26.12,35.19l1.75-1.42A2,2,0,0,0,26.12,35.19Z"/><path id="Path_1537" data-name="Path 1537" class="cls-1" d="M26,36.43a2.72,2.72,0,0,0,1.81.48C26.78,36.4,26.78,36.4,26,36.43Z"/><path id="Path_1538" data-name="Path 1538" class="cls-1" d="M28.93,34l1.86.42A1.87,1.87,0,0,0,28.93,34Z"/><path id="Path_1539" data-name="Path 1539" class="cls-1" d="M29.56,36.9a.85.85,0,0,0,.24.09.5.5,0,0,0,.21-.1.73.73,0,0,0-.25-.08C29.69,36.81,29.63,36.87,29.56,36.9Z"/><path id="Path_1540" data-name="Path 1540" class="cls-1" d="M35.13,36.33c-.08.16-.19.32.07.43,0,0,.13,0,.14,0C35.44,36.56,35.15,36.51,35.13,36.33Z"/><path id="Path_1541" data-name="Path 1541" class="cls-1" d="M35.13,36.31v0Z"/><path id="Path_1542" data-name="Path 1542" class="cls-1" d="M34.66,36.41l.38-.09h-.42A.42.42,0,0,0,34.66,36.41Z"/><path id="Path_1543" data-name="Path 1543" class="cls-1" d="M35.12,36.32l0,0-.1,0Z"/><path id="Path_1544" data-name="Path 1544" class="cls-1" d="M28.78,33.17s0-.07,0-.09h-.14a.28.28,0,0,0,0,.09Z"/></g></g><path id="Path_1418-2" data-name="Path 1418-2" class="cls-1" d="M27.81,48A19.6,19.6,0,0,0,47.54,28.58v-.23a20,20,0,0,0-20.21-20A19.43,19.43,0,0,0,7.65,27.51a4,4,0,0,0,0,.49A20.11,20.11,0,0,0,27.81,48ZM27.43,8.8C35.68,8.6,46.89,15.57,47,28.45A19,19,0,0,1,28,47.5h-.17A19.58,19.58,0,0,1,8.21,28c0-10.64,8.53-18.92,19.22-19.19Z"/><circle class="cls-2" cx="42.07" cy="40.74" r="8.73"/><g id="Close"><g id="Group_1159" data-name="Group 1159"><line id="Line_18" data-name="Line 18" class="cls-3" x1="45.04" y1="37.76" x2="39.1" y2="43.71"/><line id="Line_19" data-name="Line 19" class="cls-3" x1="45.04" y1="43.71" x2="39.1" y2="37.76"/></g></g></svg>