<svg id="Layer_1" data-name="Layer 1" xmlns="http://www.w3.org/2000/svg" viewBox="0 0 56.69 56.69"><defs><style>.cls-1{fill:#4d6b7f;}.cls-2{fill:#b5d384;}.cls-3{fill:#363840;stroke:#363840;stroke-miterlimit:10;stroke-width:0.1px;}</style></defs><title>Recepidia_Icons</title><path id="Path_1610" data-name="Path 1610" class="cls-1" d="M36.12,17.82C33.06,19,30.86,21,30.23,24.3a11.4,11.4,0,0,1-1.71,4.23,28.93,28.93,0,0,0-1.43,2.7c-.17.33-.2.75-.62.95a3.4,3.4,0,0,1-.68-1.57,27.58,27.58,0,0,0-5.16-9.06,13.3,13.3,0,0,0-4.17-3.36c-.5-.25-1-.64-1.71-.29a2.78,2.78,0,0,0,.9,1.42,33.68,33.68,0,0,1,3.24,4.47C22.25,29.44,25,35.3,25.21,42c0,1,.6,1.08,1.81,1.1.71,0,1.09-.44,1-1.3a65.42,65.42,0,0,1,0-7.41,14.09,14.09,0,0,1,1-4.67,3.11,3.11,0,0,1,3.21-2.34c4.37-.12,6.78-3.19,7.91-6.45a9.62,9.62,0,0,0,.13-4.66A36,36,0,0,1,36.12,17.82ZM25.45,35.76a49.48,49.48,0,0,0-2.82-7c-1.2-2.13-2.36-4.27-3.59-6.51a1.17,1.17,0,0,1,.9.6,28.89,28.89,0,0,1,5.78,10.81,2.35,2.35,0,0,1-.27,2.09ZM27,41.84c0,.24,0,.51-.34.5s-.27-.23-.3-.42a13.4,13.4,0,0,1,.45-6.56c0-.06.16-.09.37-.2A32.42,32.42,0,0,0,27,41.84ZM31.51,26c.93-.57,2.13-.38,3.19-1.16-.89,0-1.55.41-2.37.26.21-.77.81-1,1.43-1.2a6.11,6.11,0,0,0,1.7-.68c-.31-.31-.57.05-.94-.1a4.36,4.36,0,0,1,4-1.5c-.43,2.55-3.59,4.95-7,4.38Zm8-6.94a9.26,9.26,0,0,1-.35,1.56c-.17.57-.59.72-1.31.51a6.07,6.07,0,0,0,1-2.23c-.74.06-.94.7-1.37,1s-.51,1-1,.2c-.35.27-.92.12-1.13.7s-.28,1.05-1,1.11c-.36-.38.22-.71,0-1.08-.08-.09-.12-.06-.2.06-.47.65-.52,1.54-1.12,2.15-.54-.36.05-.75-.17-1.07-.09-.05-.17,0-.21.11-.14.4-.3.81-.44,1.22-.29.9-.28.91-1.44,1.54a5.08,5.08,0,0,1,1.23-2.92,10.3,10.3,0,0,1,6.33-3.81c1-.17,1.18,0,1.07.94Z"/><path id="Path_1418-2" data-name="Path 1418-2" class="cls-1" d="M27.91,48.26A19.6,19.6,0,0,0,47.64,28.8v-.24a20,20,0,0,0-20.21-20A19.43,19.43,0,0,0,7.75,27.73v.49A20.12,20.12,0,0,0,27.91,48.26ZM27.53,9A19.74,19.74,0,0,1,47.07,28.66a19,19,0,0,1-19,19.06h-.17A19.59,19.59,0,0,1,8.31,28.2C8.3,17.57,16.84,9.29,27.53,9Z"/><circle class="cls-2" cx="42.17" cy="41.08" r="8.73"/><path id="Path_1310" data-name="Path 1310" class="cls-3" d="M40.8,44.83a.38.38,0,0,1-.28-.12L37.31,41.5a.4.4,0,0,1,0-.57.39.39,0,0,1,.56,0h0l2.93,2.93,6.41-6.41a.42.42,0,0,1,.57,0,.4.4,0,0,1,0,.57l-6.69,6.69A.4.4,0,0,1,40.8,44.83Z"/></svg>