<svg xmlns="http://www.w3.org/2000/svg" width="89.203" height="77.494" viewBox="0 0 89.203 77.494">
  <g  data-name="Group 1966" transform="translate(-979.295 -454.896)">
    <g  data-name="Group 1241" transform="translate(979.294 454.896)">
      <g  data-name="Group 1236" transform="translate(0 0)">
        <path  data-name="Path 1408" d="M-187.793,428.435c-1.858-1.731-3.9-3.255-5.747-5.009a68.962,68.962,0,0,0-8.888-7.355A1.989,1.989,0,0,0-204.86,416a5.823,5.823,0,0,0-1.362,1.242c-1.266,1.355-2.566,2.679-3.8,4.062a1.305,1.305,0,0,1-1.781.4,1.259,1.259,0,0,1-.182-.136c-2.626-1.717-5.7-2.008-8.69-2.559-.441-.081-1.031-.261-1.346.215-.345.524-.059,1,.282,1.486a34.134,34.134,0,0,0,3.934,4.749c1.916,1.9,1.693,1.442-.065,3.26-3.345,3.456-6.756,6.85-10.108,10.3-1.388,1.43-1.361,1.7-.1,3.248.345.425.711.838,1.093,1.232,5.116,5.275,10.249,10.534,15.543,15.637.587.565.908.677,1.625-.033,3.766-3.718,7.639-7.328,11.464-10.985,1.385-1.324,1.11-1.5,2.713.024a48.654,48.654,0,0,1,4.293,4.44c.711.874,1.106.858,1.7-.1a20,20,0,0,1,2.658-3.39c.848-.873.931-1.651.133-2.3-1.286-1.045-2.218-2.435-3.607-3.372a3.978,3.978,0,0,1-1.707-1.629c.049-.388.346-.474.548-.64a79.117,79.117,0,0,0,6.8-6.608c1.147-1.2,1.118-1.673,0-2.979A39.382,39.382,0,0,0-187.793,428.435Zm-1.051,20.035c.045-.188.147-.377.383-.293.092.032.132.208.2.318-.05.2-.147.394-.363.388-.247-.006-.26-.227-.215-.413ZM-219.864,421.3a7.421,7.421,0,0,1-.552-.747,9.38,9.38,0,0,1,4.4,1.015,43.918,43.918,0,0,1,12.481,8.288c.6.562,1.083,1.233,1.633,1.843a1.579,1.579,0,0,1,.243,2.247,1.5,1.5,0,0,1-.227.226c-1.073,1.19-.985,1.282.175,2.5.189.2.4.377.582.58.295.328.149.615-.115.878a.6.6,0,0,1-.833.126.476.476,0,0,1-.073-.062c-.209-.177-.406-.366-.61-.554q-8.555-8.164-17.108-16.343Zm20.5,25.144c-3.472,3.321-7.01,6.572-10.362,10.014-1.089,1.118-1.148,1.073-2.276-.065q-7.1-7.163-14.2-14.333c-1.378-1.4-1.342-1.379.08-2.824,3.032-3.079,5.723-6.471,8.887-9.43a10.847,10.847,0,0,0,1.016-1.026c.6-.734,1.139-.808,1.86-.084,1.066,1.067,2.242,2.026,3.342,3.061,2.5,2.352,4.977,4.726,7.469,7.083.515.486,1.039.946.784,1.425-.561,1.091.173,1.46.532,1.83.856.882,1.875,1.608,2.788,2.44,1.034.951,1.029,1,.076,1.908Zm7.768.2a3.411,3.411,0,0,1,.977,2.042c.406-.516-.03-1.213.406-1.708,1.236.742,1.166,2.2-.2,4.165-.127-.01-.322.029-.373-.038-2.69-3.5-6.278-6.133-9.245-9.367-1.46-1.59-1.507-1.548.251-3.147.323.761,1.081,1.28.881,2.315.721-.293.332-1.019.693-1.375.124-.072.272.01.218.171-.406,1.215,1.309,1.612.884,2.851.572-.307.345-.744.648-1.133.521.753.127,1.611.453,2.41.871-.248.123-1.292.829-1.576,1.063.55.181,1.576.483,2.329.711-.141.164-.917.744-1.16.68.619-.093,1.519.346,2.174.418-.069.223-.431.468-.723a10.869,10.869,0,0,1,.361,1.306c.115.817.814.007,1.178.462Zm4.549-12.142c-2.16,2-4.276,4.042-6.439,6.1a16.169,16.169,0,0,1-3.974-3.994c-.406-.663-.9-1.106-1.668-.6s-1.126-.048-1.559-.466c-.588-.567-.087-.961.23-1.393,1.037-1.412,1.07-1.446-.065-2.7-2.622-2.88-4.91-6.091-8.67-8.288,1.954-2.022,3.716-3.834,5.463-5.659.776-.811,1.178-.1,1.664.351,3.627,3.334,6.978,6.934,10.45,10.418,1.5,1.507,2.973,3.042,4.482,4.54.566.562.8,1.03.085,1.688Z" transform="translate(254.07 -400.469)" fill="#587c94"/>
        <path  data-name="Path 1414" d="M-234.41,449.263c1.349-1.191,1.707-2.656.61-4.638a4.321,4.321,0,0,1,.439-4.8,14.011,14.011,0,0,1,5.683-5.192c3.8-1.68,5.1-4.752,5.149-8.237.282-6.027-6.112-10.024-10.227-9.123a11.325,11.325,0,0,0-6.354,3.574,6.738,6.738,0,0,0-1.8,5.042,12.78,12.78,0,0,0,1.747,5.6,4.651,4.651,0,0,1,.711,3.516c-.277,1.052-.779,2.058.17,3.05.277.291-.026.645-.164.94-.635,1.374-1.27,2.508-3.2,2.66a3.024,3.024,0,0,0-3.073,2.971,2.993,2.993,0,0,0,.067.652,3.773,3.773,0,0,0,3.875,3.486,3.255,3.255,0,0,1,2.389.79A3,3,0,0,0-234.41,449.263Zm-3.871-25.382a7.889,7.889,0,0,1,7-4.686c3.509-.169,4.4,1.041,5.375,3.151.3.643-.021,1.508.5,2.115.591.687-.2,1.234-.285,1.8a9.112,9.112,0,0,0,.216,2.71.145.145,0,0,0,.058-.008h-.005c-.015.018-.021.036-.035.054a.631.631,0,0,1,.189.66c-.052.139-.193.121-.249-.016a.64.64,0,0,1,.06-.645l-.013-.016v-.034c-.718.107-.592-.8-1.189-.956-.021,1.124,1,2.072.622,3.281-1.027-.106-.721-1.274-1.422-1.566-.293.214-.145.486-.079.738.151.578.158.576-.6.937-.172.083-.339.173-.508.256-.621.3.315,1.411-.219,1.141-.906-.458-.995.219-1.157.514-.286.517-.828.691-1.163,1.106s-.673.821-1.016,1.227a9.123,9.123,0,0,0-1.038,1.268c-.472.847-1.053.791-1.9.577-2.452-.613-2.52-.573-1.887-2.923a3.084,3.084,0,0,0-.571-3.043,6.455,6.455,0,0,1-.678-7.641Zm-1.662,23.44c-1.605.8-2.986-.3-2.919-2.12a1.58,1.58,0,0,1,1.522-1.639h.01A3.067,3.067,0,0,0-238.3,441a8.652,8.652,0,0,1,.68-1.485c.541-1.093.983-1.269,2.107-.911.724.232.986.626.711,1.38-.4,1.084-.719,2.2-1.1,3.289-.277.8-.444,1.408.49,2.079a1.707,1.707,0,0,1,.423,2.4,1.668,1.668,0,0,1-.112.141c-.786,1.1-1.864,1.192-2.682.109-.6-.795-1-1.265-2.157-.685Z" transform="translate(253.82 -400.471)" fill="#587c94"/>
        <path  data-name="Path 1415" d="M-225.771,429.013l.016-.012Z" transform="translate(254.122 -400.488)" fill="#587c94"/>
        <path  data-name="Path 1419" d="M-223.357,451.457a3.179,3.179,0,0,0-4.282-1.2,3.346,3.346,0,0,0-.385.248,6.058,6.058,0,0,0-1.9,2.115,7.2,7.2,0,0,1-1.321,2.153,13.091,13.091,0,0,0-4.667-2.464,2.518,2.518,0,0,0-3.26,1.354,2.424,2.424,0,0,0-.166.631,8.966,8.966,0,0,0,.358,5.605,5.65,5.65,0,0,0,7.3,3.085c.082-.032.165-.066.245-.1a1.472,1.472,0,0,1,1.946.241,5.038,5.038,0,0,0,5.791.641,5.013,5.013,0,0,0,2.853-5.226A19.733,19.733,0,0,0-223.357,451.457Zm-9.016,6.345c-.329.187-.791.576-.775.848.063,1.04-1.293,1.219-1.248,2.186-1.7.152.048.669-.068,1.2a4.158,4.158,0,0,1-3.67-3.087,7.491,7.491,0,0,1-.161-4.428c.349-1.2.725-1.5,1.93-1.336a8.107,8.107,0,0,1,4.528,2.312c.851.818.567,1.685-.534,2.307Zm6.954,5.348a4.227,4.227,0,0,1-4.857-3.418,14.489,14.489,0,0,1-.114-1.624,9.884,9.884,0,0,1,1.815-5.556,3.448,3.448,0,0,1,2.264-1.658,2.056,2.056,0,0,1,2.325,1.311,17.263,17.263,0,0,1,2.007,6.38,4.094,4.094,0,0,1-3.441,4.567Z" transform="translate(253.901 -400.517)" fill="#587c94"/>
        <path  data-name="Path 1421" d="M-225.752,429l.032-.026h.006a.355.355,0,0,0-.058.008.077.077,0,0,0,.005.034Z" transform="translate(254.122 -400.488)" fill="#587c94"/>
        <path  data-name="Path 1422" d="M-225.771,429.014l.013.016c.013-.018.02-.036.035-.054l-.032.026Z" transform="translate(254.122 -400.488)" fill="#587c94"/>
        <path  data-name="Path 1424" d="M-208.631,442.677a14.789,14.789,0,0,0,.148-3.865c-.322-2.237-1.494-3.23-3.727-3.2-.438,0-.946.308-1.365-.21.068-.172.126-.356.213-.527.255-.494,1.369-.693.852-1.355-.461-.591-1.076.168-1.6.419a1.645,1.645,0,0,1-.406.079c-.53-.621,0-1.789-1.073-2.163-.468.486-.13.947-.092,1.4.131,1.57.136,1.561-1.466,1.361a1.824,1.824,0,0,0-1.412.116c.406.858,1.5.6,2.133,1.331-3.083,2.567-3.286,3.95-1.246,7.43.725,1.236,1.372,2.517,2.044,3.783a30.475,30.475,0,0,0,2.914,4.693,4.855,4.855,0,0,0,1.493,1.4c1.669.881,2.925.285,3.069-1.553a12.878,12.878,0,0,0-.154-2.843A23.814,23.814,0,0,1-208.631,442.677Zm-1.684,8.059c-.06.344-.015.666-.369.832-.3.14-.539-.078-.736-.249a7.559,7.559,0,0,1-1.009-1.015c-.875-1.124-.863-1.137.192-2.3a.726.726,0,0,0,.261-.731c-.583-.36-1.007.209-1.524.3a.644.644,0,0,1-.7-.3.521.521,0,0,1,.134-.722c.494-.436,1.23-.678,1.262-1.516-.634-.491-.983.158-1.436.34-.325.13-.645.3-.914-.064-.258-.35-.075-.627.181-.891.539-.553,1.35-.931,1.379-1.94-1.05-.086-1.408.9-2.294,1.14a9.06,9.06,0,0,1-1.645-4.018c-.2-.944.439-1.491,1.25-1.887,1.265-.618,2.687-.5,4.008-.877.565-.16.934.207.813.826a14.128,14.128,0,0,0,.388,5.284,32.942,32.942,0,0,1,.321,4.94c.015,1.008.618,1.847.443,2.853Z" transform="translate(254.229 -400.492)" fill="#587c94"/>
        <path  data-name="Path 1425" d="M-193.011,430.483a15.137,15.137,0,0,1-4.373-4.837,5.427,5.427,0,0,0-4.287-2.575c-.727-.078-1.58.791-1.364,2.179a3.947,3.947,0,0,0,1.44,2.42c1.942,1.641,3.914,3.247,5.885,4.853a2.538,2.538,0,0,0,1.275.646,1.605,1.605,0,0,0,1.8-1.065A1.164,1.164,0,0,0-193.011,430.483Zm-.668.946c-.09.411-.3.551-.61.555a1.422,1.422,0,0,1-.9-.453q-2.776-2.274-5.546-4.554a3.727,3.727,0,0,1-1.175-1.643c-.264-.745.1-1.2.909-1.111a3.709,3.709,0,0,1,2.669,1.75,18.415,18.415,0,0,0,4.315,4.867c.229.164.39.384.334.589Z" transform="translate(254.483 -400.479)" fill="#587c94"/>
        <path  data-name="Path 1470" d="M-235.609,424.484c.543.087.686-.223.762-.561.1-.412.111-.839-.465-.9a.663.663,0,0,0-.74.556A.672.672,0,0,0-235.609,424.484Z" transform="translate(253.958 -400.479)" fill="#587c94"/>
        <path  data-name="Path 1471" d="M-235.135,426.039a.554.554,0,0,0-.495.547c0,.416.321.534.691.523.335-.009.443-.239.486-.52C-234.544,426.24-234.706,425.967-235.135,426.039Z" transform="translate(253.965 -400.484)" fill="#587c94"/>
        <path  data-name="Path 1472" d="M-233.165,422.941c.271.043.538.008.579-.322a.517.517,0,0,0-.478-.554h-.008a.441.441,0,0,0-.485.388.427.427,0,0,0,0,.1A.4.4,0,0,0-233.165,422.941Z" transform="translate(253.998 -400.478)" fill="#587c94"/>
        <path  data-name="Path 1483" d="M-224.584,456.3a13.085,13.085,0,0,1-.215,4.983.34.34,0,0,0,.217.434.349.349,0,0,0,.277-.023,1.532,1.532,0,0,0,.955-1c.389-1.873.813-3.774-.413-5.686C-224.314,455.411-224.675,455.791-224.584,456.3Z" transform="translate(254.137 -400.524)" fill="#587c94"/>
        <path  data-name="Path 1612" d="M-174.738,440.741c1.692-16.335-7.383-31.809-26.022-38.265a39.132,39.132,0,0,0-23.467-.441c-17.3,4.693-29.379,19.873-29.451,39.385.06,7.518,3.613,16.117,10.777,23.208,12.031,11.909,31.283,14.654,46.882,6.5C-183.649,464.656-176.168,454.555-174.738,440.741ZM-233,470.279c-22.59-11.584-26.2-41.115-7.124-58.211,7.433-6.661,16.877-10.255,29.433-10.265,19.969.662,35.61,17.109,34.938,36.737a35.065,35.065,0,0,1-3.531,14.168c-9.5,19.457-34.251,27.553-53.715,17.569Z" transform="translate(253.678 -400.448)" fill="#587c94"/>
        <path  data-name="Path 1613" d="M-207.593,456.2" transform="translate(254.411 -400.526)" fill="#587c94"/>
        <path  data-name="Path 1614" d="M-207.538,456.094" transform="translate(254.412 -400.526)" fill="#587c94"/>
        <path  data-name="Path 1615" d="M-207.584,456.208" transform="translate(254.411 -400.526)" fill="#587c94"/>
        <path  data-name="Path 1616" d="M-207.6,456.2" transform="translate(254.411 -400.526)" fill="#587c94"/>
        <path  data-name="Path 1617" d="M-207.582,456.2c.109-.213.143-.286.1-.213l-.059.1c.013-.024.024-.042-.058.111h0Z" transform="translate(254.411 -400.525)" fill="#587c94"/>
        <path  data-name="Path 1618" d="M-207.6,456.2h0Z" transform="translate(254.411 -400.526)" fill="#587c94"/>
        <path  data-name="Path 1619" d="M-207.588,456.207h0v0h-.012Z" transform="translate(254.411 -400.526)" fill="#587c94"/>
        <path  data-name="Path 1624" d="M-174.738,440.741c1.692-16.335-7.383-31.809-26.022-38.265a39.132,39.132,0,0,0-23.467-.441c-17.3,4.693-29.379,19.873-29.451,39.385.06,7.518,3.613,16.117,10.777,23.208,12.031,11.909,31.283,14.654,46.882,6.5C-183.649,464.656-176.168,454.555-174.738,440.741ZM-233,470.279c-22.59-11.584-26.2-41.115-7.124-58.211,7.433-6.661,16.877-10.255,29.433-10.265,19.969.662,35.61,17.109,34.938,36.737a35.065,35.065,0,0,1-3.531,14.168c-9.5,19.457-34.251,27.553-53.715,17.569Z" transform="translate(253.678 -400.448)" fill="#587c94"/>
      </g>
    </g>
    <g  data-name="Group 1379" transform="translate(1035.566 500.019)">
      <ellipse  data-name="Ellipse 23" cx="16.466" cy="16.185" rx="16.466" ry="16.185" transform="translate(0 0)" fill="#fc5959"/>
      <g  transform="translate(10.854 10.669)">
        <g  data-name="Group 1159">
          <line  data-name="Line 18" x1="11.224" y2="11.033" fill="none" stroke="#363840" stroke-linecap="round" stroke-width="1.776"/>
          <line  data-name="Line 19" x1="11.224" y1="11.033" fill="none" stroke="#363840" stroke-linecap="round" stroke-width="1.776"/>
        </g>
      </g>
    </g>
  </g>
</svg>
