<svg xmlns="http://www.w3.org/2000/svg" width="78.578" height="77.482" viewBox="0 0 78.578 77.482">
  <g data-name="Group 1968" transform="translate(-1202.021 -456.322)">
    <g data-name="Group 1914" transform="translate(0 3)">
      <g data-name="Group 1909" transform="translate(-11.719 -1732.776)">
        <g data-name="Group 1892">
          <path data-name="Path 1701" d="M1247.39,2239.289a.841.841,0,0,0,0-1.68.841.841,0,0,0,0,1.68Z" fill="#4c6b7f"/>
        </g>
        <g data-name="Group 1240">
          <path data-name="Path 1410" d="M1270.963,2193.949c-13.638-10.954-33.989-10.774-46.917,2.62a35.382,35.382,0,0,0-10.306,23.512c-.046,11.07,2.878,19.564,8.648,26.507,16.68,20.074,47.112,16.8,58.76-6.447A37.974,37.974,0,0,0,1270.963,2193.949Zm12.532,29.492c.01,16.776-11.184,30.926-27.235,34.173-10,2.023-19.068-.418-27.092-6.584a36.258,36.258,0,0,1-9.844-45.261c6.241-11.711,16.3-18.076,29.415-18.223,12.583-.144,22.375,5.936,29.2,16.54a35.6,35.6,0,0,1,5.559,19.358Z" fill="#4c6b7f"/>
        </g>
        <g data-name="Group 1893">
          <path data-name="Path 1702" d="M1241.833,2245.131a53.579,53.579,0,0,1-9.526-.8c-1.9-.346-3.176-1.063-3.269-3.435-.157-2.272-.165-11.838-.014-14.4l-.121-.884a1.748,1.748,0,0,1-.306-.2c-2.12-1.74-4.113-3.748-4.327-6.642a13.532,13.532,0,0,1,2.146-7.651,8.622,8.622,0,0,1,5.931-3.553l6.754-2.064c5.2-1.522,12.137-1.589,14.139-1.573h.064c.463-.006.941-.017,1.426-.028,4.841-.109,10.331-.229,14.047,3.38.013.013.531.54.654.684h0a8.537,8.537,0,0,1,2.065,7.006,10.262,10.262,0,0,1-5.037,6.985c.131,3.513.182,8.4.1,9.892-.017,1.4-.107,2.847-.194,4.248l-.05.794a14.162,14.162,0,0,1-.245,1.913c-.291,1.455-.59,1.887-2.136,2.147-.667.113-2.774.326-3.5.392-1.238.61-5.8,2.834-6.933,3.019-.659.108-1.327.194-1.985.253C1248.385,2244.905,1245.137,2245.135,1241.833,2245.131Zm11.031-39.505c-2.316,0-8.581.13-13.278,1.5l-6.874,2.1a7.06,7.06,0,0,0-4.882,2.83,11.866,11.866,0,0,0-1.871,6.595c.167,2.257,1.883,3.957,3.712,5.458l.722.016.114.725.218,1.592-.006.085c-.15,2.317-.144,12.061.01,14.283.047,1.207.287,1.569,1.881,1.86,6.353,1.152,12.766.809,18.752.266.617-.056,1.244-.136,1.864-.238a57.628,57.628,0,0,0,6.6-2.936l.145-.072.16-.014c.5-.041,2.882-.279,3.523-.387a3.631,3.631,0,0,0,.6-.132,5.552,5.552,0,0,0,.163-.679,12.478,12.478,0,0,0,.216-1.683l.048-.8c.086-1.38.176-2.806.192-4.2.086-1.546.021-6.962-.123-10.385l-.035-.853.853-.029a8.6,8.6,0,0,0,4.265-5.829,6.788,6.788,0,0,0-1.684-5.632c-.107-.125-.557-.58-.559-.582-3.194-3.1-8.306-2.987-12.816-2.888-.49.011-.973.022-1.445.028h-.095Z" fill="#4c6b7f"/>
        </g>
        <g data-name="Group 1894">
          <path data-name="Path 1703" d="M1257.509,2212.536c-3.762-4.411-10.274-3.811-15.476-3.739-4.725.065-12.735-1.312-15.848,3.413a12.7,12.7,0,0,0-2.009,7.123c.194,2.615,2.106,4.479,4.021,6.05a.856.856,0,0,0,.534.2l.205,1.507c-.151,2.333-.15,12.064.01,14.4.067,1.7.716,2.3,2.574,2.635,6.278,1.138,12.595.853,18.915.283q.994-.09,1.98-.251c1.263-.207,1.309-.3,1.548-1.5a13.186,13.186,0,0,0,.229-1.791c.1-1.68.223-3.361.244-5.043.088-1.593.017-7.049-.125-10.43a.815.815,0,0,0,.4-.12C1259.346,2222.517,1261.236,2216.907,1257.509,2212.536Zm-3.3,11.063c-.016-.208-.032-.391-.048-.537-.108-.7-.391-1.3-1.224-1.265-.813.036-.6.764-.649,1.247a10.153,10.153,0,0,0-.016,1.089c0,1.769.013,14.25-.013,17.253a1.38,1.38,0,0,1-1.454,1.269l-8.583.651a3.383,3.383,0,0,1-.464,0l-9.557-.566c-1.254-.113-1.31-.09-1.309-1.181,0-1.971-.361-15.68-.161-17.65a2.9,2.9,0,0,0,.036-.618c-.077-.665-.575-.809-1.255-.8s-.706.384-.735.827a3.97,3.97,0,0,1,.042.407c-1.522-1.295-2.981-2.816-2.986-4.933a11.624,11.624,0,0,1,1.8-5.735c2.62-3.732,9.7-2.545,13.586-2.574,3.972-.03,8.39-.582,12.129,1.06C1258.918,2213.991,1259.027,2220.437,1254.214,2223.6Z" fill="#4c6b7f"/>
        </g>
        <g data-name="Group 1895">
          <circle data-name="Ellipse 373" cx="0.839" cy="0.839" r="0.839" transform="translate(1235.09 2231.198)" fill="#4c6b7f"/>
        </g>
        <g data-name="Group 1896">
          <circle data-name="Ellipse 374" cx="1.096" cy="1.096" r="1.096" transform="translate(1238.83 2234.647)" fill="#4c6b7f"/>
        </g>
        <circle data-name="Ellipse 375" cx="0.652" cy="0.652" r="0.652" transform="translate(1236.555 2221.833)" fill="#4c6b7f"/>
        <g data-name="Group 1897">
          <path data-name="Path 1704" d="M1248.466,2217.294a.84.84,0,0,0,0-1.68.84.84,0,0,0,0,1.68Z" fill="#4c6b7f"/>
        </g>
        <g data-name="Group 1898">
          <path data-name="Path 1705" d="M1233.367,2217.277a.841.841,0,0,0,0-1.68.841.841,0,0,0,0,1.68Z" fill="#4c6b7f"/>
        </g>
        <g data-name="Group 1899">
          <path data-name="Path 1706" d="M1244.165,2229.406a.84.84,0,0,0,0-1.68.84.84,0,0,0,0,1.68Z" fill="#4c6b7f"/>
        </g>
      </g>
      <g data-name="Group 1912" transform="translate(1247.668 498.434)">
        <ellipse data-name="Ellipse 23" cx="16.466" cy="16.185" rx="16.466" ry="16.185" transform="translate(0 0)" fill="#fc5959"/>
        <g transform="translate(10.854 10.669)">
          <g data-name="Group 1159">
            <line data-name="Line 18" x1="11.224" y2="11.033" fill="none" stroke="#363840" stroke-linecap="round" stroke-width="1.776"/>
            <line data-name="Line 19" x1="11.224" y1="11.033" fill="none" stroke="#363840" stroke-linecap="round" stroke-width="1.776"/>
          </g>
        </g>
      </g>
    </g>
  </g>
</svg>
