<svg id="Layer_1" data-name="Layer 1" xmlns="http://www.w3.org/2000/svg" viewBox="0 0 56.69 56.69"><defs><style>.cls-1{fill:#4d6b7f;}.cls-2{fill:#ea5a5c;}.cls-3{fill:none;stroke:#363840;stroke-linecap:round;stroke-width:0.96px;}</style></defs><title>Recepidia_Icons</title><g id="Group_1241" data-name="Group 1241"><g id="Group_1236" data-name="Group 1236"><path id="Path_1408" data-name="Path 1408" class="cls-1" d="M42.74,22.79c-1-.93-2.07-1.76-3.06-2.71a37.29,37.29,0,0,0-4.72-4,1,1,0,0,0-1.29,0,3.1,3.1,0,0,0-.73.67c-.67.74-1.36,1.45-2,2.2a.68.68,0,0,1-.94.22l-.1-.08a11.9,11.9,0,0,0-4.62-1.38c-.23,0-.55-.14-.72.12s0,.54.15.8a17.85,17.85,0,0,0,2.1,2.57c1,1,.9.78,0,1.76-1.78,1.87-3.59,3.7-5.37,5.57-.74.77-.73.92-.06,1.76.19.23.38.45.58.66,2.72,2.86,5.45,5.7,8.27,8.46.31.31.48.37.86,0,2-2,4.06-4,6.09-5.94.74-.71.6-.81,1.45,0a27.3,27.3,0,0,1,2.28,2.41c.38.47.59.46.9-.06A10.94,10.94,0,0,1,43.17,34c.45-.47.49-.89.07-1.24-.69-.57-1.18-1.32-1.92-1.83a2.14,2.14,0,0,1-.91-.88c0-.21.19-.25.29-.34a42.18,42.18,0,0,0,3.62-3.58c.61-.65.59-.9,0-1.61S43.29,23.33,42.74,22.79Zm-.56,10.84c0-.1.08-.21.2-.16s.07.11.11.17-.08.21-.2.21-.13-.12-.11-.22ZM25.69,18.93a3.69,3.69,0,0,1-.29-.4,4.91,4.91,0,0,1,2.34.55,23.14,23.14,0,0,1,6.63,4.48c.32.3.58.67.87,1a.86.86,0,0,1,.13,1.21.68.68,0,0,1-.12.12c-.57.65-.53.7.09,1.36.1.11.21.2.31.31s.08.33-.06.48a.31.31,0,0,1-.44.06l0,0c-.11-.09-.22-.2-.33-.3l-9.09-8.84Zm10.9,13.6c-1.85,1.8-3.73,3.55-5.51,5.42-.58.6-.61.58-1.21,0l-7.55-7.75c-.73-.76-.71-.75,0-1.53,1.62-1.66,3.05-3.5,4.73-5.1a7,7,0,0,0,.54-.55c.32-.4.6-.44,1-.05.56.58,1.19,1.1,1.77,1.66q2,1.9,4,3.83c.28.26.56.51.42.77-.3.59.09.79.28,1,.46.48,1,.87,1.49,1.32s.54.54,0,1Zm4.13.11a1.85,1.85,0,0,1,.51,1.1c.22-.28,0-.65.22-.92.66.4.62,1.19-.11,2.25-.06,0-.17,0-.2,0-1.43-1.89-3.33-3.32-4.91-5.06-.78-.86-.8-.84.13-1.71.18.42.58.7.47,1.26.39-.16.18-.55.37-.75a.08.08,0,0,1,.12.09c-.22.66.69.88.47,1.55.3-.17.18-.41.34-.62.28.41.07.87.24,1.31.46-.14.07-.7.44-.86.57.3.1.86.26,1.26.38-.07.09-.49.39-.62.37.33-.05.82.19,1.17.22,0,.12-.23.25-.39a5.71,5.71,0,0,1,.19.71c.06.44.43,0,.63.25Zm2.41-6.57c-1.14,1.08-2.27,2.19-3.42,3.3a8.66,8.66,0,0,1-2.11-2.16c-.22-.36-.48-.6-.89-.32s-.6,0-.83-.26,0-.52.12-.75c.56-.76.57-.78,0-1.46-1.39-1.56-2.61-3.29-4.61-4.48,1-1.09,2-2.07,2.91-3.06.41-.44.62-.05.88.19,1.93,1.8,3.71,3.75,5.55,5.63.8.82,1.59,1.65,2.39,2.46.3.3.42.55,0,.91Z"/><path id="Path_1414" data-name="Path 1414" class="cls-1" d="M17.83,34.06a1.84,1.84,0,0,0,.32-2.51,2.37,2.37,0,0,1,.23-2.6,7.57,7.57,0,0,1,3-2.81,4.54,4.54,0,0,0,2.74-4.45,4.94,4.94,0,0,0-5.44-4.94,6,6,0,0,0-3.37,1.94,3.64,3.64,0,0,0-1,2.72,6.88,6.88,0,0,0,.93,3,2.57,2.57,0,0,1,.38,1.91c-.15.57-.42,1.11.09,1.65.14.15,0,.34-.09.5-.34.75-.68,1.36-1.7,1.44a1.61,1.61,0,0,0-1.63,1.61,1.34,1.34,0,0,0,0,.35,2,2,0,0,0,2.06,1.89,1.69,1.69,0,0,1,1.27.42A1.59,1.59,0,0,0,17.83,34.06ZM15.77,20.33a4.19,4.19,0,0,1,3.72-2.54c1.86-.09,2.34.57,2.85,1.71.16.35,0,.81.27,1.14s-.11.67-.15,1a5.16,5.16,0,0,0,.11,1.47h0s0,0,0,0a.35.35,0,0,1,.1.36c0,.08-.1.07-.13,0a.37.37,0,0,1,0-.35h0v0c-.38.05-.32-.44-.63-.52,0,.61.52,1.12.33,1.77-.55,0-.39-.68-.76-.84-.16.11-.08.26,0,.4.08.31.08.31-.32.5l-.27.14c-.33.16.17.77-.12.62-.48-.25-.53.12-.61.28s-.44.37-.62.6l-.54.66a4.43,4.43,0,0,0-.55.68c-.25.46-.56.43-1,.32-1.3-.33-1.34-.31-1-1.58a1.7,1.7,0,0,0-.3-1.65,3.52,3.52,0,0,1-.36-4.13ZM14.88,33c-.85.44-1.58-.16-1.55-1.14a.85.85,0,0,1,.81-.89h0a1.64,1.64,0,0,0,1.61-1.38,4.17,4.17,0,0,1,.36-.81c.28-.59.52-.68,1.12-.49.38.13.52.34.37.75-.21.58-.38,1.18-.58,1.78-.15.43-.24.76.26,1.12a.94.94,0,0,1,.23,1.3l-.06.08a.8.8,0,0,1-1.43.06c-.32-.43-.53-.69-1.15-.38Z"/><path id="Path_1415" data-name="Path 1415" class="cls-1" d="M22.58,23.1h0Z"/><path id="Path_1419" data-name="Path 1419" class="cls-1" d="M23.74,35.22a1.66,1.66,0,0,0-2.27-.65l-.21.13a3.35,3.35,0,0,0-1,1.14,3.87,3.87,0,0,1-.7,1.17,6.78,6.78,0,0,0-2.48-1.33,1.32,1.32,0,0,0-1.73.73,1,1,0,0,0-.09.34,4.92,4.92,0,0,0,.19,3,3,3,0,0,0,3.88,1.67l.13-.06a.77.77,0,0,1,1,.13,2.65,2.65,0,0,0,3.08.35A2.73,2.73,0,0,0,25.08,39,10.7,10.7,0,0,0,23.74,35.22ZM19,38.65c-.17.1-.42.31-.41.46,0,.56-.69.66-.66,1.18-.91.08,0,.36,0,.65a2.23,2.23,0,0,1-1.95-1.67,4.09,4.09,0,0,1-.09-2.4c.19-.64.39-.81,1-.72a4.3,4.3,0,0,1,2.41,1.25c.45.44.3.91-.29,1.25Zm3.7,2.89a2.24,2.24,0,0,1-2.58-1.85,6.4,6.4,0,0,1-.06-.88,5.37,5.37,0,0,1,1-3,1.86,1.86,0,0,1,1.2-.9,1.1,1.1,0,0,1,1.24.71,9.51,9.51,0,0,1,1.07,3.45,2.22,2.22,0,0,1-1.83,2.47Z"/><path id="Path_1421" data-name="Path 1421" class="cls-1" d="M22.59,23.09l0,0h0v0Z"/><path id="Path_1422" data-name="Path 1422" class="cls-1" d="M22.58,23.1h0l0,0h0Z"/><path id="Path_1424" data-name="Path 1424" class="cls-1" d="M31.75,30.48a8.12,8.12,0,0,0,.07-2.09,1.75,1.75,0,0,0-2-1.73c-.23,0-.5.17-.72-.11a1.45,1.45,0,0,1,.11-.29c.14-.27.73-.37.45-.73s-.57.09-.85.22a.8.8,0,0,1-.21.05c-.28-.34,0-1-.57-1.17-.25.26-.07.51-.05.75.07.85.07.85-.78.74a1,1,0,0,0-.75.06c.21.47.79.33,1.13.72-1.64,1.39-1.74,2.14-.66,4,.39.67.73,1.36,1.09,2a15.59,15.59,0,0,0,1.55,2.53,2.39,2.39,0,0,0,.79.76c.89.48,1.55.15,1.63-.84a7.24,7.24,0,0,0-.08-1.54A12.91,12.91,0,0,1,31.75,30.48Zm-.9,4.36c0,.19,0,.36-.2.45s-.28,0-.39-.13a4.59,4.59,0,0,1-.53-.55c-.47-.61-.46-.62.1-1.25A.39.39,0,0,0,30,33c-.31-.2-.54.11-.81.16a.36.36,0,0,1-.38-.16.29.29,0,0,1,.08-.39c.26-.24.65-.37.67-.82-.34-.27-.53.08-.77.18s-.34.16-.48,0,0-.34.09-.49c.29-.3.72-.5.74-1.05-.56,0-.75.49-1.22.62A5,5,0,0,1,27,28.82c-.11-.51.23-.81.67-1a11,11,0,0,1,2.13-.48c.3-.08.49.12.43.45a7.87,7.87,0,0,0,.2,2.86,18.33,18.33,0,0,1,.18,2.67c0,.54.32,1,.23,1.54Z"/><path id="Path_1425" data-name="Path 1425" class="cls-1" d="M40.18,23.89a8.07,8.07,0,0,1-2.32-2.61,2.88,2.88,0,0,0-2.28-1.39c-.39-.05-.84.42-.72,1.17a2.08,2.08,0,0,0,.76,1.31c1,.89,2.08,1.76,3.13,2.63a1.35,1.35,0,0,0,.68.35.85.85,0,0,0,1-.58A.63.63,0,0,0,40.18,23.89Zm-.35.52a.32.32,0,0,1-.33.3.73.73,0,0,1-.47-.25l-3-2.46a2,2,0,0,1-.62-.89c-.14-.4,0-.65.48-.6a2,2,0,0,1,1.42.95,10.1,10.1,0,0,0,2.29,2.63c.12.09.21.21.18.32Z"/><path id="Path_1470" data-name="Path 1470" class="cls-1" d="M17.26,20.65c.29.05.37-.12.41-.3s0-.46-.25-.49a.35.35,0,0,0-.39.3C17,20.4,17,20.59,17.26,20.65Z"/><path id="Path_1471" data-name="Path 1471" class="cls-1" d="M17.52,21.49a.3.3,0,0,0-.27.3c0,.22.17.28.37.28s.24-.13.26-.28S17.75,21.45,17.52,21.49Z"/><path id="Path_1472" data-name="Path 1472" class="cls-1" d="M18.58,19.82c.15,0,.29,0,.31-.18a.29.29,0,0,0-.26-.3h0a.24.24,0,0,0-.26.21v.06A.23.23,0,0,0,18.58,19.82Z"/><path id="Path_1483" data-name="Path 1483" class="cls-1" d="M23.22,37.83a7.22,7.22,0,0,1-.12,2.7.18.18,0,0,0,.12.23.2.2,0,0,0,.15,0,.82.82,0,0,0,.5-.54,3.87,3.87,0,0,0-.22-3.08C23.36,37.35,23.17,37.56,23.22,37.83Z"/><path id="Path_1612" data-name="Path 1612" class="cls-1" d="M49.47,29.46c.9-8.83-3.92-17.2-13.83-20.69a20.46,20.46,0,0,0-12.48-.24C14,11.07,7.55,19.27,7.51,29.83a18.54,18.54,0,0,0,5.73,12.55,21.24,21.24,0,0,0,24.92,3.51C44.73,42.39,48.71,36.93,49.47,29.46Zm-31,16C6.49,39.17,4.57,23.2,14.71,14c3.95-3.6,9-5.54,15.65-5.55A19.23,19.23,0,0,1,47.05,35.93a21.13,21.13,0,0,1-28.55,9.5Z"/><path id="Path_1617" data-name="Path 1617" class="cls-1" d="M32.4,37.78c.06-.12.08-.16.05-.12l0,.06,0,.06h0Z"/><path id="Path_1619" data-name="Path 1619" class="cls-1" d="M32.4,37.78Z"/><path id="Path_1624" data-name="Path 1624" class="cls-1" d="M49.47,29.46c.9-8.83-3.92-17.2-13.83-20.69a20.46,20.46,0,0,0-12.48-.24C14,11.07,7.55,19.27,7.51,29.83a18.54,18.54,0,0,0,5.73,12.55,21.24,21.24,0,0,0,24.92,3.51C44.73,42.39,48.71,36.93,49.47,29.46Zm-31,16C6.49,39.17,4.57,23.2,14.71,14c3.95-3.6,9-5.54,15.65-5.55A19.23,19.23,0,0,1,47.05,35.93a21.13,21.13,0,0,1-28.55,9.5Z"/></g></g><circle class="cls-2" cx="43.16" cy="40.24" r="8.73"/><g id="Close"><g id="Group_1159" data-name="Group 1159"><line id="Line_18" data-name="Line 18" class="cls-3" x1="46.13" y1="37.27" x2="40.19" y2="43.22"/><line id="Line_19" data-name="Line 19" class="cls-3" x1="46.13" y1="43.22" x2="40.19" y2="37.27"/></g></g></svg>