<svg xmlns="http://www.w3.org/2000/svg" width="31.826" height="32.065" viewBox="0 0 31.826 32.065">
  <g data-name="Group 658" transform="translate(0.922 0.988)">
    <path data-name="Stroke 457" d="M11.083,8.775a3.173,3.173,0,0,0,0-4.483L7.72.928a3.173,3.173,0,0,0-4.485,0L1.393,2.773a4.747,4.747,0,0,0-.6,5.983A73.733,73.733,0,0,0,21.4,29.364a4.755,4.755,0,0,0,5.984-.6l1.844-1.845a3.167,3.167,0,0,0,0-4.482l-3.362-3.362a3.166,3.166,0,0,0-4.483,0l-1.121,1.12A75.143,75.143,0,0,1,9.962,9.9l1.121-1.12Z" transform="translate(0 0)" fill="none" stroke="#363840" stroke-linecap="round" stroke-linejoin="round" stroke-miterlimit="10" stroke-width="1.5"/>
  </g>
</svg>
