<svg xmlns="http://www.w3.org/2000/svg" width="16.883" height="22" viewBox="0 0 16.883 22">
	<path id="pinterest-p" d="M8.969,6.5C4.458,6.5,0,9.515,0,14.394c0,3.1,1.741,4.866,2.8,4.866.435,0,.686-1.217.686-1.56,0-.41-1.042-1.283-1.042-2.989A5.949,5.949,0,0,1,8.613,8.655c2.994,0,5.21,1.706,5.21,4.84,0,2.341-.936,6.731-3.97,6.731A1.954,1.954,0,0,1,7.821,18.3c0-1.666,1.161-3.279,1.161-5,0-2.918-4.128-2.389-4.128,1.137a5.19,5.19,0,0,0,.422,2.235c-.607,2.618-1.847,6.519-1.847,9.217,0,.833.119,1.653.2,2.486.149.167.075.15.3.066C6.146,25.4,6.067,24.8,7.07,20.821a3.563,3.563,0,0,0,3.047,1.587c4.669,0,6.766-4.562,6.766-8.675C16.883,9.356,13.11,6.5,8.969,6.5Z" transform="translate(0 -6.5)"/>
</svg>
