<svg xmlns="http://www.w3.org/2000/svg" width="22" height="22" viewBox="0 0 409 409"><path d="M204.583 216.67c50.664 0 91.74-48.075 91.74-107.378 0-82.237-41.074-107.377-91.74-107.377s-91.74 25.14-91.74 107.377c.001 59.303 41.073 107.378 91.74 107.378zm202.58 158.046L360.88 270.454a23.23 23.23 0 0 0-10.465-11.138l-71.83-37.392a4.63 4.63 0 0 0-4.926.415c-20.316 15.366-44.203 23.488-69.076 23.488s-48.762-8.122-69.078-23.488c-1.428-1.078-3.346-1.238-4.93-.415L58.75 259.316c-4.63 2.4-8.346 6.365-10.465 11.138L2 374.717c-3.19 7.188-2.537 15.412 1.75 22.005s11.537 10.526 19.4 10.526h362.86a23.06 23.06 0 0 0 21.152-32.531z"/></svg>
