<svg id="Layer_1" data-name="Layer 1" xmlns="http://www.w3.org/2000/svg" viewBox="0 0 56.69 56.69"><defs><style>.cls-1{fill:#4c6b7f;}</style></defs><title>Recepidia_Icons</title><path class="cls-1" d="M43.41,41.6a24.15,24.15,0,0,0-5.23-9.93,3.38,3.38,0,0,0-2.8-1.08c-6.41.25-12.82.44-19.23.62a2.4,2.4,0,0,0-1.51.52A11.85,11.85,0,0,0,10,42.06c.08,1.4.37,1.6,1.79,1.59q13.43-.09,26.86-.2a20.78,20.78,0,0,0,2.22-.19c.3,0,.62-.06.61-.62-.1-.4-.29-.53-1-.47-.25,0-2.47.08-2.66,0l-15.22,0H12.51c-1.37,0-1.4,0-1.25-1.4a12,12,0,0,1,3.15-7.1,4.14,4.14,0,0,1,3-1.38c5.82-.17,11.63-.38,17.45-.59a2.52,2.52,0,0,1,.55,0l.5,0a2.49,2.49,0,0,1,1.9,1,3.06,3.06,0,0,1,.33.47,23.69,23.69,0,0,1,3.8,8.1l.49,1.44C43.1,42.62,43.64,42.43,43.41,41.6Z"/><path class="cls-1" d="M35.56,19.38a9.62,9.62,0,0,0-9.59-7,7.36,7.36,0,0,0-2.53.35,8,8,0,0,0-5.81,10.2,9.7,9.7,0,0,0,15.85,3.85A7.33,7.33,0,0,0,35.56,19.38ZM32.71,25.5a7.19,7.19,0,0,1-6.16,2.42,8.13,8.13,0,0,1-7-4.35,6.25,6.25,0,0,1,1.62-8,7.82,7.82,0,0,1,5.79-1.72,8.61,8.61,0,0,1,2.91.78,8.06,8.06,0,0,1,2.29,1.72A10.23,10.23,0,0,1,33,17.49a8.43,8.43,0,0,1,.86,1.44A6.2,6.2,0,0,1,33,25.14C32.92,25.26,32.82,25.39,32.71,25.5Z"/><path class="cls-1" d="M29.3,22.93a6.39,6.39,0,0,1-.69.35c-.21.1-.32.14-.34.26a.25.25,0,0,0,.08.21.19.19,0,0,0,.1.1c.17.09.46-.06,1-.37a7,7,0,0,1,.66-.34l-.23,1,.3-.26a1,1,0,0,0,.37-.75.48.48,0,0,1,.06-.22.93.93,0,0,1,.38-.25c.2-.09.38-.17.44-.33a.34.34,0,0,0,0-.22.25.25,0,0,0-.11-.21c-.1-.06-.23,0-.38.08l-.19.09a16.68,16.68,0,0,0-.24-2.4,2.88,2.88,0,0,1,1-.71l0,.11a10.67,10.67,0,0,1,.13,1.33,4,4,0,0,1-.05.54c-.05.5-.08.78,0,.91a.16.16,0,0,0,.13.06.17.17,0,0,0,.16-.06c.27-.27.25-1.85.19-3.12a2.68,2.68,0,0,0-.05-.46,5.08,5.08,0,0,0-.43-1.39l-.14-.22A2.81,2.81,0,0,0,31,16L31,15.93a1,1,0,0,0-.27-.24c-.24-.15-.38,0-.47.12a2,2,0,0,0-.2.3,1.4,1.4,0,0,1-.15.24,2.26,2.26,0,0,1-.31.31,1.12,1.12,0,0,0-.21.18,2.66,2.66,0,0,1-.52-.57c-.26-.35-.54-.71-.89-.64a.33.33,0,0,0-.27.23.38.38,0,0,0,.08.37,4.26,4.26,0,0,0,.37.34,2.68,2.68,0,0,1,.62.64,1.45,1.45,0,0,1-.45.38,6.33,6.33,0,0,1-.75.36l-.18.07-.27.11-.05,0a1.58,1.58,0,0,0-.38.21.24.24,0,0,0-.08.09.19.19,0,0,0,0,.18l0,.07a.22.22,0,0,0,.19.23.4.4,0,0,0,.16,0,2.08,2.08,0,0,0,.51-.2h0l.45-.25.3-.18.47-.28h0a2.21,2.21,0,0,1,.34-.18,6.4,6.4,0,0,0,.29.65,4.59,4.59,0,0,1,.39,1,11.4,11.4,0,0,1-1.07.59c-1,.52-1.16.62-1.16.77a.19.19,0,0,0,0,.07.16.16,0,0,0,.06.08c.12.1.34,0,1.21-.41A12.17,12.17,0,0,1,30,20.05l.06.31a6.39,6.39,0,0,1,.18,1.94A7.57,7.57,0,0,1,29.3,22.93Zm1-3.94-.72-1.44a2.92,2.92,0,0,0,.59-.57,2.27,2.27,0,0,1,.34-.35,3.91,3.91,0,0,1,.79,1.56Z"/><path class="cls-1" d="M32.81,23a.29.29,0,0,0-.3-.16h0l0,0a17.81,17.81,0,0,1-1.69,1.17c-.27.17-.64.34-1,.52-.85.41-1.37.67-1.43.95a.27.27,0,0,0,.06.21.22.22,0,0,0,.19.1,1.28,1.28,0,0,0,.54-.24l.43-.24c.19-.1.46-.22.74-.35a7,7,0,0,0,1.86-1C32.69,23.47,32.88,23.21,32.81,23Zm-4.35,2.63Z"/><path class="cls-1" d="M40.28,38.14a.38.38,0,0,0-.59-.23l-.17.12a2.53,2.53,0,0,1-.27.18l-.19.08a3.63,3.63,0,0,1-.45.14l-.07,0h0l-1.18-1.88a.15.15,0,0,1,0-.13.14.14,0,0,1,.1-.07h0c.58-.06,1-.12,1.09-.32a.29.29,0,0,0,0-.22.34.34,0,0,0-.19-.22,1.45,1.45,0,0,0-1.17.09c-.55.27-.65.09-.76-.11s-.17-.32-.4-.22a.3.3,0,0,0-.21.14.26.26,0,0,0,0,.21.73.73,0,0,1,.07.17.17.17,0,0,1,0,.1.15.15,0,0,1-.09.06l-.68.16a.12.12,0,0,1-.14-.07l-.69-1.35a.13.13,0,0,1,0-.18,7.37,7.37,0,0,1,.7-.3l.27-.11a4.28,4.28,0,0,1,.43-.14c.36-.11.71-.21.78-.65v-.1l-.09,0c-.48-.19-1.16.16-1.81.49a7,7,0,0,1-.69.33.12.12,0,0,1-.15-.05,2.11,2.11,0,0,0-.58-.68.35.35,0,0,0-.5.07.37.37,0,0,0,.06.54,4.07,4.07,0,0,1,.36.36.19.19,0,0,1,0,.1.16.16,0,0,1-.08.1l-.15.06c-.91.36-1.08.47-1.12.58v.07l0,0,0,0a.74.74,0,0,0,.32.13,1,1,0,0,0,.52-.09l.13,0,.33-.12.4-.14a.12.12,0,0,1,.13,0,5.65,5.65,0,0,1,.71,1.22.13.13,0,0,1-.06.16,3.78,3.78,0,0,1-.66.26c-.45.14-.69.23-.74.39a.2.2,0,0,0,0,.18l0,.06,1.65-.32a.12.12,0,0,1,.13.05,9.23,9.23,0,0,1,.65,1.3c.17.43.27.67.44.71a.21.21,0,0,0,.18,0L36.2,39l-.78-2.08a.14.14,0,0,1,0-.11.17.17,0,0,1,.1-.06l.27-.06a2.15,2.15,0,0,1,.68-.09.12.12,0,0,1,.1,0L38,38.74l-.15,0c-2.37.74-2.46,1-2.5,1.1a.19.19,0,0,0,0,.15.14.14,0,0,0,.09.11c.17.1.52,0,1.42-.35a11.49,11.49,0,0,1,1.47-.49l.05.07v0c.08.16.16.36.25.56.38.87.68,1.49,1,1.59l.1,0a.3.3,0,0,0,.16,0,.22.22,0,0,0,.12-.11c.09-.23-.15-.69-.77-1.71l-.29-.49v0a.53.53,0,0,1-.06-.1c.13-.06.28-.11.45-.17a3,3,0,0,0,.82-.39h0A.38.38,0,0,0,40.28,38.14Z"/></svg>