<svg xmlns="http://www.w3.org/2000/svg" width="37.949" height="37.768" viewBox="0 0 37.949 37.768">
    <g id="Group_1228" data-name="Group 1228" transform="translate(-328.397 -1207.829)">
        <path id="Path_1361" data-name="Path 1361" d="M347.044,1207.829c-10.836.026-18.813,10.108-18.644,19.562.027,10.306,8.052,18.174,18.49,18.205a19.4,19.4,0,0,0,19.456-19.157C366.33,1218.806,359.99,1207.8,347.044,1207.829Zm-8.169,35.337a1.806,1.806,0,0,1,1.5.359C339.774,1243.957,339.465,1243.44,338.874,1243.166Zm20.218-2.505c-.409.671-1.227.332-1.68.951a5.648,5.648,0,0,1-1.792,1.243c-.2.114-.5.047-.751.063.088.349-.173.458-.409.542a30.667,30.667,0,0,1-3.985,1.133c-2.346.5-4.628.059-6.933.118a4.179,4.179,0,0,1-2.462-.713c.143-.44.439-.328.647-.289a20.38,20.38,0,0,0,8.194-.177c.454-.1.9-.347,1.257.164.321-.742,1.175-.347,1.692-.808a1.9,1.9,0,0,1,1.774-.665c.675-1.209,1.98-1.568,3.083-2.143a.965.965,0,0,0,.5-.51,1.99,1.99,0,0,1,.976-.8c.488.153.529.833,1.038.979A1.825,1.825,0,0,0,359.093,1240.66Zm1.165-.936a3.081,3.081,0,0,1-.426-1.679l1.034,1.171c-.026-.007-.019,0-.007,0C360.483,1239.174,360.366,1239.444,360.258,1239.724Zm.616-.506h0c-.148-.386-.314-.766-.437-1.159a.665.665,0,0,1,.248-.828c.393-.248.527.141.738.332.149.135.3.269.449.406-.07-.03-.139-.063-.211-.089l.215.1A1.8,1.8,0,0,0,360.874,1239.218Zm2.658-4.335c-.325,1.149-1.235,1.988-1.642,3.094h0s0-.005,0,0l0,0-.005,0c-.148-.324-.305-.643-.439-.973a1.692,1.692,0,0,1-.086-.45c-.073-.667.86-.349.855-.8a1.214,1.214,0,0,1,.623-1.253c.1-.05.283.08.428.127-.056-.584-.23-1.193.377-1.676.321.036.44.312.607.53l.093.1v.006l0,0h0C364.066,1234.015,364.057,1234.61,363.532,1234.884Zm.778-1.522.026.216a.291.291,0,0,1-.026-.216l-.086-.7C364.5,1232.942,364.351,1233.162,364.31,1233.362Zm.916-6.9a.26.26,0,0,1,.239-.084c.449.209.2.576.283,1.055C365.155,1227.143,365.093,1226.831,365.227,1226.464Zm.026,1.5c.633.629.237,1.166.117,1.8C364.648,1229.139,364.883,1228.6,365.253,1227.965Zm-.613,2.239a.279.279,0,0,1,.266-.056c.4.313.334.679.13,1.077C364.558,1230.978,364.393,1230.654,364.64,1230.2Zm-.129,1.449c.074.129.059.275-.108.314a.261.261,0,0,1-.214-.128.235.235,0,0,1,.122-.336C364.375,1231.549,364.472,1231.585,364.511,1231.654Zm-1.469-6.393c-.833.024-1.668.007-2.5.036a.576.576,0,0,0-.589.415c-.059.283.167.468.366.639a2.263,2.263,0,0,0,1.636.313c2.661.024,2.375-.206,1.812,2.239a16.8,16.8,0,0,1-4.577,8.133,7.443,7.443,0,0,1-1.4-1.259c-.258-.216-.5-.679-.894-.363-.347.275-.055.67.023,1.016.149.66.776.955,1.114,1.491-.226.645-.824.921-1.319,1.271a17.773,17.773,0,0,1-7.855,3.278c-.749.105-1.049-.089-1.043-.87a4.91,4.91,0,0,0-.182-2.01c-.148-.351-.33-.715-.75-.687-.5.035-.451.488-.457.839-.011.73,0,1.46.009,2.19.007.589-.278.826-.865.817a16.764,16.764,0,0,1-9.8-3.185c-.569-.411-.553-.776-.12-1.272a14.541,14.541,0,0,0,1.016-1.382.57.57,0,0,0-.049-.837.6.6,0,0,0-.724-.008,4.151,4.151,0,0,0-1.993,1.809,11.784,11.784,0,0,1-2.229-2.847,14.247,14.247,0,0,1-2.038-6.976c-.018-1.021,0-1.035,1.041-1.066.729-.021,1.461.031,2.189-.006.688-.035,1.161-.509,1.073-1.062-.1-.63-.529-.78-1.141-.777a15.4,15.4,0,0,1-2.932-.011,3.44,3.44,0,0,1,.228-1.881,17.4,17.4,0,0,1,3.948-7.372c.887-.989.89-.979,1.752-.05a10.69,10.69,0,0,0,.992.994c.324.268.73.5,1.121.132.351-.329.088-.71-.09-.991a13.386,13.386,0,0,0-1.137-1.489c-.38-.446-.392-.78.114-1.152a19.121,19.121,0,0,1,8.4-3.588c.764-.124.9.21.883.839-.014.52.007,1.043.043,1.562.026.38.144.788.611.738.41-.045.8-.251.795-.79-.007-.573.009-1.147-.015-1.72-.024-.555.121-.893.769-.88a16.988,16.988,0,0,1,9.417,2.93c.527.357.5.7.118,1.141a5.235,5.235,0,0,0-1.029,1.559.641.641,0,0,0,.169.842.682.682,0,0,0,.868-.042,9.361,9.361,0,0,0,1.651-1.782c.183.056.305.056.367.118a14.82,14.82,0,0,1,4.389,9.754C364.3,1225.18,364.225,1225.226,363.042,1225.261Z" fill="#587c94"/>
        <path id="Path_1362" data-name="Path 1362" d="M392.226,1244.081c-.42.03-.354.434-.384.732-.017.169-.073.288-.459.315a35.655,35.655,0,0,0-3.3-3.327,2.12,2.12,0,0,1-.759-1.775c.04-2.348.013-4.7.034-7.045,0-.385-.142-.817.223-1.22.326.285.618.565.937.81a.452.452,0,0,0,.577,0c.216-.174.116-.391,0-.553a9.477,9.477,0,0,0-1.763-1.98c-.245-.194-.557-.412-.829-.118-.6.649-1.166,1.333-1.723,2.021a.383.383,0,0,0,.078.558c.215.17.365-.01.536-.115.328-.2.564-.648,1.1-.422,0,2.6.054,5.21-.026,7.813a3.119,3.119,0,0,0,1.056,2.606c1.268,1.186,2.443,2.473,3.671,3.731-.452.227-.986.1-1.54.769a16.45,16.45,0,0,0,3.928.668l-.872-2.928C392.628,1244.36,392.493,1244.062,392.226,1244.081Z" transform="translate(-40.131 -15.642)" fill="#587c94"/>
    </g>
</svg>
