<svg data-name="Layer 1" xmlns="http://www.w3.org/2000/svg" viewBox="0 0 56.69 56.69"><defs><style>.cls-1{fill:#4c6b7f;}</style></defs><title>Recepidia_Icons</title><g id="Group_1228" data-name="Group 1228"><path id="Path_1361" data-name="Path 1361" class="cls-1" d="M28.15,12.43c-9.27,0-16.1,8.65-15.95,16.75A15.47,15.47,0,0,0,28,44.75,16.59,16.59,0,0,0,44.67,28.36,16.36,16.36,0,0,0,28.15,12.43Zm-7,30.24a1.55,1.55,0,0,1,1.28.31c-.51.37-.77-.07-1.28-.31Zm17.3-2.14c-.35.58-1.05.29-1.44.82a4.67,4.67,0,0,1-1.53,1.06c-.17.1-.43,0-.64.05.07.3-.15.39-.35.47a26.55,26.55,0,0,1-3.41,1c-2,.42-4,.05-5.93.1a3.59,3.59,0,0,1-2.11-.61c.12-.38.37-.28.55-.25a17.6,17.6,0,0,0,7-.15c.39-.09.77-.3,1.08.14.27-.64,1-.3,1.45-.69a1.6,1.6,0,0,1,1.52-.57c.57-1,1.69-1.34,2.63-1.84a.79.79,0,0,0,.43-.43,1.67,1.67,0,0,1,.84-.69c.42.13.45.72.89.84a1.55,1.55,0,0,0-1,.78Zm1-.8a2.67,2.67,0,0,1-.37-1.44l.89,1h0c-.32,0-.42.19-.51.43ZM40,39.3h0c-.13-.33-.27-.66-.38-1a.58.58,0,0,1,.21-.71c.34-.22.46.12.64.28l.38.35-.18-.08.18.09A1.52,1.52,0,0,0,40,39.3Zm2.27-3.71c-.28,1-1.06,1.7-1.4,2.65h0c-.12-.28-.26-.56-.37-.84A1.23,1.23,0,0,1,40.4,37c-.06-.57.74-.3.73-.69a1,1,0,0,1,.54-1.07c.08,0,.24.07.36.11,0-.5-.19-1,.33-1.44.27,0,.37.27.52.46l.08.08h0c-.24.36-.25.87-.7,1.11Zm.67-1.3,0,.18a.23.23,0,0,1,0-.18l-.08-.6C43.09,33.93,43,34.11,42.93,34.29Zm.78-5.91a.23.23,0,0,1,.21-.07c.38.18.17.49.24.9-.51-.25-.56-.51-.45-.83Zm0,1.28c.54.54.21,1,.1,1.54-.61-.53-.41-1-.1-1.53Zm-.52,1.92a.27.27,0,0,1,.23,0c.34.27.28.58.11.92-.41-.21-.55-.48-.34-.87Zm-.11,1.24c.06.11,0,.24-.09.27a.24.24,0,0,1-.19-.11.21.21,0,0,1,.08-.28h0s.14.07.17.13Zm-1.26-5.47c-.71,0-1.43,0-2.14,0a.49.49,0,0,0-.5.36c-.05.24.14.4.31.54a1.93,1.93,0,0,0,1.4.27c2.28,0,2-.18,1.55,1.92a14.38,14.38,0,0,1-3.92,7,6.42,6.42,0,0,1-1.19-1.08c-.22-.19-.43-.58-.77-.31s0,.57,0,.87c.13.56.67.81.95,1.27-.19.56-.7.79-1.12,1.09a15.21,15.21,0,0,1-6.73,2.81c-.64.09-.89-.08-.89-.75a4.17,4.17,0,0,0-.15-1.72c-.13-.3-.29-.61-.65-.59s-.38.42-.39.72c0,.63,0,1.25,0,1.88s-.24.7-.74.69a14.29,14.29,0,0,1-8.39-2.72c-.48-.35-.47-.67-.1-1.09a14.34,14.34,0,0,0,.87-1.18.49.49,0,0,0,0-.69l0,0a.53.53,0,0,0-.62,0,3.58,3.58,0,0,0-1.71,1.55A10.16,10.16,0,0,1,15,35.71a12.26,12.26,0,0,1-1.75-6c0-.88,0-.89.89-.92.63,0,1.25,0,1.88,0s1-.44.91-.91-.45-.67-1-.66a14,14,0,0,1-2.51,0,2.94,2.94,0,0,1,.19-1.61A14.9,14.9,0,0,1,17,19.32c.76-.85.76-.84,1.5-.05a9.86,9.86,0,0,0,.85.86c.28.22.63.42,1,.11s.08-.61-.08-.85a10.92,10.92,0,0,0-1-1.27c-.33-.39-.34-.67.1-1a16.37,16.37,0,0,1,7.19-3.07c.65-.11.77.18.75.72s0,.89,0,1.33.12.68.52.64.69-.22.68-.68,0-1,0-1.47.1-.77.66-.75a14.58,14.58,0,0,1,8.06,2.5c.45.31.42.6.1,1a4.53,4.53,0,0,0-.88,1.33.53.53,0,0,0,.14.72.57.57,0,0,0,.74,0,8.24,8.24,0,0,0,1.42-1.53c.15.05.26.05.31.1a12.7,12.7,0,0,1,3.76,8.35c.06,1,0,1.05-1,1.08Z"/><path id="Path_1362" data-name="Path 1362" class="cls-1" d="M32.47,30.07c-.36,0-.3.37-.32.63s-.07.25-.4.27a31.61,31.61,0,0,0-2.82-2.85,1.81,1.81,0,0,1-.65-1.52c0-2,0-4,0-6,0-.33-.12-.7.19-1,.28.24.53.48.8.69a.38.38,0,0,0,.49,0c.19-.15.1-.33,0-.47a8.36,8.36,0,0,0-1.5-1.7c-.21-.16-.48-.35-.71-.1-.52.56-1,1.14-1.48,1.73a.33.33,0,0,0,0,.46l0,0c.18.15.31,0,.46-.1s.48-.55.94-.36c0,2.23,0,4.46,0,6.69a2.67,2.67,0,0,0,.9,2.23c1.09,1,2.09,2.11,3.14,3.19-.39.19-.84.09-1.32.66a14.32,14.32,0,0,0,3.37.57l-.75-2.51C32.82,30.31,32.7,30.06,32.47,30.07Z"/></g></svg>