<svg xmlns="http://www.w3.org/2000/svg" width="38" height="38" viewBox="0 0 38 38">
  <g data-name="Group 1228" fill="#587c94">
    <path data-name="Path 1361" d="M19 0C8 0 0 10 0 20s8 18 18 18a19 19 0 0 0 20-19c0-8-6-19-19-19zm-9 35a2 2 0 0 1 2 1l-2-1zm21-2l-2 1a6 6 0 0 1-2 1h-1v1a31 31 0 0 1-4 1h-7a4 4 0 0 1-2-1 20 20 0 0 0 9 0h1l1-1a2 2 0 0 1 2-1l3-2a1 1 0 0 0 1 0 2 2 0 0 1 1-1l1 1a2 2 0 0 0-1 1zm1-1a3 3 0 0 1-1-2l1 1v1zm0-1v-1a1 1 0 0 1 0-1l1 1a2 2 0 0 0-1 1zm3-4l-2 3v-1l1-1a1 1 0 0 1 0-1h1v-2l1 1-1 1zm1-1v-1 1zm1-7v0zm0 1v2-2zm-1 2h1v1l-1-1zm0 2zm-1-7h-3a1 1 0 0 0 0 1v1a2 2 0 0 0 2 0c2 0 2 0 1 2a17 17 0 0 1-4 8 7 7 0 0 1-2-1h-1l1 1 1 1-2 1a18 18 0 0 1-8 4l-1-1a5 5 0 0 0 0-2l-1-1v3l-1 1a17 17 0 0 1-10-3v-2a15 15 0 0 0 1-1 1 1 0 0 0 0-1 1 1 0 0 0-1 0 4 4 0 0 0-1 2 12 12 0 0 1-3-3 14 14 0 0 1-2-7l1-1h2l2-1-2-1a15 15 0 0 1-3 0 3 3 0 0 1 1-2 17 17 0 0 1 4-7h1a11 11 0 0 0 1 1h2L9 8a13 13 0 0 0-1-1V5a19 19 0 0 1 9-3l1 1v2l1-1V3l1-1a17 17 0 0 1 9 3v1a5 5 0 0 0-1 1 1 1 0 0 0 1 1 9 9 0 0 0 2-2 15 15 0 0 1 5 10l-1 1z"/>
    <path data-name="Path 1362" d="M24 21h-1v1a36 36 0 0 0-3-4 2 2 0 0 1-1-1v-7-2l1 1h1a9 9 0 0 0-2-2l-1-1-2 2v1h1l1-1v8a3 3 0 0 0 1 3l4 4h-2a16 16 0 0 0 4 1l-1-3z"/>
  </g>
</svg>
