<svg id="Layer_1" data-name="Layer 1" xmlns="http://www.w3.org/2000/svg" viewBox="0 0 56.69 56.69"><defs><style>.cls-1{fill:#4c6b7f;}</style></defs><title>Recepidia_Icons</title><g id="Group_1227" data-name="Group 1227"><path id="Path_1355" data-name="Path 1355" class="cls-1" d="M19.14,23.1c.24,0,.53.14.6-.22s-.21-.43-.44-.51c-2.13-.69-4-.4-5,1.94A4.55,4.55,0,0,0,14,26.37a4.85,4.85,0,0,0,.21,1.93c.15.32.36.69.78.51s.24-.51.13-.79a2.74,2.74,0,0,1-.17-1.47A4.05,4.05,0,0,1,19.14,23.1Z"/><path id="Path_1356" data-name="Path 1356" class="cls-1" d="M31.21,40.92c.81.15,1.33.21,1.84.33a2.11,2.11,0,0,0,1.38,0A6.22,6.22,0,0,0,31.21,40.92Z"/><path id="Path_1357" data-name="Path 1357" class="cls-1" d="M27.92,42.42h-.28l.28,0,.14,0Z"/><path id="Path_1358" data-name="Path 1358" class="cls-1" d="M21.19,41.61a1.28,1.28,0,0,0,1-.17C21.63,41.53,21.36,41.29,21.19,41.61Z"/><path id="Path_1359" data-name="Path 1359" class="cls-1" d="M28.6,41a.76.76,0,0,0,.26,0s0,0,0-.08a1,1,0,0,0-.25,0C28.48,40.9,28.47,41,28.6,41Z"/><path id="Path_1360" data-name="Path 1360" class="cls-1" d="M44.15,25.94a7,7,0,0,0-2.73-5c-2.06-1.62-4.33-1.61-6.74-.79a14,14,0,0,0-.82-2.67,6.93,6.93,0,0,0-6.83-4,6.7,6.7,0,0,0-5.84,5.85c-.05.34,0,.72-.34.94a.92.92,0,0,1-.29,0c-2.63-1.46-5.06-.68-7.43.66a3.33,3.33,0,0,0-1.32,1.41,7.55,7.55,0,0,0-.58,6.53,7.72,7.72,0,0,0,4.11,4.41,2,2,0,0,1,1.34,2.29,59.16,59.16,0,0,0,0,6.79c.06,1.65.61,2.23,2.19,2.55a50.46,50.46,0,0,0,15.32.33c.75-.07,1.5-.15,2.24-.29,1.25-.22,1.29-.26,1.5-1.49a15,15,0,0,0,.19-1.64c.08-1.66.19-3.32.2-5a40.49,40.49,0,0,0-.15-6c-.09-.67-.33-1.26-1-1.22s-.5.74-.55,1.21,0,.7,0,1.05v6c0,2.26,0,2.26-2.37,2.53.61.06,1,.07,1.29.12s1.08-.11,1,.57a1.23,1.23,0,0,1-1.07,1.07q-.3,0-.6,0c-1.17,0-2.26-.51-3.37-.6-2.4-.18-4.82,0-7.24,0v.29c.75,0,1.5,0,2.25,0,3.14.17,6.23.75,9.35,1.17.37,0,.71.08.71.56s-.4.62-.83.6c-1.16,0-2.31-.14-3.47-.17L19.73,43.6c-.4,0-.88.14-1.28-.43,1.47-.64,2.95,0,4.43-.43a4.81,4.81,0,0,0-1.69-.09c-.71,0-1.41,0-2.12,0-.25,0-.52,0-.58-.36s-.07-.6.36-.68c.07,0,.31.14.23-.17-.17-.69-.16-.68.55-.72a8.54,8.54,0,0,0,2.42-.17c-.94-.6-1.86-.08-2.54-.69,4.47-.38,8.9.35,13.58.24-.77-.32-1.42,0-2.25-.57,1.15,0,2,0,2.83,0,.32,0,.81.05.77-.47s-.44-.32-.73-.33c-1.41,0-2.82-.08-4.22-.06a89.75,89.75,0,0,1-10.11-.23c-1.06-.11-1.11-.09-1.11-1.14,0-1.92-.14-3.83,0-5.74a3,3,0,0,0,0-.6c-.06-.64-.48-.78-1.06-.77s-.6.37-.62.8a4.64,4.64,0,0,1-.1,1.74,6.5,6.5,0,0,1-4-7.62,5.34,5.34,0,0,1,8.66-3c.27.25.49.66,1,.59.32-.32.19-.75.23-1.13a13.25,13.25,0,0,1,.62-3.25,4.5,4.5,0,0,1,3.58-3.12,6.38,6.38,0,0,1,6.47,3.66l-.06,0A3.29,3.29,0,0,1,33.51,20q.09.39.15.78a4.05,4.05,0,0,1,.12.85,3.94,3.94,0,0,1-.45,1.81,11.85,11.85,0,0,1-.78,1.33c-.08.12-.16.24-.23.37.44.71.64.61,1.18-.24a8.48,8.48,0,0,0,.67-1.35,2.73,2.73,0,0,1,3-2.08,6.5,6.5,0,0,1,3.32,1.15,4.72,4.72,0,0,1,2,4.2,10.78,10.78,0,0,1-.37,1.88,3.17,3.17,0,0,1-.8,1.59c0,.11-.34.42-.42.51l-.46.54a2.73,2.73,0,0,0-.63,1,2.53,2.53,0,0,0,1.37-.33,4.35,4.35,0,0,0,1.19-.86A6.24,6.24,0,0,0,44,28.35,7.26,7.26,0,0,0,44.15,25.94Z"/></g></svg>