<svg xmlns="http://www.w3.org/2000/svg" width="45.426" height="40.741" viewBox="0 0 45.426 40.741">
    <g id="Group_1226" data-name="Group 1226" transform="translate(-760.578 -1207.925)">
        <path id="Path_1347" data-name="Path 1347" d="M818.26,1243.465c-1.387-1.566-2.879-3.073-4.322-4.531q-.553-.558-1.105-1.118c-.632-.643-1.263-1.31-1.873-1.956a61.934,61.934,0,0,0-4.433-4.381c-.074-.063-.144-.137-.216-.211a1.111,1.111,0,0,0-1.108-.484c-.468.124-.684-.116-.957-.421-.057-.064-.114-.127-.173-.188-3.471-3.538-7.6-7.71-11.9-11.822l-.613-.585a59.458,59.458,0,0,1-4.428-4.533,28.822,28.822,0,0,0-4.993-4.792c-.178-.13-.358-.256-.514-.364l-.217-.152-.05,0c-.476-.007-.676.286-.912.883a9.576,9.576,0,0,0-.274,6.548,29.564,29.564,0,0,0,1.841,4.685,47.732,47.732,0,0,0,11.22,14.237,13.415,13.415,0,0,0,1.24.988c.993.673,1.393.642,2.254-.179q.209-.2.421-.4a20.288,20.288,0,0,0,1.692-1.723c.261-.312.473-.462.667-.471a.858.858,0,0,1,.6.328,7.1,7.1,0,0,0,.593.51c.125.1.25.2.37.3.373.325.267.582.155.747-.6.884-.054,1.451.429,1.952.537.555,1.1,1.1,1.641,1.633.961.938,1.955,1.908,2.841,2.951a71.932,71.932,0,0,0,7.172,7.247,1.678,1.678,0,0,0,1.123.5,1.872,1.872,0,0,0,.886-.257,7.707,7.707,0,0,0,3.154-2.852A1.514,1.514,0,0,0,818.26,1243.465Zm-4.294,3.551c-.386-.394-.8-.775-1.192-1.143-.356-.33-.724-.672-1.071-1.02-2.173-2.179-4.268-4.5-6.293-6.753q-.939-1.043-1.881-2.081l-.083-.091c-.479-.521-.75-.87-.3-1.45.52-.665,1.521-1.527,1.935-1.527a.188.188,0,0,1,.116.034c.021.016.048.035.079.055a.887.887,0,0,1,.464.812,5.414,5.414,0,0,1-.274,1.107c-.139.443-.165.523-.018.592.04.02.147.05.241-.091a3.531,3.531,0,0,0,.284-.561c.051-.118.1-.237.164-.356a2.312,2.312,0,0,1,.152-.257c.156-.224.241-.164.3-.121a.33.33,0,0,1,.126.267,1.243,1.243,0,0,1-.282.612,1.838,1.838,0,0,0-.284.627.3.3,0,0,0,.011.206.232.232,0,0,0,.174.134.442.442,0,0,0,.352-.174,1.007,1.007,0,0,0,.194-.32c.029-.072.054-.146.078-.22a1.463,1.463,0,0,1,.149-.353.486.486,0,0,1,.05-.065.362.362,0,0,1,.064.016.633.633,0,0,1,.4.37c.088.3-.185.711-.366.982-.142.214-.228.343-.2.469l.031.094.044.029a.24.24,0,0,0,.206.07c.156-.023.233-.185.315-.356a1.22,1.22,0,0,1,.108-.2c.39-.5.579-.62.941-.363.552.392.552.392.615.465a3.1,3.1,0,0,0,.231.244c.053.052.12.11.191.172.2.178.512.445.512.628a3.713,3.713,0,0,1-.565,1.307c-.253.438-.339.585-.214.712l.067.06.079-.008c.274-.027,1.2-1.421,1.212-1.435a.1.1,0,0,1,.068-.043.086.086,0,0,1,.067.019.723.723,0,0,1,.306.475c.013.24-.221.486-.447.724a1.818,1.818,0,0,0-.47.66.293.293,0,0,0,0,.149l-.073.05.019.195.088.041.061-.126a.286.286,0,0,0,.032.029.111.111,0,0,0,.015.007l.051.075-.049-.075a.307.307,0,0,0,.353-.028,3.377,3.377,0,0,0,.415-.468c.218-.276.489-.618.69-.618h0c.025,0,.1,0,.206.13a.812.812,0,0,1-.1,1c-.065.1-.138.2-.212.333a.28.28,0,0,0,0,.277.273.273,0,0,0,.232.141c.53.021.681-.757.769-1.221.109.131.247.323.327.435s.154.213.2.269.111.125.177.195a2.139,2.139,0,0,1,.347.427c-.061.11-.109.2-.151.284a2.187,2.187,0,0,1-.807.912.24.24,0,0,0-.035.333.234.234,0,0,0,.317.074c.213-.134.364-.218.481-.283a2.149,2.149,0,0,0,.819-.735q.37.358.728.7c.714.686,1.388,1.334,2.04,2a.5.5,0,0,1,.133.394.481.481,0,0,1-.187.349,7.025,7.025,0,0,0-.955.869,4.987,4.987,0,0,1-1.254,1.041C814.551,1247.369,814.285,1247.34,813.967,1247.016Zm-10.437-15.083c-.02.19-.219.4-.665.705-.391.266-.6.258-.873-.038-.256-.279-.535-.541-.806-.794-.255-.238-.519-.485-.757-.742a1.043,1.043,0,0,0-1.691-.051c-.418.387-.856.767-1.28,1.136-.585.508-1.19,1.033-1.754,1.586-.51.5-.851.507-1.354.032-.3-.285-.62-.562-.927-.829-.427-.373-.869-.758-1.269-1.167a44.331,44.331,0,0,1-10.032-15.281,11.833,11.833,0,0,1-.94-4.5,6.73,6.73,0,0,1,.168-1.2.382.382,0,0,1,.265-.315l.044.018a.889.889,0,0,1,.224.114,5.38,5.38,0,0,1,.419.388l20.15,19.551.061.059c.166.161.332.322.492.487C803.393,1231.485,803.55,1231.739,803.53,1231.933Z" transform="translate(-12.795)" fill="#587c94"/>
        <path id="Path_1348" data-name="Path 1348" d="M785.42,1285.774a.964.964,0,0,0-.8-.391.79.79,0,0,0-.736.752c-.057.29-.112.579-.155.808l-.05.271a2.84,2.84,0,0,0,.4,1.933.972.972,0,0,0,.771.45h.025a.946.946,0,0,0,.755-.489A3.423,3.423,0,0,0,785.42,1285.774Zm-.272,2.556h0c-.01.089-.058.383-.281.361a.478.478,0,0,1-.25-.272l-.02-.109a2.683,2.683,0,0,1,.164-2.072A2.621,2.621,0,0,1,785.148,1288.33Z" transform="translate(-15.427 -51.761)" fill="#587c94"/>
        <path id="Path_1349" data-name="Path 1349" d="M776.93,1279.28a1.982,1.982,0,0,0-1.581-1.175l-.159-.044a1.454,1.454,0,0,0-1.333.2.916.916,0,0,0-.421.978.775.775,0,0,0,.744.546c.106.009.211.02.317.03.287.029.578.058.871.058a2.687,2.687,0,0,0,1.5-.4l.115-.072Zm-1.246-.231a1.94,1.94,0,0,1-1.21-.067A1.156,1.156,0,0,1,775.684,1279.049Z" transform="translate(-8.574 -46.818)" fill="#587c94"/>
        <path id="Path_1350" data-name="Path 1350" d="M785.653,1267.294a.768.768,0,0,0-.783-.719.787.787,0,0,0-.741.753,2.859,2.859,0,0,0,.839,2.927l.144.125.1-.159A3.772,3.772,0,0,0,785.653,1267.294Zm-.64,1.35a1.093,1.093,0,0,1-.137-1.03A1.181,1.181,0,0,1,785.013,1268.643Z" transform="translate(-15.684 -39.192)" fill="#587c94"/>
        <path id="Path_1351" data-name="Path 1351" d="M792.656,1278.536a.76.76,0,0,0-.756-.518,1.99,1.99,0,0,0-.667.206l-.1.043a.281.281,0,0,0-.065.5l.044.025a.706.706,0,0,0,.352.017c.119-.016.181-.019.231.015-.036.077-.116.124-.243.194a.911.911,0,0,0-.471.466l-.095.243.261-.018a1.941,1.941,0,0,0,1.214-.474C792.635,1279,792.734,1278.767,792.656,1278.536Z" transform="translate(-20.254 -46.839)" fill="#587c94"/>
        <path id="Path_1352" data-name="Path 1352" d="M775.078,1268.392h0a1.392,1.392,0,0,1-.2-.372,1.154,1.154,0,0,0-.49-.651,1.474,1.474,0,0,1-.382-.39,2.171,2.171,0,0,0-.669-.589.788.788,0,0,0-1.06.154.773.773,0,0,0,.174,1.058c.069.068.138.137.207.207a5.462,5.462,0,0,0,.847.743,3.541,3.541,0,0,1,.7.627.615.615,0,0,0,.458.227.569.569,0,0,0,.265-.068.545.545,0,0,0,.3-.359A.731.731,0,0,0,775.078,1268.392Zm-1.549-.694a1.626,1.626,0,0,1-.466-.476.189.189,0,0,1-.008-.166c.006-.009.005-.024.051-.02a.669.669,0,0,1,.311.131c.028.019.074.058.126.1l.093.078a2.175,2.175,0,0,1,.46.532,2.547,2.547,0,0,0,.194.279.175.175,0,0,1,.021.125.116.116,0,0,1-.026.063s-.006,0-.015,0a.288.288,0,0,1-.085-.03.311.311,0,0,1-.028-.039,2.384,2.384,0,0,0-.564-.529Z" transform="translate(-7.726 -38.982)" fill="#587c94"/>
        <path id="Path_1353" data-name="Path 1353" d="M794.62,1288.576a3.133,3.133,0,0,0-1.962-2.073.282.282,0,0,0-.3.066.291.291,0,0,0-.065.311l.3.754c.06.153.167.469.174.492a2.2,2.2,0,0,0,.562,1.014c.034.037.07.073.106.109a.862.862,0,0,0,.6.282.673.673,0,0,0,.3-.071A.687.687,0,0,0,794.62,1288.576Zm-.922-.144a1.39,1.39,0,0,1-.264-.277.687.687,0,0,1-.136-.282.352.352,0,0,1-.011-.08h.009a.5.5,0,0,1,.21.093.715.715,0,0,1,.233.223.668.668,0,0,1,.089.229.868.868,0,0,1,.014.142v.017A.393.393,0,0,1,793.7,1288.432Z" transform="translate(-21.177 -52.496)" fill="#587c94"/>
        <path id="Path_1354" data-name="Path 1354" d="M775.074,1267.94a15.948,15.948,0,0,0-5.452-9.719,7.932,7.932,0,0,0-2.652-1.45,5.119,5.119,0,0,0-5.72,1.946c-.884,1.076-.9,3.3-.032,4.854l.084.151.147-.091a.932.932,0,0,0,.377-.672.771.771,0,0,1,.226-.489,1.586,1.586,0,0,1-.35,1.158,1.3,1.3,0,0,0-.346,1.575,16.165,16.165,0,0,0,6.3,9.028,4.61,4.61,0,0,0,2.426,1.118c.738,0,1.436-.462,2.608-1.352A5.9,5.9,0,0,0,775.074,1267.94Zm-13.2-6.431c-.052.12-.105.246-.154.378l-.132.359-.172-.341a2.438,2.438,0,0,1-.045-2.172l.083-.239.186.172C762.373,1260.343,762.13,1260.909,761.872,1261.509Zm.825,4.878c-.828-.739-.489-1.422-.1-2.212l.13-.262.162.238a2.035,2.035,0,0,1,.067,2.178l-.092.211Zm1.007,1.374c-.016.059-.123.324-.177.471l-.026.013c-.343-.463-.942-1.266-.166-2l.14-.133.11.158A1.645,1.645,0,0,1,763.7,1267.761Zm1.838,3.508a.247.247,0,0,1-.08.012c-.188,0-.325-.19-.415-.334a3.379,3.379,0,0,1-.244-.505,4.482,4.482,0,0,1-.3-.989.465.465,0,0,1,0-.213.372.372,0,0,1,.127-.17.548.548,0,0,1,.277-.124.473.473,0,0,1,.393.167,1.4,1.4,0,0,1,.2.333,3.619,3.619,0,0,1,.26.615,1.936,1.936,0,0,1,.045.773.732.732,0,0,1-.091.295A.34.34,0,0,1,765.543,1271.269Zm.953.626a.288.288,0,0,1-.2.074.208.208,0,0,1-.117-.085c-.072-.092-.132-.209-.243-.245-.044-.014-.1-.016-.126-.052a.158.158,0,0,1,0-.146.452.452,0,0,0,.261-.3.911.911,0,0,1,.189-.36.363.363,0,0,1,.183-.09.24.24,0,0,1,.1-.006c.026.011.048.057.064.08a1.163,1.163,0,0,1,.167.359.7.7,0,0,1-.149.663A.8.8,0,0,1,766.5,1271.9Zm.784.581c-.047.141-.147.133-.2-.009a.521.521,0,0,1,.08-.551c.054.046.151.088.155.138A1.086,1.086,0,0,1,767.28,1272.476Zm2.347.869a.468.468,0,0,1-.093.086c-.1.081-.179.184-.273.27-.327.295-.625.071-.895-.173-.211-.191-.41-.4-.61-.6a.8.8,0,0,0,.846.106,1.724,1.724,0,0,1,.508-.092.824.824,0,0,1,.48.229.164.164,0,0,1,.053.053A.117.117,0,0,1,769.627,1273.346Zm3.206-1.041c-.978.568-2.039.413-3.342-.489a13.883,13.883,0,0,1-6.293-11.147,3.062,3.062,0,0,1,1.182-2.95,2.325,2.325,0,0,1,1.23-.326,4.32,4.32,0,0,1,2.122.65c3.329,1.929,6.377,7.39,6.4,11.454A2.97,2.97,0,0,1,772.833,1272.3Z" transform="translate(0 -32.465)" fill="#587c94"/>
    </g>
</svg>
