<svg xmlns="http://www.w3.org/2000/svg" width="39.095" height="37.627">
    <g fill="#587c94" data-name="Group 1227">
        <path d="M9.826 11.355c.283.013.621.173.7-.25.07-.364-.242-.5-.516-.593-2.489-.811-4.63-.474-5.848 2.258a5.406 5.406 0 0 0-.4 2.413 5.583 5.583 0 0 0 .244 2.255c.176.37.423.806.912.6.4-.165.286-.6.15-.924a3.165 3.165 0 0 1-.189-1.728 4.732 4.732 0 0 1 4.947-4.031z" data-name="Path 1355"/>
        <path d="M23.93 32.189c.944.165 1.554.24 2.147.384a2.477 2.477 0 0 0 1.613.021 7.293 7.293 0 0 0-3.76-.405z" data-name="Path 1356"/>
        <path d="M20.084 33.935l-.319.019a3 3 0 0 0 .322.036.5.5 0 0 0 .16-.055z" data-name="Path 1357"/>
        <path d="M12.222 32.991a1.524 1.524 0 0 0 1.161-.2c-.641.106-.956-.175-1.161.2z" data-name="Path 1358"/>
        <path d="M20.888 32.296a.7.7 0 0 0 .294-.016c.011 0 .013-.066.019-.1a1.24 1.24 0 0 0-.291-.033c-.171.016-.183.097-.022.149z" data-name="Path 1359"/>
        <path d="M39.059 14.674a8.149 8.149 0 0 0-3.2-5.867c-2.4-1.887-5.061-1.879-7.871-.914a16.158 16.158 0 0 0-.957-3.118A8.109 8.109 0 0 0 19.045.059a7.828 7.828 0 0 0-6.82 6.841c-.062.389.028.842-.4 1.094a.971.971 0 0 1-.341-.039c-3.066-1.7-5.91-.792-8.676.771a3.986 3.986 0 0 0-1.551 1.658 8.818 8.818 0 0 0-.676 7.628 9.032 9.032 0 0 0 4.809 5.151 2.289 2.289 0 0 1 1.568 2.677 67.8 67.8 0 0 0 .022 7.933c.068 1.923.713 2.6 2.557 2.982 5.943 1.222 11.919.978 17.9.385.876-.087 1.756-.177 2.621-.335 1.464-.268 1.5-.315 1.749-1.744a16.071 16.071 0 0 0 .22-1.924c.1-1.937.222-3.875.241-5.813a48.328 48.328 0 0 0-.178-7.046c-.108-.79-.389-1.476-1.216-1.432-.807.042-.59.867-.643 1.414-.039.408-.014.823-.014 1.234v7.057c0 2.641 0 2.641-2.768 2.956.71.064 1.116.075 1.513.143.474.081 1.263-.133 1.174.663a1.448 1.448 0 0 1-1.245 1.25 5.944 5.944 0 0 1-.7-.031c-1.372.048-2.642-.605-3.938-.7-2.807-.212-5.641-.065-8.464-.065v.339c.875 0 1.752-.042 2.623.007 3.673.208 7.288.882 10.926 1.368.437.058.838.1.839.664 0 .677-.477.721-.975.7-1.35-.063-2.7-.17-4.049-.2-4.879-.12-9.758-.212-14.637-.331-.467-.011-1.031.164-1.5-.505 1.724-.741 3.455 0 5.187-.5a6.033 6.033 0 0 0-1.983-.107c-.823.005-1.646.034-2.469.036-.3 0-.61-.055-.678-.413s-.086-.709.414-.8c.081-.016.361.165.272-.195-.2-.812-.187-.8.647-.842a10.212 10.212 0 0 0 2.823-.2c-1.1-.707-2.179-.1-2.964-.807 5.213-.444 10.4.41 15.862.279-.9-.376-1.656-.035-2.63-.664 1.343 0 2.329.022 3.314-.011.373-.013.944.053.9-.547-.034-.449-.519-.381-.855-.388-1.646-.034-3.292-.092-4.937-.072a104.694 104.694 0 0 1-11.807-.27c-1.244-.126-1.3-.1-1.3-1.336 0-2.233-.168-4.468.028-6.7a3.786 3.786 0 0 0 .035-.7c-.077-.754-.571-.916-1.246-.907s-.7.436-.728.938a5.264 5.264 0 0 1-.113 2.033 7.6 7.6 0 0 1-4.66-8.906c1.332-5.229 7.19-6.319 10.115-3.542.315.3.578.772 1.167.69.379-.376.233-.875.273-1.318a15.717 15.717 0 0 1 .724-3.8 5.259 5.259 0 0 1 4.181-3.639c2.917-.532 6.245 1.418 7.56 4.277a.339.339 0 0 1-.068.039 3.759 3.759 0 0 1 .536 1.326c.073.3.128.6.184.908a6.119 6.119 0 0 1 .137.994 4.706 4.706 0 0 1-.525 2.115 13.93 13.93 0 0 1-.919 1.553 6.39 6.39 0 0 0-.262.437c.507.823.746.709 1.373-.287a9.334 9.334 0 0 0 .782-1.575c.693-1.776 1.706-2.56 3.562-2.424a7.57 7.57 0 0 1 3.871 1.339 5.5 5.5 0 0 1 2.387 4.911 11.961 11.961 0 0 1-.436 2.194 3.623 3.623 0 0 1-.932 1.857c0 .129-.4.486-.494.593l-.529.635a3.373 3.373 0 0 0-.742 1.2 2.956 2.956 0 0 0 1.6-.381 4.965 4.965 0 0 0 1.389-1.007 7.2 7.2 0 0 0 1.79-3.334 8.5 8.5 0 0 0 .207-2.817z" data-name="Path 1360"/>
    </g>
</svg>
