<svg xmlns="http://www.w3.org/2000/svg" width="39.894" height="37.319" viewBox="0 0 39.894 37.319">
    <g id="Group_1355" data-name="Group 1355" transform="translate(-195.725 -722.719)">
        <path id="Path_1631" data-name="Path 1631" d="M235.551,808.873a28.691,28.691,0,0,0-6.237-11.846,3.976,3.976,0,0,0-3.331-1.29c-7.645.3-15.294.52-22.942.737a2.833,2.833,0,0,0-1.8.627,14.122,14.122,0,0,0-5.491,12.311c.1,1.677.443,1.912,2.131,1.9q16.019-.1,32.037-.234c.886-.008,1.771-.14,2.656-.229.355-.036.732-.079.724-.741-.114-.483-.339-.633-1.163-.558-.307,0-2.947.092-3.18.061q-9.076.014-18.152.027-6.052.008-12.1.008c-1.636,0-1.67-.015-1.49-1.679a14.311,14.311,0,0,1,3.761-8.46,4.884,4.884,0,0,1,3.6-1.644c6.936-.206,13.87-.464,20.805-.708a2.9,2.9,0,0,1,.658.012c.2.009.4.023.6.048a2.994,2.994,0,0,1,2.27,1.176,3.4,3.4,0,0,1,.39.566,28.551,28.551,0,0,1,4.534,9.664l.586,1.709C235.191,810.085,235.832,809.857,235.551,808.873Z" transform="translate(0 -51.276)" fill="#587c94"/>
        <path id="Path_1632" data-name="Path 1632" d="M246.519,731.089c-1.177-4.878-5.905-8.361-11.434-8.353a8.926,8.926,0,0,0-3.022.422c-5.5,1.524-8.637,6.953-6.925,12.166a11.571,11.571,0,0,0,18.908,4.6A8.751,8.751,0,0,0,246.519,731.089Zm-3.393,7.305a8.563,8.563,0,0,1-7.351,2.876c-3.68-.284-6.62-1.846-8.4-5.179a7.465,7.465,0,0,1,1.93-9.49,9.363,9.363,0,0,1,6.9-2.044,10.172,10.172,0,0,1,3.473.927,9.677,9.677,0,0,1,2.735,2.051,13.17,13.17,0,0,1,1.047,1.3,9.825,9.825,0,0,1,1.026,1.719,7.379,7.379,0,0,1-1,7.4Q243.317,738.182,243.126,738.394Z" transform="translate(-20.328)" fill="#587c94"/>
        <g id="Group_1354" data-name="Group 1354" transform="translate(215.467 726.605)">
            <path id="Path_1633" data-name="Path 1633" d="M265.3,744.493a8.4,8.4,0,0,1-.825.416c-.253.113-.38.17-.4.309a.291.291,0,0,0,.1.246.225.225,0,0,0,.112.127c.2.1.558-.08,1.215-.443.265-.146.556-.307.787-.4l-.264,1.179.348-.316a1.156,1.156,0,0,0,.45-.883.544.544,0,0,1,.067-.272,1.174,1.174,0,0,1,.458-.293c.234-.108.455-.209.522-.4a.349.349,0,0,0-.01-.255.3.3,0,0,0-.127-.253c-.131-.078-.276,0-.461.093-.066.034-.141.073-.223.109a19.117,19.117,0,0,0-.29-2.859,3.325,3.325,0,0,1,1.164-.853l.017.128a13.791,13.791,0,0,1,.156,1.595,6.344,6.344,0,0,1-.055.642c-.068.59-.1.931.031,1.082a.216.216,0,0,0,.154.077.243.243,0,0,0,.191-.073c.327-.319.305-2.2.23-3.729a3.572,3.572,0,0,0-.055-.54,5.708,5.708,0,0,0-.524-1.657c-.054-.09-.1-.18-.155-.27a3.7,3.7,0,0,0-.535-.784l-.069-.073a1.585,1.585,0,0,0-.32-.288c-.288-.18-.454.014-.563.143a2.2,2.2,0,0,0-.238.366,2.277,2.277,0,0,1-.179.288,2,2,0,0,1-.37.359,2.629,2.629,0,0,0-.246.215,2.857,2.857,0,0,1-.625-.675c-.314-.415-.64-.843-1.065-.767a.4.4,0,0,0-.314.273.447.447,0,0,0,.09.446,4.683,4.683,0,0,0,.445.406,3.415,3.415,0,0,1,.739.762,1.716,1.716,0,0,1-.544.459,6.7,6.7,0,0,1-.889.423l-.215.087c-.107.043-.214.085-.321.13l-.062.026a1.781,1.781,0,0,0-.455.245.379.379,0,0,0-.1.1.25.25,0,0,0-.02.216c.012.031.029.054.043.083a.328.328,0,0,0,.018.1.284.284,0,0,0,.213.173.472.472,0,0,0,.2-.009,2.567,2.567,0,0,0,.6-.238l.032-.016c.181-.09.356-.193.525-.293l.37-.219c.184-.11.368-.22.554-.326l.039-.022a3.98,3.98,0,0,1,.4-.207c.1.272.224.524.344.769a5,5,0,0,1,.466,1.213c-.266.181-.778.445-1.274.7-1.2.62-1.384.74-1.379.914a.171.171,0,0,0,.026.086.181.181,0,0,0,.065.1c.15.116.409.009,1.444-.5.456-.223.965-.471,1.356-.617.024.126.049.251.074.376a7.826,7.826,0,0,1,.222,2.311A9.746,9.746,0,0,1,265.3,744.493Zm1.239-4.7-.851-1.717a3.313,3.313,0,0,0,.7-.672,3.163,3.163,0,0,1,.407-.427,4.85,4.85,0,0,1,.946,1.868Z" transform="translate(-262.038 -735.772)" fill="#587c94"/>
            <path id="Path_1634" data-name="Path 1634" d="M274.374,764.952c-.044-.122-.162-.188-.35-.2l-.054,0-.043.033a22.49,22.49,0,0,1-2.015,1.4c-.321.194-.763.407-1.19.612-1.017.489-1.643.8-1.71,1.135a.293.293,0,0,0,.066.252.27.27,0,0,0,.227.118,1.561,1.561,0,0,0,.651-.285c.147-.088.317-.189.512-.291.218-.114.539-.258.879-.41a8.908,8.908,0,0,0,2.217-1.214C274.236,765.489,274.456,765.178,274.374,764.952Zm-5.18,3.139Z" transform="translate(-266.931 -756.126)" fill="#587c94"/>
            <path id="Path_1635" data-name="Path 1635" d="M293.3,812.146a.457.457,0,0,0-.7-.278c-.075.049-.14.1-.205.145a3.424,3.424,0,0,1-.319.216c-.1.033-.166.062-.235.091a2.9,2.9,0,0,1-.529.169c-.03.007-.057.015-.082.023l-.022.006-1.4-2.249a.152.152,0,0,1-.008-.148.15.15,0,0,1,.12-.085l.04,0c.687-.076,1.149-.144,1.3-.381a.3.3,0,0,0,.035-.257.382.382,0,0,0-.228-.269,1.727,1.727,0,0,0-1.39.112c-.653.319-.774.1-.9-.132-.079-.141-.21-.38-.483-.264-.114.036-.205.071-.246.162a.291.291,0,0,0,.034.25,1.469,1.469,0,0,1,.08.2.145.145,0,0,1-.015.116.156.156,0,0,1-.1.074l-.814.193a.155.155,0,0,1-.172-.079l-.824-1.619a.155.155,0,0,1,.066-.206,8.936,8.936,0,0,1,.831-.363c.109-.043.217-.087.323-.13a4.8,4.8,0,0,1,.511-.17c.438-.127.851-.247.932-.775l.018-.117-.111-.044c-.574-.224-1.379.187-2.157.585-.3.153-.579.3-.826.393a.151.151,0,0,1-.182-.066,2.526,2.526,0,0,0-.685-.811.431.431,0,0,0-.6.088.45.45,0,0,0,.069.639,4.615,4.615,0,0,1,.431.429.151.151,0,0,1,.034.13.155.155,0,0,1-.085.109c-.02.009-.086.035-.179.072-1.092.429-1.3.561-1.339.693l-.02.088.038.059.039.041a.842.842,0,0,0,.38.165,1.363,1.363,0,0,0,.624-.117l.153-.051c.141-.046.269-.1.393-.145a3.728,3.728,0,0,1,.483-.166.152.152,0,0,1,.156.045,7.223,7.223,0,0,1,.839,1.459.153.153,0,0,1-.066.193,5.31,5.31,0,0,1-.787.3c-.542.177-.827.279-.89.47a.234.234,0,0,0,.035.213l.056.078,1.966-.389a.152.152,0,0,1,.158.065,10.067,10.067,0,0,1,.766,1.551c.214.512.332.793.527.842a.247.247,0,0,0,.218-.054l.082-.068L287.5,810.7a.148.148,0,0,1,.009-.125.161.161,0,0,1,.11-.079c.116-.023.222-.048.325-.073a2.768,2.768,0,0,1,.817-.108.148.148,0,0,1,.113.067l1.665,2.473a1.256,1.256,0,0,1-.187.069c-2.826.88-2.931,1.182-2.977,1.311a.227.227,0,0,0,.009.179.223.223,0,0,0,.1.129c.206.121.629-.02,1.7-.421a15.074,15.074,0,0,1,1.76-.586.464.464,0,0,1,.051.092l.017.035c.093.19.2.423.3.669.452,1.035.8,1.777,1.2,1.9a.389.389,0,0,0,.114.017.38.38,0,0,0,.194-.054.241.241,0,0,0,.14-.138c.109-.271-.181-.823-.915-2.042-.129-.213-.248-.412-.342-.577l-.024-.041a1.081,1.081,0,0,1-.061-.115c.149-.071.333-.136.527-.2a3.5,3.5,0,0,0,.987-.463h0A.467.467,0,0,0,293.3,812.146Z" transform="translate(-276.945 -785.284)" fill="#587c94"/>
        </g>
    </g>
</svg>
