<svg data-name="Layer 1" xmlns="http://www.w3.org/2000/svg" viewBox="0 0 56.69 56.69"><defs><style>.cls-1{fill:#4c6b7f;}</style></defs><title>Recepidia_Icons</title><g id="Group_1226" data-name="Group 1226"><path id="Path_1347" data-name="Path 1347" class="cls-1" d="M48,41.63c-1.19-1.34-2.47-2.63-3.7-3.87l-1-1c-.54-.55-1.08-1.12-1.6-1.67a49.79,49.79,0,0,0-3.8-3.75l-.18-.18a1,1,0,0,0-1-.42c-.4.11-.58-.1-.82-.36,0-.05-.09-.11-.15-.16-3-3-6.5-6.6-10.18-10.12l-.52-.5a49.57,49.57,0,0,1-3.79-3.88,24.8,24.8,0,0,0-4.28-4.1l-.44-.31-.18-.13h0c-.41,0-.58.25-.78.76a8.17,8.17,0,0,0-.24,5.6,25.12,25.12,0,0,0,1.58,4,40.73,40.73,0,0,0,9.6,12.18,10.66,10.66,0,0,0,1.06.85c.85.57,1.19.55,1.93-.15l.36-.35a18.3,18.3,0,0,0,1.45-1.47c.22-.27.4-.4.57-.4a.7.7,0,0,1,.51.28,5.27,5.27,0,0,0,.51.43l.32.26c.31.28.22.5.13.64-.52.76,0,1.24.37,1.67s.94.94,1.4,1.4c.82.8,1.67,1.63,2.43,2.52a62,62,0,0,0,6.14,6.2,1.4,1.4,0,0,0,1,.43,1.56,1.56,0,0,0,.76-.22,6.62,6.62,0,0,0,2.7-2.44A1.3,1.3,0,0,0,48,41.63Zm-3.68,3c-.33-.34-.68-.66-1-1s-.62-.57-.92-.87C40.49,41,38.7,39,37,37l-1.61-1.78-.07-.08c-.41-.44-.64-.74-.26-1.24s1.3-1.3,1.66-1.3a.12.12,0,0,1,.1,0s0,0,.06.05a.76.76,0,0,1,.4.7,4.3,4.3,0,0,1-.23.94c-.12.38-.14.45,0,.51s.13,0,.21-.08a3.58,3.58,0,0,0,.24-.48c0-.1.09-.2.14-.3a1.59,1.59,0,0,1,.13-.22c.13-.19.21-.14.26-.11a.3.3,0,0,1,.11.23,1,1,0,0,1-.25.53,1.7,1.7,0,0,0-.24.53.28.28,0,0,0,0,.18.19.19,0,0,0,.15.11.37.37,0,0,0,.3-.14,1,1,0,0,0,.17-.28l.06-.19a1.94,1.94,0,0,1,.13-.3l0-.05h.06a.54.54,0,0,1,.34.32c.08.25-.16.6-.31.84s-.2.29-.17.4l0,.08,0,0a.2.2,0,0,0,.18.06c.13,0,.2-.15.27-.3a.56.56,0,0,1,.09-.17c.33-.43.49-.53.8-.31.48.33.48.33.53.39a1.34,1.34,0,0,0,.2.21,1.17,1.17,0,0,0,.16.15c.17.15.44.38.44.54a3.28,3.28,0,0,1-.48,1.12c-.22.37-.29.5-.19.61l.06.05h.07c.23,0,1-1.22,1-1.23a.05.05,0,0,1,0,0,.07.07,0,0,1,.06,0,.63.63,0,0,1,.26.41c0,.2-.19.41-.38.62a1.6,1.6,0,0,0-.4.56.29.29,0,0,0,0,.13l-.06,0V39l.08,0,.05-.11,0,0h0l0,.06,0-.06a.24.24,0,0,0,.3,0,2.77,2.77,0,0,0,.36-.4c.19-.23.42-.52.59-.52h0s.08,0,.18.11a.69.69,0,0,1-.09.85,2.45,2.45,0,0,0-.18.29.24.24,0,0,0,0,.23.21.21,0,0,0,.2.12c.45,0,.58-.64.65-1a3.61,3.61,0,0,1,.28.37c.07.1.14.18.18.23l.15.17a2,2,0,0,1,.29.36l-.12.25a2,2,0,0,1-.7.78.21.21,0,0,0,0,.28.22.22,0,0,0,.28.07c.18-.12.31-.19.41-.25a1.9,1.9,0,0,0,.7-.62l.62.59c.61.59,1.19,1.15,1.75,1.72a.44.44,0,0,1,.11.33.43.43,0,0,1-.16.3,5.79,5.79,0,0,0-.82.75,4.38,4.38,0,0,1-1.07.89c-.41.2-.64.18-.91-.1ZM35.36,31.76c0,.17-.19.35-.57.61s-.51.22-.75,0a8.84,8.84,0,0,0-.69-.68c-.21-.21-.44-.42-.64-.64a.9.9,0,0,0-1.24-.24,1,1,0,0,0-.21.2c-.36.33-.73.65-1.1,1s-1,.88-1.5,1.36-.73.43-1.16,0c-.25-.24-.53-.48-.79-.71s-.74-.64-1.09-1A38.06,38.06,0,0,1,17,18.55a10.21,10.21,0,0,1-.81-3.85,6,6,0,0,1,.15-1,.32.32,0,0,1,.23-.27l0,0a.56.56,0,0,1,.19.09,3.89,3.89,0,0,1,.36.34L34.44,30.58l.05.05c.14.14.28.27.42.42.33.33.47.55.45.71Z"/><path id="Path_1348" data-name="Path 1348" class="cls-1" d="M17.61,33.54a.83.83,0,0,0-.68-.33.66.66,0,0,0-.63.64l-.14.69,0,.24a2.4,2.4,0,0,0,.34,1.65.86.86,0,0,0,.66.39h0a.82.82,0,0,0,.65-.42A3,3,0,0,0,17.61,33.54Zm-.23,2.19h0c0,.08-.05.33-.24.31a.41.41,0,0,1-.22-.23v-.1a2.23,2.23,0,0,1,.14-1.77,2.31,2.31,0,0,1,.33,1.79Z"/><path id="Path_1349" data-name="Path 1349" class="cls-1" d="M16.21,32.22a1.71,1.71,0,0,0-1.35-1l-.14,0a1.23,1.23,0,0,0-1.14.18.77.77,0,0,0-.36.83.67.67,0,0,0,.64.47l.27,0c.24,0,.49,0,.74,0a2.27,2.27,0,0,0,1.29-.34l.09-.06ZM15.14,32a1.65,1.65,0,0,1-1-.06,1,1,0,0,1,1,.06Z"/><path id="Path_1350" data-name="Path 1350" class="cls-1" d="M17.59,28.49a.65.65,0,0,0-.67-.62.67.67,0,0,0-.63.65A2.42,2.42,0,0,0,17,31l.13.11.08-.14A3.23,3.23,0,0,0,17.59,28.49ZM17,29.64a1,1,0,0,1-.12-.88,1,1,0,0,1,.12.88Z"/><path id="Path_1351" data-name="Path 1351" class="cls-1" d="M19.67,31.56a.65.65,0,0,0-.65-.44,1.52,1.52,0,0,0-.57.18l-.08,0a.25.25,0,0,0-.15.31.27.27,0,0,0,.09.12l0,0a.61.61,0,0,0,.3,0c.1,0,.16,0,.2,0s-.1.11-.21.17a.76.76,0,0,0-.4.39l-.08.21h.22a1.67,1.67,0,0,0,1-.41C19.65,32,19.74,31.76,19.67,31.56Z"/><path id="Path_1352" data-name="Path 1352" class="cls-1" d="M15.35,29.61h0a1.41,1.41,0,0,1-.17-.32,1,1,0,0,0-.42-.56,1.29,1.29,0,0,1-.33-.33,1.85,1.85,0,0,0-.57-.51A.68.68,0,0,0,13,28a.67.67,0,0,0,.15.91l.18.18a4.78,4.78,0,0,0,.72.63,2.58,2.58,0,0,1,.6.54.51.51,0,0,0,.39.19.59.59,0,0,0,.23,0,.5.5,0,0,0,.26-.31A.64.64,0,0,0,15.35,29.61ZM14,29a1.27,1.27,0,0,1-.39-.41.14.14,0,0,1,0-.14s0,0,0,0a.54.54,0,0,1,.27.11l.11.08.08.07a2.11,2.11,0,0,1,.39.45,1,1,0,0,0,.17.24.21.21,0,0,1,0,.11.08.08,0,0,1,0,0h0l-.07,0,0,0a2.1,2.1,0,0,0-.48-.46Z"/><path id="Path_1353" data-name="Path 1353" class="cls-1" d="M20.56,35.31a2.67,2.67,0,0,0-1.68-1.77.23.23,0,0,0-.25.06.25.25,0,0,0-.06.26l.26.65.15.42a1.83,1.83,0,0,0,.48.87l.09.09a.72.72,0,0,0,.51.24.58.58,0,0,0,.26-.06A.59.59,0,0,0,20.56,35.31Zm-.79-.12a1.26,1.26,0,0,1-.22-.24.55.55,0,0,1-.12-.24s0,0,0-.07h0a.58.58,0,0,1,.18.08.73.73,0,0,1,.2.19.48.48,0,0,1,.07.2.5.5,0,0,1,0,.12v0a.23.23,0,0,1-.12-.06Z"/><path id="Path_1354" data-name="Path 1354" class="cls-1" d="M22,34.8a13.64,13.64,0,0,0-4.67-8.32A6.62,6.62,0,0,0,15,25.24a4.37,4.37,0,0,0-4.89,1.66,4.1,4.1,0,0,0,0,4.16l.07.13.13-.08a.83.83,0,0,0,.32-.58.68.68,0,0,1,.19-.42,1.34,1.34,0,0,1-.3,1,1.1,1.1,0,0,0-.29,1.34,13.84,13.84,0,0,0,5.39,7.73,3.92,3.92,0,0,0,2.08,1c.63,0,1.22-.4,2.23-1.16A5,5,0,0,0,22,34.8Zm-11.3-5.51c0,.1-.09.21-.13.33l-.11.3-.15-.29a2.1,2.1,0,0,1,0-1.86l.07-.2.16.15c.63.57.42,1.06.2,1.57Zm.71,4.18c-.71-.64-.42-1.22-.09-1.9l.11-.22.14.2a1.76,1.76,0,0,1,.06,1.87l-.08.18Zm.86,1.17s-.11.28-.15.41h0c-.3-.4-.81-1.09-.15-1.71l.12-.12.1.14a1.39,1.39,0,0,1,.09,1.27Zm1.57,3a.08.08,0,0,1-.07,0c-.16,0-.27-.16-.35-.28a3.42,3.42,0,0,1-.21-.43,4.18,4.18,0,0,1-.26-.85.54.54,0,0,1,0-.18.33.33,0,0,1,.11-.15.51.51,0,0,1,.24-.1.41.41,0,0,1,.34.14,1.61,1.61,0,0,1,.17.28,3.49,3.49,0,0,1,.22.53,1.64,1.64,0,0,1,0,.66.67.67,0,0,1-.08.25.26.26,0,0,1-.15.12Zm.82.54a.22.22,0,0,1-.17.06.14.14,0,0,1-.1-.07c-.06-.08-.12-.18-.21-.21s-.09,0-.11,0a.15.15,0,0,1,0-.13.36.36,0,0,0,.22-.26.75.75,0,0,1,.17-.3.28.28,0,0,1,.15-.08h.09a.18.18,0,0,1,.05.07,1,1,0,0,1,.15.31.62.62,0,0,1-.13.57.48.48,0,0,1-.11.09Zm.67.5c0,.12-.13.11-.17,0a.43.43,0,0,1,.07-.47s.13.07.13.12a1.1,1.1,0,0,1,0,.36Zm2,.74-.08.07a2.72,2.72,0,0,0-.24.24c-.28.25-.53.06-.76-.15l-.52-.52a.68.68,0,0,0,.72.1,1.32,1.32,0,0,1,.44-.08.68.68,0,0,1,.41.19l0,0a.09.09,0,0,1,0,.1ZM20,38.53c-.84.49-1.74.35-2.86-.42a11.86,11.86,0,0,1-5.38-9.54,2.62,2.62,0,0,1,1-2.52,2,2,0,0,1,1-.28,3.6,3.6,0,0,1,1.82.56c2.84,1.65,5.45,6.32,5.47,9.8A2.54,2.54,0,0,1,20,38.53Z"/></g></svg>