<svg rol="img" xmlns="http://www.w3.org/2000/svg" width="60" height="66" viewBox="0 0 60 66">
  <g transform="translate(-489.746 -565)">
    <path data-name="Path 228" class="cls-1" d="M38.1,210.725c.869.081,4.02-3.8,5.025-3.8,1.276,0,1.6,3.83,3.042,3.83.869,0,1.657-2.2,2.173-2.2.6,0,.869,2.2,2.526,2.2,2.091,0,2.77-1.358,3.395-1.358.516,0,1.059,1.3,2.336,1.3a4,4,0,0,0,2.309-.788,2.244,2.244,0,0,0,1.63.842c3.422,0,4.4-3.069,5.079-3.069.625,0,.489,3.042,2.254,3.042,2.336,0,3.938-4.128,3.938-6.328,0-.6-.163-1.059-.652-1.059-.788,0-1.385.923-1.385,2.037,0,1,.244,1.086.244,1.765,0,.923-.489,2.146-1.059,2.146-1.385,0-1.738-5.459-2.553-5.459-.489,0-.733.6-.869,1-.76,2.173-1.793,4.563-3.775,4.563a1.549,1.549,0,0,1-1.059-.407c1.385-.869,2.309-1.765,2.309-2.879,0-.923-.625-2.363-1.684-2.363-1.358,0-2.906,2.037-2.906,4.454a4.052,4.052,0,0,0,.136,1,1.363,1.363,0,0,1-.869.3,2.445,2.445,0,0,1-2.037-1.575c.706-1.521,2.091-3.259,1.82-7.442-.109-1.6-.923-2.58-1.955-2.5-1.412.081-2.716,3.232-2.5,6.6a13.325,13.325,0,0,0,.733,3.341,2.482,2.482,0,0,1-2.118,1.3c-.733,0-1.847-.407-1.847-2.118.516-1.412.163-3.042-.543-3.042-1.032,0-1.385,1.82-1.412,3.123-.353.76-.733,1.385-1.249,1.385-1.548,0-1.684-4.834-2.825-4.834-.923,0-2.526,3.069-3.015,3.069-.272,0-.516-.869-.679-1.738-.054-.244-.109-.516-.244-.543a.982.982,0,0,0-.842.6c-.136.353-.407,1.521-.679,2.58-.163.6-.57,1.874-.625,2.363C37.615,210.426,37.75,210.7,38.1,210.725ZM60.809,205.4c.38,0,.679.489.679,1.059a1.817,1.817,0,0,1-1.277,1.847,2.164,2.164,0,0,1-.462-1.467C59.777,205.755,60.483,205.4,60.809,205.4Zm-5.269-5.323c.516-.027.76.407.815,1.358.136,2.146-.788,4.807-1.168,4.807-.217.027-.435-.217-.516-1.711C54.535,202.279,54.861,200.133,55.54,200.079Z" transform="translate(462.203 420.11)"/>
    <path data-name="Path 229" class="cls-1" d="M78.523,202.48a1.485,1.485,0,0,0,1.249-1.657,1.019,1.019,0,0,0-1.059-.923,1.384,1.384,0,0,0-1.222,1.548A.983.983,0,0,0,78.523,202.48Z" transform="translate(433.198 418.714)"/>
    <path data-name="Path 230" class="cls-1" d="M4.6,213.99c3.531.081,4.943-3.368,5.079-6.192a14.661,14.661,0,0,0-.244-4.644c-.244-.733-.489-1.032-1.114-.869a1.787,1.787,0,0,0-.978,2.091,10.767,10.767,0,0,0,.462,1.548,6.7,6.7,0,0,1,.109,3.2c-.353,2.254-1.168,3.8-3.042,3.775-1.249,0-2.39-.978-2.526-3.449a18.5,18.5,0,0,1,.407-5.432c.163-.923.244-1.738-.516-1.6-.978.217-1.249.6-1.548,1.657a13.857,13.857,0,0,0-.625,4.834C.2,211.953,1.529,213.935,4.6,213.99Z" transform="translate(489.697 417.009)"/>
    <path data-name="Path 231" class="cls-1" d="M173.322,218.051c-.543,0-.815.652-.9.978-.435,1.765-1.738,4.4-3.667,4.4-.462,0-1.249-.163-1.249-.625,0-.489,3.042-.543,3.042-2.879a2.136,2.136,0,0,0-1.983-2.064c-1.548,0-3.069,1.684-3.069,4.047a2.467,2.467,0,0,0,2.634,2.8c2.281,0,3.667-1.874,4.4-3.422.353,1.032.543,3.422,1.412,3.422.353,0,.6-.163,1-1.114,1.032-2.309,2.037-4.97,3.422-4.97.516,0,.217.923,1.439.923a1.008,1.008,0,0,0,1-1.032c0-.788-.733-1.412-1.847-1.412-3.259,0-3.938,4.889-4.454,4.889C173.675,221.962,173.947,218.051,173.322,218.051Zm-5.187,1.168c.733,0,.923.869.76,1.385a2.171,2.171,0,0,1-1.765,1.276C166.939,221.364,166.831,219.218,168.134,219.218Z" transform="translate(368.928 406.185)"/>
    <path data-name="Path 232" class="cls-1" d="M175.688,35.089a.713.713,0,0,0-.788.652c0,.516.489.733,1.222.733,1.9,0,3.639-1.521,3.639-2.852A1.111,1.111,0,0,0,178.7,32.4a.792.792,0,0,1,.19.6C178.892,33.975,177.344,35.089,175.688,35.089Z" transform="translate(362.081 541.454)"/>
    <path data-name="Path 233" class="cls-1" d="M182.575,42.9a4.167,4.167,0,0,1-3.775,1.983c.244,1.738,2.879,4.1,3.585,4.047.489-.054.652-2.281.652-4.047C183.064,43.878,183.118,43.09,182.575,42.9Z" transform="translate(359.24 533.665)"/>
    <path data-name="Path 234" class="cls-1" d="M176.323,32.4c-.6,0-1.385.57-2.227.57a3.443,3.443,0,0,1-.9-.081c.326.244.244.76.435,1.086a.778.778,0,0,0,.815.407c.788,0,2.417-.652,2.417-1.467A.49.49,0,0,0,176.323,32.4Z" transform="translate(363.362 541.454)"/>
    <path data-name="Path 235" class="cls-1" d="M25.137,95.207c1.9-3.476-3.667-3.1-1.711-6.98.435.923.923,1.032,2.091,1.114a1.989,1.989,0,0,1-.815-1.63c0-.978.978-2.716,1.6-3.938a15.086,15.086,0,0,0,1.711-4.889c0-.435-.163-.625-.353-.625s-.435.272-.6.788c-.3,1-1.222,2.96-1.684,2.96-.081,0-.136-.081-.136-.19,0-.706,1.114-3.259,1.114-4.128,0-.244-.109-.489-.353-.489-.76,0-1.521,4.21-1.955,4.21-.163,0-.244-.109-.244-.462,0-.706.407-1.955.407-2.825,0-.3-.081-.543-.3-.543-1,0-.9,3.8-1.494,3.8-.163,0-.353-.081-.353-.923,0-.815.081-1.277.081-1.521,0-.136-.054-.272-.217-.272-.57,0-1.032,2.037-1.032,4.047,0,2.281.435,3.694,1,3.694s1.385-1.385,1.385-1.9a1.18,1.18,0,0,0-.272-.6c-.435-.706-.027-1.521.326-1.521.489,0,.489.407,1.114.923a.787.787,0,0,1,.326.679c0,1.3-2.743,3.151-2.743,6.274C22.041,93.958,24.811,94.582,25.137,95.207Z" transform="translate(474.509 508.505)"/>
    <path data-name="Path 236" class="cls-1" d="M42.011,85.059c0,1.575-.054,2.363-.869,2.363-.407,0-.543-.38-.679-.38-.109,0-.163.326-.163.435a.994.994,0,0,0,.978,1.059c.76,0,1.412-.57,1.412-1.847V84.815a3.163,3.163,0,0,1,.543-2.091,3.337,3.337,0,0,0-.054.733c0,1.575.869,2.662.869,4.183,0,.57-.163.869-.6.869s-.38-.38-.489-.38c-.081,0-.19.244-.19.489a1,1,0,0,0,1.032,1A1.26,1.26,0,0,0,45,88.345c0-1.657-1.277-3.476-1.277-5.242a3.76,3.76,0,0,1,.38-1.684c0,3.667,3.1,6.328,3.1,7.849a.621.621,0,0,1-.652.625.591.591,0,0,1-.625-.6c0-.136-.027-.163-.081-.163a.959.959,0,0,0-.435.842,1.367,1.367,0,0,0,1.412,1.331,1.6,1.6,0,0,0,1.6-1.684c0-1.928-3.775-4.834-3.775-7.958a4.151,4.151,0,0,1,.489-2.064A6.346,6.346,0,0,0,42.011,85.059Z" transform="translate(460.325 506.785)"/>
    <path data-name="Path 237" class="cls-1" d="M149.811,38.273c1.684,0,3.069-.57,3.069-1.494,0-.815-.788-2.526-1.331-2.526-.353,0-.951.38-1.385.38-.6,0-.435-.733-1.059-.733a.956.956,0,0,0-.489.136,8.694,8.694,0,0,1-2.607.57.2.2,0,0,0-.109.19A3.908,3.908,0,0,0,149.811,38.273Zm-1.928-2.662c.217,0,.815.3,1.575.407a11.569,11.569,0,0,0,1.63.163c.244,0,.353.054.353.136,0,.217-.6.6-1.412.6-1.358,0-2.227-.733-2.227-1.222Q147.76,35.611,147.883,35.611Z" transform="translate(383.269 540.361)"/>
    <path data-name="Path 238" class="cls-1" d="M44.533,143.422c2.689,0,3.341-1.847,3.341-3.1,0-2.77-1.711-4.726-3.938-4.726a2.21,2.21,0,0,0-2.309,2.173,3.045,3.045,0,0,0,3.1,3.042,1.54,1.54,0,0,0,1.63-1.575,2.038,2.038,0,0,0-1.847-1.955.542.542,0,0,0-.57.57c0,.435.6.9,1.358.9a.763.763,0,0,0,.407-.081.512.512,0,0,1,.054.217c0,.407-.407.679-1.032.679a1.818,1.818,0,0,1-1.847-1.793,1.237,1.237,0,0,1,1.385-1.141,2.729,2.729,0,0,1,2.607,2.906A1.9,1.9,0,0,1,44.7,141.6c-2.933,0-4.373-2.634-3.721-5.323a2.683,2.683,0,0,0-1.575,2.607A5.168,5.168,0,0,0,44.533,143.422Z" transform="translate(460.981 465.824)"/>
    <path data-name="Path 239" class="cls-1" d="M69.884,155.669a1.5,1.5,0,0,1-1.63,1.358c-.462,0-1.222-.163-1.276-.353a3.607,3.607,0,0,0-1.955-2.634,3.287,3.287,0,0,1,.027.516c0,1.331-.9,2.146-2.58,2.146a4.494,4.494,0,0,1-.869-.082c1.928,2.146,3.313,1.358,4.21,1.765,1.168.543,2.118,2.173,5.894,2.173a7.41,7.41,0,0,0,3.694-1.114,1.641,1.641,0,0,0,1.684,1.059c1.6,0,2.5-.489,2.5-.9,0-.109-.027-.272-.3-.272a7.531,7.531,0,0,1-1.114.081,3.606,3.606,0,0,1-3.422-2.173.43.43,0,0,0-.407-.3c-.516,0-1.3,1.82-4.536,1.82-1.358,0-1.983-.489-1.983-.625,0-.027,0-.027.081-.027.136,0,.625.054,1.249.054a6.315,6.315,0,0,0,4.671-2.01c.353-.38.516-.435.815-.435a.735.735,0,0,1,.652.57,3.1,3.1,0,0,0,2.634,2.118c1.548,0,1.575-2.634,1.928-2.77a.53.53,0,0,0,.217.027.482.482,0,0,0,.489-.489c0-.38-.462-.489-.543-.652-.19-.353-.027-.951-.6-.951-.38,0-.407.3-.435.543a6.829,6.829,0,0,0-2.037-.353,3.437,3.437,0,0,0-1.114.163,4.116,4.116,0,0,0-1.9-1.331A4.2,4.2,0,0,1,69.884,155.669Zm7.55-.679a.733.733,0,1,1-.733.733A.748.748,0,0,1,77.434,154.99Z" transform="translate(444.76 453.383)"/>
    <path data-name="Path 240" class="cls-1" d="M151.906,136.218c.516,0,3.965-3.015,3.965-5.432a3.08,3.08,0,0,0-3.151-3.286c-2.689,0-2.01,2.363-5.16,3.1-.6.136-.76.3-.76.57,0,.462.272,1.086.6,1.086,1.385,0,3.5-2.852,3.884-2.852.136,0,.326.027.326.407,0,1.032-2.988,2.39-2.988,3.123,0,.435,1.032,1.385,2.064,1.385,1.494,0,2.825-3.042,3.123-3.042.244,0,.326.19.326.38a4.322,4.322,0,0,1-2.77,3.151c-.38.136-.435.326-.435.435C151.037,135.621,151.5,136.218,151.906,136.218Zm2.064-6.084a1.594,1.594,0,0,1-.543-.136,1.146,1.146,0,0,1-.652-1c0-.489.272-.706.543-.706a1.658,1.658,0,0,1,1.6,1.276C154.921,129.972,154.486,130.134,153.97,130.134Z" transform="translate(382.605 471.745)"/>
    <path data-name="Path 241" class="cls-1" d="M41.733,43.3a.733.733,0,1,0,.733.733A.73.73,0,0,0,41.733,43.3Z" transform="translate(459.82 533.514)"/>
    <path data-name="Path 242" class="cls-1" d="M45.233,49.4a.733.733,0,1,0,.733.733A.73.73,0,0,0,45.233,49.4Z" transform="translate(457.266 528.92)"/>
    <path data-name="Path 243" class="cls-1" d="M33.8,66.048a1.093,1.093,0,0,0,1.168,1.086,1.156,1.156,0,0,0,.706-.19,2.153,2.153,0,0,1-.706-1.6A2.261,2.261,0,0,1,35.1,64.5,1.733,1.733,0,0,0,33.8,66.048Z" transform="translate(465.112 517.871)"/>
    <path data-name="Path 244" class="cls-1" d="M20.8,73.564A4.144,4.144,0,0,0,23.1,72.342a8.248,8.248,0,0,1-1.765.272A1.944,1.944,0,0,1,19.6,71.5C19.627,72.885,20.035,73.564,20.8,73.564Z" transform="translate(475.456 512.753)"/>
    <path data-name="Path 245" class="cls-1" d="M42.015,58.9a3.47,3.47,0,0,0-.815,2.118,1.654,1.654,0,0,0,1.548,1.82,1.4,1.4,0,0,0,1.331-1.575A2.765,2.765,0,0,0,42.015,58.9Z" transform="translate(459.673 521.964)"/>
    <path data-name="Path 246" class="cls-1" d="M21.927,65.5a.924.924,0,0,0-.027.272c0,.869.462,1.331,1.059,1.331a1.95,1.95,0,0,0,1.467-.869,4.864,4.864,0,0,1-.652.054A2.235,2.235,0,0,1,21.927,65.5Z" transform="translate(473.78 517.143)"/>
    <path data-name="Path 247" class="cls-1" d="M21.512,39.752a2.238,2.238,0,0,0,1.2-.407A2.145,2.145,0,0,1,21.051,37.2a1.114,1.114,0,0,1,.027-.3,1.542,1.542,0,0,0-.978,1.439A1.37,1.37,0,0,0,21.512,39.752Z" transform="translate(475.092 538.176)"/>
    <path data-name="Path 248" class="cls-1" d="M30.079,34.527c0-.869-.407-2.227-1.657-2.227A1.223,1.223,0,0,0,27.2,33.549c0,1.439,1.439,2.037,2.716,2.037A3.776,3.776,0,0,0,30.079,34.527Z" transform="translate(469.92 541.527)"/>
    <path data-name="Path 249" class="cls-1" d="M27.276,49.448c0-.353-.272-.3-.516-.625s-.136-.6-.3-.76a2.021,2.021,0,0,0-.679-.136,1.924,1.924,0,0,0-.407-.027,3.67,3.67,0,0,0-2.118.6c-1.6,1-1.358,2.689-1.6,3.123a.5.5,0,0,0-.054.19.4.4,0,0,0,.353.353c.136,0,.244-.027.326-.027.435,0,.923.3,1.657.3A3.638,3.638,0,0,0,25.484,52,3.853,3.853,0,0,0,27.276,49.448Zm-3.015,2.146a1.541,1.541,0,0,1-1.277-1.439c0-.353.272-.815.489-.815.081,0,.109.054.136.19a2.065,2.065,0,0,0,1.249,1.657q.081.041.081.081C24.941,51.4,24.588,51.594,24.262,51.594Zm.57-2.662c0-.353.19-.38.489-.38a.405.405,0,0,1,.272.081c.163.081.163.462.38.733.136.163.489.38.489.516,0,.244-.136.6-.435.6C25.348,50.453,24.832,49.475,24.832,48.932Z" transform="translate(473.999 530.01)"/>
    <path data-name="Path 250" class="cls-1" d="M134.727,66.714a1.114,1.114,0,1,0-1.114,1.114A1.1,1.1,0,0,0,134.727,66.714Z" transform="translate(393.062 517.068)"/>
    <path data-name="Path 251" class="cls-1" d="M133,76.533a.733.733,0,1,0,.733-.733A.73.73,0,0,0,133,76.533Z" transform="translate(392.699 509.61)"/>
    <path data-name="Path 252" class="cls-1" d="M139.9,59.568a1.168,1.168,0,1,0,1.168-1.168A1.177,1.177,0,0,0,139.9,59.568Z" transform="translate(387.662 522.334)"/>
    <path data-name="Path 253" class="cls-1" d="M149.869,73.7a.869.869,0,1,0,.869.869A.858.858,0,0,0,149.869,73.7Z" transform="translate(381.025 511.145)"/>
    <path data-name="Path 254" class="cls-1" d="M150.606,82.8a.714.714,0,0,0-.706.679.707.707,0,1,0,.706-.679Z" transform="translate(380.369 504.49)"/>
    <path data-name="Path 255" class="cls-1" d="M149.66,65.5a.777.777,0,0,0-.76.76.76.76,0,1,0,1.521,0A.777.777,0,0,0,149.66,65.5Z" transform="translate(381.098 517.143)"/>
    <path data-name="Path 256" class="cls-1" d="M125.032,70.1A1.049,1.049,0,0,0,124,71.132a1.074,1.074,0,0,0,1.032,1.059,1.061,1.061,0,0,0,1.059-1.059A1.093,1.093,0,0,0,125.032,70.1Z" transform="translate(399.263 513.777)"/>
    <path data-name="Path 257" class="cls-1" d="M145,52.506a.7.7,0,0,0,.706.706.706.706,0,1,0-.706-.706Z" transform="translate(383.944 527.165)"/>
    <path data-name="Path 258" class="cls-1" d="M126.933,61.8a.733.733,0,1,0,.733.733A.73.73,0,0,0,126.933,61.8Z" transform="translate(397.66 519.85)"/>
    <path data-name="Path 259" class="cls-1" d="M141.8,71.133a.733.733,0,1,0,.733-.733A.748.748,0,0,0,141.8,71.133Z" transform="translate(386.278 513.559)"/>
    <path data-name="Path 260" class="cls-1" d="M140.577,80.453a1.276,1.276,0,1,0-1.277-1.276A1.275,1.275,0,0,0,140.577,80.453Z" transform="translate(388.099 508.07)"/>
    <path data-name="Path 261" class="cls-1" d="M132.8,59.006a.693.693,0,1,0,1.385,0,.719.719,0,0,0-.706-.706A.7.7,0,0,0,132.8,59.006Z" transform="translate(392.845 522.41)"/>
    <path data-name="Path 262" class="cls-1" d="M132.4,158.376a4.153,4.153,0,0,0-1,2.526,1.5,1.5,0,0,0,1.63,1.467c3.422,0,6-2.146,6-3.884,0-.978-.6-1.385-1-1.385a5.381,5.381,0,0,1-3.449,1.2,4.173,4.173,0,0,1-1.575-.326C132.812,157.969,132.6,158.159,132.4,158.376Zm2.091.9h.244a4.15,4.15,0,0,0,2.173-.57c.082,0,.19.054.19.38a1.637,1.637,0,0,1-.842,1.358,3.53,3.53,0,0,1-2.01.6,4.594,4.594,0,0,0,.244-1.331A2.322,2.322,0,0,0,134.5,159.273Z" transform="translate(393.848 450.113)"/>
    <path data-name="Path 263" class="cls-1" d="M138.3,150.469v.842c0,.353.815.706,1.793.706a3.03,3.03,0,0,0,1.983-.6.74.74,0,0,0,.19-.543v-.435c0-.543-.815-.842-1.9-.842C139.033,149.627,138.3,150.225,138.3,150.469Z" transform="translate(388.825 455.622)"/>
    <path data-name="Path 264" class="cls-1" d="M124.759,86.728c.217,0,.3.136.3.244,0,.3-.543.815-.543,1.331,0,.652.76,1.032,1.249,1.032.6,0,.815-.217.815-.6,0-.462-.815-1.059-.815-1.548,0-.272.244-.3.6-.3.733,0,1,.109,1,.272,0,.217-.3.6-.3.733,0,.081.027.19.217.19.6,0,2.689-.435,2.689-.842,0-.462-1.983-1.956-2.39-1.956a.145.145,0,0,0-.136.136c0,.136.027.326.027.516,0,.326-.136.38-.516.38-.435,0-1.059-.136-1.059-.788,0-1.277,2.417-.978,2.662-2.146-1.059,0-1.575-.706-2.281-.706a.7.7,0,0,0-.733.788c0,.19.081.57.081.869s-.081.516-.38.516-.353-.353-.353-.76c0-.353.081-.76.081-1.032,0-1.874-2.091-1.086-2.309-2.662a4.65,4.65,0,0,0-.679,2.118c0,1.956,2.689,1.765,2.689,3.151a.518.518,0,0,1-.489.543c-.435,0-.76-.951-1.439-.951-.38,0-.625.272-.625.842,0,.407.081.733.081,1.114a1.857,1.857,0,0,1-.706,1.521C123.89,88.521,124.08,86.728,124.759,86.728Z" transform="translate(401.07 506.213)"/>
    <path data-name="Path 265" class="cls-1" d="M145.723,97.076c-.435.081-.923.163-.923.3,0,.217,1.222.244,1.222.543,0,.136-.543.869-.543,1.086,0,.027.027.054.081.054.19,0,.788-.489,1.059-.489.353,0,.3,1.059.57,1.059.3,0,.19-1.575.326-1.956.217-.706.706-1.385,1.168-1.385.543,0,.6.951.6,1.385,0,.951-.679,1.9-.679,2.309,0,.054.027.109.081.109.217,0,.679-.6.9-.6.244,0,.788,1,1,1,.109,0,.136-.109.136-.19,0-.3-.136-.788-.136-1.114,0-.353,1.168-.163,1.168-.38,0-.109-.516-.326-.815-.516a2.759,2.759,0,0,1-1.385-1.983c0-.272.136-.435.353-.435,1.412,0,2.037,2.173,2.281,2.173s.081-.978.217-1.114c.054-.081.19-.081.326-.081.244,0,.543.054.76.054.136,0,.19-.027.217-.081.027-.19-1.114-.543-1.114-.869,0-.272.625-.869.625-1.059a.072.072,0,0,0-.081-.081,7.355,7.355,0,0,1-2.363.652c-.516,0-.869-.081-.869-.435,0-.38.326-.652.815-.869.543-.244,1.657-.244,1.657-.516,0-.19-1.059-.217-1.059-.435,0-.244.435-.842.435-1.114a.087.087,0,0,0-.081-.081c-.19,0-.679.6-1.032.6-.3,0-.543-.76-.842-.76-.081,0-.136.054-.136.19,0,.3.136.869.136,1.6,0,.652-.326,1.222-.706,1.222-.462,0-.6-.543-.6-.978,0-.652.353-1.439.353-2.118,0-.163-.027-.217-.136-.217-.272,0-.679.733-.978.733-.19,0-.57-.9-.842-.9-.082,0-.082.136-.082.326,0,.244.027.6.027.76,0,.217-.272.244-.543.244-.19,0-.625,0-.625.136s.38.326.733.543c.679.435,1.711.9,1.711,1.956C148.032,96.234,146.647,96.913,145.723,97.076Z" transform="translate(384.065 498.162)"/>
    <path data-name="Path 266" class="cls-1" d="M112.369,124.3a4.782,4.782,0,0,0,4.916-4.671,5.764,5.764,0,0,1-3.069.706c-2.526,0-3.2-1.276-3.558-1.276s-.353.57-.353.76-.027.272-.136.272c-.136,0-.272-.081-.38-.081s-.19.081-.19.272c0,.76.978,1.331,1.955,1.331a7.117,7.117,0,0,0,2.227-.543c.136,0,.217.163.217.244,0,.19-.217.435-.217.57,0,.3.625.054.625.407,0,.435-.76.815-1.928.815-2.281,0-3.775-1.575-3.775-3.015,0-2.743,2.96-1.847,2.96-2.906a.614.614,0,0,0-.6-.57,1.415,1.415,0,0,1,1.141-.489c.326,0,.6.054.869.054.353,0,.706-.136.706-.543,0-.244-.19-.543-1.032-.652.081-.57,1.276-.272,1.276-.76,0-.353-.679-.625-1.494-.625a5.4,5.4,0,0,0-5.432,5.35A5.2,5.2,0,0,0,112.369,124.3Z" transform="translate(411.573 481.904)"/>
    <path data-name="Path 267" class="cls-1" d="M127.123,129.054a.858.858,0,0,0,.869-.869A1.626,1.626,0,0,0,126.2,126.8a.709.709,0,0,1,.244.543c0,.272-.136.57-.136.869A.823.823,0,0,0,127.123,129.054Z" transform="translate(397.659 472.301)"/>
    <path data-name="Path 268" class="cls-1" d="M149.141,125.632a1.271,1.271,0,0,0,1.276-1.331c0-.978-.9-1.793-2.254-1.9a1.035,1.035,0,0,1,.19.6c0,.516-.353,1-.353,1.521A1.092,1.092,0,0,0,149.141,125.632Z" transform="translate(381.752 475.514)"/>
    <path data-name="Path 269" class="cls-1" d="M135.83,120.27a1.651,1.651,0,0,0,1.6-1.793,3.42,3.42,0,0,0-2.988-3.178,1.325,1.325,0,0,1,.353.923c0,.788-.6,1.6-.6,2.363A1.583,1.583,0,0,0,135.83,120.27Zm-.3-3.069c.027-.244-.027-.462.136-.462.326,0,.679.543.679.923a.5.5,0,0,1-.489.543.421.421,0,0,1-.435-.462C135.422,117.609,135.531,117.391,135.531,117.2Z" transform="translate(391.818 480.697)"/>
    <path data-name="Path 270" class="cls-1" d="M54.439,40.346c-.9,0-.489-1.494-.951-1.494-.38,0-.489.815-.489,1.114a2.055,2.055,0,0,0,2.173,2.146,4.379,4.379,0,0,0,3.476-1.793c.19,1.114.788,2.988,2.39,2.988a1.652,1.652,0,0,0,1.575-1.575.655.655,0,0,1-.462.19c-.326,0-.407-.489-.407-.9,0-.679.19-1.412.516-1.412.163,0,.272.109.3.6.027.38,0,.815.244.815s.38-.76.38-1.277c0-1.168-.543-2.227-1.765-2.227A3.2,3.2,0,0,0,59,39.341a4.848,4.848,0,0,0,.054-.625c0-1.439-.76-2.716-2.227-2.716a2.8,2.8,0,0,0-2.689,2.01,1.415,1.415,0,0,1,.815-.353c.38,0,.489.326.489.815a4.161,4.161,0,0,1-.19,1.086C55.064,40.155,54.657,40.346,54.439,40.346Zm6.9-1.6c.109,0,.136.244.136.489,0,1.114-.516,2.852-.978,2.852-.109,0-.19-.163-.19-.543C60.306,40.563,60.958,38.743,61.338,38.743Zm-1.439.6c.081,0,.136.081.136.38,0,.652-.3,1.277-.489,1.277s-.3-.3-.326-.951C59.518,39.558,59.708,39.341,59.9,39.341Zm-1.765-1.114c.217,0,.353.407.353.76a6.379,6.379,0,0,1-.027.733c-.489.543-.733.76-.923.76-.109,0-.217-.19-.217-.407C57.318,39.694,57.59,38.227,58.133,38.227ZM57.183,36.9c.136,0,.19.109.19.244,0,.57-.706,3.938-1.331,3.938-.163,0-.19-.136-.19-.272C55.825,40.1,56.612,36.9,57.183,36.9Z" transform="translate(451.054 538.832)"/>
    <path data-name="Path 271" class="cls-1" d="M50.754,65.929A3.921,3.921,0,0,1,54.2,63.865c.217,0,.38.027.516.027a2.932,2.932,0,0,0-.733,2.01c-.027.3-.136.326-.326.326,0,.6.489,1.494.489,1.955,0,.163-.081.326-.19.353,0,.815.815,1.385.815,1.9a.437.437,0,0,1-.081.3c.054.326.951.9,1.059,1.168.136.326.3.407.38.407.326,0,.815-.353.815-.706a.414.414,0,0,0-.163-.3,2.555,2.555,0,0,1-.679-1.168.337.337,0,0,1-.353-.272c-.109-.38-.109-1.086-.244-1.521-.244-.054-.353-.136-.353-.652,0-.244.136-1.168.136-1.494a.278.278,0,0,1-.272-.3c0-.6.6-1.059.76-1.793a2.711,2.711,0,0,1,1.3,2.254,4.719,4.719,0,0,1-.136,1.059c.76-.38,1.928-.951,1.928-2.118,0-.679-.326-1.439-2.39-1.738a6.307,6.307,0,0,1,2.118-.353c1.168,0,1.847.353,2.01,1.2a2.212,2.212,0,0,0,.435-1.168,1.565,1.565,0,0,0-1.711-1.494,5.949,5.949,0,0,0-3.178,1.3c.489-.978.815-1.575,1.385-1.575.081,0,.19.027.272.027-.217-.815-1.059-1.6-1.494-1.6-.788,0-.815.951-.815,2.879-.6-1.277-1.548-2.634-2.689-2.634-.76,0-1.059.516-1.059,1.412a4.458,4.458,0,0,0,.054.625c.081-.3.38-.435.76-.435a3.306,3.306,0,0,1,2.363,1.439,11.228,11.228,0,0,0-2.01-.244,2.177,2.177,0,0,0-.978.163A2.437,2.437,0,0,0,50.7,65.332,5.4,5.4,0,0,0,50.754,65.929Z" transform="translate(452.732 521.203)"/>
    <path data-name="Path 272" class="cls-1" d="M173,111.913c0,1.793,3.015,1,3.042,3.476a5.716,5.716,0,0,0,1.928-4.21c0-1.385-.733-2.58-1.657-2.58a1.247,1.247,0,0,0-1.249,1.331,1.579,1.579,0,0,0,.489,1.168,1.873,1.873,0,0,0-1.385-.489A1.265,1.265,0,0,0,173,111.913Z" transform="translate(363.465 485.589)"/>
    <path data-name="Path 273" class="cls-1" d="M128.922,43.168A2.51,2.51,0,0,0,128.569,42a2.152,2.152,0,0,1-2.227,2.309,1.563,1.563,0,0,1-.706-.136,1.2,1.2,0,0,0,.407-.706c0-.136-.109-.19-.272-.19-.136,0-.353.054-.57.054a1.942,1.942,0,0,1-1.412-.652,2.986,2.986,0,0,0-.489,1.684c0,1,.38,1.928.815,2.01.244.027.217-.679.57-.679a3.845,3.845,0,0,0,1.439.3A2.693,2.693,0,0,0,128.922,43.168Z" transform="translate(399.765 534.327)"/>
    <path data-name="Path 274" class="cls-1" d="M128.018,35.409a.283.283,0,0,0,.19.272,1.929,1.929,0,0,1,.923.869,3.043,3.043,0,0,0,1.168-2.472c0-.217,0-.543-.19-.543-.136,0-.326.19-.516.19A3.2,3.2,0,0,0,127.8,33.1a1.78,1.78,0,0,0-1.9,1.793,1.611,1.611,0,0,0,.136.625,1.474,1.474,0,0,1,1.467-1.086c.244,0,.815.136.951.38A.828.828,0,0,0,128.018,35.409Z" transform="translate(397.871 540.944)"/>
    <path data-name="Path 275" class="cls-1" d="M39.626,3.09c.407,0,1.032-.19,1.494-.19.244,0,.489.054.489.3,0,.462-1,1.277-1,1.657,0,.109.081.136.19.136.38,0,1-.923,1.575-.923.978,0,.326,2.064.869,2.064s.326-2.037,1.114-2.037c.652,0,1.114,1.412,1.575,1.412a.194.194,0,0,0,.19-.217c0-.38-.543-1.168-.543-1.684a.458.458,0,0,1,.516-.462c.407,0,.978.272,1.3.272.109,0,.217-.027.217-.163,0-.435-1.63-.923-1.63-1.494s.9-.57.9-.815c0-.109-.543-.217-1.3-.217-1.2,0-1.032,1-1.955,1C42.668,1.732,42.912.7,41.69.7c-.733,0-1.412.136-1.412.3,0,.217.869.136.869.733,0,.652-1.847.815-1.847,1.222C39.3,3.009,39.436,3.09,39.626,3.09Z" transform="translate(461.054 564.544)"/>
    <path data-name="Path 276" class="cls-1" d="M83,7.38c0,.326,1.141,1.059,1.684,1.059.3,0,.407-.435.407-.869,0-.543-.244-.57-.706-.57C83.788,7,83,7.163,83,7.38Z" transform="translate(429.177 559.956)"/>
    <path data-name="Path 277" class="cls-1" d="M22.075,17.1a2.1,2.1,0,0,0-1.222.326,1.678,1.678,0,0,0-.353,1.032c0,.19.054.435.244.435a3.51,3.51,0,0,0,1.9-1.6C22.646,17.154,22.347,17.1,22.075,17.1Z" transform="translate(474.8 552.599)"/>
    <path data-name="Path 278" class="cls-1" d="M20.2,3.467c0,.543,3.585.027,3.585.6,0,.625-3.151,3.313-3.151,4.21,0,.217.136.3.353.3.951,0,3.422-1.82,4.1-1.82.244,0,.244.3.244.543,0,.489-.163,1.222-.163,1.738,0,.435.109.706.489.706.679,0,1.3-1.168,1.765-1.168.6,0,.244,3.395,1.114,3.395.76,0,1.059-3.667,1.548-3.667s.869,1.059,1.3,1.059c.543,0,.3-1.847.869-1.847.652,0,2.472,2.2,3.313,2.2.244,0,.353-.19.353-.462,0-.978-1.358-3.178-1.358-3.884,0-.19.054-.244.244-.244.706,0,2.8.978,3.8.978.326,0,.543-.19.543-.435,0-1.086-2.988-3.1-3.015-3.965a.335.335,0,0,1,.109-.217C36.767.941,38.886.56,38.886.1c0-.244-.435-.244-.652-.244-1.711,0-4.21.625-4.21,1.222,0,.625,2.227,2.146,2.227,2.906,0,.19-.136.272-.326.272-.625,0-1.983-.76-2.634-.76-.3,0-.407.19-.407.489,0,.869,1.032,2.553,1.032,3.042,0,.054-.027.136-.081.136-.326,0-1.9-1.847-2.444-1.847-.19,0-.217.272-.217.679v.625c0,.435-.027.679-.217.679-.489,0-.706-1.331-1.168-1.331-.489,0-.57,2.39-1.032,2.39-.543,0-.081-2.634-.6-2.634-.57,0-1.222,1.738-1.6,1.738-.136,0-.19-.136-.19-.272,0-.543.3-1.385.3-1.9,0-.244-.081-.407-.3-.407-.57,0-1.82.923-2.281.923-.081,0-.163-.027-.163-.109,0-.435,2.01-1.82,2.01-2.444,0-.6-2.743-.19-2.743-.9,0-.6,1.955-1.2,1.955-1.793,0-.543-2.336-.76-3.232-.76-1.086,0-1.657.136-1.657.435,0,.489,2.472.625,2.472,1.032C22.753,1.755,20.2,2.842,20.2,3.467Z" transform="translate(475.019 565.2)"/>
    <path data-name="Path 279" class="cls-1" d="M81.468,27.016a.707.707,0,0,0-.109-.407A10.682,10.682,0,0,0,78.181,24.3c-.054,0-.081.054-.081.109,0,.652,2.309,3.775,2.743,3.775C81.2,28.211,81.468,27.559,81.468,27.016Z" transform="translate(432.75 547.354)"/>
    <path data-name="Path 280" class="cls-1" d="M164.112,2.634c-.9.027-2.634.435-2.634.652,0,.3,3.123.625,3.123,1.928a.863.863,0,0,1-.951.923c-1.032,0-1.575-1.059-1.847-1.059a.128.128,0,0,0-.136.136,9.58,9.58,0,0,1,.136,1.059c0,1.168-1.3,1.3-1.3,1.548,0,.081.027.136.19.136a20.472,20.472,0,0,0,2.852.217c3.313,0,6.029-1.032,6.029-3.938,0-1.575-.489-2.118-.489-2.879a1.45,1.45,0,0,1,.679-1.086C168.838.272,168.7,0,168.078,0A1.212,1.212,0,0,0,166.8,1.277c0,.272.081.652.081,1.2,0,.652-.136,1.249-.706,1.249a.691.691,0,0,1-.733-.76c0-.733.38-1.222.38-1.711,0-.869-1.059-1.114-2.2-1.114A5.956,5.956,0,0,0,160.8.679C160.772,1.059,162.727.869,164.112,2.634ZM168.05.706a.462.462,0,0,1,0,.923.442.442,0,0,1-.462-.462A.458.458,0,0,1,168.05.706ZM167.7,3.368a1.142,1.142,0,0,1,.76,1.168c0,.951-.923,2.091-3.422,2.091a5.907,5.907,0,0,1-.679-.027C166.5,6.247,167.7,5,167.7,3.368Z" transform="translate(372.57 565.054)"/>
    <path data-name="Path 281" class="cls-1" d="M163.755,63.571c-.869,0-1.358,1.494-2.2,1.6.516-2.2,2.716-3.341,2.716-5.4,0-2.336-1.955-3.151-2.8-3.667-1.358-1.955-2.336-3.476-4.536-3.476-.951,0-1.521.163-2.173.163a2.874,2.874,0,0,1-1.738-.489c-.027,0-.027.027-.027.081,0,1.711.9,5.622,4.834,5.622,2.118,0,3.015-.815,3.5-.815a2.464,2.464,0,0,1,2.227,2.526,2.612,2.612,0,0,1-1.168,2.173c-.3,0-.625-.489-.625-1,0-.57.3-1.63.3-2.281,0-.244-.027-.353-.19-.353a2.817,2.817,0,0,0-1.9,2.254c0,1.086,1.6,1.738,2.2,2.064a11.2,11.2,0,0,0-1.277,2.553,10.753,10.753,0,0,0-.869-2.689c-.978-2.743-1.358-3.259-3.449-3.5.3,1.114,3.911,3.775,3.911,6.491,0,.163-.027.407-.027.489-1.086-3.178-2.96-3.911-3.639-4.671-1.086-1.222-.462-2.39-2.227-3.042a.855.855,0,0,1,.136.543c0,.6-.326,1.331-.326,1.847,0,1.9,2.254,1.331,3.531,2.39a8.712,8.712,0,0,1,2.526,4.59c.516-.815.815-1.82,1.711-1.82.6,0,.788.733.788,1.249a.837.837,0,0,1-.027.272,4.03,4.03,0,0,0,1.331-2.77C164.38,63.924,164.19,63.571,163.755,63.571Zm-3.476-7.2c-.19,0-.543-.081-.76-.081-.625,0-1.059.869-1.385.869a.18.18,0,0,1-.163-.19c0-.353.625-.76.625-1,0-.163-.272-.217-.38-.217-.625,0-1.494.869-2.01.869a.18.18,0,0,1-.19-.163c0-.244.652-.57.652-.815s-.272-.272-.462-.272c-.326,0-.923.163-1.3.163-.217,0-.38-.054-.38-.217,0-.38,1.2-.136,1.2-.57,0-.19-.353-.6-.353-.815,0-.081.081-.136.19-.136.435,0,.869,1.168,1.358,1.168.217,0,.272-.163.272-.407s-.027-.38-.027-.57c0-.217.081-.272.163-.272.3,0,.6,1.657,1.439,1.657.38,0,.109-1,.435-1,.217,0,.272.3.272.462.081,1.086,1.059,1.114,1.059,1.494C160.469,56.292,160.442,56.374,160.279,56.374Z" transform="translate(378.033 526.756)"/>
    <path data-name="Path 282" class="cls-1" d="M122.6,5.8c0,.3,1.249.109,1.249.489s-.923,1.657-.923,2.037c0,.081.027.081.081.081.353,0,1.385-1.2,1.657-1.2.3,0,.353.706.407,1.141.027.217.081.244.163.244.217,0,.57-.842.815-.842.353,0,1.277.978,2.852.978a4.192,4.192,0,0,0,4.318-4.318c0-2.662-1.874-4.21-4.454-4.21a14.008,14.008,0,0,0-2.607.6c-.3.027-.733-.706-.951-.706-.081,0-.19.19-.19.489,0,.19,0,.842-.217.842-.435,0-2.146-1.249-2.146-.815,0,.407,1.141,1.711,1.141,2.037s-1.114.652-1.114.869c0,.407,1.2.489,1.2.978C123.849,5.016,122.6,5.423,122.6,5.8Zm6.111-4.753c1.82,0,2.906,1.249,2.906,3.341,0,2.634-1.847,3.313-2.852,3.313-1.276,0-2.118-.652-2.118-.978a.251.251,0,0,1,.244-.272c.407,0,1.277.625,1.575.625.081,0,.136-.027.136-.136,0-.326-.3-.869-.3-1.168,0-.081.054-.136.163-.136.489,0,1.222.19,1.63.19.136,0,.163-.081.163-.136,0-.407-1.2-1.2-1.2-1.439,0-.217,1.494-.543,1.494-.9,0-.38-2.01-.109-2.01-.462,0-.244.38-.706.38-.9,0-.081-.081-.136-.19-.136-.163,0-1.059.353-1.412.353-.19,0-.407-.027-.407-.3C126.891,1.512,127.6,1.051,128.711,1.051Zm-4.237,2.336c0-.027.027-.054.081-.054.19,0,.543.081.815.081.244,0,.272-1.032.462-1.032.136,0,.353.978.543.978.244,0,.679-.272.869-.272.027,0,.081.027.081.054,0,.136-.462.625-.462.76,0,.163,1.032.353,1.032.516,0,.19-1.059.163-1.059.326,0,.136.38.652.38.815a.058.058,0,0,1-.054.054c-.136,0-.706-.244-.869-.244-.217,0-.543.76-.706.76-.054,0-.081-.081-.081-.163l-.027-.733c0-.081-.027-.136-.136-.136-.217,0-.652-.027-.788-.027-.081,0-.136-.027-.136-.054,0-.136.733-.652.733-.788C125.207,4.011,124.474,3.6,124.474,3.386Z" transform="translate(400.26 564.982)"/>
    <path data-name="Path 283" class="cls-1" d="M84.708,140.552a.63.63,0,0,0-.57-.652.478.478,0,0,0-.489.516c0,.3.19.543.19.842a.941.941,0,0,1-.19.543,1.355,1.355,0,0,0-1.032-.543c-1.9,0-1.168,2.743-3.2,2.743a9.3,9.3,0,0,1-1.222-.109c-.136,0-.19.054-.19.163,0,.489.679,1.657,2.58,1.657s3.721-1.168,3.721-2.58a2.02,2.02,0,0,0-.163-.76.591.591,0,0,1,.435-.19c.3,0,.462.326.733.326a.5.5,0,0,0,.516-.516.557.557,0,0,0-.353-.516.66.66,0,0,0,.244-.489.585.585,0,0,0-.6-.6A.427.427,0,0,0,84.708,140.552Z" transform="translate(432.814 462.693)"/>
    <path data-name="Path 284" class="cls-1" d="M61.973,131.958a3.176,3.176,0,0,0,2.146.978c.652,0,1.2-.217,1.2-.815a2.523,2.523,0,0,0-2.227-2.146c-.136,0-.3.027-.489.027a.8.8,0,0,1-.543-.163c-.3-.244-.38-1.63-.923-2.471a2.3,2.3,0,0,0-2.173-1.168c-.652,0-1.358.353-1.358.869,0,.326.163.543,1.331.842A2.7,2.7,0,0,1,61.267,130,4.345,4.345,0,0,0,61.973,131.958Zm1.168-1.3c.462,0,1.277.57,1.277,1.059,0,.136-.081.3-.353.3-.543,0-1.385-.6-1.385-.923A.466.466,0,0,1,63.141,130.654Z" transform="translate(447.701 472.711)"/>
    <path data-name="Path 285" class="cls-1" d="M77.888,84.107c0-.788,1.331-1.385,1.331-2.634A2.962,2.962,0,0,0,77.535,79.3a2.353,2.353,0,0,1,.244.978c0,1.439-2.8,2.064-2.8,3.259,0,1.439,2.689,2.064,2.689,2.743,0,.217-.136.353-.435.353a2.687,2.687,0,0,1-1.358-.733,3.1,3.1,0,0,0-.978,2.254c0,1.82,1.9,3.341,3.775,3.341a3.8,3.8,0,0,0,.923-.136,1.854,1.854,0,0,1-1.684-1.847c0-1.222,1.331-2.281,1.331-3.232C79.3,85.194,77.888,85.031,77.888,84.107Z" transform="translate(435.082 507.002)"/>
    <path data-name="Path 286" class="cls-1" d="M80.111,114.849c0,.489-.869.978-2.037.978a3.906,3.906,0,0,1-3.042-1.032c-.217-.217-.3-.435-.6-.435S74,114.9,74,115.42a4.2,4.2,0,0,0,4.1,3.938,3.756,3.756,0,0,0,4.128-3.694,2.342,2.342,0,0,0-1.847-2.5A2.035,2.035,0,0,1,79,111.4a2.758,2.758,0,0,0-.6,1.412C78.4,114.007,80.111,114.034,80.111,114.849Zm.815.842c.163,0,.326.109.326.38a2.356,2.356,0,0,1-1.711,2.064c-.244,0-.3-.136-.3-.353,0-.163.054-.489.054-.706,0-.652.244-.6.869-.9C80.627,115.99,80.79,115.691,80.926,115.691Z" transform="translate(435.733 483.532)"/>
    <path data-name="Path 287" class="cls-1" d="M35.979,119.882a1.277,1.277,0,0,0,1.928.842,1.1,1.1,0,0,0,1.3.869,1.154,1.154,0,0,0,1.059-1.3,1.689,1.689,0,0,0-.109-.435.581.581,0,0,0,.163-.027,1.2,1.2,0,0,0-.217-2.39,1,1,0,0,0-.6.244,1.252,1.252,0,0,0-1.385-.923,1.192,1.192,0,0,0-1,1.331.836.836,0,0,0,.081.353.964.964,0,0,1-.19.027A1.349,1.349,0,0,0,35.979,119.882Zm2.662-1.358a.682.682,0,0,1,.76.625.7.7,0,0,1-.6.788.682.682,0,0,1-.76-.625A.7.7,0,0,1,38.641,118.524Z" transform="translate(463.486 479.642)"/>
  </g>
</svg>
