<svg xmlns="http://www.w3.org/2000/svg" width="28" height="35" viewBox="0 0 28 35">
  <g data-name="Group 1547">
    <g data-name="Group 1167">
      <path data-name="Path 1311" d="M6 2a3 3 0 0 0-4 0 5 5 0 0 0-1 1 10 10 0 0 0-1 7 5 5 0 0 0 2 3 17 17 0 0 0 1 1l2 2 1 9v9a2 2 0 0 0 1 1 2 2 0 0 0 2 0 2 2 0 0 0 2-1 2 2 0 0 0 0-1l-1-5-3-12a3 3 0 0 1 1-2v-1l1-1a5 5 0 0 0 1-3 10 10 0 0 0-3-6 7 7 0 0 0-1-1" fill="#ff7875"/>
    </g>
    <g data-name="Group 1168">
      <path data-name="Path 1312" d="M28 23a28 28 0 0 0-4-1l-5-1h-1 1c4-3 8-7 8-12C26 0 10-2 9 2l4 1a12 12 0 0 1 8 3c4 5-1 11-5 13l-4 2a1 1 0 0 0-1 1 2 2 0 0 0 2 2 22 22 0 0 0 6 1 39 39 0 0 0 7-1 6 6 0 0 0 2 0v-1" fill="#ff7875"/>
    </g>
  </g>
</svg>
