<svg xmlns="http://www.w3.org/2000/svg" width="28.217" height="35.455" viewBox="0 0 28.217 35.455">
  <g data-name="Group 1547" transform="translate(-126.5 -28.322)">
    <g data-name="Group 1167" transform="translate(126.5 29.783)">
      <path data-name="Path 1311" d="M-2.713-.163a3.147,3.147,0,0,0-3.53.507,5.354,5.354,0,0,0-.733.93,9.755,9.755,0,0,0-1.2,6.389A5.246,5.246,0,0,0-6.528,10.9,17.459,17.459,0,0,0-4.866,12.18c.836.586,1.411,1.138,1.494,1.912.337,3.116.57,6.255.836,9.383.231,2.726.412,5.474.73,8.177a1.983,1.983,0,0,0,.827,1.33,2.484,2.484,0,0,0,1.659.507c.046,0,.093-.009.139-.017a2.444,2.444,0,0,0,1.534-.994,1.994,1.994,0,0,0,.4-1.505c-.32-1.7-.775-3.456-1.17-5.181-.928-4.049-1.917-8.1-2.771-12.157a2.6,2.6,0,0,1,.711-1.965l.2-.269c.289-.391.589-.8.865-1.21a4.935,4.935,0,0,0,.889-3.076A10.055,10.055,0,0,0-.907,1.319,7.017,7.017,0,0,0-2.713-.163" transform="translate(8.288 0.497)" fill="#ff7875"/>
    </g>
    <g data-name="Group 1168" transform="translate(135.617 28.322)">
      <path data-name="Path 1312" d="M-8.992-11.054a27.86,27.86,0,0,0-3.817-.646c-1.683-.209-3.393-.386-5.037-.673-.126-.022-.321.046-.356-.157-.025-.14.1-.219.19-.307,4.109-2.468,8.52-6.441,8.405-11.684-1.252-8.931-17.13-11.2-17.85-7.631-.214,1.369,2.606,1.185,3.632,1.207a11.528,11.528,0,0,1,8.378,3.276c4.319,4.7-1.136,11.347-5.364,13.245-1.238.556-2.656.869-3.944,1.347a.856.856,0,0,0-.648.87,2.105,2.105,0,0,0,1.529,2.07,22.471,22.471,0,0,0,6,.95,39,39,0,0,0,7.462-.387,6.2,6.2,0,0,0,1.47-.393c.276-.114.574-.268.568-.586-.005-.339-.337-.424-.624-.5" transform="translate(27.469 33.766)" fill="#ff7875"/>
    </g>
  </g>
</svg>
