<svg xmlns="http://www.w3.org/2000/svg" width="24.95" height="21.025" viewBox="0 0 24.95 21.025" aria-hidden="true">
    <g transform="translate(0.635 0.625)">
        <path d="M23.691,0H21.055a.517.517,0,0,0-.511.456l-.346,2.8a1.033,1.033,0,0,1-1.022.912H1.546A1.559,1.559,0,0,0,.071,6.19l1.61,5.2a1.544,1.544,0,0,0,1.475,1.1h14.87a1.041,1.041,0,0,1,0,2.082H3.606"
              transform="translate(0)" fill="none" stroke="#fff" stroke-linecap="round" stroke-linejoin="round"
              stroke-miterlimit="10" stroke-width="1.25"/>
        <path d="M.723,0,.208,4.684" transform="translate(18.589 6.245)" fill="none" stroke="#fff"
              stroke-linecap="round" stroke-linejoin="round" stroke-miterlimit="10" stroke-width="1.25"/>
        <path d="M3.09,1.561A1.554,1.554,0,0,1,1.545,3.122,1.561,1.561,0,0,1,1.545,0,1.554,1.554,0,0,1,3.09,1.561Z"
              transform="translate(4.12 16.653)" fill="none" stroke="#fff" stroke-linejoin="round"
              stroke-miterlimit="10" stroke-width="1.25"/>
        <path d="M3.09,1.561A1.554,1.554,0,0,1,1.545,3.122,1.561,1.561,0,0,1,1.545,0,1.554,1.554,0,0,1,3.09,1.561Z"
              transform="translate(15.45 16.653)" fill="none" stroke="#fff" stroke-linejoin="round"
              stroke-miterlimit="10" stroke-width="1.25"/>
    </g>
</svg>
