<svg version="1.1" id="Layer_1" xmlns="http://www.w3.org/2000/svg" xmlns:xlink="http://www.w3.org/1999/xlink" x="0px" y="0px"
     viewBox="0 0 25 21" style="enable-background:new 0 0 25 21;" xml:space="preserve" aria-hidden="true">
<path d="M18.7,15.8H4.2c-0.3,0-0.6-0.3-0.6-0.6s0.3-0.6,0.6-0.6h14.4c0.2,0,0.4-0.2,0.4-0.4c0-0.1,0-0.2-0.1-0.3
	c-0.1-0.1-0.2-0.1-0.3-0.1H3.8c-1,0-1.8-0.6-2.1-1.5L0.1,7C0,6.8,0,6.6,0,6.4c0-0.6,0.2-1.1,0.6-1.6c0.4-0.4,1-0.6,1.5-0.7h17.6
	c0.2,0,0.4-0.2,0.4-0.4L20.6,1c0.1-0.6,0.6-1,1.1-1h2.6C24.7,0,25,0.3,25,0.6s-0.3,0.6-0.6,0.6h-2.5L21.5,4
	c-0.1,0.8-0.8,1.5-1.6,1.5H2.2c-0.2,0-0.5,0.1-0.7,0.3C1.4,5.9,1.3,6.1,1.3,6.4c0,0.1,0,0.2,0,0.3l1.6,5.2c0.1,0.4,0.5,0.7,0.9,0.7
	h14.9c0.4,0,0.9,0.2,1.2,0.5c0.3,0.3,0.5,0.7,0.5,1.2C20.3,15.1,19.6,15.8,18.7,15.8z"/>
    <path d="M19.4,12.2C19.4,12.2,19.4,12.2,19.4,12.2c-0.4,0-0.7-0.4-0.6-0.7l0.5-4.7c0-0.3,0.4-0.6,0.7-0.6c0.3,0,0.6,0.3,0.6,0.7
	l-0.5,4.7C20,11.9,19.7,12.2,19.4,12.2z"/>
    <path d="M6.3,21c-1.2,0-2.2-1-2.2-2.2c0-1.2,1-2.2,2.2-2.2c1.2,0,2.2,1,2.2,2.2C8.5,20,7.5,21,6.3,21z M6.3,17.9
	c-0.5,0-0.9,0.4-0.9,0.9c0,0.5,0.4,0.9,0.9,0.9c0.5,0,0.9-0.4,0.9-0.9v0C7.2,18.3,6.8,17.9,6.3,17.9z"/>
    <path d="M17.6,21c-1.2,0-2.2-1-2.2-2.2c0-1.2,1-2.2,2.2-2.2c1.2,0,2.2,1,2.2,2.2C19.8,20,18.8,21,17.6,21z M17.6,17.9
	c-0.5,0-0.9,0.4-0.9,0.9c0,0.5,0.4,0.9,0.9,0.9c0.5,0,0.9-0.4,0.9-0.9v0C18.6,18.3,18.1,17.9,17.6,17.9z"/>
</svg>
