<svg xmlns="http://www.w3.org/2000/svg" width="89" height="79" viewBox="0 0 89 79">
  <g data-name="Group 1967">
    <g data-name="Group 1913">
      <g data-name="Group 1907" fill="#4c6b7f">
        <path data-name="Path 1697" d="M47 14l8-7a2 2 0 0 1 1-1 1 1 0 0 1 0 1 3 3 0 0 1 0 1 18 18 0 0 1-8 7 1 1 0 0 1-1 1l-1-1a1 1 0 0 1 1-1z"/>
        <path data-name="Path 1698" d="M77 32C75 17 63 2 42 0a37 37 0 0 0-30 10A37 37 0 0 0 0 38a36 36 0 0 0 3 15c10 22 39 29 59 15 12-9 17-21 15-36zM60 8c-1 4-4 6-6 8a25 25 0 0 1-4 2 5 5 0 0 0-2 5v8a11 11 0 0 1 0 3c-1 1 0 2-2 2-2-1-3-3-3-5v-7-3l-14-1-4 8a16 16 0 0 1-2 3 2 2 0 0 1-2 1 2 2 0 0 1-1-2 5 5 0 0 1 0-2l5-9 1-2a28 28 0 0 1-8-9c9-8 29-10 42 0zm-1 24l-4-2c-2-1-3-4-4-7-1-1 0-2 1-3l2-1 2 2a2 2 0 0 0 0 3v1l1 3 2 4zm-24 0h-1l-1 1 1 1a1 1 0 0 1 0 1 2 2 0 0 1-3 0v-4l-1-9 5 1-2 1s2-1 2 1v4a16 16 0 0 0 0 3zm32 29A38 38 0 0 1 4 51c-6-15-1-32 11-41l7 7-3 7a20 20 0 0 0-2 8 4 4 0 0 0 2 3 4 4 0 0 0 5 0 21 21 0 0 0 2-4l2-3v-1a46 46 0 0 0 1 5 13 13 0 0 0 1 5c1 2 4 2 6 0a9 9 0 0 0 2-6v-8h3v4l1 7a6 6 0 0 0 0 2c1 2 3 3 5 3a5 5 0 0 0 3-4 46 46 0 0 0 1-6 22 22 0 0 0 3 3 12 12 0 0 0 4 2c3 0 4-2 4-4a13 13 0 0 0-3-6 12 12 0 0 1-3-7 44 44 0 0 0 4-3 47 47 0 0 0 3-4l2 2a36 36 0 0 1 2 49z"/>
        <path data-name="Path 1699" d="M35 57c2-1 3-3 2-5l-2-8a20 20 0 0 0-2-3l-3 8a17 17 0 0 0-1 5c0 3 3 4 6 3zm-3-8a22 22 0 0 1 1-4 22 22 0 0 1 2 8 3 3 0 0 1-1 2 3 3 0 0 1-2 1 2 2 0 0 1-1-2 23 23 0 0 1 1-5z"/>
        <path data-name="Path 1700" d="M44 61a3 3 0 0 0 3-2 16 16 0 0 0 0-5c0-4-2-7-4-10l-2 6a12 12 0 0 0-1 2c0 3-1 5 1 7a3 3 0 0 0 3 2zm-2-10l1-2 3 6a11 11 0 0 1 0 2 2 2 0 0 1-3 2 3 3 0 0 1-2-2 8 8 0 0 1 1-6z"/>
      </g>
      <g data-name="Group 1911" transform="translate(56 46)">
        <ellipse data-name="Ellipse 23" cx="16" cy="16" rx="16" ry="16" fill="#fc5959"/>
        <g data-name="Group 1159" fill="none" stroke="#363840" stroke-linecap="round" stroke-width="2">
          <path data-name="Line 18" d="M22 11L11 22"/>
          <path data-name="Line 19" d="M22 22L11 11"/>
        </g>
      </g>
    </g>
  </g>
</svg>
