<svg xmlns="http://www.w3.org/2000/svg" width="85.036" height="80.454" viewBox="0 0 85.036 80.454">
  <g data-name="Group 2222" transform="translate(-1647 -629.582)">
    <path data-name="Path 1741" d="M765.95,697.7c.059,19.114-14.018,36.416-33.15,40.2-15.491,3.06-28.7-1.308-38.222-14.14-8.117-10.938-9.044-23.231-4.334-35.871,5.93-15.915,21.438-27.015,38.4-26.836C750.93,661.285,765.766,677.673,765.95,697.7Zm-36.273-34.617c-2.532.275-5.091.4-7.59.849-21.089,3.832-35.142,24.214-31.859,44.109a34.561,34.561,0,0,0,29.232,28.221,39.573,39.573,0,0,0,42.286-26.726C770,684.6,751.31,662.872,729.676,663.083Z" transform="translate(959.604 -31.465)" fill="#587c94"/>
    <path data-name="Path 1742" d="M746.774,713.109c1.439-.415,2.756-.712,4.01-1.179a3.193,3.193,0,0,1,3.523.546c2.1,1.752,4.317,3.362,6.487,5.029a3.719,3.719,0,0,1,1.624,3.961c-.656,4.223-.964,8.5-1.35,12.766a2.962,2.962,0,0,1-2.536,3.038c-3.644.835-7.261,1.794-10.866,2.79a2.987,2.987,0,0,1-3.225-.8c-2.517-2.516-5.047-5.021-7.628-7.47a3.2,3.2,0,0,1-.987-3.209c.28-1.418.51-2.845.8-4.453-4.753.324-8.919-1.607-13.289-2.527-2.738-.577-2.778-.7-3.125-3.352-.557-4.251-1.028-8.513-1.612-12.76a3.189,3.189,0,0,1,1.419-3.3c2.885-2.078,5.734-4.21,8.683-6.195a2.593,2.593,0,0,1,2.24-.172c3.24,1.8,6.8,2.617,10.309,3.576,2.049.559,3.244,1.615,3.443,3.921A66.386,66.386,0,0,0,746,710.577C746.153,711.357,746.46,712.106,746.774,713.109Zm13.719,8.859-10.3,3.569c-.6,3.986-1.153,7.628-1.777,11.763l10.176-2.646C759.2,730.571,759.8,726.573,760.492,721.968Zm-37.622-3.186,9.563,2.577c.53-3.923-.573-7.343-1.016-10.82a1.211,1.211,0,0,0-.634-.811c-2.992-1.2-6-2.356-9.505-3.716C721.849,710.591,722.349,714.6,722.871,718.781Zm17.283-.266c-.741,3.793-1.438,6.972-1.926,10.183a3.013,3.013,0,0,0,.982,2.042c1.7,1.766,3.505,3.437,5.3,5.111a12.668,12.668,0,0,0,1.606,1.074c.6-3.786,1.157-7.282,1.7-10.781.158-1.008.222-1.95-.8-2.664C744.861,721.984,742.76,720.41,740.154,718.516Zm2.029-14.884c-2.644,1.962-4.931,3.588-7.118,5.339a2.467,2.467,0,0,0-.851,1.834c.353,3.483.858,6.952,1.4,11.084a16.171,16.171,0,0,0,1.9-2.336,7.088,7.088,0,0,0,.464-2.125,3.1,3.1,0,0,1,3.057-2.917,26.614,26.614,0,0,0,3.4-.79Zm-19.889.032c3.432,1.306,6.28,2.422,9.16,3.451a2.073,2.073,0,0,0,1.548-.154,37.823,37.823,0,0,0,6.82-5.035L729.86,698.4Zm19.767,13.154c2.835,2.042,5.228,3.791,7.659,5.485a1.642,1.642,0,0,0,1.263.222c2.794-.92,5.566-1.912,8.788-3.036-2.62-1.981-4.756-3.64-6.952-5.215a1.982,1.982,0,0,0-1.5-.2C748.456,714.871,745.613,715.752,742.061,716.818Z" transform="translate(944.089 -46.691)" fill="#587c94"/>
    <g data-name="Group 2201" transform="translate(440.281 -1553.357)">
      <circle data-name="Ellipse 376" cx="16.018" cy="16.018" r="16.018" transform="translate(1259.719 2231.357)" fill="#b6dc85"/>
      <path data-name="Path 1310" d="M1273.219,2254.251a.734.734,0,0,1-.522-.216l-5.889-5.9a.737.737,0,1,1,1.043-1.042h0l5.369,5.381,11.775-11.749a.737.737,0,0,1,1.042,1.043l-12.3,12.27A.734.734,0,0,1,1273.219,2254.251Z" fill="#363840" stroke="#363840" stroke-miterlimit="10" stroke-width="0.175"/>
    </g>
  </g>
</svg>
