<svg xmlns="http://www.w3.org/2000/svg" width="88" height="77" viewBox="0 0 88 77" aria-hidden="true"><g fill="#587c94"><path d="M66 28l-5-5a69 69 0 0 0-9-7 2 2 0 0 0-3 0 6 6 0 0 0-1 1l-4 4a1 1 0 0 1-2 0c-3-2-6-2-9-2h-1v1a34 34 0 0 0 4 5c2 2 2 1 0 3L26 39v3l1 1a655 655 0 0 0 17 16l12-11c1-2 1-2 2 0a49 49 0 0 1 5 4h1a20 20 0 0 1 3-3v-3l-3-3a4 4 0 0 1-2-2 79 79 0 0 0 7-7v-3a39 39 0 0 0-3-3zm-1 20zM34 21a7 7 0 0 1 0-1 9 9 0 0 1 4 1 44 44 0 0 1 13 8l1 2a2 2 0 0 1 0 2 2 2 0 0 1 0 1v2l1 1v1a1 1 0 0 1-1 0l-1-1-17-16zm21 25L44 56h-2L28 42c-2-2-1-2 0-3l9-10a11 11 0 0 0 1-1h2l3 3 8 7v2l1 2 3 2v2zm7 0a3 3 0 0 1 1 2l1-1v4h-1c-2-4-6-6-9-10v-3l1 2 1-1 1 3 1-1v2l1-1v2l1-1v2l1-1a11 11 0 0 1 0 2h1zm5-12l-6 6a16 16 0 0 1-4-4h-2c-1 1-1-1-2-1l1-1v-3c-3-3-5-6-9-8l5-6h2l10 11 5 4v2zM19 49c2-1 2-3 1-5a4 4 0 0 1 0-5 14 14 0 0 1 6-5c4-2 5-5 5-8 1-6-6-10-10-9a11 11 0 0 0-6 3 7 7 0 0 0-2 5 13 13 0 0 0 2 6 5 5 0 0 1 0 4l1 3-1 1c0 1-1 2-3 2a3 3 0 0 0-3 3 3 3 0 0 0 0 1 4 4 0 0 0 4 3 3 3 0 0 1 2 1 3 3 0 0 0 4 0zm-3-26a8 8 0 0 1 7-4c3 0 4 1 5 3v4a9 9 0 0 0 0 2v1a1 1 0 0 1 1 0h-1v-1h-1l1 3-2-2v2h-1v1l-3 3a9 9 0 0 0-1 1l-2 1c-3-1-3-1-2-3a3 3 0 0 0-1-3 6 6 0 0 1 0-8zm-2 24c-2 1-3 0-3-2a2 2 0 0 1 1-2 3 3 0 0 0 4-2 9 9 0 0 1 0-2l2-1 1 2-1 3v2a2 2 0 0 1 1 2c-1 2-2 2-3 1s-1-2-2-1z"/><path d="M28 29zm3 22a3 3 0 0 0-5-1 6 6 0 0 0-2 2 7 7 0 0 1-1 2 13 13 0 0 0-5-2 3 3 0 0 0-3 1 2 2 0 0 0 0 1 9 9 0 0 0 0 5 6 6 0 0 0 7 3 1.118 1.118 0 0 1 2 1 5 5 0 0 0 6 0 5 5 0 0 0 3-5 20 20 0 0 0-2-7zm-9 6l-1 1c0 1-2 1-1 2-2 0 0 1-1 2a4 4 0 0 1-3-4 7 7 0 0 1 0-4l2-1a8 8 0 0 1 4 2v2zm6 6a4 4 0 0 1-4-4 14 14 0 0 1 0-1 10 10 0 0 1 1-6 3 3 0 0 1 3-2 2 2 0 0 1 2 2 17 17 0 0 1 2 6 4 4 0 0 1-4 5z"/><path d="M28 29v-1 1zm18 13a15 15 0 0 0 0-4c-1-2-2-3-4-3h-1v-1l1-1h-2a2 2 0 0 1 0 1l-1-3v2l-2 1a2 2 0 0 0-1 0l2 2c-3 2-3 4-1 7l2 4a30 30 0 0 0 3 4 5 5 0 0 0 1 2c2 1 3 0 3-2a13 13 0 0 0 0-3 24 24 0 0 1 0-6zm-2 8v1h-1a8 8 0 0 1-1-1v-2a1 1 0 0 0 0-1h-1a1 1 0 0 1-1 0 1 1 0 0 1 0-1l1-1h-2v-1l2-2-3 1a9 9 0 0 1-1-4c-1-1 0-1 1-2l4-1 1 1a14 14 0 0 0 0 5 33 33 0 0 1 0 5l1 3zm17-20a15 15 0 0 1-4-5 5 5 0 0 0-4-2c-1 0-2 0-2 2a4 4 0 0 0 2 2l6 5a3 3 0 0 0 1 1 2 2 0 0 0 2-1 1.118 1.118 0 0 0-1-2zm0 1l-1 1a1 1 0 0 1-1-1l-5-5a4 4 0 0 1-1-1v-1a4 4 0 0 1 3 1 18 18 0 0 0 4 5l1 1zm-43-7l1-1a1 1 0 0 0-1 0 1 1 0 0 0 0 1zm1 2a1 1 0 0 0-1 0l1 1 1-1h-1zm2-4c0 1 0 0 0 0h-1 1zm9 34a13 13 0 0 1-1 5h1a2 2 0 0 0 1-1c0-2 1-4-1-6v2zm17 0v-1 1z"/><path d="M47 56zm32-16c2-16-7-32-26-38a39 39 0 0 0-24 0C12 6 0 21 0 41c0 7 4 16 11 23 12 12 31 15 47 7 12-7 20-17 21-31zM21 70a35 35 0 0 1-7-58C21 5 30 1 43 1c20 1 36 17 35 37a35 35 0 0 1-4 14c-9 20-34 28-53 18z"/></g><circle cx="72" cy="61" fill="#b6dc85" r="16"/><path d="M70 68a1 1 0 0 1-1 0l-6-6a1 1 0 0 1 0-1 1 1 0 0 1 1 0l6 5 12-12a1 1 0 0 1 1 0 1 1 0 0 1 0 1L70 68z" fill="#363840"/></svg>
