<svg xmlns="http://www.w3.org/2000/svg" width="83.036" height="79.036" viewBox="0 0 83.036 79.036" aria-hidden="true">
  <g data-name="Group 2224" transform="translate(-1536 -633)">
    <g data-name="Group 2188" transform="translate(1113.265 -26.947)">
      <path data-name="Path 1736" d="M499.153,696.2c-.1,22.84-19.965,41.564-42.737,40.214A35.767,35.767,0,0,1,423.055,705.1c-2.85-21.644,13.685-43.062,36.017-45,21.231-1.838,37.052,12.222,39.718,31.006C499.028,692.793,499.038,694.5,499.153,696.2Zm-2.181-.9c-.062-.95-.067-2.662-.3-4.341a33.486,33.486,0,0,0-39.941-28.471,38.818,38.818,0,0,0-31.52,33.074A33.859,33.859,0,0,0,462.3,734.2C481.629,732.285,496.93,715.451,496.973,695.3Z" transform="translate(0)" fill="#587c94"/>
      <path data-name="Path 1737" d="M494.147,685.164c.51.346.923.475,1.065.745,2.538,4.826,5.222,9.584,4.729,15.38a10.57,10.57,0,0,1-2.922,6.718,4.767,4.767,0,0,1-.575.562,12.239,12.239,0,0,0-4.9,8.82c-.511,3.8-2.915,6.445-6.433,8a11.552,11.552,0,0,1-2.754,1.03c-3.573.563-6.188,2.552-8.49,5.2a20.329,20.329,0,0,1-3.6,3.186,10.261,10.261,0,0,1-6.581,1.872,27.391,27.391,0,0,1-9.39-1.934,57.2,57.2,0,0,0-6.419-1.848,9.745,9.745,0,0,1-1.186-.549c.361-.648.543-1.446,1.036-1.775,2.331-1.556,3.118-4.043,4.191-6.4a31.326,31.326,0,0,1,2.678-4.907,10.765,10.765,0,0,1,6.362-4.211,7.467,7.467,0,0,0,5.474-4.98c1.635-4.309,4.446-7.492,9.044-8.832a3.8,3.8,0,0,0,2.872-3.718,11.1,11.1,0,0,1,9.44-9.575C490.2,687.608,492.614,687.467,494.147,685.164Zm.18,3.446c-2.092.469-3.968.971-5.873,1.3-4.55.788-7.53,3.776-8.03,8.346a5.258,5.258,0,0,1-3.936,4.87,11.831,11.831,0,0,0-8,7.68,9.459,9.459,0,0,1-6.99,6.352c-3.549.915-5.742,3.457-7.235,6.677-1.153,2.486-2.3,4.978-3.495,7.581,2.784.978,5.812.8,8.79.478a13.878,13.878,0,0,0,7.818-3.248,38.423,38.423,0,0,1,11.116-6.813c4.283-1.751,7.506-4.743,8.639-9.557a15.381,15.381,0,0,1,4.287-7.323c4.748-4.744,5.561-10.155,2.988-16.217A.413.413,0,0,0,494.328,688.61Zm3.631,6.658c-.816,4.98-1.339,6.329-4.48,10.05a24.354,24.354,0,0,0-5.157,9.275,11.1,11.1,0,0,1-4.645,6.37,34.071,34.071,0,0,1-6.021,3.419,25.2,25.2,0,0,0-7.917,4.892,18.569,18.569,0,0,1-7.951,4.257c-1.443.393-2.953.543-4.828.873a13.182,13.182,0,0,0,13.809-2.174,24.968,24.968,0,0,0,3.218-3.219,12,12,0,0,1,6.813-3.962c5.458-1.137,8.992-4.129,9.642-9.946a8.669,8.669,0,0,1,3.508-6.373,19.173,19.173,0,0,0,1.7-1.707C499.035,703.8,499.184,699.946,497.959,695.268Z" transform="translate(-12.159 -12.799)" fill="#587c94"/>
      <path data-name="Path 1738" d="M499.684,740.364a3.954,3.954,0,0,1-4.1-3.745c-.463-3.99,3.029-8.829,6.958-9.641a4.21,4.21,0,0,1,5.053,3.24C508.755,734.55,504.159,740.441,499.684,740.364Zm-2.053-4.594c.017,2.044,1.184,2.911,3.176,2.359,2.409-.667,4.886-3.879,4.98-6.456.074-2.049-1.076-2.995-3.061-2.516C500.177,729.771,497.609,733.106,497.631,735.77Z" transform="translate(-36.956 -33.971)" fill="#587c94"/>
      <path data-name="Path 1739" d="M531.359,703.986A10.623,10.623,0,0,1,527.9,711.8c-2.777,2.459-5.9,1.386-6.517-2.279a10.458,10.458,0,0,1,3.028-9.32c1.145-1.191,2.591-2.14,4.309-1.447a4.3,4.3,0,0,1,2.54,3.827C531.313,703.023,531.325,703.471,531.359,703.986Zm-8.119,3.423c0,.591-.117,1,.023,1.295.368.764.711,1.891,1.319,2.088a2.894,2.894,0,0,0,2.291-.9,8.559,8.559,0,0,0,2.54-6.818,2.847,2.847,0,0,0-1.171-2.144,2.882,2.882,0,0,0-2.325.75A8.783,8.783,0,0,0,523.239,707.409Z" transform="translate(-49.991 -19.577)" fill="#587c94"/>
      <path data-name="Path 1740" d="M473.542,751.941q3.916.036,4,3.958c.084,4.052-4.641,8.558-8.644,8.244a3.915,3.915,0,0,1-3.775-4.564C465.434,755.762,469.686,751.906,473.542,751.941Zm-4.109,10.181c2.552-.04,5.865-2.86,6.35-5.4.314-1.648-.625-2.717-2.4-2.729-2.6-.018-5.846,2.76-6.287,5.386A2.113,2.113,0,0,0,469.433,762.122Z" transform="translate(-21.503 -46.692)" fill="#587c94"/>
    </g>
    <g data-name="Group 2200" transform="translate(327.281 -1551.357)">
      <circle data-name="Ellipse 376" cx="16.018" cy="16.018" r="16.018" transform="translate(1259.719 2231.357)" fill="#b6dc85"/>
      <path data-name="Path 1310" d="M1273.219,2254.251a.734.734,0,0,1-.522-.216l-5.889-5.9a.737.737,0,1,1,1.043-1.042h0l5.369,5.381,11.775-11.749a.737.737,0,0,1,1.042,1.043l-12.3,12.27A.734.734,0,0,1,1273.219,2254.251Z" fill="#363840" stroke="#363840" stroke-miterlimit="10" stroke-width="0.175"/>
    </g>
  </g>
</svg>
