<svg xmlns="http://www.w3.org/2000/svg" width="45" height="41" viewBox="0 0 45 41" aria-hidden="true">
  <g data-name="Group 1226" fill="#587c94">
    <path data-name="Path 1347" d="M45 36l-4-5-2-1-1-2a62 62 0 0 0-5-4v-1a1 1 0 0 0-1 0l-1-1-12-12h-1a59 59 0 0 1-4-5 29 29 0 0 0-5-4L8 0 7 1a10 10 0 0 0 0 6 30 30 0 0 0 2 5 48 48 0 0 0 11 14 13 13 0 0 0 1 1h3a20 20 0 0 0 1-2h1a1 1 0 0 1 1 0l1 1v2l2 2 3 3a72 72 0 0 0 7 7 2 2 0 0 0 1 1 2 2 0 0 0 1-1 8 8 0 0 0 3-2 2 2 0 0 0 0-2zm-4 3l-2-1-1-1-6-7-2-2v-1l2-2a1 1 0 0 1 0 1 5 5 0 0 1 0 1v1a4 4 0 0 0 1-1 2 2 0 0 1 0-1v1a2 2 0 0 0 0 1 1 1 0 0 0 1 0v-1 2a1 1 0 0 1 0-1h1l1 1 1 1a4 4 0 0 1-1 1v1l1-2h1a1 1 0 0 1 0 1h-1a2 2 0 0 0 0 1 3 3 0 0 0 1 0l1-1a1 1 0 0 1 0 1l-1 1h1v-1a8 8 0 0 1 1 1 2 2 0 0 1 1 0l-1 1v1a2 2 0 0 0 1-1l1 1 2 2a7 7 0 0 0-1 1 5 5 0 0 1-1 1h-1zM30 24l-1 1-1-1-1-1a1 1 0 0 0-2 0l-1 1-2 2h-1l-1-1-1-1A44 44 0 0 1 9 9a12 12 0 0 1-1-5 7 7 0 0 1 0-1 1 1 0 0 1 1 0l20 20h1v1z"/>
    <path data-name="Path 1348" d="M9 26a1 1 0 0 0-1 0v2a3 3 0 0 0 0 1 1 1 0 0 0 1 1 1 1 0 0 0 1-1 3 3 0 0 0-1-3zm0 3a3 3 0 0 1 0-2 3 3 0 0 1 0 2z"/>
    <path data-name="Path 1349" d="M8 25a2 2 0 0 0-2-2 1 1 0 0 0-1 1 1 1 0 0 0-1 0 1 1 0 0 0 1 1h1a3 3 0 0 0 2 0zm-1-1a2 2 0 0 1-2 0 1 1 0 0 1 2 0z"/>
    <path data-name="Path 1350" d="M9 20a1 1 0 0 0 0-1 1 1 0 0 0-1 1 3 3 0 0 0 1 3 4 4 0 0 0 0-3zm0 2a1 1 0 0 1 0-2 1 1 0 0 1 0 2z"/>
    <path data-name="Path 1351" d="M12 24a1 1 0 0 0-1-1 2 2 0 0 0-1 0v1a1 1 0 0 0 1 0 1 1 0 0 0-1 1 2 2 0 0 0 2-1z"/>
    <path data-name="Path 1352" d="M7 21a1 1 0 0 0-1-1 2 2 0 0 0-1-1 1 1 0 0 0-1 1 1 1 0 0 0 0 1 5 5 0 0 0 1 1 4 4 0 0 1 1 0 1 1 0 0 0 1 0 1 1 0 0 0 0-1zm-2 0a2 2 0 0 1 0-1 2 2 0 0 1 1 1 2 2 0 0 0-1 0z"/>
    <path data-name="Path 1353" d="M13 28a3 3 0 0 0-2-2v2a2 2 0 0 0 1 1 1 1 0 0 0 1 0 1 1 0 0 0 0-1zm-1 0a1 1 0 0 1 0-1 1 1 0 0 1 0 1z"/>
    <path data-name="Path 1354" d="M14 28a16 16 0 0 0-5-10 8 8 0 0 0-3-2 5 5 0 0 0-5 2v5a1 1 0 0 1 0-1 2 2 0 0 1 0 1 1 1 0 0 0 0 2 16 16 0 0 0 6 9 5 5 0 0 0 3 1l2-1a6 6 0 0 0 2-6zM1 21v1a2 2 0 0 1 0-3v2zm1 5v-2a2 2 0 0 1 0 2zm1 1v-1a2 2 0 0 1 0 1zm2 4H4a3 3 0 0 1 0-1 4 4 0 0 1 0-1h1a4 4 0 0 1 0 1 1 1 0 0 1 0 1zm1 1v-1H5a1 1 0 0 1 1-1 1 1 0 0 1 0 1 1 1 0 0 1 0 1zm1 0zm2 1H8 7a1 1 0 0 0 1 0 2 2 0 0 1 1 0zm3-1l-3-1a14 14 0 0 1-6-11 3 3 0 0 1 1-3 2 2 0 0 1 1 0 4 4 0 0 1 2 1c3 2 7 7 7 11a3 3 0 0 1-2 3z"/>
  </g>
</svg>
