<svg xmlns="http://www.w3.org/2000/svg" width="40" height="37" viewBox="0 0 40 37" aria-hidden="true">
  <g data-name="Group 1355" fill="#587c94">
    <path data-name="Path 1631" d="M40 35a29 29 0 0 0-6-12 4 4 0 0 0-4-1H7a3 3 0 0 0-1 1 14 14 0 0 0-6 12c0 2 0 2 2 2h35l1-1h-2H3c-2 0-2 0-2-2a14 14 0 0 1 4-8 5 5 0 0 1 4-2l21-1h1a3 3 0 0 1 2 1 3 3 0 0 1 1 1 29 29 0 0 1 4 10l1 1 1-1z"/>
    <path data-name="Path 1632" d="M30 8c-1-5-5-8-11-8a9 9 0 0 0-3 0c-5 2-9 7-7 13a12 12 0 0 0 19 4 9 9 0 0 0 2-9zm-3 8a9 9 0 0 1-7 3c-4-1-7-2-9-6a7 7 0 0 1 2-9 9 9 0 0 1 7-2 10 10 0 0 1 4 1 10 10 0 0 1 2 2 13 13 0 0 1 1 1 10 10 0 0 1 1 2 7 7 0 0 1-1 7v1z"/>
    <g data-name="Group 1354">
      <path data-name="Path 1633" d="M23 13a8 8 0 0 1-1 0v1l1-1h1v1a1 1 0 0 0 1-1 1 1 0 0 1 0-1h1l-1-1v1a19 19 0 0 0-1-3 3 3 0 0 1 2-1 14 14 0 0 1 0 2V8a4 4 0 0 0 0-1 6 6 0 0 0 0-2 4 4 0 0 0-1-1h-1a2 2 0 0 1 0 1 2 2 0 0 1-1 0 3 3 0 0 1-1 0l-1-1v1a5 5 0 0 0 1 0 3 3 0 0 1 0 1 7 7 0 0 1-1 1h-1v1a3 3 0 0 0 1 0V7h1a4 4 0 0 1 1-1v1a5 5 0 0 1 1 1l-2 1-1 1h1l2-1v1a8 8 0 0 1 0 2 10 10 0 0 1-1 1zm1-5l-1-2a3 3 0 0 0 1 0 3 3 0 0 1 0-1 5 5 0 0 1 1 2z"/>
      <path data-name="Path 1634" d="M27 13a22 22 0 0 1-2 1l-1 1-2 1a2 2 0 0 0 1 0 10 10 0 0 1 1-1 9 9 0 0 0 2-1l1-1zm-5 3z"/>
      <path data-name="Path 1635" d="M36 31l-1-1v1a3 3 0 0 1-1 0l-1-2 1-1a2 2 0 0 0-2 0l-1-1v1h-1l-1-1a9 9 0 0 1 1-1 5 5 0 0 1 1 0l1-1-3 1h-1a3 3 0 0 0 0-1h-1v1a5 5 0 0 1 1 0l-1 1h-1a1 1 0 0 0 1 1 1 1 0 0 0 0-1h1a7 7 0 0 1 1 2 5 5 0 0 1-1 0l-1 1h1l1-1 1 1a10 10 0 0 1 0 1l1 1-1-3h1a3 3 0 0 1 1 0l1 2a1 1 0 0 1 0 1l-3 1h2a15 15 0 0 1 2-1v1l1 2h1l-1-2-1-1h1a4 4 0 0 0 1-1z"/>
    </g>
  </g>
</svg>
