<svg xmlns="http://www.w3.org/2000/svg" width="39" height="38">
  <g fill="#587c94" data-name="Group 1227">
    <path d="M10 11h0c-2-1-5-1-6 2a5 5 0 0 0 0 2 6 6 0 0 0 0 2l1 1v-1a3 3 0 0 1 0-2 5 5 0 0 1 5-4z" data-name="Path 1355"/>
    <path d="M24 32l2 1a2 2 0 0 0 2 0 7 7 0 0 0-4-1z" data-name="Path 1356"/>
    <path d="M20 34z" data-name="Path 1357"/>
    <path d="M12 33a2 2 0 0 0 1 0h-1z" data-name="Path 1358"/>
    <path d="M21 32z" data-name="Path 1359"/>
    <path d="M39 15a8 8 0 0 0-3-6c-3-2-5-2-8-1a16 16 0 0 0-1-3 8 8 0 0 0-8-5 8 8 0 0 0-7 7v1a1 1 0 0 1-1 0C8 6 6 7 3 9a4 4 0 0 0-2 1 9 9 0 0 0 0 8 9 9 0 0 0 4 5 2 2 0 0 1 2 3 68 68 0 0 0 0 8c0 2 1 2 3 3a59 59 0 0 0 20 0c2 0 2-1 2-2a16 16 0 0 0 0-2v-6a48 48 0 0 0 0-7l-1-1-1 1v9c0 2 0 2-3 3h3a1 1 0 0 1-1 2 6 6 0 0 1-1 0l-4-1h-8 2l11 1 1 1-1 1h-4l-14-1H9l5-1a6 6 0 0 0-2 0H9v-1h1v-1a10 10 0 0 0 3 0l-3-1h16-3 4l1-1h-6a105 105 0 0 1-12-1l-1-1v-7l-1-1-1 1a5 5 0 0 1 0 2 8 8 0 0 1-5-9c1-5 7-7 10-4l1 1 1-1a16 16 0 0 1 0-4 5 5 0 0 1 5-4c3 0 6 2 7 4a4 4 0 0 1 1 2v1a6 6 0 0 1 0 1 5 5 0 0 1-1 2 14 14 0 0 1-1 1 6 6 0 0 0 0 1c1 1 1 0 2-1a9 9 0 0 0 0-1c1-2 2-3 4-3a8 8 0 0 1 4 2 6 6 0 0 1 2 5 12 12 0 0 1 0 2 4 4 0 0 1-1 2h-1v1a3 3 0 0 0-1 1 3 3 0 0 0 2 0 5 5 0 0 0 1-1 7 7 0 0 0 2-4 9 9 0 0 0 0-2z" data-name="Path 1360"/>
  </g>
</svg>
