<svg xmlns="http://www.w3.org/2000/svg" width="60" height="66">
    <path d="M11 66l5-4c1 0 1 4 3 4l2-2 2 2 4-1 2 1a4 4 0 0 0 2-1 2 2 0 0 0 2 1c3 0 4-3 5-3l2 3c3 0 4-4 4-6v-2l-2 2v2l-1 2-2-5-1 1c-1 2-2 4-4 4a2 2 0 0 1-1 0c2-1 2-2 2-3l-1-2c-2 0-3 2-3 4a4 4 0 0 0 0 1 1 1 0 0 1-1 1 2 2 0 0 1-2-2c1-1 2-3 2-7 0-2-1-3-2-3s-3 3-3 7a13 13 0 0 0 1 3 2 2 0 0 1-2 1c-1 0-2 0-2-2v-3l-2 3-1 2c-2 0-2-5-3-5l-3 3v-2h-1a1 1 0 0 0-1 0v3l-1 2 1 1zm22-5l1 1a2 2 0 0 1-1 1 2 2 0 0 1-1-1l1-1zm-5-6l1 2-1 4-1-1 1-5zm-6 1a1 1 0 1 0 0-2 1 1 0 1 0 0 2zM5 66c3 0 4-3 5-6a15 15 0 0 0-1-5l-1-1a2 2 0 0 0-1 2 11 11 0 0 0 1 2 7 7 0 0 1 0 3c0 2-1 4-3 4-1 0-3-1-3-4a19 19 0 0 1 1-5l-1-2-1 2a14 14 0 0 0-1 5c0 3 1 5 5 5zm48-7l-1 1c-1 2-2 5-4 5l-1-1c0-1 3-1 3-3a2 2 0 0 0-2-2c-2 0-3 2-3 4a2 2 0 0 0 2 3c3 0 4-2 5-4l1 4 1-1c1-3 2-5 4-5l1 1a1 1 0 0 0 1-1l-2-2c-3 0-4 5-4 5l-1-4zm-6 1l1 2a2 2 0 0 1-2 1l1-3zm1-48a1 1 0 0 0-1 0l1 1c2 0 4-2 4-3a1 1 0 0 0-1-1c0 1-1 3-3 3zm4 0a4 4 0 0 1-4 2l4 4 1-4-1-2zm-2-3h-2a3 3 0 0 1-1 0v1a1 1 0 0 0 1 1l2-2zM10 39c2-4-4-3-2-7l2 1a2 2 0 0 1-1-2l2-4a15 15 0 0 0 2-5h-1v1l-2 3v-1l1-4-2 4v-4l-2 4v-3l-1 4 1 4 1-2a1 1 0 0 0 0-1v-1l1 1a1 1 0 0 1 1 0c0 2-3 4-3 7s3 4 3 5z"/><path d="M13 27l-1 2h-1a1 1 0 0 0 1 1l1-2v-1a3 3 0 0 1 1-2l1 4-1 1h-1a1 1 0 0 0 1 1 1.118 1.118 0 0 0 2-1l-2-5a4 4 0 0 1 1-2c0 4 3 7 3 8a1 1 0 0 1-1 1 1 1 0 0 1 0-1h-1a1 1 0 0 0 0 1 1 1 0 0 0 1 1 2 2 0 0 0 2-2c0-2-4-4-4-8a4 4 0 0 1 1-2 6 6 0 0 0-3 6zm30-13c2 0 3-1 3-2l-1-2h-1l-1-1a1 1 0 0 0-1 0 9 9 0 0 1-2 1h-1a4 4 0 0 0 4 4zm-2-3h2a12 12 0 0 0 2 1h-1l-3-1zM16 44c2 0 3-2 3-3 0-3-2-5-4-5a2 2 0 0 0-2 3 3 3 0 0 0 3 3 2 2 0 1 0 0-4 1 1 0 0 0-1 1l2 1a1 1 0 0 0 0-1 1 1 0 0 1 0 1h-1a2 2 0 0 1-2-1 1.414 1.414 0 0 1 2-2 3 3 0 0 1 2 3 2 2 0 0 1-2 2c-3 0-4-2-4-5a3 3 0 0 0-1 3 5 5 0 0 0 5 4zm9 0a2 2 0 0 1-2 1h-1a4 4 0 0 0-2-3 3 3 0 0 1 0 1c0 1-1 2-3 2l4 2c1 0 2 2 6 2a7 7 0 0 0 3-1 2 2 0 0 0 2 1l3-1h-1a8 8 0 0 1-1 0 4 4 0 0 1-3-2l-1-1s-1 2-4 2h-2v-1l1 1a6 6 0 0 0 5-2l1-1a1 1 0 0 1 0 1 3 3 0 0 0 3 2l2-3h1l-2-2a7 7 0 0 0-2 0 3 3 0 0 0-1 0 4 4 0 0 0-2-1 4 4 0 0 1-4 3zm7-1a1 1 0 1 1 0 1 1 1 0 0 1 0-1z"/><path d="M45 43s4-3 4-5a3 3 0 0 0-3-4c-3 0-2 3-6 3v2c2 0 4-3 4-3v1l-3 3 3 1 3-3a4 4 0 0 1-3 4l1 1zm2-6a2 2 0 0 1-1 0 1 1 0 0 1 0-1v-1a2 2 0 0 1 2 1l-1 1zM12 12a1 1 0 1 0 1 1 1 1 0 0 0-1-1z"/><path d="M13 13a1 1 0 1 0 0 1 1 1 0 0 0 0-1zm-4 6a1 1 0 0 0 1 1 1 1 0 0 0 1 0 2 2 0 0 1-1-2 2 2 0 0 1 0-1 2 2 0 0 0-1 2zm-2 2a4 4 0 0 0 2-1 8 8 0 0 1-2 0 2 2 0 0 1-2-1c0 2 1 2 2 2zm5-5a3 3 0 0 0-1 2 2 2 0 0 0 2 2 1.118 1.118 0 0 0 1-2 3 3 0 0 0-2-2z"/><path d="M6 18l1 1a2 2 0 0 0 1-1 2 2 0 0 1-2 0zm1-5a2 2 0 0 0 1 0 2 2 0 0 1-2-3 2 2 0 0 0-1 2 1.118 1.118 0 0 0 2 1zm3-2L9 9a1.118 1.118 0 0 0-2 1c0 2 2 2 3 2a4 4 0 0 0 0-1zm2 3h-1v-1a2 2 0 0 0-1 0 4 4 0 0 0-2 1c-2 1-2 2-2 3h2a4 4 0 0 0 2 0 4 4 0 0 0 2-3zm-3 3a2 2 0 0 1-2-2l1-1v1a2 2 0 0 0 1 1v1zm0-3h1l1 1h-1l-1-1zm29 5a1 1 0 1 0-1 1 1 1 0 0 0 1-1z"/><path d="M36 21a1 1 0 1 0 1-1 1 1 0 0 0-1 1zm2-4a1 1 0 1 0 1-1 1 1 0 0 0-1 1zm3 3a1 1 0 1 0 1 1 1 1 0 0 0-1-1z"/><path d="M41 22a1 1 0 0 0 0 1 1 1 0 1 0 0-1zm0-4a1 1 0 0 0-1 0 1 1 0 1 0 2 0 1 1 0 0 0-1 0zm-6 1a1 1 0 1 0 0 2 1 1 0 1 0 0-2zm4-4a1 1 0 0 0 1 0 1 1 0 1 0-1 0z"/><path d="M35 17a1 1 0 1 0 1 0 1 1 0 0 0-1 0zm3 3a1 1 0 1 0 1-1 1 1 0 0 0-1 1z"/><path d="M39 24a1.118 1.118 0 1 0-1-2 1.118 1.118 0 0 0 1 2zm-3-8a1 1 0 1 0 1 0 1 1 0 0 0-1 0zm1 27a4 4 0 0 0-1 3 2 2 0 0 0 1 1c4 0 6-2 6-3l-1-2a5 5 0 0 1-3 1 4 4 0 0 1-2 0zm2 1a4 4 0 0 0 2 0 2 2 0 0 1-1 2 4 4 0 0 1-2 0 5 5 0 0 0 1-1 2 2 0 0 0 0-1z"/><path d="M37 41v1l2 1a3 3 0 0 0 2-1 1 1 0 0 0 0-1l-2-1-2 1zm-1-13v2l1 1 1-1-1-2h2l-1 1h1l2-1-2-2v1l-1 1-1-1c0-2 3-1 3-2l-2-1a1 1 0 0 0-1 1v1c0 1 0 0 0 0l-1-1v-1c0-2-2-1-2-2a5 5 0 0 0-1 2c0 2 3 1 3 3l-2-1-1 1 1 1a2 2 0 0 1-1 2c2 0 2-2 3-2zm4 2l-1 1h1v1h1l1 1v-2l1-2 1 2-1 2h1l1 1v-2h1l-1-1a3 3 0 0 1-1-2c2 0 2 2 3 2v-1h1l-1-1 1-1h-1a7 7 0 0 1-2 1l-1-1 1-1h2l-1-1v-1l-1 1-1-1v2l-1 1v-3h-2v1h-1l1 1 1 2-2 1zm-6 11a5 5 0 0 0 5-4 6 6 0 0 1-3 0l-4-1v1h-1l2 2a7 7 0 0 0 3-1v1l-2 1c-2 0-3-2-3-3 0-3 2-2 2-3a1 1 0 0 1 1-1h2l-1-1 1-1h-2a5 5 0 1 0 0 10z"/><path d="M35 36a1 1 0 0 0 1-1 2 2 0 0 0-2-1 1 1 0 0 1 0 1v1a1 1 0 0 0 1 0zm6 0a1 1 0 0 0 1-1c0-1 0-2-2-2a1 1 0 0 1 0 1v1a1 1 0 0 0 1 1z"/><path d="M38 36a2 2 0 0 0 2-2 3 3 0 0 0-3-3 1 1 0 0 1 0 1l-1 2a2 2 0 0 0 2 2zm0-3v-1 1a1 1 0 0 1 0 1l-1-1h1zM16 14l-1-1-1 1a2 2 0 0 0 2 2 4 4 0 0 0 4-2l2 3a2 2 0 0 0 2-1 1 1 0 0 1-1 0v-1l1-2v1l-1-3a3 3 0 0 0-3 2c0-2 0-3-2-3a3 3 0 0 0-3 2 1 1 0 0 1 1-1l1 1a4 4 0 0 1 0 1l-1 1zm7-1l-1 3v-1l1-2zm-2 0zm-2-1l1 1a6 6 0 0 1 0 1h-1v-2zm-1-1h1l-2 4 1-4z"/><path d="M14 22a4 4 0 0 1 3-2h1a3 3 0 0 0-1 2v3l1 2 1 1v1l1-1a3 3 0 0 1-1-2l-1-1v-3l1-2a3 3 0 0 1 1 3 5 5 0 0 1 0 1l2-2c0-1 0-2-3-2a6 6 0 0 1 3-1l2 2a2 2 0 0 0-2-3 6 6 0 0 0-3 1l2-1-2-2-1 3-2-3-1 2h1a3 3 0 0 1 2 1 11 11 0 0 0-2 0 2 2 0 0 0-1 0 2 2 0 0 0-1 3zm33 11c0 1 3 1 3 3a6 6 0 0 0 2-4c0-2-1-3-2-3a1.118 1.118 0 0 0-1 2 2 2 0 0 0 0 1 2 2 0 0 0-1-1 1.118 1.118 0 0 0-1 2zm-8-21a3 3 0 0 0 0-1 2.121 2.121 0 0 1-3 3 2 2 0 0 1 0-1h-1a2 2 0 0 1-1-1 3 3 0 0 0-1 2l1 2 1-1a4 4 0 0 0 1 0 3 3 0 0 0 3-3zm-3-1v1a2 2 0 0 1 1 0 3 3 0 0 0 1-2V9v1a3 3 0 0 0-2-1 2 2 0 0 0-2 2 1.118 1.118 0 0 1 2-1l1 1a1 1 0 0 0-1 0zM11 3l1-1 1 1-1 1v1l2-1 1 2 1-2 1 1V3h2l-2-2 1-1h-1l-2 1-2-1-2 2v1zm11-1l2 1h1l-1-1h-2z"/><path d="M7 5a2 2 0 0 0-1 0 2 2 0 0 0 0 1 4 4 0 0 0 2-1H7zM5 4h4L6 8v1l4-2 1 1-1 1 1 1 2-1 1 3 1-3 2 1 1-2 3 2V9l-1-3V5l4 1-3-4h1l2-2-5 1 3 3h-4l1 3-2-1h-1v1l-1-1-1 3-1-3-1 2V5L9 6l2-3H8l2-2-3-1H6l2 1-3 3z"/><path d="M24 9a11 11 0 0 0-3-2l3 4V9zm23-6h-3l3 2a1 1 0 0 1-1 1l-1-1h-1a10 10 0 0 1 1 1l-2 2h1a20 20 0 0 0 2 0c4 0 6-1 6-4V1a1 1 0 0 1 1-1h-2a1 1 0 0 0-1 1v2l-1 1a1 1 0 0 1-1-1l1-2-3-1a6 6 0 0 0-2 1s2 0 3 2zm4-2v1l-1-1h1zm0 2a1 1 0 0 1 0 2c0 1-1 2-3 2a6 6 0 0 1-1 0c2-1 4-2 4-4z"/><path d="M52 25l-2 2c0-2 3-3 3-5 0-3-2-4-3-4-2-2-3-4-5-4l-2 1a3 3 0 0 1-2-1c0 2 1 6 5 6l4-1a2 2 0 0 1 2 2 3 3 0 0 1-1 3l-1-1v-3a3 3 0 0 0-2 2l2 2a11 11 0 0 0-1 3 11 11 0 0 0-1-3c-1-3-1-3-3-3 0 1 4 3 4 6v1c-1-4-3-4-4-5s0-2-2-3a1 1 0 0 1 0 1v1c0 2 2 2 3 3a9 9 0 0 1 3 4l1-1 1 1a4 4 0 0 0 2-3l-1-1zm-3-7h-1l-2 1 1-1h-3l1-1h-1v-1l1 1v-1c0-1 0 0 0 0l1-1 1 2v-1l2 2zM33 6h1l-1 2h1l1-1 1 1v1l1-1 2 1a4 4 0 0 0 5-5c0-2-2-4-5-4a14 14 0 0 0-2 1l-1-1v1h-3l1 2h-1l1 1-1 2zm6-5c2 0 3 1 3 3 0 3-2 4-3 4l-2-1V6l2 1V6h2l-1-2 1-1h-2V2h-2l2-1zm-4 2h1V2l1 1h1l-1 1h1l-1 1 1 1-1-1-1 1V5h-1l1-1-1-1zm-7 35a1 1 0 0 0-1 0v1a1 1 0 0 0-1 0c-2 0-1 3-4 3a9 9 0 0 1-1 0l3 1c2 0 3-1 3-2a2 2 0 0 0 0-1 1 1 0 0 1 1 0 1 1 0 0 0 1 0 1 1 0 0 0 0-1 1 1 0 0 0-1-1z"/><path d="M20 40a3 3 0 0 0 2 1l1-1a3 3 0 0 0-2-2 1 1 0 0 1-1 0l-1-3a2 2 0 0 0-2-1l-1 1 1 1a3 3 0 0 1 2 2 4 4 0 0 0 1 2zm1-2l1 1v1l-1-1v-1zm2-12c0-1 2-1 2-3a3 3 0 0 0-2-2 2 2 0 0 1 0 1c0 2-3 2-3 4l3 2v1a3 3 0 0 1-2-1 3 3 0 0 0-1 2c0 2 2 3 4 3a4 4 0 0 0 1 0 2 2 0 0 1-2-1l2-4-2-2z"/><path d="M26 33l-2 1a4 4 0 0 1-3-1h-1v1a4 4 0 1 0 8 0 2 2 0 0 0-2-2 2 2 0 0 1-1-2 3 3 0 0 0-1 1c0 2 2 2 2 2zm1 1v1a2 2 0 0 1-1 2l-1-1 2-2zm-17 1a1 1 0 0 0 2 0 1 1 0 1 0 2 0 1 1 0 0 0 0-1 1 1 0 0 0 0-2 1 1 0 0 0-1 0 1 1 0 0 0-1-1 1.118 1.118 0 0 0-1 2 1.118 1.118 0 0 0-1 2zm2-2a1 1 0 0 1 1 1 1 1 0 0 1 0 1 1 1 0 0 1-1-1 1 1 0 0 1 0-1z"/></svg>
