<svg xmlns="http://www.w3.org/2000/svg" width="75.742" height="12.823" viewBox="0 0 75.742 12.823">
  <g id="Icons_Rating_Stars" data-name="Icons/Rating Stars" transform="translate(0)">
    <path id="Star_1" data-name="Star 1" d="M6.705,9.895,2.743,12.823,4.166,7.956.294,4.9l4.842-.08L6.705,0,8.274,4.818l4.842.08L9.244,7.956l1.424,4.867Z" transform="translate(-0.294)" fill="#facc00"/>
    <path id="Star_2" data-name="Star 2" d="M6.705,9.895,2.743,12.823,4.166,7.956.294,4.9l4.842-.08L6.705,0,8.274,4.818l4.842.08L9.244,7.956l1.424,4.867Z" transform="translate(15.436)" fill="#facc00"/>
    <path id="Star_3" data-name="Star 3" d="M6.705,9.895,2.743,12.823,4.166,7.956.294,4.9l4.842-.08L6.705,0,8.274,4.818l4.842.08L9.244,7.956l1.424,4.867Z" transform="translate(31.166)" fill="#facc00"/>
    <path id="Star_4" data-name="Star 4" d="M6.705,9.895,2.743,12.823,4.166,7.956.294,4.9l4.842-.08L6.705,0,8.274,4.818l4.842.08L9.244,7.956l1.424,4.867Z" transform="translate(46.896)" fill="#facc00"/>
    <path id="Star_5" data-name="Star 5" d="M6.705,9.895,2.743,12.823,4.166,7.956.294,4.9l4.842-.08L6.705,0,8.274,4.818l4.842.08L9.244,7.956l1.424,4.867Z" transform="translate(62.626)" fill="#facc00"/>
  </g>
</svg>
