<svg version="1.1" id="Layer_1" xmlns="http://www.w3.org/2000/svg" xmlns:xlink="http://www.w3.org/1999/xlink" x="0px" y="0px"
     viewBox="0 0 108.4 37.6" style="enable-background:new 0 0 108.4 37.6;" xml:space="preserve" aria-hidden="true">
<style type="text/css">
	.st0{fill:#fff;}
</style>
    <path class="st0" d="M77,23.8c0.2,0,0.4,0,0.6,0.1c0.3,0,0.6,0,0.8,0c0.2,0,0.4,0,0.6,0c0.3,0,0.5,0,0.8,0c0.2,0,0.3,0,0.5,0
	c0.3,0,0.5,0,0.8,0h1.5c0.2,0,0.3,0,0.5,0h1.3c0.1,0,0.3,0,0.4,0h0.1c0.1,0,0.2,0,0.3,0c0.1,0,0.1,0,0.2,0h0.1c0.1,0,0.3,0,0.4,0
	l0,0c0.1,0,0.1,0,0.2,0h0.1c0.1,0,0.3,0,0.4,0c0.1,0,0.1,0,0.2,0c0.2,0,0.4,0,0.5,0c0.2,0,0.3,0,0.5-0.1c3.6-0.5,2.2-2.1,1.5-2.7
	c-1.7-1.6-6.7-3.4-14-3.6h-0.9c-3.5,0-7.1,0.5-10.5,1.3c-2.3,0.5-4.5,1-6.2,1.5h-0.1c-0.3,0.1-0.4,0-0.4,0c0-0.1,0-0.3-0.1-0.4
	c0-0.2,0-0.4-0.1-0.6c0-0.3-0.1-0.5-0.1-0.8v0c0-0.1,0-0.2,0-0.3c0-0.3,0-0.6,0-0.8v-0.3c0.2-1.8,0.2-3.6-0.1-5.4
	c0-0.1,0-0.2-0.1-0.3c-0.2-0.6-0.6-1-1.1-1.4c-0.9-0.5-2.5-0.5-5.2,0.1c-0.9,0.2-2.6-0.1-4.1,0.1c-0.3,0-0.7,0.1-1,0.3
	c-0.2,0.1-0.5,0.3-0.6,0.5c-0.8,1.6-0.3,6-1.9,8.5c-0.1,0.1-0.1,0.2-0.2,0.3c0,0.1-0.1,0.2-0.1,0.2l-0.2,0.2c-0.1,0-0.1,0.1-0.2,0.2
	c-0.1,0.1-0.1,0.1-0.3,0.2c-0.2,0.1-0.4,0.2-0.6,0.1l0,0c-0.2,0-0.5-0.1-0.8-0.1c0,0-0.1,0-0.2,0c-0.2,0-0.4,0-0.6-0.1
	c-0.1,0-0.1,0-0.2,0c-0.2,0-0.4,0-0.6-0.1c-0.1,0-0.3-0.1-0.4-0.1c-0.2,0-0.3,0-0.5-0.1L37.3,20c-0.1,0-0.3,0-0.4,0
	c-0.1,0-0.1,0-0.2,0c-0.2,0-0.4,0-0.6-0.1c-0.1,0-0.2,0-0.3,0l-0.9-0.1h-0.1c-0.1,0-0.2,0-0.3,0c-0.4,0-0.7-0.1-1.1-0.1
	c-0.1,0-0.2,0-0.3,0c-0.4,0-0.8-0.1-1.1-0.1h-0.2c-0.4,0-0.8-0.1-1.2-0.1c-0.1,0-0.1,0-0.2,0c-0.4,0-0.9-0.1-1.3-0.1
	c-0.1,0-0.1,0-0.2,0l-1.3-0.1c-0.1,0-0.1,0-0.2,0c-0.4,0-0.9,0-1.3-0.1H26c-0.4,0-0.9,0-1.3,0h-0.1c-0.4,0-0.9,0-1.3,0h-0.6
	c-0.3,0-0.6,0-0.8,0c-7.6,0.1-11.2,1.1-11.8,2c-0.4,0.4-0.2,1.1,0.6,1.6c0.7,0.4,1.4,0.6,2.2,0.6c3.8,0.2,7.5,0.1,11.3-0.3
	c0.1,0,0.2,0,0.4,0h0.1c0.1,0,0.2,0,0.3,0h0c0.1,0,0.2,0,0.3,0h0.1c0.1,0,0.2,0,0.3,0c4.3-0.6,8.6-1,12.9-1c0.6,0,1.4,0,2.2,0
	c0.2,0,0.3,0.1,0.5,0.2c0.3,0.2,0.6,0.4,1,0.4c0.1,0,0.2,0,0.3,0.1c0.2,0,0.4,0,0.6,0h0.2c0.1,0,0.3,0,0.4,0h4.1
	c1.7,0,3.4-0.1,4.8-0.1c0.2,0,0.3,0,0.5,0c0.3,0,0.6,0,0.9,0c0.7,0,1.4-0.2,2-0.4c0.3-0.2,0.5-0.4,0.8-0.6c0.2-0.2,0.6-0.3,0.9-0.3
	c2.8,0,5.5,0.4,8.1,1.2c0.9,0.3,1.9,0.5,3.3,0.8c0.6,0.1,1.1,0.3,1.7,0.4l0.5,0.1c0.4,0,0.7,0.1,1.1,0.2c0.2,0,0.4,0.1,0.6,0.1
	c0.3,0,0.6,0.1,1,0.1c0.2,0,0.4,0,0.6,0.1c0.3,0,0.6,0.1,0.9,0.1c0.2,0,0.4,0,0.6,0.1C76.3,23.8,76.6,23.8,77,23.8"/>
    <path class="st0" d="M58.6,12.9c4.6-1.4,9.5-2.1,14.3-2c3.2,0.1,1.7,1-1.1,1.5c-7.5,1.5-10.7,2.3-11.8,3.7c-0.2,0.3-0.3,0.6-0.4,0.9
	c0,0.3,0,0.6,0,0.9l0,0c0.1,0,0.1,0,0.1,0c5.6-1.5,11.4-2.4,17.2-2.6h0.9c7.9,0.1,11.2,2.2,13.1,3.9c0.3-1.6,0.7-3.1,1.2-4.6
	c0.1-0.4,0.3-0.8,0.5-1.4c0.1-0.3,0.2-0.6,0.3-0.9c0.1-0.3,0.2-0.5,0.3-0.9c0.5-1.2,0.9-2.6,1.1-3.5C96,1.7,93,0,86.3,0
	c-1.3,0-2.5,0.1-3.8,0.2c-7.6,0.8-19.9,6.5-24,9.2c0.1,0.3,0.1,0.7,0.1,1C58.7,11.2,58.7,12,58.6,12.9"/>
    <path class="st0" d="M6.9,11.1C6.9,11.4,7,11.7,7,12c0.4,2.3,0.9,4.7,1.6,6.9c1.2-0.8,2.5-1.3,3.9-1.6c3.6-0.7,7.2-1.1,10.9-1.2
	c1.9,0,3.5,0.1,5.1,0.2c1.1,0.1,2.2,0.2,3.2,0.4c1.5,0.2,3,0.6,4.5,0.9c2.2,0.6,3.8,1.1,5.1,1.4c0.9-1.7,1.4-3.6,1.7-5.4
	c-5.8-2.3-12.1-3.5-18.3-3.6c1.3-1.9,12.3-1.9,17.9,0.1c0,0,0.3,0.1,0.6,0.2c0-0.3-0.1-1.4-0.1-1.6c-3.5-2.4-13.3-8.6-24.4-8.6
	c-0.5,0-1,0-1.4,0C9.3,0.6,6.1,4,6.3,6.3c0.1,1,0.2,2.4,0.5,4C6.8,10.5,6.8,10.9,6.9,11.1"/>
    <path class="st0" d="M25,24.1c-3.8,0.7-7.6,1-11.4,0.9c-3.4-0.3-5.7-1.6-6.9-4.6C5.7,18,5,15.5,4.4,13c-1.7,0.7-2.9,1.3-2.9,1.3
	C2.6,24.5,0,37.6,0,37.6c12.9-7.4,27.5-12.5,35-15h-0.1C32.1,22.8,29.2,23.5,25,24.1"/>
    <path class="st0" d="M101.8,20.8c0.1-5.4,0.1-7.9-0.7-8.4l-0.2,0c-1.8,0.4-3.6,0.7-5.4,0.7l-0.1,0.2L95.2,14
	c-0.9,2.2-1.7,4.5-2.3,6.8c-0.7,3.1-2.3,4.1-4.7,4.5h-0.1c-0.2,0-0.4,0-0.6,0.1c-2.1,0.3-4.1,0.4-6.2,0.4c-0.6,0-1.2,0-1.9,0
	c-2.4,0-5.7,0.1-1.8,1.2c10.1,2.5,20.4,4,30.7,4.3C108.3,31.2,101.7,26.2,101.8,20.8"/>
</svg>
