<svg xmlns="http://www.w3.org/2000/svg" version="1" viewBox="0 0 100 125" aria-hidden = "true">
  <path d="M7 27h53c1 5 5 9 11 9 5 0 10-4 11-9h11l2-1-2-2H82c-1-6-5-10-11-10s-11 4-11 10H7l-2 2 2 1zm64-10a8 8 0 1 1 0 16 8 8 0 0 1 0-16zM93 49H48c-1-6-6-10-11-10-6 0-11 4-11 10H7l-2 2 2 1h19c1 5 5 9 11 9 5 0 10-4 11-9h45l2-1-2-2zm-56 9a8 8 0 1 1 0-16 8 8 0 0 1 0 16zM93 74H71c-1-6-6-10-12-10-5 0-10 4-11 10H7l-2 2 2 1h42c1 6 5 9 11 9 5 0 10-3 11-9h22l2-1-2-2zm-33 9a8 8 0 1 1 0-16 8 8 0 0 1 0 16z"/>
  <text y="115" font-size="5" font-weight="bold" font-family="'Helvetica Neue', Helvetica, Arial-Unicode, Arial, Sans-serif">
    Created by Vladislav Sergeev
  </text>
  <text y="120" font-size="5" font-weight="bold" font-family="'Helvetica Neue', Helvetica, Arial-Unicode, Arial, Sans-serif">
    from the Noun Project
  </text>
</svg>
