<svg xmlns="http://www.w3.org/2000/svg" width="22.779" height="22.779" viewBox="0 0 22.779 22.779" aria-hidden="true">
    <path class="path1"
          d="M21.514 11.39c0-5.59-4.533-10.124-10.124-10.124-2.685 0-5.26 1.067-7.16 2.965s-2.965 4.474-2.965 7.16 1.067 5.26 2.965 7.16 4.474 2.965 7.16 2.965c5.59-.006 10.118-4.535 10.124-10.124z"
          fill="#fff"/>
    <path class="path2"
          d="M14.385 5.015a1.22 1.22 0 0 1-1.493.862 1.22 1.22 0 0 1-.862-1.493 1.22 1.22 0 0 1 1.493-.862 1.22 1.22 0 0 1 .862 1.493zm-2.93 10.93l1.92-7.16c.355-1.325-1.68-1.872-2.995-1.236-.82.398-1.52 1.01-2.027 1.77.827-.363 2.673-1.184 2 1.32l-1.92 7.16c-.355 1.325 1.68 1.872 2.995 1.236.82-.398 1.52-1.01 2.027-1.77-.826.363-2.67 1.184-2-1.32zM22.78 11.39a11.39 11.39 0 0 1-19.443 8.054 11.39 11.39 0 0 1 0-16.107 11.39 11.39 0 0 1 16.107 0 11.39 11.39 0 0 1 3.336 8.054zm-1.266 0c0-5.59-4.533-10.124-10.124-10.124-2.685 0-5.26 1.067-7.16 2.965s-2.965 4.474-2.965 7.16 1.067 5.26 2.965 7.16 4.474 2.965 7.16 2.965c5.59-.006 10.118-4.535 10.124-10.124z"
          fill="#587c94"/>
</svg>
