<svg xmlns="http://www.w3.org/2000/svg" width="149.594" height="124.35" viewBox="0 0 149.594 124.35"><g transform="translate(0 -0.009)"><g transform="translate(0 0.009)"><path d="M149.565.6c0-.567-.568-.936-1.163-.113C139.464,13.343,109.159,16.436,78,16.436c-24.97,0-43.357,4.256-57.346,12.57S0,47.733,0,65.78v58c0,.567.511.908,1.163.113,10.243-12.485,41.853-21.593,74.4-21.593,24.2,0,41.03-2.752,52.664-9.7,15.266-9.108,21.366-25,21.366-46.875V.6Z" transform="translate(0 -0.009)" fill="#027a35"/><path d="M472.591,261.6h.421a.255.255,0,0,0,.2-.084.4.4,0,0,0,.056-.169.25.25,0,0,0-.252-.252h-.421Zm.926.786h-.14c-.028,0-.028,0-.056-.028l-.449-.533h-.253v.477a.06.06,0,0,1-.056.056h-.112a.06.06,0,0,1-.056-.056v-1.375a.06.06,0,0,1,.056-.056h.617a.479.479,0,0,1,.505.477.473.473,0,0,1-.365.477l.393.421a.1.1,0,0,1,.028.056v.028c-.056.028-.084.056-.112.056m-.561-.645Zm-.056-1.431a1.23,1.23,0,0,0-1.291,1.319,1.245,1.245,0,0,0,1.291,1.319,1.23,1.23,0,0,0,1.291-1.319,1.215,1.215,0,0,0-1.291-1.319m0,2.947a1.628,1.628,0,0,1,0-3.255,1.568,1.568,0,0,1,1.6,1.628,1.551,1.551,0,0,1-1.6,1.628" transform="translate(-337.394 -186.206)" fill="#fffef7"/><path d="M109.036,170.472c-2.046,4.911-4.32,7.1-6.11,7.156-1.819.056-2.444-1.964-.568-6.791,1.591-4.126,4.32-7.409,6.394-7.437,1.62-.056,2.615,1.544.284,7.072m48.71-1.095c-.512-.365-1.137-.14-1.847.842-3.041,4.125-5.485,5.669-7.3,5.669-1.421,0-2.1-1.123-1.449-3.115.455-1.375,1.449-3.087,2.359-5.388.881-2.245.483-3.985-.995-5.052-1.137-.786-3.183-1.347-4.4-1.993.966-2.217-.256-4.49-2.785-4.49a3.925,3.925,0,0,0-3.95,3.957,3.569,3.569,0,0,0,2.615,3.424c-4.32,8.532-8.753,12.769-11.567,12.769-1.563,0-1.961-1.4-1.194-3.4.654-1.74,2.7-5.164,3.211-6.848a3.292,3.292,0,0,0-1.393-4.1c-.881-.533-2.16-.926-2.984-1.319.739-1.936-.057-4.546-2.842-4.546a3.9,3.9,0,0,0-3.922,4.013,3.425,3.425,0,0,0,2.529,3.312,5.375,5.375,0,0,1-3.78,2.021,3.212,3.212,0,0,1-1.648-.225c-.4-.2-.71-.505-1.165-1.4a5.8,5.8,0,0,0-5.769-3.48,11.631,11.631,0,0,0-6.536,2.217,20.6,20.6,0,0,0-5,4.939,52.144,52.144,0,0,1-4.263,5.136c-1.989,2.021-3.751,3.2-5.2,3.564a1.6,1.6,0,0,1-1.79-.421,2.4,2.4,0,0,1,.114-2.189c.881-2.189,3.581-6.146,4.263-8.672.654-2.442-.369-4.49-3.1-4.49-2.813,0-5.8,1.375-8.867,4.041.54-2.217-.256-3.7-1.762-4.041-2.757-.674-6.11,1.151-9.236,4.574-2.3,2.5-5.03,5.893-7.361,8.026-2.387,2.161-4.092,2.666-5.8,2.47-3.865-.449-5.144-7.241-8.781-9.542a29.059,29.059,0,0,0,13.726-3.424c4.4-2.554,5.513-4.1,9.435-7.858,3.382-3.256,6.309-5.136,10.146-5.753.909-.14,1.336-.393,1.364-.954.028-.477-.313-.87-1.08-.982a20.823,20.823,0,0,0-12.476,2.834c-4.433,2.582-7.275,5.669-12.135,9.43a21.144,21.144,0,0,1-5.371,3.227,14,14,0,0,1-5.059,1.01c1.591-3.087,3.325-6.567,4.661-9.121,4.206.028,6.792-2.75,6.792-5.023,0-1.8-1.563-3.031-3.638-3.031a8.235,8.235,0,0,0-6.65,3.62c-9.549-.87-16.341,2.835-18.7,9.205a4.023,4.023,0,0,0-.369,1.516.69.69,0,0,0,.4.617.913.913,0,0,0,.767.028c.284-.112.483-.365.8-.814,2.956-4.49,7.446-6.707,14.664-6.146-.682.954-2.615,4.378-4.86,8.672-1.847-.365-3.751-.084-4.263,1.628a2.044,2.044,0,0,0,2.046,2.694c-3.012,5.444-5.8,10.777-6.565,12.236-.71,1.4-.4,2.245.881,2.189a14.262,14.262,0,0,0,5.115-1.544,4.763,4.763,0,0,0,1.989-2.554c1.421-2.919,3.211-6.483,4.8-9.766,1.478,1.038,1.989,5.052,3.069,7.858,1.591,4.069,3.865,5.7,7.02,5.7,3.353,0,5.712-1.207,8.753-4.743,5.03-5.893,7.7-9.851,10.2-11.647.767-.561,1.222-.7,1.506-.561.455.224.313.814-.085,1.6-1.847,3.845-6.423,12.152-6.963,13.3-.625,1.375-.341,2.161.824,2.077a8.716,8.716,0,0,0,2.416-.477,5.159,5.159,0,0,0,3.1-1.852,13.757,13.757,0,0,0,1.165-2.357,41.713,41.713,0,0,1,2.956-5.5c2.9-4.6,6.366-6.9,7.872-6.511.455.112.654.561.483,1.263a8.39,8.39,0,0,1-.767,1.628c-1.79,3.255-3.979,6.174-4.49,9.093-.512,2.778,1.051,4.715,3.78,4.715,3.694,0,7.929-2.863,12.391-7.83-.909,4.546,1.563,7.8,6.337,7.8a12.564,12.564,0,0,0,8.725-3.7,16.531,16.531,0,0,0,4.973-9.57c2.075.617,5.513-.814,7.929-3.7a1.7,1.7,0,0,1,.8,2.526,36.915,36.915,0,0,1-2.472,4.827c-1.25,2.245-1.819,4.041-1.648,5.837a4.1,4.1,0,0,0,4.433,3.761c5.883,0,11.339-5.248,17.307-16.951,1.9.758,2.274,1.684,1.989,3.087a18.438,18.438,0,0,1-2.046,4.575c-1.023,1.992-1.563,3.227-1.563,4.967,0,2.47,1.592,4.322,4.689,4.322,4.064,0,8.781-3.761,12.22-9.205.711-1.375.824-2.133.284-2.526" transform="translate(-19.27 -104.391)" fill="#fffef7"/><path d="M238.873,148.615a3.649,3.649,0,0,0-.758-.112,1.538,1.538,0,0,1-.561-.112.212.212,0,0,1-.112-.2.319.319,0,0,1,.084-.225.69.69,0,0,1,.477-.14h.028a1.668,1.668,0,0,1,1.066.393l.084.056.365-.7-.056-.028a2.568,2.568,0,0,0-1.459-.449,1.5,1.5,0,0,0-.954.309,1.067,1.067,0,0,0-.365.842.862.862,0,0,0,.2.617,1.429,1.429,0,0,0,1.038.393c.449.028.533.028.561.056.252.056.281.2.281.281a.342.342,0,0,1-.168.281.927.927,0,0,1-.589.112,1.473,1.473,0,0,1-1.01-.421l-.084-.084-.337.73.056.028a2.153,2.153,0,0,0,1.4.449,1.676,1.676,0,0,0,1.123-.337,1.052,1.052,0,0,0,.393-.842,1.024,1.024,0,0,0-.224-.674c-.168-.056-.309-.168-.477-.224" transform="translate(-169.449 -105.349)" fill="#ffd32e"/></g><rect width="0.786" height="3.592" transform="translate(71.68 41.788)" fill="#ffd32e"/><path d="M263.929,149.3l-1.6-2.049-.028-.056h-.7v3.592h.73V148.6l1.684,2.189h.645V147.2h-.73Z" transform="translate(-187.354 -105.412)" fill="#ffd32e"/><g transform="translate(78.675 41.789)"><path d="M280.006,149.614a1.38,1.38,0,0,1-1.066.449,1.025,1.025,0,0,1-.421-.084.779.779,0,0,1-.449-.393,1.023,1.023,0,0,1-.14-.589,1.131,1.131,0,0,1,.169-.617,1.021,1.021,0,0,1,.449-.393.938.938,0,0,1,.421-.084,1.425,1.425,0,0,1,.982.365l.084.084.337-.645.028-.056-.056-.028a2.408,2.408,0,0,0-1.375-.421,1.655,1.655,0,0,0-1.291.533,1.831,1.831,0,0,0-.477,1.291,1.7,1.7,0,0,0,.533,1.347,1.675,1.675,0,0,0,1.235.449,2.012,2.012,0,0,0,.814-.168,1.567,1.567,0,0,0,.645-.449l.028-.028-.337-.674Z" transform="translate(-277.2 -147.2)" fill="#ffd32e"/></g><path d="M294.086,149.3H295.4v-.73h-1.319v-.617h1.937l.028-.758H293.3v3.592h2.779v-.786h-1.993Z" transform="translate(-210.058 -105.412)" fill="#ffd32e"/><path d="M318.637,147.284a.605.605,0,0,1-.056.281.752.752,0,0,1-.225.112l-.056.028v.7h.084c.084,0,.14-.028.224-.028v2.414h.7V147.2h-.646Z" transform="translate(-227.975 -105.412)" fill="#ffd32e"/><path d="M328.138,149.217a1.342,1.342,0,0,1,.505-.112.961.961,0,0,1,.505.112.351.351,0,0,1,0,.674,1.34,1.34,0,0,1-.505.112.961.961,0,0,1-.505-.112.38.38,0,0,1-.253-.337c-.028-.168.056-.253.253-.337m-.168-1.179c0-.084,0-.337.646-.337a.742.742,0,0,1,.617.2h0a.21.21,0,0,1,.028.14c0,.084,0,.337-.645.337s-.646-.253-.646-.337m1.768.7a.742.742,0,0,0,.281-.645.954.954,0,0,0-.477-.842,1.825,1.825,0,0,0-1.852,0,.954.954,0,0,0-.477.842.9.9,0,0,0,.084.393.979.979,0,0,0,.168.253.922.922,0,0,0-.365.786.961.961,0,0,0,.112.505,1.4,1.4,0,0,0,1.375.618,3.445,3.445,0,0,0,.561-.056,1.31,1.31,0,0,0,.674-.365,1.049,1.049,0,0,0,.253-.73.881.881,0,0,0-.2-.589c0-.056-.056-.112-.14-.168" transform="translate(-234.264 -105.268)" fill="#ffd32e"/><path d="M356.938,149.217a1.34,1.34,0,0,1,.505-.112.961.961,0,0,1,.505.112.351.351,0,0,1,0,.674,1.34,1.34,0,0,1-.505.112.961.961,0,0,1-.505-.112.379.379,0,0,1-.253-.337c0-.168.084-.253.253-.337m-.168-1.179c0-.084,0-.337.646-.337a.742.742,0,0,1,.617.2h0a.21.21,0,0,1,.028.14c0,.084,0,.337-.645.337s-.646-.253-.646-.337m1.965.9a1.3,1.3,0,0,0-.2-.2.742.742,0,0,0,.281-.645.954.954,0,0,0-.477-.842,1.825,1.825,0,0,0-1.852,0,.954.954,0,0,0-.477.842.9.9,0,0,0,.084.393.981.981,0,0,0,.169.253.922.922,0,0,0-.365.786.96.96,0,0,0,.112.505,1.4,1.4,0,0,0,1.375.618,3.447,3.447,0,0,0,.561-.056,1.31,1.31,0,0,0,.673-.365,1.048,1.048,0,0,0,.253-.73.637.637,0,0,0-.14-.561" transform="translate(-254.89 -105.268)" fill="#ffd32e"/><path d="M344.282,148.584a.9.9,0,0,0,.224-.645.946.946,0,0,0-.393-.786,1.364,1.364,0,0,0-.842-.253,1.576,1.576,0,0,0-.561.084,2.1,2.1,0,0,0-.505.225,1.788,1.788,0,0,0-.393.337l.477.561a1.191,1.191,0,0,1,.926-.533c.449,0,.505.2.505.337a.28.28,0,0,1-.084.225.935.935,0,0,1-.421.084h-.393v.73h.449c.73,0,.73.309.73.421,0,.225-.056.505-.645.505a1.559,1.559,0,0,1-.645-.112,2.692,2.692,0,0,1-.561-.365l-.084-.056-.365.674.056.028a2.212,2.212,0,0,0,1.459.561h.056a1.76,1.76,0,0,0,.982-.253,1.06,1.06,0,0,0,.477-.926,1.246,1.246,0,0,0-.449-.842" transform="translate(-244.72 -105.196)" fill="#ffd32e"/></g></svg>