<svg xmlns="http://www.w3.org/2000/svg" width="81" height="78" viewBox="0 0 81 78" aria-hidden = "true"><g fill="#587c94"><path d="M58 7a36 36 0 0 0-50 7l-2 3a38 38 0 0 0 3 44 36 36 0 0 0 28 13 35 35 0 0 0 16-3c25-13 27-48 5-64zm14 31c0 11-4 20-13 27a35 35 0 0 1-43 1 36 36 0 0 1-8-51C16 5 27 0 41 2c13 1 23 9 28 21a33 33 0 0 1 3 15zM52 22l-1-4v-2a2 2 0 0 0-2-3l-8-1a474 474 0 0 0-13 0v1c1 2 1 5-1 7a52 52 0 0 0-4 5 3 3 0 0 0 0 2l-1 27v5a1 1 0 0 0 1 1l8 3a9 9 0 0 0 6 1l12-3 5-1 1-6 1-20c0-3 0-6-2-9l-2-3zm0 3a11 11 0 0 1 1 3h-1l-15-1c-2 0-3 0-4-3a63 63 0 0 0-2-6h8v2c0 3 0 3 2 4 3 2 6 0 6-3v-2a2 2 0 0 1 2 1l3 5zm-12-3a22 22 0 0 0 4 1c-1 1-2 1-4-1zm0-8a65 65 0 0 1 10 1c-2 2-3 1-4 1l3 1v1h-1l-11-1a1 1 0 0 1-1 0c-1-2-3-2-5-2v-1l-1-2 10 2zm-10 6c0 1 2 3 0 5 1 2-1 2-2 2h-4a54 54 0 0 1 6-7zm3 22l-1 16-1-3v5c0 2-1 2-2 1l-4-1-1-2a40 40 0 0 1 0-9 67 67 0 0 0 0-10 67 67 0 0 1 0-11h8l1 2v12zm21-11l-1 10-1 16c0 2 0 3-2 3l-14 3c-2 0-2 0-2-2l1-15V30l1-2h5l11 1c2 0 2 0 2 2z"/><path d="M33 14zm10 20l-2 4a14 14 0 0 0-3 5 9 9 0 0 0 1 9 5 5 0 0 0 6 2c2 0 2-2 3-3 1-4 1-8-1-12l-4-5zm4 15c-1 2-2 4-4 4l-4-4a10 10 0 0 1 4-11 1 1 0 0 1 0-1c1-1 1 0 1 1 3 3 4 7 3 11z"/><path d="M31 14zm1 0h1a2 2 0 0 1-1 0z"/><path d="M32 14z"/><path d="M33 14a2 2 0 0 0 1 0 3 3 0 0 0-2 0 2 2 0 0 0 1 0z"/><path d="M32 14a7 7 0 0 1 1 0h-1z"/><path d="M32 14h-1 1zm11 25a2 2 0 0 1 0-1 2 2 0 0 0 0 1z"/><path d="M43 39v-1a2 2 0 0 0 0 1z"/><path d="M43 39a7 7 0 0 0-1 1 6 6 0 0 1 1-1z"/><path d="M42 40a2 2 0 0 1 0 1 2 2 0 0 0 0-1 7 7 0 0 1 1-1l-3 4h1v1-1h-1a1 1 0 0 0 0 1l1 1 1-1 1-6v1a6 6 0 0 0-1 1z"/><path d="M42 40z"/><path d="M42 41a2 2 0 0 0 0-1 2 2 0 0 1 0 1zm1-3z"/></g><circle cx="64" cy="62" fill="#b6dc85" r="16"/><path d="M62 69a1 1 0 0 1-1 0l-6-6a1 1 0 0 1 0-1 1 1 0 0 1 1 0l6 5 12-12a1 1 0 0 1 1 0 1 1 0 0 1 0 1L62 69z" fill="#363840"/></svg>
