<svg xmlns="http://www.w3.org/2000/svg" width="81" height="78" viewBox="0 0 81 78" aria-hidden = "true"><path d="M60 8a37 37 0 0 0-49 3A36 36 0 0 0 0 35c0 11 3 20 9 27 18 21 49 17 62-6A39 39 0 0 0 60 8zm13 30a35 35 0 0 1-28 36c-11 2-20-1-29-7A37 37 0 0 1 6 20C12 8 23 2 37 1c13 0 23 7 30 17a36 36 0 0 1 6 20zM57 27l-3-3c-3-4-8-5-12-2a16 16 0 0 0-5 6l-3 6-2-2c-5-3-10-6-16-6-3-1-5 0-6 3a13 13 0 0 0-1 5 33 33 0 0 0 2 11 20 20 0 0 0 7 9c5 4 13 4 17 0l2 1c3 3 7 5 12 4 4 0 8-1 10-5a20 20 0 0 0 4-10 26 26 0 0 0-6-17zM33 52a11 11 0 0 1-15-1c-3-3-5-7-5-12a20 20 0 0 1 0-7c1-3 3-5 6-4 4 1 9 2 13 5a5 5 0 0 1 1 2 4 4 0 0 1 0 3 18 18 0 0 0 0 4v5a12 12 0 0 0 1 3 2 2 0 0 1 1 1l-2 1zm22 1a12 12 0 0 1-7 3c-5 0-8-1-10-6l-2-4a14 14 0 0 1 0-9l2-5c1-3 3-6 6-8a5 5 0 0 1 4-1 9 9 0 0 1 5 2 26 26 0 0 1 7 15 16 16 0 0 1-5 13z" fill="#587c94"/><circle cx="64" cy="62" fill="#b6dc85" r="16"/><path d="M62 69a1 1 0 0 1-1 0l-6-6a1 1 0 0 1 0-1 1 1 0 0 1 1 0l6 5 12-12a1 1 0 0 1 1 0 1 1 0 0 1 0 1L62 69z" fill="#363840"/></svg>
