<svg xmlns="http://www.w3.org/2000/svg" width="78" height="77" viewBox="0 0 78 77" aria-hidden = "true"><g fill="#4c6b7f"><path d="M33 53a1 1 0 0 0 0-1 1 1 0 0 0 0 1zM57 8C42.903-3.266 22.55-1.967 10 11A35 35 0 0 0 0 34c0 11 3 20 8 27 17 20 47 16 59-7 7.7-15.8 3.573-34.826-10-46zm12 29c1 17-11 31-27 35-10 2-19-1-27-7C1.24 54.38-2.967 35.447 5 20 12 8 22 2 35 2c12-1 22 5 29 16a36 36 0 0 1 5 19zM28 59a54 54 0 0 1-10-1c-2 0-3-1-3-3V40a2 2 0 0 1 0-1c-3-1-5-3-5-6a14 14 0 0 1 2-8 9 9 0 0 1 6-3l7-2c5-2 12-2 14-2h2c5 0 10 0 14 3v1a9 9 0 0 1 2 7 10 10 0 0 1-5 7l1 10-1 4v1a14 14 0 0 1 0 2l-2 2h-4l-8 4H28zm11-39l-13 1-7 2a7 7 0 0 0-5 3 12 12 0 0 0-2 7c0 2 2 4 4 5l1 1v16l2 2a70 70 0 0 0 20 0 58 58 0 0 0 7-3l4-1a6 6 0 0 0 0-1 12 12 0 0 0 1-1V35h1a9 9 0 0 0 4-6 7 7 0 0 0-2-6v-1c-4-3-9-3-13-2h-2z"/><path d="M44 27c-4-5-11-4-16-4s-13-2-16 3a13 13 0 0 0-2 7c0 3 2 5 4 6a1 1 0 0 0 1 1v15c0 2 1 3 3 3h20l2-1a13 13 0 0 0 0-2V39a1 1 0 0 0 1 0c4-2 6-8 3-12zm-4 11v-1l-1-1-1 1a10 10 0 0 0 0 1v17a1.12 1.12 0 0 1 .5 1.5 1.12 1.12 0 0 1-1.5.5H18l-1-1V38a3 3 0 0 0 0-1l-1-1-1 1a4 4 0 0 1 0 1c-2-2-3-3-3-5a12 12 0 0 1 2-6c2-4 9-2 13-3 4 0 9 0 12 2 6 2 6 8 1 12z"/><circle cx="22" cy="46" r="1"/><circle cx="26" cy="50" r="1"/><circle cx="24" cy="37" r="1"/><path d="M34 31a1 1 0 0 0 0-1 1 1 0 0 0 0 1zm-15 0a1 1 0 0 0 0-1 1 1 0 0 0 0 1zm11 12a1 1 0 0 0 0-1 1 1 0 0 0 0 1z"/></g><circle cx="62" cy="61" r="16" fill="#b6dc85"/><path d="M59 68l-6-6a1 1 0 1 1 0-2 1 1 0 0 1 1 1l5 5 12-11a1 1 0 0 1 1 1L60 68a1 1 0 0 1-1 0z" fill="#363840"/></svg>
