<svg xmlns="http://www.w3.org/2000/svg" width="82.036" height="76.453" viewBox="0 0 82.036 76.453" aria-hidden = "true">
  <g data-name="Group 2223" transform="translate(-1425 -638.583)">
    <g data-name="Group 2187" transform="translate(1254.579 -21.375)">
      <path data-name="Path 1731" d="M246.409,695.968c.215,18.676-14.8,36.494-35.317,38.213-15.426,1.292-27.63-4.527-35.693-17.8-8.894-14.647-5.546-34.1,7.47-46.016a37.517,37.517,0,0,1,24-10.35c21.926-1.044,36.257,13.735,38.935,29.931C246.129,691.929,246.212,693.958,246.409,695.968ZM172.59,700.4c.524,11.461,6.538,22.072,19.109,28.378,18.393,9.227,41.5.377,49.679-18.807,5.743-13.464,2.83-28.848-7.649-38.633-9.153-8.546-20.027-11.227-32.258-8.566C184.975,666.359,172.66,681.342,172.59,700.4Z" fill="#587c94"/>
      <path data-name="Path 1732" d="M203.841,725.63a32.554,32.554,0,0,1-2.82-3.008,2,2,0,0,1,.264-2.672,2.246,2.246,0,0,1,3.069-.292l-2.041,1.632c1,2.031,2.44,2.9,4.665,2.529,1.545-.256,3.024-.9,4.547-1.311a25.869,25.869,0,0,1,4.344-1.021,6.383,6.383,0,0,1,6.808,4.316,6.951,6.951,0,0,1-3.21,8.186,57.832,57.832,0,0,1-6.139,2.278c-.493.178-.991.343-1.919.664,1.089.968,1.914,1.829,2.868,2.513a32.993,32.993,0,0,0,3.127,1.766,6.81,6.81,0,0,1-6.006-2.657c-1.579-1.878-1.579-1.878-4.391-1.685.677,1.919,2.2,2.886,3.934,3.747-1.7.185-2.414.02-3.435-1.034-.88-.908-1.644-1.93-2.459-2.9l-.564.423,1.8,2.465c-1.864-.012-2.29-1.76-3.441-2.544a6.161,6.161,0,0,0-3.458,4.734c-.627,3.372,3.571,6.5,6.974,5.143,1.515-.6,2.785-1.8,4.221-2.632a7.341,7.341,0,0,1,1.83-.5,6.627,6.627,0,0,1,.1,1.726,22.627,22.627,0,0,1-.851,2.619,23.57,23.57,0,0,1,2.2,1.807c.911.943.607,1.965-.652,2.024-3.914.183-7.839.515-11.663-.849-6.557-2.34-10.816-9.726-9.318-16.5a10.025,10.025,0,0,1,7.16-7.764C200.87,726.348,202.4,726.011,203.841,725.63Zm-8.243,5.256a3.172,3.172,0,0,1-.28.946c-2.273,3.263-2.1,6.745-.832,10.259a7.786,7.786,0,0,0,3.137,4.248v-6.752l-3.135-1.477.218-.527,4.055,1.063L200,736.83c-1.047-1.122-2.143-2.143-3.044-3.315a15.807,15.807,0,0,1-1.354-2.652l5.639,4.921,2.1-.8c-.131-2.452-.254-4.764-.379-7.1A16.379,16.379,0,0,0,195.6,730.885Zm8.955-3.264v7.188a32.283,32.283,0,0,0,4.33.165,18.927,18.927,0,0,0,5.123-.981c2.67-1.046,3.651-3.316,3.011-6.373Zm13.983,5.216c2.523-1.574,3.477-3.929,2.672-6.456-.693-2.179-2.669-3.514-5.446-3.1a61.616,61.616,0,0,0-7.183,1.918l.072.6c.653.04,1.305.09,1.959.117,1.929.079,3.866.065,5.785.243,2.092.194,2.618.733,2.645,2.824A26.216,26.216,0,0,1,218.536,732.838ZM205.16,749.421l.093.683,4.984.23-.9-2.615Zm-6.417-2.638a5.047,5.047,0,0,0,4.878,2.578Z" transform="translate(-11.085 -30.539)" fill="#587c94"/>
      <path data-name="Path 1733" d="M257.363,703.887c-5.718.57-9.834-2.593-13.909-5.645a20.081,20.081,0,0,1-4.06-4.484,9.939,9.939,0,0,1-2.058-7.179,6.328,6.328,0,0,0-.658-2.714c-.553-1.5-1.058-2.966-.018-4.656l2.217.911a2.807,2.807,0,0,0,.352-.632c.611-2.505.617-2.564,3.131-2.093,2.415.452,4.835.93,7.2,1.592,4.414,1.239,6.882,4.69,8.986,8.412,1.252,2.215,2.179,4.613,3.415,6.839a17.728,17.728,0,0,0,2.672,3.576,7.5,7.5,0,0,0,6.868,2.547,36.914,36.914,0,0,1,5.064-.04c-.5.78-.673,1.392-1,1.492-2.59.793-5.191,1.569-7.828,2.178a25.24,25.24,0,0,1-3.962.3c-1.681,3.692-1.293,8.4-5.67,11.227C256.937,711.47,259.332,707.625,257.363,703.887Zm10.194-1.512.1-.518c-3.767-1.488-6.078-4.405-7.826-7.851-.953-1.88-1.777-3.826-2.755-5.692-1.488-2.838-3.318-5.557-6.251-6.929a30.175,30.175,0,0,0-10.013-2.49v3.826l-2.855-.839c.437,1.652,1.235,3.1,1.092,4.453-.326,3.085.863,5.447,2.644,7.734,2.68,3.441,6.327,5.515,10.157,7.341a7.2,7.2,0,0,0,5.628.449c.737-.25,1.625-.894,2.208-.238v7.94l.688.082,2.085-7.268Z" transform="translate(-33.836 -8.87)" fill="#587c94"/>
      <path data-name="Path 1734" d="M230.411,741.391a1.944,1.944,0,0,1-1.95-2.017,1.7,1.7,0,0,1,1.888-1.691,1.745,1.745,0,0,1,1.943,1.923A1.845,1.845,0,0,1,230.411,741.391Z" transform="translate(-29.919 -40.068)" fill="#587c94"/>
      <path data-name="Path 1735" d="M255.8,687.582a1.872,1.872,0,0,1,2.046,2.115,2.954,2.954,0,0,1-2.835,2.546,2.662,2.662,0,0,1-2.6-2.107C252.309,688.864,253.983,687.6,255.8,687.582Zm.563,1.342-2.234.873C255.26,690.849,255.849,690.534,256.363,688.924Z" transform="translate(-42.265 -14.24)" fill="#587c94"/>
    </g>
    <g data-name="Group 2199" transform="translate(215.281 -1548.357)">
      <circle data-name="Ellipse 376" cx="16.018" cy="16.018" r="16.018" transform="translate(1259.719 2231.357)" fill="#b6dc85"/>
      <path data-name="Path 1310" d="M1273.219,2254.251a.734.734,0,0,1-.522-.216l-5.889-5.9a.737.737,0,1,1,1.043-1.042h0l5.369,5.381,11.775-11.749a.737.737,0,0,1,1.042,1.043l-12.3,12.27A.734.734,0,0,1,1273.219,2254.251Z" fill="#363840" stroke="#363840" stroke-miterlimit="10" stroke-width="0.175"/>
    </g>
  </g>
</svg>
