<svg xmlns="http://www.w3.org/2000/svg" width="84" height="76" viewBox="0 0 84 76"><g fill="#587c94"><path d="M53 17c-5 2-10 6-11 12a21 21 0 0 1-3 8l-3 5-1 2-1-3a51 51 0 0 0-10-17 25 25 0 0 0-8-6l-3-1a5 5 0 0 0 2 3 62 62 0 0 1 6 8c6 11 11 22 12 34 0 2 1 2 3 2s2-1 2-2V48a26 26 0 0 1 2-9 6 6 0 0 1 6-4c8 0 13-6 15-12v-9a73 73 0 0 1-8 3zM33 50l-5-13-7-12a2 2 0 0 1 2 2 53 53 0 0 1 11 19 4 4 0 0 1-1 4zm3 12v1l-1-1a24 24 0 0 1 1-12l1-1a57 57 0 0 0-1 13zm9-30c1-1 4 0 6-2l-5 1 3-3a11 11 0 0 0 3-1h-2c2-3 5-3 8-3-1 5-7 9-13 8zm15-13a17 17 0 0 1-1 3c0 1-1 2-2 1l2-4c-2 0-2 1-3 2-1 0-1 2-2 0l-4 4v-2l-2 4-1-2-1 2c0 2 0 2-2 3a9 9 0 0 1 2-5 19 19 0 0 1 12-7c2-1 2 0 2 1zM38 73c20 1 37-16 37-36C75 18 60 0 37 0 17 0 0 16 0 35v1c0 21 17 38 38 37zM37 1c16 0 37 12 37 36 0 20-16 35-36 35C18 73 1 56 1 36 1 17 17 1 37 1z"/><path d="M38 74c21 0 37-16 38-36v-1C75 18 61 0 37 0 17 0 1 16 0 36v1c0 20 17 37 38 37zm0-73c15 0 36 13 37 36 0 20-16 36-36 36h-1C18 73 1 57 1 37S17 2 38 1z"/></g><circle cx="67" cy="60" fill="#b6dc85" r="16"/><path d="M65 67a1 1 0 0 1-1 0l-6-6a1 1 0 0 1 0-1 1 1 0 0 1 1 0l6 5 12-12a1 1 0 0 1 1 0 1 1 0 0 1 0 1L65 67z" fill="#363840"/></svg>
