<svg xmlns="http://www.w3.org/2000/svg" xmlns:xlink="http://www.w3.org/1999/xlink" width="15.728" height="13.78" viewBox="0 0 15.728 13.78" aria-hidden="true"><defs><clipPath id="a"><path d="M0,0H15.728V13.779H0Z" fill="none"/></clipPath></defs><path d="M.556,1.112H5.433A.556.556,0,0,0,5.433,0H.556a.556.556,0,0,0,0,1.112" transform="translate(4.872 10.719)" fill="#4c6b7f"/><path d="M.556,1.112H5.433A.556.556,0,0,0,5.433,0H.556a.556.556,0,0,0,0,1.112" transform="translate(4.872 8.77)" fill="#4c6b7f"/><g transform="translate(0 0)"><path d="M11.762,13.78h-7.8a1.045,1.045,0,0,1-1.043-1.043V8.907H1.043A1.044,1.044,0,0,1,0,7.864V2.992A1.044,1.044,0,0,1,1.043,1.949h1.88V1.043A1.045,1.045,0,0,1,3.966,0h7.8a1.045,1.045,0,0,1,1.043,1.043v.906h1.88a1.044,1.044,0,0,1,1.043,1.043V7.864a1.044,1.044,0,0,1-1.043,1.043h-1.88v3.83A1.045,1.045,0,0,1,11.762,13.78ZM4.035,6.958v5.709h7.658V6.958Zm-2.923-3.9V7.8H2.922V5.847h9.882V7.8h1.812V3.061ZM4.035,1.111v.837h7.658V1.111Z" transform="translate(0 0)" fill="#4c6b7f"/><path d="M0,0H15.728V13.779H0Z" fill="none"/></g></svg>