<svg xmlns="http://www.w3.org/2000/svg" x="0px" y="0px"
     viewBox="0 0 75.7 12.8" style="enable-background:new 0 0 75.7 12.8;" xml:space="preserve">
    <path id="Star_1" d="M6.4,9.9l-4,2.9L3.9,8L0,4.9l4.8-0.1L6.4,0L8,4.8l4.8,0.1L9,8l1.4,4.9L6.4,9.9z"/>
    <path id="Star_2" d="M22.1,9.9l-4,2.9L19.6,8l-3.9-3.1l4.8-0.1L22.1,0l1.6,4.8l4.8,0.1L24.7,8l1.4,4.9L22.1,9.9z"/>
    <path id="Star_3" d="M37.9,9.9l-4,2.9L35.3,8l-3.9-3.1l4.8-0.1L37.9,0l1.6,4.8l4.8,0.1L40.4,8l1.4,4.9L37.9,9.9z"/>
    <path id="Star_4" d="M53.6,9.9l-4,2.9L51.1,8l-3.9-3.1L52,4.8L53.6,0l1.6,4.8L60,4.9L56.1,8l1.4,4.9L53.6,9.9z"/>
    <path id="Star_5" d="M69.3,9.9l-4,2.9L66.8,8l-3.9-3.1l4.8-0.1L69.3,0l1.6,4.8l4.8,0.1L71.9,8l1.4,4.9L69.3,9.9z"/>
</svg>