<svg version="1.1" id="Layer_1" xmlns="http://www.w3.org/2000/svg" xmlns:xlink="http://www.w3.org/1999/xlink" x="0px" y="0px"
     viewBox="0 0 512 512" style="enable-background:new 0 0 512 512;" xml:space="preserve" aria-hidden="true">
<path d="M414.4,331.6c-31.4,0-58.9,16.3-74.9,40.6l-158-80.9c3.7-9.8,5.7-20.6,5.7-31.8c0-11.2-2-21.8-5.7-31.6l160-85.6
	c16.2,23,42.9,37.9,73,37.9c49.4,0,89.6-40.2,89.6-90.1S464,0,414.4,0c-49.4,0-89.6,40.2-89.6,90.1c0,6.1,0.6,12.2,1.8,18.1
	l-165.3,88.3c-16.2-16.7-38.8-26.9-63.8-26.9C48.2,169.6,8,209.9,8,259.7c0,49.7,40,90.1,89.6,90.1c25,0,47.4-10.2,63.8-26.7
	L326,407.4c-0.8,4.7-1.2,9.6-1.2,14.5c0,49.7,40,90.1,89.6,90.1c49.4,0,89.6-40.2,89.6-90.1C504,372,463.8,331.6,414.4,331.6z"/>
</svg>
