<svg version="1.1" id="Layer_1" xmlns="http://www.w3.org/2000/svg" xmlns:xlink="http://www.w3.org/1999/xlink" x="0px" y="0px"
     viewBox="0 0 512 512" style="enable-background:new 0 0 512 512;" xml:space="preserve" aria-hidden="true">
<style type="text/css">
	.st0{fill:#BBBBBB;}
	.st1{fill:#FFFFFF;}
</style>
    <circle class="st0" cx="256" cy="256" r="256"/>
    <path class="st1" d="M329.2,294.5c-16.1,0-30.2,8.3-38.4,20.7l-81-41.2c1.9-5,2.9-10.5,2.9-16.2c0-5.7-1-11.1-2.9-16.1l82-43.6
	c8.3,11.7,22,19.3,37.4,19.3c25.3,0,45.9-20.5,45.9-45.9s-20.5-45.9-45.9-45.9c-25.3,0-45.9,20.5-45.9,45.9c0,3.1,0.3,6.2,0.9,9.2
	l-84.7,45c-8.3-8.5-19.9-13.7-32.7-13.7c-25.3,0-45.9,20.5-45.9,45.9c0,25.3,20.5,45.9,45.9,45.9c12.8,0,24.3-5.2,32.7-13.6
	l84.4,42.9c-0.4,2.4-0.6,4.9-0.6,7.4c0,25.3,20.5,45.9,45.9,45.9c25.3,0,45.9-20.5,45.9-45.9C375.1,315.1,354.5,294.5,329.2,294.5z"
    />
</svg>
