<svg xmlns="http://www.w3.org/2000/svg" width="40.22" height="45.333" viewBox="0 0 40.22 45.333" aria-hidden="true"><g transform="translate(-612.256 -806)"><g transform="translate(612.256 806)"><g transform="translate(0 0)"><path d="M1204.329-1515.963a.108.108,0,0,0-.123.1,4.168,4.168,0,0,0,3.417,4.2.108.108,0,0,0,.129-.1A4.051,4.051,0,0,0,1204.329-1515.963Z" transform="translate(-1186.404 1545.234)" fill="#040405"/><path d="M1200.8-1526.706a.341.341,0,0,1,.228-.107.3.3,0,0,1,.042,0l.068.005a5.374,5.374,0,0,1-1.24-3.169,6.758,6.758,0,0,0,.837,3.376A.307.307,0,0,1,1200.8-1526.706Z" transform="translate(-1183.108 1555.945)" fill="#040405"/><path d="M1220.279-1511.656a4.175,4.175,0,0,0,3.423-4.2.107.107,0,0,0-.123-.1,4.058,4.058,0,0,0-3.429,4.208A.107.107,0,0,0,1220.279-1511.656Z" transform="translate(-1198.592 1545.234)" fill="#040405"/><path d="M1234.35-1526.812a.291.291,0,0,1,.041,0,.341.341,0,0,1,.228.107.3.3,0,0,1,.064.107,6.761,6.761,0,0,0,.842-3.376,5.382,5.382,0,0,1-1.244,3.169Z" transform="translate(-1209.395 1555.945)" fill="#040405"/><path d="M1208.625-1526.782a4.019,4.019,0,0,0-3.3-4.208.105.105,0,0,0-.118.1,4.13,4.13,0,0,0,3.293,4.2A.1.1,0,0,0,1208.625-1526.782Z" transform="translate(-1187.169 1556.722)" fill="#040405"/><path d="M1201.936-1541.734a.318.318,0,0,1,.219-.106.244.244,0,0,1,.04,0l.066.005a5.478,5.478,0,0,1-1.19-3.169,6.965,6.965,0,0,0,.8,3.377A.3.3,0,0,1,1201.936-1541.734Z" transform="translate(-1184.006 1567.434)" fill="#040405"/><path d="M1220.7-1526.684a4.127,4.127,0,0,0,3.291-4.2.105.105,0,0,0-.118-.1,4.017,4.017,0,0,0-3.3,4.208A.1.1,0,0,0,1220.7-1526.684Z" transform="translate(-1198.916 1556.722)" fill="#040405"/><path d="M1234.224-1541.84a.244.244,0,0,1,.04,0,.319.319,0,0,1,.219.106.3.3,0,0,1,.062.107,6.956,6.956,0,0,0,.8-3.377,5.475,5.475,0,0,1-1.188,3.169Z" transform="translate(-1209.301 1567.434)" fill="#040405"/><path d="M1208.887-1542.436c-.021-1.964-1.092-3.921-3.164-4.208a.1.1,0,0,0-.114.1,4.089,4.089,0,0,0,3.157,4.2A.1.1,0,0,0,1208.887-1542.436Z" transform="translate(-1187.476 1568.688)" fill="#040405"/><path d="M1202.5-1557.388a.305.305,0,0,1,.211-.106h.038l.063.005a5.589,5.589,0,0,1-1.134-3.169,7.185,7.185,0,0,0,.761,3.377A.324.324,0,0,1,1202.5-1557.388Z" transform="translate(-1184.469 1579.4)" fill="#040405"/><path d="M1223.514-1546.645c-2.072.288-3.144,2.244-3.166,4.208a.1.1,0,0,0,.12.1,4.091,4.091,0,0,0,3.16-4.2A.1.1,0,0,0,1223.514-1546.645Z" transform="translate(-1198.743 1568.688)" fill="#040405"/><path d="M1233.454-1557.494h.038a.3.3,0,0,1,.211.106.307.307,0,0,1,.06.107,7.184,7.184,0,0,0,.763-3.377,5.6,5.6,0,0,1-1.135,3.169Z" transform="translate(-1208.713 1579.4)" fill="#040405"/><path d="M1209.72-1557.464c-.021-1.9-1-3.913-3.04-4.208a.1.1,0,0,0-.109.1c.046,1.911,1.03,3.834,3.034,4.2A.1.1,0,0,0,1209.72-1557.464Z" transform="translate(-1188.211 1580.176)" fill="#040405"/><path d="M1203.6-1572.416a.288.288,0,0,1,.2-.106h.037l.06.006a5.72,5.72,0,0,1-1.084-3.169,7.431,7.431,0,0,0,.727,3.377A.326.326,0,0,1,1203.6-1572.416Z" transform="translate(-1185.336 1590.888)" fill="#040405"/><path d="M1223.766-1561.672c-2.039.3-3.015,2.3-3.034,4.208a.1.1,0,0,0,.115.1c2-.369,2.984-2.292,3.028-4.2A.1.1,0,0,0,1223.766-1561.672Z" transform="translate(-1199.036 1580.176)" fill="#040405"/><path d="M1233.287-1572.522h.037a.291.291,0,0,1,.2.106.321.321,0,0,1,.058.107,7.423,7.423,0,0,0,.722-3.377,5.71,5.71,0,0,1-1.079,3.169Z" transform="translate(-1208.588 1590.888)" fill="#040405"/><path d="M1206.988-1577.43c.039,1.853.928,3.824,2.9,4.2a.1.1,0,0,0,.11-.1c-.019-1.84-.9-3.9-2.9-4.208A.1.1,0,0,0,1206.988-1577.43Z" transform="translate(-1188.53 1592.302)" fill="#040405"/><path d="M1204.175-1588.278a.273.273,0,0,1,.194-.106h.035l.057.005a5.864,5.864,0,0,1-1.028-3.169,7.707,7.707,0,0,0,.686,3.377A.328.328,0,0,1,1204.175-1588.278Z" transform="translate(-1185.812 1603.014)" fill="#040405"/><path d="M1223.413-1577.535c-2,.3-2.883,2.369-2.9,4.208a.1.1,0,0,0,.11.1c1.969-.378,2.857-2.35,2.9-4.2A.1.1,0,0,0,1223.413-1577.535Z" transform="translate(-1198.869 1592.302)" fill="#040405"/><path d="M1232.517-1588.384h.035a.272.272,0,0,1,.194.106.329.329,0,0,1,.056.107,7.7,7.7,0,0,0,.684-3.377,5.861,5.861,0,0,1-1.026,3.169Z" transform="translate(-1208.002 1603.014)" fill="#040405"/><path d="M1210.281-1588.98c-.016-1.774-.805-3.9-2.767-4.208a.1.1,0,0,0-.1.1c.031,1.794.829,3.814,2.761,4.2A.094.094,0,0,0,1210.281-1588.98Z" transform="translate(-1188.855 1604.269)" fill="#040405"/><path d="M1204.761-1603.932a.258.258,0,0,1,.185-.107h.034l.055.006a6.026,6.026,0,0,1-.971-3.169,8,8,0,0,0,.645,3.377A.323.323,0,0,1,1204.761-1603.932Z" transform="translate(-1186.293 1614.981)" fill="#040405"/><path d="M1223.08-1593.189c-1.962.313-2.752,2.434-2.769,4.208a.093.093,0,0,0,.105.1c1.932-.388,2.731-2.408,2.764-4.2A.1.1,0,0,0,1223.08-1593.189Z" transform="translate(-1198.714 1604.269)" fill="#040405"/><path d="M1231.771-1604.038h.034a.258.258,0,0,1,.185.107.333.333,0,0,1,.053.107,8.011,8.011,0,0,0,.646-3.377,6.024,6.024,0,0,1-.973,3.169Z" transform="translate(-1207.433 1614.981)" fill="#040405"/><path d="M1208.326-1608.112c.068,1.715.693,3.792,2.638,4.2a.091.091,0,0,0,.1-.1c-.016-1.711-.721-3.886-2.643-4.208C1208.371-1608.225,1208.323-1608.173,1208.326-1608.112Z" transform="translate(-1189.552 1615.757)" fill="#040405"/><path d="M1205.809-1618.96a.243.243,0,0,1,.177-.106h.032l.052.005a6.2,6.2,0,0,1-.922-3.169,8.339,8.339,0,0,0,.611,3.377A.332.332,0,0,1,1205.809-1618.96Z" transform="translate(-1187.123 1626.469)" fill="#040405"/><path d="M1220.746-1603.91c1.945-.41,2.566-2.487,2.631-4.2,0-.061-.045-.113-.1-.1-1.921.322-2.623,2.5-2.636,4.208A.091.091,0,0,0,1220.746-1603.91Z" transform="translate(-1198.971 1615.757)" fill="#040405"/><path d="M1217.44-1618.284c1.247-1.553.847-3.653.089-5.281a.069.069,0,0,0-.119-.019,4.665,4.665,0,0,0-.1,5.288A.076.076,0,0,0,1217.44-1618.284Z" transform="translate(-1195.831 1627.524)" fill="#040405"/><path d="M1231.587-1619.066a.245.245,0,0,1,.177.106.337.337,0,0,1,.051.107,8.328,8.328,0,0,0,.605-3.377,6.2,6.2,0,0,1-.917,3.169l.052-.005Z" transform="translate(-1207.27 1626.469)" fill="#040405"/><path d="M1219.9-1636.5a.208.208,0,0,1,.134.052c-.014-1.259-.078-2.52-.14-3.777-.126,1.265-.141,2.544-.167,3.814l.014-.016A.213.213,0,0,1,1219.9-1636.5Z" transform="translate(-1198.27 1640.224)" fill="#040405"/><path d="M1238.356-1495.531a3.525,3.525,0,0,0,1.328,4.1.07.07,0,0,0,.11-.032,3.521,3.521,0,0,0-1.328-4.1A.074.074,0,0,0,1238.356-1495.531Z" transform="translate(-1212.361 1529.651)" fill="#040405"/><path d="M1238.323-1504.323a.206.206,0,0,1,.072-.056.233.233,0,0,1,.184-.006l.028.013.045.025a4.171,4.171,0,0,1,.018-2.635A4.668,4.668,0,0,0,1238.323-1504.323Z" transform="translate(-1212.443 1538.368)" fill="#040405"/><path d="M1249.052-1486.63a2.7,2.7,0,0,0-3.363,1.978.093.093,0,0,0,.066.111,2.847,2.847,0,0,0,3.354-1.977A.089.089,0,0,0,1249.052-1486.63Z" transform="translate(-1218.112 1522.9)" fill="#040405"/><path d="M1259.831-1492.824l.048.017.028.013a.275.275,0,0,1,.128.147.253.253,0,0,1,.016.1,4.927,4.927,0,0,0,1.505-2.135A4.135,4.135,0,0,1,1259.831-1492.824Z" transform="translate(-1228.925 1528.968)" fill="#040405"/><path d="M1244.077-1501.884a.072.072,0,0,0,.11-.032,3.32,3.32,0,0,0-1.116-4.013.075.075,0,0,0-.111.037A3.319,3.319,0,0,0,1244.077-1501.884Z" transform="translate(-1215.836 1537.573)" fill="#040405"/><path d="M1243.315-1514.561a.231.231,0,0,1,.181-.007l.028.013.043.024a4.067,4.067,0,0,1,.146-2.579,4.646,4.646,0,0,0-.472,2.605A.225.225,0,0,1,1243.315-1514.561Z" transform="translate(-1216.227 1546.11)" fill="#040405"/><path d="M1249.559-1495.339a.087.087,0,0,0,.061.109,2.97,2.97,0,0,0,3.4-1.968.082.082,0,0,0-.05-.11A2.813,2.813,0,0,0,1249.559-1495.339Z" transform="translate(-1221.069 1531.057)" fill="#040405"/><path d="M1263.911-1503.434l.046.016.028.012a.252.252,0,0,1,.12.143.261.261,0,0,1,.011.094,5.214,5.214,0,0,0,1.58-2.1A4.391,4.391,0,0,1,1263.911-1503.434Z" transform="translate(-1232.044 1537.061)" fill="#040405"/><path d="M1248.664-1512.769a.074.074,0,0,0,.111-.032,3.128,3.128,0,0,0-.894-3.917.078.078,0,0,0-.111.037A3.118,3.118,0,0,0,1248.664-1512.769Z" transform="translate(-1219.459 1545.819)" fill="#040405"/><path d="M1248.438-1525.142a.232.232,0,0,1,.179-.008.177.177,0,0,1,.026.012l.042.023a3.981,3.981,0,0,1,.283-2.517,4.643,4.643,0,0,0-.6,2.545A.242.242,0,0,1,1248.438-1525.142Z" transform="translate(-1220.156 1554.153)" fill="#040405"/><path d="M1257.121-1508.316a.077.077,0,0,0-.044-.107,2.941,2.941,0,0,0-3.452,1.951.08.08,0,0,0,.054.107A3.111,3.111,0,0,0,1257.121-1508.316Z" transform="translate(-1224.176 1539.55)" fill="#040405"/><path d="M1268.208-1514.462l.045.016.026.012a.226.226,0,0,1,.111.139.235.235,0,0,1,.006.092,5.547,5.547,0,0,0,1.661-2.067A4.688,4.688,0,0,1,1268.208-1514.462Z" transform="translate(-1235.329 1545.469)" fill="#040405"/><path d="M1253.906-1522.829a.075.075,0,0,0,.11-.032c.576-1.291.62-2.981-.686-3.822a.08.08,0,0,0-.111.037A2.949,2.949,0,0,0,1253.906-1522.829Z" transform="translate(-1223.568 1553.437)" fill="#040405"/><path d="M1254.338-1534.913l.025.011.04.022a3.928,3.928,0,0,1,.408-2.455,4.678,4.678,0,0,0-.727,2.485.247.247,0,0,1,.077-.055A.233.233,0,0,1,1254.338-1534.913Z" transform="translate(-1224.532 1561.571)" fill="#040405"/><path d="M1261.937-1518.6a.071.071,0,0,0-.039-.1,3.066,3.066,0,0,0-3.491,1.934.075.075,0,0,0,.048.1A3.25,3.25,0,0,0,1261.937-1518.6Z" transform="translate(-1227.832 1547.405)" fill="#040405"/><path d="M1273.186-1524.653l.044.015.025.011a.2.2,0,0,1,.1.135.224.224,0,0,1,0,.09,5.907,5.907,0,0,0,1.733-2.029A5,5,0,0,1,1273.186-1524.653Z" transform="translate(-1239.134 1553.236)" fill="#040405"/><path d="M1259.47-1533.4a.077.077,0,0,0,.11-.032c.6-1.2.809-2.883-.464-3.716a.084.084,0,0,0-.112.036A2.786,2.786,0,0,0,1259.47-1533.4Z" transform="translate(-1227.923 1561.434)" fill="#040405"/><path d="M1260.438-1545.143l.024.011.038.021a3.886,3.886,0,0,1,.543-2.385,5.393,5.393,0,0,0-.858,2.416.268.268,0,0,1,.079-.053A.234.234,0,0,1,1260.438-1545.143Z" transform="translate(-1229.196 1569.339)" fill="#040405"/><path d="M1267.083-1529.4a.066.066,0,0,0-.032-.1,3.213,3.213,0,0,0-3.534,1.907.068.068,0,0,0,.042.1A3.41,3.41,0,0,0,1267.083-1529.4Z" transform="translate(-1231.736 1555.655)" fill="#040405"/><path d="M1278.511-1535.336l.042.014.024.011a.183.183,0,0,1,.093.13.223.223,0,0,1,0,.088,6.321,6.321,0,0,0,1.812-1.984A5.35,5.35,0,0,1,1278.511-1535.336Z" transform="translate(-1243.205 1561.374)" fill="#040405"/><path d="M1265.417-1543.567a.079.079,0,0,0,.11-.032c.577-1.1,1.035-2.752-.247-3.605a.086.086,0,0,0-.112.036C1264.472-1546.046,1264.223-1544.435,1265.417-1543.567Z" transform="translate(-1232.558 1569.123)" fill="#040405"/><path d="M1266.942-1554.963l.023.011.036.021a3.883,3.883,0,0,1,.674-2.313,5.514,5.514,0,0,0-.986,2.344.291.291,0,0,1,.081-.052A.231.231,0,0,1,1266.942-1554.963Z" transform="translate(-1234.168 1576.791)" fill="#040405"/><path d="M1272.652-1539.8a.062.062,0,0,0-.026-.1c-1.469-.4-2.86.653-3.575,1.877a.063.063,0,0,0,.035.1C1270.557-1537.579,1271.875-1538.631,1272.652-1539.8Z" transform="translate(-1235.965 1563.594)" fill="#040405"/><path d="M1284.252-1545.6l.04.014.023.01a.161.161,0,0,1,.084.125.2.2,0,0,1-.008.085,6.775,6.775,0,0,0,1.887-1.937A5.75,5.75,0,0,1,1284.252-1545.6Z" transform="translate(-1247.594 1569.191)" fill="#040405"/><path d="M1271.9-1552.917a.08.08,0,0,0,.11-.032c.589-1.017,1.2-2.656-.045-3.5a.089.089,0,0,0-.112.035C1271.141-1555.375,1270.733-1553.781,1271.9-1552.917Z" transform="translate(-1237.589 1576.188)" fill="#040405"/><path d="M1273.971-1563.969l.022.01.034.02a3.911,3.911,0,0,1,.8-2.241,5.649,5.649,0,0,0-1.1,2.274.3.3,0,0,1,.082-.051A.233.233,0,0,1,1273.971-1563.969Z" transform="translate(-1239.543 1583.622)" fill="#040405"/><path d="M1278.8-1549.359c.028-.038.018-.084-.02-.095-1.453-.389-2.855.673-3.608,1.846a.059.059,0,0,0,.03.095C1276.659-1547.187,1277.99-1548.241,1278.8-1549.359Z" transform="translate(-1240.645 1570.898)" fill="#040405"/><path d="M1279.194-1558.94a4.129,4.129,0,0,0,2.427-3.243c.007-.04-.029-.064-.073-.049a3.514,3.514,0,0,0-2.437,3.245C1279.11-1558.946,1279.15-1558.923,1279.194-1558.94Z" transform="translate(-1243.664 1580.607)" fill="#040405"/><path d="M1290.547-1555.035l.039.013.022.01a.146.146,0,0,1,.075.122.21.21,0,0,1-.012.083,7.266,7.266,0,0,0,1.955-1.889A6.161,6.161,0,0,1,1290.547-1555.035Z" transform="translate(-1252.406 1576.372)" fill="#040405"/><path d="M1289.514-1569.888a.126.126,0,0,1,.069.074c.579-.763,1.148-1.533,1.735-2.29a25.568,25.568,0,0,0-1.965,2.216l.017-.005A.21.21,0,0,1,1289.514-1569.888Z" transform="translate(-1251.492 1588.15)" fill="#040405"/><path d="M1238.733-1470.9c.308-1.62.849-4.092,1.28-5.692l-.178-.08q-.853,2.687-1.483,5.421c.021.212.15.7.181.905C1238.691-1470.729,1238.576-1470.529,1238.733-1470.9Z" transform="translate(-1212.506 1515.195)" fill="#040405"/><path d="M1193.248-1498.158a.079.079,0,0,0,.126.029,3.972,3.972,0,0,0,1.267-4.686.084.084,0,0,0-.127-.035A3.969,3.969,0,0,0,1193.248-1498.158Z" transform="translate(-1177.815 1535.221)" fill="#040405"/><path d="M1198.467-1512.7l.049-.031a.235.235,0,0,1,.031-.016.264.264,0,0,1,.208,0,.238.238,0,0,1,.084.06,5.848,5.848,0,0,0-.539-2.975A4.681,4.681,0,0,1,1198.467-1512.7Z" transform="translate(-1181.888 1545.008)" fill="#040405"/><path d="M1180.545-1489.615a.1.1,0,0,0,.068-.129,3.045,3.045,0,0,0-3.9-2.04.1.1,0,0,0-.058.13A3.209,3.209,0,0,0,1180.545-1489.615Z" transform="translate(-1165.339 1526.888)" fill="#040405"/><path d="M1170.364-1498.279l.053-.022a4.635,4.635,0,0,1-2.048-2,6.187,6.187,0,0,0,1.814,2.32.289.289,0,0,1,.013-.11.307.307,0,0,1,.136-.172Z" transform="translate(-1159.008 1533.261)" fill="#040405"/><path d="M1189.055-1514.252a3.744,3.744,0,0,0-1.033,4.583.081.081,0,0,0,.126.03,3.74,3.74,0,0,0,1.034-4.577A.086.086,0,0,0,1189.055-1514.252Z" transform="translate(-1173.763 1543.937)" fill="#040405"/><path d="M1192.023-1523.878l.048-.03.03-.016a.26.26,0,0,1,.2,0,.252.252,0,0,1,.086.059,5.813,5.813,0,0,0-.678-2.908A4.567,4.567,0,0,1,1192.023-1523.878Z" transform="translate(-1176.854 1553.498)" fill="#040405"/><path d="M1171.519-1503.451a3.348,3.348,0,0,0,3.934,2.026.1.1,0,0,0,.062-.126,3.17,3.17,0,0,0-3.945-2.027A.093.093,0,0,0,1171.519-1503.451Z" transform="translate(-1161.409 1535.897)" fill="#040405"/><path d="M1164.8-1509.807a.282.282,0,0,1,.126-.168l.03-.015.052-.021a4.926,4.926,0,0,1-2.113-1.971,6.58,6.58,0,0,0,1.9,2.282A.276.276,0,0,1,1164.8-1509.807Z" transform="translate(-1154.826 1542.19)" fill="#040405"/><path d="M1183.285-1526.119c-1.461,1.031-1.472,2.946-.787,4.461a.083.083,0,0,0,.126.031,3.516,3.516,0,0,0,.789-4.457A.089.089,0,0,0,1183.285-1526.119Z" transform="translate(-1169.473 1553.008)" fill="#040405"/><path d="M1185.253-1535.491l.045-.028a.192.192,0,0,1,.029-.015.262.262,0,0,1,.2,0,.274.274,0,0,1,.088.058,5.806,5.806,0,0,0-.823-2.832A4.466,4.466,0,0,1,1185.253-1535.491Z" transform="translate(-1171.564 1562.316)" fill="#040405"/><path d="M1166.114-1515.731c.807,1.438,2.3,2.518,3.986,2.005a.09.09,0,0,0,.055-.123,3.314,3.314,0,0,0-4-2.005A.086.086,0,0,0,1166.114-1515.731Z" transform="translate(-1157.275 1545.275)" fill="#040405"/><path d="M1159.128-1521.982a.254.254,0,0,1,.117-.162.234.234,0,0,1,.029-.015l.05-.02a5.251,5.251,0,0,1-2.184-1.933,7.027,7.027,0,0,0,1.986,2.235A.263.263,0,0,1,1159.128-1521.982Z" transform="translate(-1150.424 1551.464)" fill="#040405"/><path d="M1176.761-1537.024c-1.426,1.02-1.278,2.921-.559,4.343a.084.084,0,0,0,.126.03,3.324,3.324,0,0,0,.561-4.338A.091.091,0,0,0,1176.761-1537.024Z" transform="translate(-1164.589 1561.344)" fill="#040405"/><path d="M1177.833-1546.146l.043-.028.028-.014a.26.26,0,0,1,.2,0,.294.294,0,0,1,.09.057,5.843,5.843,0,0,0-.958-2.757A4.4,4.4,0,0,1,1177.833-1546.146Z" transform="translate(-1165.786 1570.403)" fill="#040405"/><path d="M1159.983-1527.032c.851,1.384,2.359,2.48,4.028,1.983a.084.084,0,0,0,.048-.12,3.455,3.455,0,0,0-4.039-1.982A.08.08,0,0,0,1159.983-1527.032Z" transform="translate(-1152.587 1553.905)" fill="#040405"/><path d="M1152.76-1533.177a.229.229,0,0,1,.107-.157l.028-.014.048-.019a5.6,5.6,0,0,1-2.245-1.9,7.489,7.489,0,0,0,2.065,2.189A.252.252,0,0,1,1152.76-1533.177Z" transform="translate(-1145.499 1559.988)" fill="#040405"/><path d="M1169.763-1548.467c-1.39,1.01-1.062,2.892-.315,4.211a.087.087,0,0,0,.126.03c1.335-1.053,1.138-2.876.317-4.206A.094.094,0,0,0,1169.763-1548.467Z" transform="translate(-1159.34 1570.091)" fill="#040405"/><path d="M1169.917-1557.306l.041-.026.027-.014a.26.26,0,0,1,.2,0,.322.322,0,0,1,.092.056,5.914,5.914,0,0,0-1.1-2.673A4.364,4.364,0,0,1,1169.917-1557.306Z" transform="translate(-1159.621 1578.868)" fill="#040405"/><path d="M1153.435-1538.9c.9,1.325,2.421,2.433,4.075,1.951a.078.078,0,0,0,.042-.116c-.826-1.4-2.434-2.506-4.087-1.951A.074.074,0,0,0,1153.435-1538.9Z" transform="translate(-1147.58 1562.964)" fill="#040405"/><path d="M1145.953-1544.907a.208.208,0,0,1,.1-.152l.027-.013.047-.018a6,6,0,0,1-2.313-1.851,8.045,8.045,0,0,0,2.151,2.134A.249.249,0,0,1,1145.953-1544.907Z" transform="translate(-1140.234 1568.915)" fill="#040405"/><path d="M1162.283-1559.434c-1.354,1-.84,2.861-.077,4.074a.089.089,0,0,0,.125.031c1.347-1.085.865-2.844.08-4.071A.1.1,0,0,0,1162.283-1559.434Z" transform="translate(-1153.713 1578.474)" fill="#040405"/><path d="M1161.619-1568.005l.025-.013a.263.263,0,0,1,.194,0,.327.327,0,0,1,.094.054,6.03,6.03,0,0,0-1.24-2.585,4.356,4.356,0,0,1,.889,2.567Z" transform="translate(-1153.139 1586.959)" fill="#040405"/><path d="M1146.441-1550.278c.94,1.267,2.481,2.381,4.12,1.915a.072.072,0,0,0,.034-.112c-.873-1.336-2.5-2.454-4.13-1.914A.069.069,0,0,0,1146.441-1550.278Z" transform="translate(-1142.231 1571.657)" fill="#040405"/><path d="M1138.711-1556.143a.184.184,0,0,1,.087-.146l.026-.013.044-.018a6.43,6.43,0,0,1-2.377-1.8,8.666,8.666,0,0,0,2.234,2.075A.241.241,0,0,1,1138.711-1556.143Z" transform="translate(-1134.639 1577.462)" fill="#040405"/><path d="M1154.463-1565.477c1.309-1.076.658-2.809-.142-3.938a.1.1,0,0,0-.127-.034c-1.354,1.016-.58,2.83.144,3.942A.091.091,0,0,0,1154.463-1565.477Z" transform="translate(-1147.604 1586.13)" fill="#040405"/><path d="M1152.772-1577.734l.024-.012a.266.266,0,0,1,.191,0,.351.351,0,0,1,.095.053,6.176,6.176,0,0,0-1.369-2.5,4.409,4.409,0,0,1,1.022,2.48Z" transform="translate(-1146.275 1594.331)" fill="#040405"/><path d="M1138.882-1560.8c-.042.014-.051.067-.018.108.976,1.211,2.533,2.328,4.155,1.878a.067.067,0,0,0,.028-.109C1142.136-1560.2,1140.5-1561.326,1138.882-1560.8Z" transform="translate(-1136.438 1579.611)" fill="#040405"/><path d="M1139.142-1575.062a4.655,4.655,0,0,0,2.915,3.517c.05.017.1-.014.091-.058a4,4,0,0,0-2.926-3.518C1139.172-1575.135,1139.133-1575.107,1139.142-1575.062Z" transform="translate(-1136.665 1590.459)" fill="#040405"/><path d="M1130.917-1566.413a.164.164,0,0,1,.078-.141l.025-.013.042-.017a6.881,6.881,0,0,1-2.434-1.755,9.31,9.31,0,0,0,2.307,2.018A.231.231,0,0,1,1130.917-1566.413Z" transform="translate(-1128.628 1585.271)" fill="#040405"/><path d="M1131.81-1583.389a.236.236,0,0,1,.163-.014l.02,0a28.207,28.207,0,0,0-2.337-2.385c.7.819,1.387,1.655,2.082,2.481A.145.145,0,0,1,1131.81-1583.389Z" transform="translate(-1129.413 1598.607)" fill="#040405"/><path d="M1196.365-1474.147q-.966-3.612-2.278-7.121l-.2.1a74.073,74.073,0,0,1,2.01,7.552l.114.116A4.458,4.458,0,0,0,1196.365-1474.147Z" transform="translate(-1178.519 1518.711)" fill="#040405"/></g><path d="M1218.769-1489.45q-.084-3.326-.159-6.652h-.26q-.125,5.27-.272,10.54c.027.077-.024-.071,0,0l.769.844Z" transform="translate(-1197.002 1530.051)" fill="#040405"/></g></g></svg>