<svg xmlns="http://www.w3.org/2000/svg" width="60" height="66" aria-hidden = "true"><path d="M11 66l5-4c1 0 1 4 3 4l2-2 2 2 4-1 2 1a4 4 0 0 0 2-1 2 2 0 0 0 2 1c3 0 4-3 5-3l2 3c3 0 4-4 4-6v-2l-2 2v2l-1 2-2-5-1 1c-1 2-2 4-4 4a2 2 0 0 1-1 0c2-1 2-2 2-3l-1-2c-2 0-3 2-3 4a4 4 0 0 0 0 1 1 1 0 0 1-1 1 2 2 0 0 1-2-2c1-1 2-3 2-7 0-2-1-3-2-3s-3 3-3 7a13 13 0 0 0 1 3 2 2 0 0 1-2 1c-1 0-2 0-2-2v-3l-2 3-1 2c-2 0-2-5-3-5l-3 3v-2h-1a1 1 0 0 0-1 0v3l-1 2 1 1zm22-5l1 1a2 2 0 0 1-1 1 2 2 0 0 1-1-1l1-1zm-5-6l1 2-1 4-1-1 1-5z" class="cls-1" data-name="Path 228"/><path d="M22 56a1 1 0 0 0 1-1 1 1 0 0 0-1-1 1 1 0 0 0-1 1 1 1 0 0 0 1 1z" class="cls-1" data-name="Path 229"/><path d="M5 66c3 0 4-3 5-6a15 15 0 0 0-1-5l-1-1a2 2 0 0 0-1 2 11 11 0 0 0 1 2 7 7 0 0 1 0 3c0 2-1 4-3 4-1 0-3-1-3-4a19 19 0 0 1 1-5l-1-2-1 2a14 14 0 0 0-1 5c0 3 1 5 5 5z" class="cls-1" data-name="Path 230"/><path d="M53 59l-1 1c-1 2-2 5-4 5l-1-1c0-1 3-1 3-3a2 2 0 0 0-2-2c-2 0-3 2-3 4a2 2 0 0 0 2 3c3 0 4-2 5-4l1 4 1-1c1-3 2-5 4-5l1 1a1 1 0 0 0 1-1l-2-2c-3 0-4 5-4 5l-1-4zm-6 1l1 2a2 2 0 0 1-2 1l1-3z" class="cls-1" data-name="Path 231"/><path d="M48 12a1 1 0 0 0-1 0l1 1c2 0 4-2 4-3a1 1 0 0 0-1-1c0 1-1 3-3 3z" class="cls-1" data-name="Path 232"/><path d="M52 12a4 4 0 0 1-4 2l4 4 1-4-1-2z" class="cls-1" data-name="Path 233"/><path d="M50 9h-2a3 3 0 0 1-1 0v1a1 1 0 0 0 1 1l2-2z" class="cls-1" data-name="Path 234"/><path d="M10 39c2-4-4-3-2-7l2 1a2 2 0 0 1-1-2l2-4a15 15 0 0 0 2-5h-1v1l-2 3v-1l1-4-2 4v-1-2-1l-2 4v-1-2l-1 4 1 4 1-2a1 1 0 0 0 0-1v-1l1 1a1 1 0 0 1 1 0c0 2-3 4-3 7s3 4 3 5z" class="cls-1" data-name="Path 235"/><path d="M13 27l-1 2h-1a1 1 0 0 0 1 1l1-2v-1a3 3 0 0 1 1-2l1 4-1 1h-1a1 1 0 0 0 1 1 1 1 0 0 0 2-1l-2-5a4 4 0 0 1 1-2c0 4 3 7 3 8a1 1 0 0 1-1 1 1 1 0 0 1 0-1h-1a1 1 0 0 0 0 1 1 1 0 0 0 1 1 2 2 0 0 0 2-2c0-2-4-4-4-8a4 4 0 0 1 1-2 6 6 0 0 0-3 6z" class="cls-1" data-name="Path 236"/><path d="M43 14c2 0 3-1 3-2l-1-2h-1l-1-1a1 1 0 0 0-1 0 9 9 0 0 1-2 1h-1a4 4 0 0 0 4 4zm-2-3h2a12 12 0 0 0 2 1h-1l-3-1z" class="cls-1" data-name="Path 237"/><path d="M16 44c2 0 3-2 3-3 0-3-2-5-4-5a2 2 0 0 0-2 3 3 3 0 0 0 3 3 2 2 0 0 0 2-2 2 2 0 0 0-2-2 1 1 0 0 0-1 1l2 1a1 1 0 0 0 0-1 1 1 0 0 1 0 1h-1a2 2 0 0 1-2-1 1 1 0 0 1 2-2 3 3 0 0 1 2 3 2 2 0 0 1-2 2c-3 0-4-2-4-5a3 3 0 0 0-1 3 5 5 0 0 0 5 4z" class="cls-1" data-name="Path 238"/><path d="M25 44a2 2 0 0 1-2 1h-1a4 4 0 0 0-2-3 3 3 0 0 1 0 1c0 1-1 2-3 2l4 2c1 0 2 2 6 2a7 7 0 0 0 3-1 2 2 0 0 0 2 1l3-1h-1a8 8 0 0 1-1 0 4 4 0 0 1-3-2l-1-1s-1 2-4 2h-2v-1l1 1a6 6 0 0 0 5-2l1-1a1 1 0 0 1 0 1 3 3 0 0 0 3 2l2-3h1l-1-1-1-1a7 7 0 0 0-2 0 3 3 0 0 0-1 0 4 4 0 0 0-2-1 4 4 0 0 1-4 3zm7-1a1 1 0 1 1 0 1 1 1 0 0 1 0-1z" class="cls-1" data-name="Path 239"/><path d="M45 43s4-3 4-5a3 3 0 0 0-3-4c-3 0-2 3-6 3v2c2 0 4-3 4-3v1l-3 3 3 1 3-3a4 4 0 0 1-3 4l1 1zm2-6a2 2 0 0 1-1 0 1 1 0 0 1 0-1v-1a2 2 0 0 1 2 1l-1 1z" class="cls-1" data-name="Path 240"/><path d="M12 12a1 1 0 1 0 1 1 1 1 0 0 0-1-1z" class="cls-1" data-name="Path 241"/><path d="M13 13a1 1 0 1 0 0 1 1 1 0 0 0 0-1z" class="cls-1" data-name="Path 242"/><path d="M9 19a1 1 0 0 0 1 1 1 1 0 0 0 1 0 2 2 0 0 1-1-2 2 2 0 0 1 0-1 2 2 0 0 0-1 2z" class="cls-1" data-name="Path 243"/><path d="M7 21a4 4 0 0 0 2-1 8 8 0 0 1-2 0 2 2 0 0 1-2-1c0 2 1 2 2 2z" class="cls-1" data-name="Path 244"/><path d="M12 16a3 3 0 0 0-1 2 2 2 0 0 0 2 2 1 1 0 0 0 1-2 3 3 0 0 0-2-2z" class="cls-1" data-name="Path 245"/><path d="M6 18l1 1a2 2 0 0 0 1-1 2 2 0 0 1-2 0z" class="cls-1" data-name="Path 246"/><path d="M7 13a2 2 0 0 0 1 0 2 2 0 0 1-2-3 2 2 0 0 0-1 2 1 1 0 0 0 2 1z" class="cls-1" data-name="Path 247"/><path d="M10 11L9 9a1 1 0 0 0-2 1c0 2 2 2 3 2a4 4 0 0 0 0-1z" class="cls-1" data-name="Path 248"/><path d="M12 14h-1v-1a2 2 0 0 0-1 0 4 4 0 0 0-2 1c-2 1-2 2-2 3h2a4 4 0 0 0 2 0 4 4 0 0 0 2-3zm-3 3a2 2 0 0 1-2-2l1-1v1a2 2 0 0 0 1 1v1zm0-3h1l1 1h-1l-1-1z" class="cls-1" data-name="Path 249"/><path d="M38 19a1 1 0 1 0-1 1 1 1 0 0 0 1-1z" class="cls-1" data-name="Path 250"/><path d="M36 21a1 1 0 1 0 1-1 1 1 0 0 0-1 1z" class="cls-1" data-name="Path 251"/><path d="M38 17a1 1 0 1 0 1-1 1 1 0 0 0-1 1z" class="cls-1" data-name="Path 252"/><path d="M41 20a1 1 0 1 0 1 1 1 1 0 0 0-1-1z" class="cls-1" data-name="Path 253"/><path d="M41 22a1 1 0 0 0 0 1 1 1 0 1 0 0-1z" class="cls-1" data-name="Path 254"/><path d="M41 18a1 1 0 0 0-1 0 1 1 0 1 0 2 0 1 1 0 0 0-1 0z" class="cls-1" data-name="Path 255"/><path d="M35 19a1 1 0 0 0-1 1 1 1 0 0 0 1 1 1 1 0 0 0 1-1 1 1 0 0 0-1-1z" class="cls-1" data-name="Path 256"/><path d="M39 15a1 1 0 0 0 1 0 1 1 0 1 0-1 0z" class="cls-1" data-name="Path 257"/><path d="M35 17a1 1 0 1 0 1 0 1 1 0 0 0-1 0z" class="cls-1" data-name="Path 258"/><path d="M38 20a1 1 0 1 0 1-1 1 1 0 0 0-1 1z" class="cls-1" data-name="Path 259"/><path d="M39 24a1 1 0 1 0-1-2 1 1 0 0 0 1 2z" class="cls-1" data-name="Path 260"/><path d="M36 16a1 1 0 1 0 1 0 1 1 0 0 0-1 0z" class="cls-1" data-name="Path 261"/><path d="M37 43a4 4 0 0 0-1 3 2 2 0 0 0 1 1c4 0 6-2 6-3l-1-2a5 5 0 0 1-3 1 4 4 0 0 1-2 0zm2 1a4 4 0 0 0 2 0 2 2 0 0 1-1 2 4 4 0 0 1-2 0 5 5 0 0 0 1-1 2 2 0 0 0 0-1z" class="cls-1" data-name="Path 262"/><path d="M37 41v1l2 1a3 3 0 0 0 2-1 1 1 0 0 0 0-1l-2-1-2 1z" class="cls-1" data-name="Path 263"/><path d="M36 28v2l1 1 1-1-1-2h2l-1 1h1l2-1-2-2v1l-1 1-1-1c0-2 3-1 3-2l-2-1a1 1 0 0 0-1 1v1c0 1 0 0 0 0l-1-1v-1c0-2-2-1-2-2a5 5 0 0 0-1 2c0 2 3 1 3 3l-2-1-1 1 1 1a2 2 0 0 1-1 2c2 0 2-2 3-2z" class="cls-1" data-name="Path 264"/><path d="M40 30l-1 1h1v1h1l1 1v-2l1-2 1 2-1 2h1l1 1v-1-1h1l-1-1a3 3 0 0 1-1-2c2 0 2 2 3 2v-1h1l-1-1 1-1h-1a7 7 0 0 1-2 1l-1-1 1-1h2l-1-1v-1l-1 1-1-1v2l-1 1v-1-2h-1-1v1h-1l1 1 1 2-2 1z" class="cls-1" data-name="Path 265"/><path d="M34 41a5 5 0 0 0 5-4 6 6 0 0 1-3 0l-4-1v1h-1l2 2a7 7 0 0 0 3-1v1l-2 1c-2 0-3-2-3-3 0-3 2-2 2-3a1 1 0 0 1 1-1h2l-1-1 1-1h-2a5 5 0 0 0-5 5 5 5 0 0 0 5 5z" class="cls-1" data-name="Path 266"/><path d="M35 36a1 1 0 0 0 1-1 2 2 0 0 0-2-1 1 1 0 0 1 0 1v1a1 1 0 0 0 1 0z" class="cls-1" data-name="Path 267"/><path d="M41 36a1 1 0 0 0 1-1c0-1 0-2-2-2a1 1 0 0 1 0 1v1a1 1 0 0 0 1 1z" class="cls-1" data-name="Path 268"/><path d="M38 36a2 2 0 0 0 2-2 3 3 0 0 0-3-3 1 1 0 0 1 0 1l-1 2a2 2 0 0 0 2 2zm0-3v-1 1a1 1 0 0 1 0 1l-1-1h1z" class="cls-1" data-name="Path 269"/><path d="M16 14l-1-1-1 1a2 2 0 0 0 2 2 4 4 0 0 0 4-2l2 3a2 2 0 0 0 2-1 1 1 0 0 1-1 0v-1l1-2v1l-1-3a3 3 0 0 0-3 2c0-2 0-3-2-3a3 3 0 0 0-3 2 1 1 0 0 1 1-1l1 1a4 4 0 0 1 0 1l-1 1zm7-1l-1 3v-1l1-2zm-2 0v0zm-2-1l1 1a6 6 0 0 1 0 1h-1v-2zm-1-1h1l-2 4 1-4z" class="cls-1" data-name="Path 270"/><path d="M14 22a4 4 0 0 1 3-2h1a3 3 0 0 0-1 2v3l1 2 1 1v1l1-1a3 3 0 0 1-1-2l-1-1v-1-2l1-2a3 3 0 0 1 1 3 5 5 0 0 1 0 1l2-2c0-1 0-2-3-2a6 6 0 0 1 3-1l2 2a2 2 0 0 0 0-2 2 2 0 0 0-2-1 6 6 0 0 0-3 1l2-1-2-2-1 3-2-3-1 2h1a3 3 0 0 1 2 1 11 11 0 0 0-2 0 2 2 0 0 0-1 0 2 2 0 0 0-1 3z" class="cls-1" data-name="Path 271"/><path d="M47 33c0 1 3 1 3 3a6 6 0 0 0 2-4c0-2-1-3-2-3a1 1 0 0 0-1 2 2 2 0 0 0 0 1 2 2 0 0 0-1-1 1 1 0 0 0-1 2z" class="cls-1" data-name="Path 272"/><path d="M39 12a3 3 0 0 0 0-1 2 2 0 0 1-3 3 2 2 0 0 1 0-1h-1a2 2 0 0 1-1-1 3 3 0 0 0-1 2l1 2 1-1a4 4 0 0 0 1 0 3 3 0 0 0 3-3z" class="cls-1" data-name="Path 273"/><path d="M36 11v1a2 2 0 0 1 1 0 3 3 0 0 0 1-2V9v1a3 3 0 0 0-2-1 2 2 0 0 0-2 2 1 1 0 0 1 2-1l1 1a1 1 0 0 0-1 0z" class="cls-1" data-name="Path 274"/><path d="M11 3l1-1 1 1-1 1v1l2-1 1 2 1-2 1 1V3h2l-2-2 1-1h-1l-2 1-2-1-1 1-1 1v1z" class="cls-1" data-name="Path 275"/><path d="M22 2l2 1h1l-1-1h-2z" class="cls-1" data-name="Path 276"/><path d="M7 5a2 2 0 0 0-1 0 2 2 0 0 0 0 1 4 4 0 0 0 2-1H7z" class="cls-1" data-name="Path 277"/><path d="M5 4h4L6 8v1l4-2 1 1-1 1 1 1 2-1 1 3 1-3 2 1 1-2 3 2V9l-1-3V5l4 1-3-4h1l2-2-5 1 3 3h-1-3l1 3-2-1h-1v1l-1-1-1 3-1-3-1 2V7 5L9 6l2-3H8l2-2-3-1H6l2 1-3 3z" class="cls-1" data-name="Path 278"/><path d="M24 9a11 11 0 0 0-3-2l3 4V9z" class="cls-1" data-name="Path 279"/><path d="M47 3h-3l3 2a1 1 0 0 1-1 1l-1-1h-1a10 10 0 0 1 1 1l-2 2h1a20 20 0 0 0 2 0c4 0 6-1 6-4V1a1 1 0 0 1 1-1h-2a1 1 0 0 0-1 1v2l-1 1a1 1 0 0 1-1-1l1-2-3-1a6 6 0 0 0-2 1s2 0 3 2zm4-2v1l-1-1h1zm0 2a1 1 0 0 1 0 2c0 1-1 2-3 2a6 6 0 0 1-1 0c2-1 4-2 4-4z" class="cls-1" data-name="Path 280"/><path d="M52 25l-2 2c0-2 3-3 3-5 0-3-2-4-3-4-2-2-3-4-5-4l-2 1a3 3 0 0 1-2-1c0 2 1 6 5 6l4-1a2 2 0 0 1 2 2 3 3 0 0 1-1 3l-1-1v-3a3 3 0 0 0-2 2l2 2a11 11 0 0 0-1 3 11 11 0 0 0-1-3c-1-3-1-3-3-3 0 1 4 3 4 6v1c-1-4-3-4-4-5s0-2-2-3a1 1 0 0 1 0 1v1c0 2 2 2 3 3a9 9 0 0 1 3 4l1-1 1 1a4 4 0 0 0 2-3l-1-1zm-3-7h-1l-2 1 1-1h-3l1-1h-1-1 1v-1l1 1v-1c0-1 0 0 0 0l1-1 1 2v-1l1 1 1 1z" class="cls-1" data-name="Path 281"/><path d="M33 6h1l-1 2h1l1-1 1 1v1l1-1 2 1a4 4 0 0 0 5-5c0-2-2-4-5-4a14 14 0 0 0-2 1l-1-1v1h-1-2l1 2h-1l1 1-1 2zm6-5c2 0 3 1 3 3 0 3-2 4-3 4l-2-1V6l2 1V6h2l-1-2 1-1h-2V2h-1-1l2-1zm-4 2h1V2l1 1h1l-1 1h1l-1 1 1 1-1-1-1 1V5h-1l1-1-1-1z" class="cls-1" data-name="Path 282"/><path d="M28 38a1 1 0 0 0-1 0v1a1 1 0 0 0-1 0c-2 0-1 3-4 3a9 9 0 0 1-1 0l3 1c2 0 3-1 3-2a2 2 0 0 0 0-1 1 1 0 0 1 1 0 1 1 0 0 0 1 0 1 1 0 0 0 0-1 1 1 0 0 0-1-1z" class="cls-1" data-name="Path 283"/><path d="M20 40a3 3 0 0 0 2 1l1-1a3 3 0 0 0-2-2 1 1 0 0 1-1 0l-1-3a2 2 0 0 0-2-1l-1 1 1 1a3 3 0 0 1 2 2 4 4 0 0 0 1 2zm1-2l1 1v1l-1-1v-1z" class="cls-1" data-name="Path 284"/><path d="M23 26c0-1 2-1 2-3a3 3 0 0 0-2-2 2 2 0 0 1 0 1c0 2-3 2-3 4l3 2v1a3 3 0 0 1-2-1 3 3 0 0 0-1 2c0 2 2 3 4 3a4 4 0 0 0 1 0 2 2 0 0 1-2-1l2-4-2-2z" class="cls-1" data-name="Path 285"/><path d="M26 33l-2 1a4 4 0 0 1-3-1h-1v1a4 4 0 0 0 4 4 4 4 0 0 0 4-4 2 2 0 0 0-2-2 2 2 0 0 1-1-2 3 3 0 0 0-1 1c0 2 2 2 2 2zm1 1v1a2 2 0 0 1-1 2l-1-1 1-1 1-1z" class="cls-1" data-name="Path 286"/><path d="M10 35a1 1 0 0 0 2 0 1 1 0 0 0 1 1 1 1 0 0 0 1-1 1 1 0 0 0 0-1 1 1 0 0 0 0-2 1 1 0 0 0-1 0 1 1 0 0 0-1-1 1 1 0 0 0-1 2 1 1 0 0 0-1 2zm2-2a1 1 0 0 1 1 1 1 1 0 0 1 0 1 1 1 0 0 1-1-1 1 1 0 0 1 0-1z" class="cls-1" data-name="Path 287"/></svg>