<svg version="1.1" id="Layer_1" xmlns="http://www.w3.org/2000/svg" xmlns:xlink="http://www.w3.org/1999/xlink" x="0px" y="0px"
     viewBox="0 0 60 60" style="enable-background:new 0 0 60 60;" xml:space="preserve" aria-hidden="true">
<path d="M30.6,57.4c-5,0-9.7-1.3-13.7-3.5l-15.7,5l5.1-15.1c-2.6-4.2-4.1-9.2-4.1-14.5c0-15.6,12.7-28.2,28.4-28.2
	C46.3,1.1,59,13.7,59,29.3S46.3,57.4,30.6,57.4z M30.6,5.6C17.4,5.6,6.7,16.2,6.7,29.3c0,5.2,1.7,10,4.5,13.9l-3,8.8l9.2-2.9
	c3.8,2.5,8.3,3.9,13.1,3.9c13.2,0,23.9-10.6,23.9-23.7S43.8,5.6,30.6,5.6L30.6,5.6z M44.9,35.7c-0.2-0.3-0.6-0.5-1.3-0.8
	c-0.7-0.3-4.1-2-4.8-2.2c-0.6-0.2-1.1-0.3-1.6,0.3s-1.8,2.2-2.2,2.7c-0.4,0.5-0.8,0.5-1.5,0.2c-0.7-0.3-2.9-1.1-5.6-3.4
	c-2.1-1.8-3.5-4.1-3.9-4.8c-0.4-0.7,0-1.1,0.3-1.4c0.3-0.3,0.7-0.8,1-1.2c0.3-0.4,0.5-0.7,0.7-1.2c0.2-0.5,0.1-0.9-0.1-1.2
	c-0.2-0.3-1.6-3.7-2.1-5.1c-0.6-1.4-1.2-1.2-1.6-1.2c-0.4,0-0.9-0.1-1.3-0.1s-1.2,0.2-1.9,0.9c-0.6,0.7-2.4,2.4-2.4,5.8
	c0,3.4,2.5,6.7,2.8,7.1c0.3,0.5,4.8,7.7,11.9,10.4c7.1,2.8,7.1,1.8,8.4,1.7c1.3-0.1,4.1-1.7,4.7-3.3C45.1,37.4,45.1,36,44.9,35.7
	L44.9,35.7z"/>
</svg>
