<svg xmlns="http://www.w3.org/2000/svg" xmlns:xlink="http://www.w3.org/1999/xlink" viewBox="100 0 143.61 435.1"
     class="main-logo__icon" aria-hidden="true">
    <g fill="#ff7875">
        <path d="M81.08 198.47c-1.8-7.86-3-14.52-3-20 0-12.7 12.1-23.6 17.55-31.46 10.9-15.73 13.9-29 13.9-44.78 0-36.3-32.07-88.34-61.72-88.34C16.34 13.92 0 55.67 0 92.58c0 22.42 2.42 42.36 23.6 59.9 14.52 12.1 27.83 19.36 29.65 31.46.6 3.63 1.2 10.3 1.8 15.13l12.7 187C69 404.2 78.06 415.1 95.6 415.1c18.75 0 27.83-17.55 24.2-33.28z" />
        <path d="M313.44 269.27c-12.7-2.42-24.2-3.63-34.5-5.45-24.2-3-52.64-7.86-69.58-12.7-6.66-1.82-1.22-4.84.6-6.05 26-14.53 49-33.9 62.93-53.25 20.57-24.8 32.68-49.62 32.68-78.06 0-41.15-25.42-77.45-74.43-96.82A203.44 203.44 0 00148.25 0c-21.18 0-44.78.6-44.78 13.92 0 5.44 10.3 3 32.68 6 63.53 8.52 119.85 43 119.85 96.26s-41.75 96.2-79.88 111.94c-12.7 5.45-38.72 11.5-47.8 16.95-7.26 4.23-7.26 19.36 4.24 26 24.8 14.52 69 20 105.28 20 33.3 0 53.86-2.42 77.46-12.1 4.8-1.83 4.2-8.5-1.86-9.7z" />
    </g>
</svg>
