<svg version="1.1" id="Layer_1" xmlns="http://www.w3.org/2000/svg" xmlns:xlink="http://www.w3.org/1999/xlink" x="0px" y="0px"
     viewBox="0 0 46.5 32.5" style="enable-background:new 0 0 46.5 32.5;" xml:space="preserve" aria-hidden="true">
<path d="M45.6,5.1c-0.5-2-2.1-3.6-4.1-4.1c-3.6-1-18.2-1-18.2-1S8.7,0,5.1,1C3.1,1.5,1.5,3.1,1,5.1C0,8.7,0,16.2,0,16.2
		s0,7.6,1,11.2c0.5,2,2.1,3.6,4.1,4.1c3.6,1,18.2,1,18.2,1s14.5,0,18.2-1c2-0.5,3.6-2.1,4.1-4.1c1-3.6,1-11.2,1-11.2
		S46.5,8.7,45.6,5.1z M18.9,23.1V9.4l11.9,6.8L18.9,23.1z"/>
</svg>
